<?xml version="1.0" encoding="UTF-8" standalone="no"?>
<!DOCTYPE svg PUBLIC "-//W3C//DTD SVG 1.1//EN"
 "http://www.w3.org/Graphics/SVG/1.1/DTD/svg11.dtd">
<!-- Generated by graphviz version 14.1.4 (0)
 -->
<!-- Title: G Pages: 1 -->
<svg width="74pt" height="107pt"
 viewBox="0.00 0.00 74.00 107.00" xmlns="http://www.w3.org/2000/svg" xmlns:xlink="http://www.w3.org/1999/xlink">
<g id="graph0" class="graph" transform="scale(1 1) rotate(0) translate(4 103.13)">
<title>G</title>
<polygon fill="white" stroke="none" points="-4,4 -4,-103.13 69.98,-103.13 69.98,4 -4,4"/>
<!-- n0in1 -->
<!-- n1 -->
<!-- mark_o -->
<g id="n1" class="node">
<title>n1</title>
<polygon fill="lightblue" stroke="none" points="58.99,-61.69 6.99,-61.69 6.99,-37.44 58.99,-37.44 58.99,-61.69"/>
<polygon fill="none" stroke="black" points="6.99,-37.44 6.99,-61.69 58.99,-61.69 58.99,-37.44 6.99,-37.44"/>
<text xml:space="preserve" text-anchor="start" x="11.99" y="-46.94" font-family="Serif" font-size="14.00">mark_o</text>
</g>
<!-- n0in1&#45;&gt;n1 -->
<g id="e1" class="edge">
<title>n0in1:s&#45;&gt;n1:n</title>
<path fill="none" stroke="black" d="M32.99,-97.69C32.99,-84.06 32.99,-79.14 32.99,-68.1"/>
<polygon fill="black" stroke="black" points="34.74,-68.2 32.99,-63.2 31.24,-68.2 34.74,-68.2"/>
</g>
<!-- n0out1 -->
<!-- n0out2 -->
<!-- n0out1&#45;&gt;n0out2 -->
<!-- n1&#45;&gt;n0out1 -->
<g id="e2" class="edge">
<title>n1:s&#45;&gt;n0out1:n</title>
<path fill="none" stroke="black" d="M19.99,-37.44C19.99,-23.35 14.08,-19 12.42,-7.65"/>
<polygon fill="black" stroke="black" points="14.18,-7.82 12.09,-2.95 10.69,-8.06 14.18,-7.82"/>
</g>
<!-- n1&#45;&gt;n0out2 -->
<g id="e3" class="edge">
<title>n1:s&#45;&gt;n0out2:n</title>
<path fill="none" stroke="black" d="M45.99,-37.44C45.99,-23.35 51.9,-19 53.56,-7.65"/>
<polygon fill="black" stroke="black" points="55.28,-8.06 53.88,-2.95 51.79,-7.82 55.28,-8.06"/>
</g>
</g>
</svg>
