<?xml version="1.0" encoding="UTF-8" standalone="no"?>
<!DOCTYPE svg PUBLIC "-//W3C//DTD SVG 1.1//EN"
 "http://www.w3.org/Graphics/SVG/1.1/DTD/svg11.dtd">
<!-- Generated by graphviz version 14.1.4 (0)
 -->
<!-- Title: G Pages: 1 -->
<svg width="340pt" height="529pt"
 viewBox="0.00 0.00 340.00 529.00" xmlns="http://www.w3.org/2000/svg" xmlns:xlink="http://www.w3.org/1999/xlink">
<g id="graph0" class="graph" transform="scale(1 1) rotate(0) translate(4 524.88)">
<title>G</title>
<polygon fill="white" stroke="none" points="-4,4 -4,-524.88 336,-524.88 336,4 -4,4"/>
<!-- n0in1 -->
<!-- n1 -->
<!-- mark_x -->
<g id="n1" class="node">
<title>n1</title>
<polygon fill="lightblue" stroke="none" points="282,-483.44 230,-483.44 230,-459.19 282,-459.19 282,-483.44"/>
<polygon fill="none" stroke="black" points="230,-459.19 230,-483.44 282,-483.44 282,-459.19 230,-459.19"/>
<text xml:space="preserve" text-anchor="start" x="235" y="-468.69" font-family="Serif" font-size="14.00">mark_x</text>
</g>
<!-- n0in1&#45;&gt;n1 -->
<g id="e1" class="edge">
<title>n0in1:s&#45;&gt;n1:n</title>
<path fill="none" stroke="black" d="M256,-519.44C256,-505.81 256,-500.89 256,-489.85"/>
<polygon fill="black" stroke="black" points="257.75,-489.95 256,-484.95 254.25,-489.95 257.75,-489.95"/>
</g>
<!-- n0out1 -->
<!-- n0out2 -->
<!-- n0out1&#45;&gt;n0out2 -->
<!-- n0out3 -->
<!-- n0out2&#45;&gt;n0out3 -->
<!-- n1&#45;&gt;n0out3 -->
<g id="e12" class="edge">
<title>n1:s&#45;&gt;n0out3:n</title>
<path fill="none" stroke="black" d="M269,-459.19C269,-431.52 332,-379.48 332,-351.81 332,-351.81 332,-351.81 332,-108.81 332,-60.37 297.2,-52.67 294.2,-7.73"/>
<polygon fill="black" stroke="black" points="295.96,-7.89 294.05,-2.95 292.46,-8.01 295.96,-7.89"/>
</g>
<!-- n2 -->
<!-- x_wins_rows -->
<g id="n2" class="node">
<title>n2</title>
<polygon fill="lightblue" stroke="none" points="101,-423.19 19,-423.19 19,-398.94 101,-398.94 101,-423.19"/>
<polygon fill="none" stroke="black" points="19,-398.94 19,-423.19 101,-423.19 101,-398.94 19,-398.94"/>
<text xml:space="preserve" text-anchor="start" x="24" y="-408.44" font-family="Serif" font-size="14.00">x_wins_rows</text>
</g>
<!-- n1&#45;&gt;n2 -->
<g id="e9" class="edge">
<title>n1:s&#45;&gt;n2:n</title>
<path fill="none" stroke="black" d="M243,-459.19C243,-378.56 69.87,-499.14 60.4,-429.52"/>
<polygon fill="black" stroke="black" points="62.16,-429.58 60.1,-424.7 58.67,-429.8 62.16,-429.58"/>
</g>
<!-- n2&#45;&gt;n0out1 -->
<g id="e14" class="edge">
<title>n2:s&#45;&gt;n0out1:n</title>
<path fill="none" stroke="black" d="M39.5,-398.94C39.5,-386.23 0,-304.28 0,-291.56 0,-291.56 0,-291.56 0,-108.81 0,-83.81 48.85,-36.23 56.1,-7.87"/>
<polygon fill="black" stroke="black" points="57.83,-8.13 56.79,-2.94 54.37,-7.65 57.83,-8.13"/>
</g>
<!-- n3 -->
<!-- x_wins_diag1 -->
<g id="n3" class="node">
<title>n3</title>
<polygon fill="lightblue" stroke="none" points="122.88,-362.94 37.12,-362.94 37.12,-338.69 122.88,-338.69 122.88,-362.94"/>
<polygon fill="none" stroke="black" points="37.12,-338.69 37.12,-362.94 122.88,-362.94 122.88,-338.69 37.12,-338.69"/>
<text xml:space="preserve" text-anchor="start" x="42.12" y="-348.19" font-family="Serif" font-size="14.00">x_wins_diag1</text>
</g>
<!-- n2&#45;&gt;n3 -->
<g id="e2" class="edge">
<title>n2:s&#45;&gt;n3:n</title>
<path fill="none" stroke="black" d="M80.5,-398.94C80.5,-385.31 80.14,-380.39 80.03,-369.35"/>
<polygon fill="black" stroke="black" points="81.78,-369.45 80.01,-364.45 78.28,-369.46 81.78,-369.45"/>
</g>
<!-- n3&#45;&gt;n0out1 -->
<g id="e13" class="edge">
<title>n3:s&#45;&gt;n0out1:n</title>
<path fill="none" stroke="black" d="M58.56,-338.69C58.56,-290.1 38,-279.9 38,-231.31 38,-231.31 38,-231.31 38,-108.81 38,-62.53 55.33,-50.92 56.89,-7.75"/>
<polygon fill="black" stroke="black" points="58.63,-7.98 56.97,-2.95 55.13,-7.92 58.63,-7.98"/>
</g>
<!-- n4 -->
<!-- x_wins_diag2 -->
<g id="n4" class="node">
<title>n4</title>
<polygon fill="lightblue" stroke="none" points="151.88,-302.69 66.12,-302.69 66.12,-278.44 151.88,-278.44 151.88,-302.69"/>
<polygon fill="none" stroke="black" points="66.12,-278.44 66.12,-302.69 151.88,-302.69 151.88,-278.44 66.12,-278.44"/>
<text xml:space="preserve" text-anchor="start" x="71.12" y="-287.94" font-family="Serif" font-size="14.00">x_wins_diag2</text>
</g>
<!-- n3&#45;&gt;n4 -->
<g id="e8" class="edge">
<title>n3:s&#45;&gt;n4:n</title>
<path fill="none" stroke="black" d="M101.44,-338.69C101.44,-324.64 107.02,-320.23 108.59,-308.89"/>
<polygon fill="black" stroke="black" points="110.32,-309.3 108.9,-304.2 106.83,-309.07 110.32,-309.3"/>
</g>
<!-- n4&#45;&gt;n0out1 -->
<g id="e15" class="edge">
<title>n4:s&#45;&gt;n0out1:n</title>
<path fill="none" stroke="black" d="M87.56,-278.44C87.56,-230.44 76,-219.06 76,-171.06 76,-171.06 76,-171.06 76,-108.81 76,-62.53 58.67,-50.92 57.11,-7.75"/>
<polygon fill="black" stroke="black" points="58.87,-7.92 57.03,-2.95 55.37,-7.98 58.87,-7.92"/>
</g>
<!-- n5 -->
<!-- mark_o -->
<g id="n5" class="node">
<title>n5</title>
<polygon fill="lightblue" stroke="none" points="186,-242.44 134,-242.44 134,-218.19 186,-218.19 186,-242.44"/>
<polygon fill="none" stroke="black" points="134,-218.19 134,-242.44 186,-242.44 186,-218.19 134,-218.19"/>
<text xml:space="preserve" text-anchor="start" x="139" y="-227.69" font-family="Serif" font-size="14.00">mark_o</text>
</g>
<!-- n4&#45;&gt;n5 -->
<g id="e5" class="edge">
<title>n4:s&#45;&gt;n5:n</title>
<path fill="none" stroke="black" d="M130.44,-278.44C130.44,-260.16 153.48,-262.23 158.88,-248.73"/>
<polygon fill="black" stroke="black" points="160.58,-249.16 159.73,-243.93 157.13,-248.54 160.58,-249.16"/>
</g>
<!-- n5&#45;&gt;n0out3 -->
<g id="e11" class="edge">
<title>n5:s&#45;&gt;n0out3:n</title>
<path fill="none" stroke="black" d="M173,-218.19C173,-198.96 186.35,-198.2 197,-182.19 246.32,-108.06 291.82,-93.29 293.92,-7.72"/>
<polygon fill="black" stroke="black" points="295.67,-7.97 293.98,-2.95 292.17,-7.93 295.67,-7.97"/>
</g>
<!-- n6 -->
<!-- x_wins_rows -->
<g id="n6" class="node">
<title>n6</title>
<polygon fill="lightblue" stroke="none" points="188,-182.19 106,-182.19 106,-157.94 188,-157.94 188,-182.19"/>
<polygon fill="none" stroke="black" points="106,-157.94 106,-182.19 188,-182.19 188,-157.94 106,-157.94"/>
<text xml:space="preserve" text-anchor="start" x="111" y="-167.44" font-family="Serif" font-size="14.00">x_wins_rows</text>
</g>
<!-- n5&#45;&gt;n6 -->
<g id="e4" class="edge">
<title>n5:s&#45;&gt;n6:n</title>
<path fill="none" stroke="black" d="M147,-218.19C147,-204.56 147,-199.64 147,-188.6"/>
<polygon fill="black" stroke="black" points="148.75,-188.7 147,-183.7 145.25,-188.7 148.75,-188.7"/>
</g>
<!-- n6&#45;&gt;n0out2 -->
<g id="e17" class="edge">
<title>n6:s&#45;&gt;n0out2:n</title>
<path fill="none" stroke="black" d="M126.5,-157.94C126.5,-131.01 128.94,-124.32 133,-97.69 139.23,-56.77 150.75,-46.1 151.91,-7.83"/>
<polygon fill="black" stroke="black" points="153.65,-7.98 151.98,-2.95 150.15,-7.93 153.65,-7.98"/>
</g>
<!-- n7 -->
<!-- x_wins_diag1 -->
<g id="n7" class="node">
<title>n7</title>
<polygon fill="lightblue" stroke="none" points="227.88,-121.94 142.12,-121.94 142.12,-97.69 227.88,-97.69 227.88,-121.94"/>
<polygon fill="none" stroke="black" points="142.12,-97.69 142.12,-121.94 227.88,-121.94 227.88,-97.69 142.12,-97.69"/>
<text xml:space="preserve" text-anchor="start" x="147.12" y="-107.19" font-family="Serif" font-size="14.00">x_wins_diag1</text>
</g>
<!-- n6&#45;&gt;n7 -->
<g id="e6" class="edge">
<title>n6:s&#45;&gt;n7:n</title>
<path fill="none" stroke="black" d="M167.5,-157.94C167.5,-142.51 180.66,-140.15 184.16,-128.19"/>
<polygon fill="black" stroke="black" points="185.86,-128.63 184.8,-123.44 182.39,-128.16 185.86,-128.63"/>
</g>
<!-- n7&#45;&gt;n0out2 -->
<g id="e16" class="edge">
<title>n7:s&#45;&gt;n0out2:n</title>
<path fill="none" stroke="black" d="M163.56,-97.69C163.56,-56.79 153.14,-45.63 152.09,-7.76"/>
<polygon fill="black" stroke="black" points="153.84,-7.93 152.02,-2.95 150.34,-7.98 153.84,-7.93"/>
</g>
<!-- n8 -->
<!-- x_wins_diag2 -->
<g id="n8" class="node">
<title>n8</title>
<polygon fill="lightblue" stroke="none" points="265.88,-61.69 180.12,-61.69 180.12,-37.44 265.88,-37.44 265.88,-61.69"/>
<polygon fill="none" stroke="black" points="180.12,-37.44 180.12,-61.69 265.88,-61.69 265.88,-37.44 180.12,-37.44"/>
<text xml:space="preserve" text-anchor="start" x="185.12" y="-46.94" font-family="Serif" font-size="14.00">x_wins_diag2</text>
</g>
<!-- n7&#45;&gt;n8 -->
<g id="e3" class="edge">
<title>n7:s&#45;&gt;n8:n</title>
<path fill="none" stroke="black" d="M206.44,-97.69C206.44,-82.42 218.89,-79.81 222.2,-67.9"/>
<polygon fill="black" stroke="black" points="223.9,-68.37 222.81,-63.19 220.43,-67.93 223.9,-68.37"/>
</g>
<!-- n8&#45;&gt;n0out2 -->
<g id="e10" class="edge">
<title>n8:s&#45;&gt;n0out2:n</title>
<path fill="none" stroke="black" d="M201.56,-37.44C201.56,-12.55 160.15,-25.83 153.04,-7.51"/>
<polygon fill="black" stroke="black" points="154.82,-7.57 152.25,-2.93 151.37,-8.16 154.82,-7.57"/>
</g>
<!-- n8&#45;&gt;n1 -->
<g id="e7" class="edge">
<title>n8:s&#45;&gt;n1:n</title>
<path fill="none" stroke="black" d="M244.44,-36.44C244.44,-26.9 259.29,-30.54 265.88,-37.44 306.38,-79.88 256,-110.4 256,-169.06 256,-351.81 256,-351.81 256,-351.81 256,-400.92 276.18,-410.43 282,-459.19 283.28,-469.89 289.47,-475.67 282,-483.44 275.86,-489.82 263.88,-493.8 258.6,-490.12"/>
<polygon fill="black" stroke="black" points="260.31,-489.63 256.63,-485.82 257.12,-491.09 260.31,-489.63"/>
</g>
</g>
</svg>
