<?xml version="1.0" encoding="UTF-8" standalone="no"?>
<!DOCTYPE svg PUBLIC "-//W3C//DTD SVG 1.1//EN"
 "http://www.w3.org/Graphics/SVG/1.1/DTD/svg11.dtd">
<!-- Generated by graphviz version 14.1.4 (0)
 -->
<!-- Title: G Pages: 1 -->
<svg width="338pt" height="529pt"
 viewBox="0.00 0.00 338.00 529.00" xmlns="http://www.w3.org/2000/svg" xmlns:xlink="http://www.w3.org/1999/xlink">
<g id="graph0" class="graph" transform="scale(1 1) rotate(0) translate(4 524.88)">
<title>G</title>
<polygon fill="white" stroke="none" points="-4,4 -4,-524.88 334,-524.88 334,4 -4,4"/>
<!-- n0in1 -->
<!-- n1 -->
<!-- mark_x -->
<g id="n1" class="node">
<title>n1</title>
<polygon fill="lightblue" stroke="none" points="280,-483.44 228,-483.44 228,-459.19 280,-459.19 280,-483.44"/>
<polygon fill="none" stroke="black" points="228,-459.19 228,-483.44 280,-483.44 280,-459.19 228,-459.19"/>
<text xml:space="preserve" text-anchor="start" x="233" y="-468.69" font-family="Serif" font-size="14.00">mark_x</text>
</g>
<!-- n0in1&#45;&gt;n1 -->
<g id="e1" class="edge">
<title>n0in1:s&#45;&gt;n1:n</title>
<path fill="none" stroke="black" d="M254,-519.44C254,-505.81 254,-500.89 254,-489.85"/>
<polygon fill="black" stroke="black" points="255.75,-489.95 254,-484.95 252.25,-489.95 255.75,-489.95"/>
</g>
<!-- n0out1 -->
<!-- n0out2 -->
<!-- n0out1&#45;&gt;n0out2 -->
<!-- n0out3 -->
<!-- n0out2&#45;&gt;n0out3 -->
<!-- n1&#45;&gt;n0out3 -->
<g id="e12" class="edge">
<title>n1:s&#45;&gt;n0out3:n</title>
<path fill="none" stroke="black" d="M267,-459.19C267,-431.52 330,-379.48 330,-351.81 330,-351.81 330,-351.81 330,-108.81 330,-60.37 295.2,-52.67 292.2,-7.73"/>
<polygon fill="black" stroke="black" points="293.96,-7.89 292.05,-2.95 290.46,-8.01 293.96,-7.89"/>
</g>
<!-- n2 -->
<!-- x_wins_rows -->
<g id="n2" class="node">
<title>n2</title>
<polygon fill="lightblue" stroke="none" points="99,-423.19 17,-423.19 17,-398.94 99,-398.94 99,-423.19"/>
<polygon fill="none" stroke="black" points="17,-398.94 17,-423.19 99,-423.19 99,-398.94 17,-398.94"/>
<text xml:space="preserve" text-anchor="start" x="22" y="-408.44" font-family="Serif" font-size="14.00">x_wins_rows</text>
</g>
<!-- n1&#45;&gt;n2 -->
<g id="e9" class="edge">
<title>n1:s&#45;&gt;n2:n</title>
<path fill="none" stroke="black" d="M241,-459.19C241,-378.56 67.87,-499.14 58.4,-429.52"/>
<polygon fill="black" stroke="black" points="60.16,-429.58 58.1,-424.7 56.67,-429.8 60.16,-429.58"/>
</g>
<!-- n2&#45;&gt;n0out1 -->
<g id="e14" class="edge">
<title>n2:s&#45;&gt;n0out1:n</title>
<path fill="none" stroke="black" d="M37.5,-398.94C37.5,-348.39 0,-342.11 0,-291.56 0,-291.56 0,-291.56 0,-108.81 0,-83.81 48.85,-36.23 56.1,-7.87"/>
<polygon fill="black" stroke="black" points="57.83,-8.13 56.79,-2.94 54.37,-7.65 57.83,-8.13"/>
</g>
<!-- n3 -->
<!-- x_wins_cols -->
<g id="n3" class="node">
<title>n3</title>
<polygon fill="lightblue" stroke="none" points="116.75,-362.94 39.25,-362.94 39.25,-338.69 116.75,-338.69 116.75,-362.94"/>
<polygon fill="none" stroke="black" points="39.25,-338.69 39.25,-362.94 116.75,-362.94 116.75,-338.69 39.25,-338.69"/>
<text xml:space="preserve" text-anchor="start" x="44.25" y="-348.19" font-family="Serif" font-size="14.00">x_wins_cols</text>
</g>
<!-- n2&#45;&gt;n3 -->
<g id="e2" class="edge">
<title>n2:s&#45;&gt;n3:n</title>
<path fill="none" stroke="black" d="M78.5,-398.94C78.5,-385.31 78.14,-380.39 78.03,-369.35"/>
<polygon fill="black" stroke="black" points="79.78,-369.45 78.01,-364.45 76.28,-369.46 79.78,-369.45"/>
</g>
<!-- n3&#45;&gt;n0out1 -->
<g id="e13" class="edge">
<title>n3:s&#45;&gt;n0out1:n</title>
<path fill="none" stroke="black" d="M58.62,-338.69C58.62,-290.1 38,-279.91 38,-231.31 38,-231.31 38,-231.31 38,-108.81 38,-62.53 55.33,-50.92 56.89,-7.75"/>
<polygon fill="black" stroke="black" points="58.63,-7.98 56.97,-2.95 55.13,-7.92 58.63,-7.98"/>
</g>
<!-- n4 -->
<!-- x_wins_diags -->
<g id="n4" class="node">
<title>n4</title>
<polygon fill="lightblue" stroke="none" points="150.12,-302.69 65.88,-302.69 65.88,-278.44 150.12,-278.44 150.12,-302.69"/>
<polygon fill="none" stroke="black" points="65.88,-278.44 65.88,-302.69 150.12,-302.69 150.12,-278.44 65.88,-278.44"/>
<text xml:space="preserve" text-anchor="start" x="70.88" y="-287.94" font-family="Serif" font-size="14.00">x_wins_diags</text>
</g>
<!-- n3&#45;&gt;n4 -->
<g id="e8" class="edge">
<title>n3:s&#45;&gt;n4:n</title>
<path fill="none" stroke="black" d="M97.38,-338.69C97.38,-324.35 105.22,-320.39 107.43,-308.97"/>
<polygon fill="black" stroke="black" points="109.15,-309.34 107.86,-304.2 105.67,-309.02 109.15,-309.34"/>
</g>
<!-- n4&#45;&gt;n0out1 -->
<g id="e15" class="edge">
<title>n4:s&#45;&gt;n0out1:n</title>
<path fill="none" stroke="black" d="M86.94,-278.44C86.94,-230.47 76,-219.03 76,-171.06 76,-171.06 76,-171.06 76,-108.81 76,-62.53 58.67,-50.92 57.11,-7.75"/>
<polygon fill="black" stroke="black" points="58.87,-7.92 57.03,-2.95 55.37,-7.98 58.87,-7.92"/>
</g>
<!-- n5 -->
<!-- mark_o -->
<g id="n5" class="node">
<title>n5</title>
<polygon fill="lightblue" stroke="none" points="185,-242.44 133,-242.44 133,-218.19 185,-218.19 185,-242.44"/>
<polygon fill="none" stroke="black" points="133,-218.19 133,-242.44 185,-242.44 185,-218.19 133,-218.19"/>
<text xml:space="preserve" text-anchor="start" x="138" y="-227.69" font-family="Serif" font-size="14.00">mark_o</text>
</g>
<!-- n4&#45;&gt;n5 -->
<g id="e5" class="edge">
<title>n4:s&#45;&gt;n5:n</title>
<path fill="none" stroke="black" d="M129.06,-278.44C129.06,-260.07 152.39,-262.3 157.86,-248.75"/>
<polygon fill="black" stroke="black" points="159.57,-249.16 158.73,-243.93 156.12,-248.54 159.57,-249.16"/>
</g>
<!-- n5&#45;&gt;n0out3 -->
<g id="e11" class="edge">
<title>n5:s&#45;&gt;n0out3:n</title>
<path fill="none" stroke="black" d="M172,-218.19C172,-198.96 185.49,-198.29 196,-182.19 244.55,-107.81 289.83,-93.07 291.92,-7.71"/>
<polygon fill="black" stroke="black" points="293.67,-7.97 291.98,-2.95 290.17,-7.93 293.67,-7.97"/>
</g>
<!-- n6 -->
<!-- o_wins_rows -->
<g id="n6" class="node">
<title>n6</title>
<polygon fill="lightblue" stroke="none" points="187,-182.19 105,-182.19 105,-157.94 187,-157.94 187,-182.19"/>
<polygon fill="none" stroke="black" points="105,-157.94 105,-182.19 187,-182.19 187,-157.94 105,-157.94"/>
<text xml:space="preserve" text-anchor="start" x="110" y="-167.44" font-family="Serif" font-size="14.00">o_wins_rows</text>
</g>
<!-- n5&#45;&gt;n6 -->
<g id="e4" class="edge">
<title>n5:s&#45;&gt;n6:n</title>
<path fill="none" stroke="black" d="M146,-218.19C146,-204.56 146,-199.64 146,-188.6"/>
<polygon fill="black" stroke="black" points="147.75,-188.7 146,-183.7 144.25,-188.7 147.75,-188.7"/>
</g>
<!-- n6&#45;&gt;n0out2 -->
<g id="e17" class="edge">
<title>n6:s&#45;&gt;n0out2:n</title>
<path fill="none" stroke="black" d="M125.5,-157.94C125.5,-130.96 128.72,-124.33 133,-97.69 139.57,-56.83 150.79,-46.1 151.91,-7.83"/>
<polygon fill="black" stroke="black" points="153.66,-7.98 151.98,-2.95 150.16,-7.93 153.66,-7.98"/>
</g>
<!-- n7 -->
<!-- o_wins_cols -->
<g id="n7" class="node">
<title>n7</title>
<polygon fill="lightblue" stroke="none" points="219.75,-121.94 142.25,-121.94 142.25,-97.69 219.75,-97.69 219.75,-121.94"/>
<polygon fill="none" stroke="black" points="142.25,-97.69 142.25,-121.94 219.75,-121.94 219.75,-97.69 142.25,-97.69"/>
<text xml:space="preserve" text-anchor="start" x="147.25" y="-107.19" font-family="Serif" font-size="14.00">o_wins_cols</text>
</g>
<!-- n6&#45;&gt;n7 -->
<g id="e6" class="edge">
<title>n6:s&#45;&gt;n7:n</title>
<path fill="none" stroke="black" d="M166.5,-157.94C166.5,-143.12 177.21,-139.92 180.22,-128.37"/>
<polygon fill="black" stroke="black" points="181.95,-128.62 180.82,-123.44 178.48,-128.2 181.95,-128.62"/>
</g>
<!-- n7&#45;&gt;n0out2 -->
<g id="e16" class="edge">
<title>n7:s&#45;&gt;n0out2:n</title>
<path fill="none" stroke="black" d="M161.62,-97.69C161.62,-56.88 152.95,-45.56 152.07,-7.74"/>
<polygon fill="black" stroke="black" points="153.82,-7.93 152.02,-2.95 150.32,-7.97 153.82,-7.93"/>
</g>
<!-- n8 -->
<!-- o_wins_diags -->
<g id="n8" class="node">
<title>n8</title>
<polygon fill="lightblue" stroke="none" points="264.12,-61.69 179.88,-61.69 179.88,-37.44 264.12,-37.44 264.12,-61.69"/>
<polygon fill="none" stroke="black" points="179.88,-37.44 179.88,-61.69 264.12,-61.69 264.12,-37.44 179.88,-37.44"/>
<text xml:space="preserve" text-anchor="start" x="184.88" y="-46.94" font-family="Serif" font-size="14.00">o_wins_diags</text>
</g>
<!-- n7&#45;&gt;n8 -->
<g id="e3" class="edge">
<title>n7:s&#45;&gt;n8:n</title>
<path fill="none" stroke="black" d="M200.38,-97.69C200.38,-81.36 216.93,-80.33 221.07,-67.83"/>
<polygon fill="black" stroke="black" points="222.76,-68.39 221.77,-63.19 219.3,-67.87 222.76,-68.39"/>
</g>
<!-- n8&#45;&gt;n0out2 -->
<g id="e10" class="edge">
<title>n8:s&#45;&gt;n0out2:n</title>
<path fill="none" stroke="black" d="M200.94,-37.44C200.94,-12.76 160.05,-25.68 153.02,-7.46"/>
<polygon fill="black" stroke="black" points="154.82,-7.57 152.25,-2.93 151.36,-8.15 154.82,-7.57"/>
</g>
<!-- n8&#45;&gt;n1 -->
<g id="e7" class="edge">
<title>n8:s&#45;&gt;n1:n</title>
<path fill="none" stroke="black" d="M243.06,-36.44C243.06,-27.07 257.66,-30.66 264.12,-37.44 304.62,-79.9 254,-110.39 254,-169.06 254,-351.81 254,-351.81 254,-351.81 254,-400.92 274.18,-410.43 280,-459.19 281.28,-469.89 287.47,-475.67 280,-483.44 273.86,-489.82 261.88,-493.8 256.6,-490.12"/>
<polygon fill="black" stroke="black" points="258.31,-489.63 254.63,-485.82 255.12,-491.09 258.31,-489.63"/>
</g>
</g>
</svg>
