<?xml version="1.0" encoding="UTF-8" standalone="no"?>
<!DOCTYPE svg PUBLIC "-//W3C//DTD SVG 1.1//EN"
 "http://www.w3.org/Graphics/SVG/1.1/DTD/svg11.dtd">
<!-- Generated by graphviz version 14.1.4 (0)
 -->
<!-- Title: G Pages: 1 -->
<svg width="166pt" height="228pt"
 viewBox="0.00 0.00 166.00 228.00" xmlns="http://www.w3.org/2000/svg" xmlns:xlink="http://www.w3.org/1999/xlink">
<g id="graph0" class="graph" transform="scale(1 1) rotate(0) translate(4 223.63)">
<title>G</title>
<polygon fill="white" stroke="none" points="-4,4 -4,-223.63 162.12,-223.63 162.12,4 -4,4"/>
<!-- n0in1 -->
<!-- n1 -->
<!-- x_wins_rows -->
<g id="n1" class="node">
<title>n1</title>
<polygon fill="lightblue" stroke="none" points="82,-182.19 0,-182.19 0,-157.94 82,-157.94 82,-182.19"/>
<polygon fill="none" stroke="black" points="0,-157.94 0,-182.19 82,-182.19 82,-157.94 0,-157.94"/>
<text xml:space="preserve" text-anchor="start" x="5" y="-167.44" font-family="Serif" font-size="14.00">x_wins_rows</text>
</g>
<!-- n0in1&#45;&gt;n1 -->
<g id="e1" class="edge">
<title>n0in1:s&#45;&gt;n1:n</title>
<path fill="none" stroke="black" d="M41,-218.19C41,-204.56 41,-199.64 41,-188.6"/>
<polygon fill="black" stroke="black" points="42.75,-188.7 41,-183.7 39.25,-188.7 42.75,-188.7"/>
</g>
<!-- n0out1 -->
<!-- n0out2 -->
<!-- n0out1&#45;&gt;n0out2 -->
<!-- n1&#45;&gt;n0out1 -->
<g id="e5" class="edge">
<title>n1:s&#45;&gt;n0out1:n</title>
<path fill="none" stroke="black" d="M20.5,-157.94C20.5,-131.01 19.98,-123.69 27,-97.69 29.71,-87.66 61.42,-28.95 68.57,-7.61"/>
<polygon fill="black" stroke="black" points="70.24,-8.18 69.66,-2.91 66.83,-7.39 70.24,-8.18"/>
</g>
<!-- n2 -->
<!-- x_wins_cols -->
<g id="n2" class="node">
<title>n2</title>
<polygon fill="lightblue" stroke="none" points="113.75,-121.94 36.25,-121.94 36.25,-97.69 113.75,-97.69 113.75,-121.94"/>
<polygon fill="none" stroke="black" points="36.25,-97.69 36.25,-121.94 113.75,-121.94 113.75,-97.69 36.25,-97.69"/>
<text xml:space="preserve" text-anchor="start" x="41.25" y="-107.19" font-family="Serif" font-size="14.00">x_wins_cols</text>
</g>
<!-- n1&#45;&gt;n2 -->
<g id="e3" class="edge">
<title>n1:s&#45;&gt;n2:n</title>
<path fill="none" stroke="black" d="M61.5,-157.94C61.5,-143.25 71.47,-139.84 74.27,-128.33"/>
<polygon fill="black" stroke="black" points="76,-128.61 74.83,-123.44 72.53,-128.21 76,-128.61"/>
</g>
<!-- n2&#45;&gt;n0out1 -->
<g id="e4" class="edge">
<title>n2:s&#45;&gt;n0out1:n</title>
<path fill="none" stroke="black" d="M55.62,-97.69C55.62,-88.14 66.83,-28.87 69.45,-7.67"/>
<polygon fill="black" stroke="black" points="71.17,-8.08 69.87,-2.95 67.69,-7.78 71.17,-8.08"/>
</g>
<!-- n3 -->
<!-- x_wins_diags -->
<g id="n3" class="node">
<title>n3</title>
<polygon fill="lightblue" stroke="none" points="158.12,-61.69 73.88,-61.69 73.88,-37.44 158.12,-37.44 158.12,-61.69"/>
<polygon fill="none" stroke="black" points="73.88,-37.44 73.88,-61.69 158.12,-61.69 158.12,-37.44 73.88,-37.44"/>
<text xml:space="preserve" text-anchor="start" x="78.88" y="-46.94" font-family="Serif" font-size="14.00">x_wins_diags</text>
</g>
<!-- n2&#45;&gt;n3 -->
<g id="e2" class="edge">
<title>n2:s&#45;&gt;n3:n</title>
<path fill="none" stroke="black" d="M94.38,-97.69C94.38,-81.36 110.93,-80.33 115.07,-67.83"/>
<polygon fill="black" stroke="black" points="116.76,-68.39 115.77,-63.19 113.3,-67.87 116.76,-68.39"/>
</g>
<!-- n3&#45;&gt;n0out1 -->
<g id="e7" class="edge">
<title>n3:s&#45;&gt;n0out1:n</title>
<path fill="none" stroke="black" d="M94.94,-37.44C94.94,-20.41 75.84,-20.52 71.07,-7.78"/>
<polygon fill="black" stroke="black" points="72.81,-7.57 70.25,-2.93 69.36,-8.15 72.81,-7.57"/>
</g>
<!-- n3&#45;&gt;n0out2 -->
<g id="e6" class="edge">
<title>n3:s&#45;&gt;n0out2:n</title>
<path fill="none" stroke="black" d="M137.06,-37.44C137.06,-22.81 127.42,-19.31 124.7,-7.81"/>
<polygon fill="black" stroke="black" points="126.45,-7.72 124.17,-2.94 122.97,-8.11 126.45,-7.72"/>
</g>
</g>
</svg>
