<?xml version="1.0" encoding="UTF-8" standalone="no"?>
<!DOCTYPE svg PUBLIC "-//W3C//DTD SVG 1.1//EN"
 "http://www.w3.org/Graphics/SVG/1.1/DTD/svg11.dtd">
<!-- Generated by graphviz version 14.1.4 (0)
 -->
<!-- Title: G Pages: 1 -->
<svg width="177pt" height="288pt"
 viewBox="0.00 0.00 177.00 288.00" xmlns="http://www.w3.org/2000/svg" xmlns:xlink="http://www.w3.org/1999/xlink">
<g id="graph0" class="graph" transform="scale(1 1) rotate(0) translate(4 283.88)">
<title>G</title>
<polygon fill="white" stroke="none" points="-4,4 -4,-283.88 172.99,-283.88 172.99,4 -4,4"/>
<!-- n0in1 -->
<!-- n1 -->
<!-- mark_x -->
<g id="n1" class="node">
<title>n1</title>
<polygon fill="lightblue" stroke="none" points="127,-242.44 75,-242.44 75,-218.19 127,-218.19 127,-242.44"/>
<polygon fill="none" stroke="black" points="75,-218.19 75,-242.44 127,-242.44 127,-218.19 75,-218.19"/>
<text xml:space="preserve" text-anchor="start" x="80" y="-227.69" font-family="Serif" font-size="14.00">mark_x</text>
</g>
<!-- n0in1&#45;&gt;n1 -->
<g id="e1" class="edge">
<title>n0in1:s&#45;&gt;n1:n</title>
<path fill="none" stroke="black" d="M101,-278.44C101,-264.81 101,-259.89 101,-248.85"/>
<polygon fill="black" stroke="black" points="102.75,-248.95 101,-243.95 99.25,-248.95 102.75,-248.95"/>
</g>
<!-- n0out1 -->
<!-- n0out2 -->
<!-- n0out1&#45;&gt;n0out2 -->
<!-- n0out3 -->
<!-- n0out2&#45;&gt;n0out3 -->
<!-- n1&#45;&gt;n0out3 -->
<g id="e8" class="edge">
<title>n1:s&#45;&gt;n0out3:n</title>
<path fill="none" stroke="black" d="M114,-218.19C114,-122.19 155.09,-100.6 156.94,-7.94"/>
<polygon fill="black" stroke="black" points="158.69,-7.97 156.99,-2.95 155.19,-7.94 158.69,-7.97"/>
</g>
<!-- n2 -->
<!-- x_wins_rows -->
<g id="n2" class="node">
<title>n2</title>
<polygon fill="lightblue" stroke="none" points="82,-182.19 0,-182.19 0,-157.94 82,-157.94 82,-182.19"/>
<polygon fill="none" stroke="black" points="0,-157.94 0,-182.19 82,-182.19 82,-157.94 0,-157.94"/>
<text xml:space="preserve" text-anchor="start" x="5" y="-167.44" font-family="Serif" font-size="14.00">x_wins_rows</text>
</g>
<!-- n1&#45;&gt;n2 -->
<g id="e4" class="edge">
<title>n1:s&#45;&gt;n2:n</title>
<path fill="none" stroke="black" d="M88,-218.19C88,-194.34 49.4,-205.76 42.16,-188.53"/>
<polygon fill="black" stroke="black" points="43.9,-188.28 41.27,-183.68 40.45,-188.91 43.9,-188.28"/>
</g>
<!-- n2&#45;&gt;n0out1 -->
<g id="e5" class="edge">
<title>n2:s&#45;&gt;n0out1:n</title>
<path fill="none" stroke="black" d="M20.5,-157.94C20.5,-141.14 11.59,-138.54 9,-121.94 7.34,-111.29 7.13,-108.3 9,-97.69 10.74,-87.8 36.69,-29.23 42.74,-7.81"/>
<polygon fill="black" stroke="black" points="44.45,-8.17 43.71,-2.92 41.02,-7.49 44.45,-8.17"/>
</g>
<!-- n3 -->
<!-- x_wins_diag1 -->
<g id="n3" class="node">
<title>n3</title>
<polygon fill="lightblue" stroke="none" points="103.88,-121.94 18.12,-121.94 18.12,-97.69 103.88,-97.69 103.88,-121.94"/>
<polygon fill="none" stroke="black" points="18.12,-97.69 18.12,-121.94 103.88,-121.94 103.88,-97.69 18.12,-97.69"/>
<text xml:space="preserve" text-anchor="start" x="23.12" y="-107.19" font-family="Serif" font-size="14.00">x_wins_diag1</text>
</g>
<!-- n2&#45;&gt;n3 -->
<g id="e3" class="edge">
<title>n2:s&#45;&gt;n3:n</title>
<path fill="none" stroke="black" d="M61.5,-157.94C61.5,-144.31 61.14,-139.39 61.03,-128.35"/>
<polygon fill="black" stroke="black" points="62.78,-128.45 61.01,-123.45 59.28,-128.46 62.78,-128.45"/>
</g>
<!-- n3&#45;&gt;n0out1 -->
<g id="e9" class="edge">
<title>n3:s&#45;&gt;n0out1:n</title>
<path fill="none" stroke="black" d="M39.56,-97.69C39.56,-70.9 35.79,-64.14 38,-37.44 39.14,-23.67 42.69,-19.01 43.72,-7.91"/>
<polygon fill="black" stroke="black" points="45.46,-8.02 43.93,-2.95 41.97,-7.87 45.46,-8.02"/>
</g>
<!-- n4 -->
<!-- x_wins_diag2 -->
<g id="n4" class="node">
<title>n4</title>
<polygon fill="lightblue" stroke="none" points="132.88,-61.69 47.12,-61.69 47.12,-37.44 132.88,-37.44 132.88,-61.69"/>
<polygon fill="none" stroke="black" points="47.12,-37.44 47.12,-61.69 132.88,-61.69 132.88,-37.44 47.12,-37.44"/>
<text xml:space="preserve" text-anchor="start" x="52.12" y="-46.94" font-family="Serif" font-size="14.00">x_wins_diag2</text>
</g>
<!-- n3&#45;&gt;n4 -->
<g id="e2" class="edge">
<title>n3:s&#45;&gt;n4:n</title>
<path fill="none" stroke="black" d="M82.44,-97.69C82.44,-83.64 88.02,-79.23 89.59,-67.89"/>
<polygon fill="black" stroke="black" points="91.32,-68.3 89.9,-63.2 87.83,-68.07 91.32,-68.3"/>
</g>
<!-- n4&#45;&gt;n0out1 -->
<g id="e7" class="edge">
<title>n4:s&#45;&gt;n0out1:n</title>
<path fill="none" stroke="black" d="M68.56,-37.44C68.56,-20.49 49.76,-20.47 45.06,-7.75"/>
<polygon fill="black" stroke="black" points="46.8,-7.58 44.25,-2.93 43.35,-8.15 46.8,-7.58"/>
</g>
<!-- n4&#45;&gt;n0out2 -->
<g id="e6" class="edge">
<title>n4:s&#45;&gt;n0out2:n</title>
<path fill="none" stroke="black" d="M111.44,-37.44C111.44,-23.81 111.12,-18.89 111.03,-7.85"/>
<polygon fill="black" stroke="black" points="112.78,-7.95 111.01,-2.95 109.28,-7.96 112.78,-7.95"/>
</g>
</g>
</svg>
