<?xml version="1.0" encoding="UTF-8" standalone="no"?>
<!DOCTYPE svg PUBLIC "-//W3C//DTD SVG 1.1//EN"
 "http://www.w3.org/Graphics/SVG/1.1/DTD/svg11.dtd">
<!-- Generated by graphviz version 14.1.4 (0)
 -->
<!-- Title: G Pages: 1 -->
<svg width="359pt" height="529pt"
 viewBox="0.00 0.00 359.00 529.00" xmlns="http://www.w3.org/2000/svg" xmlns:xlink="http://www.w3.org/1999/xlink">
<g id="graph0" class="graph" transform="scale(1 1) rotate(0) translate(4 524.88)">
<title>G</title>
<polygon fill="white" stroke="none" points="-4,4 -4,-524.88 355,-524.88 355,4 -4,4"/>
<!-- n0in1 -->
<!-- n1 -->
<!-- mark_x -->
<g id="n1" class="node">
<title>n1</title>
<polygon fill="lightblue" stroke="none" points="339,-483.44 287,-483.44 287,-459.19 339,-459.19 339,-483.44"/>
<polygon fill="none" stroke="black" points="287,-459.19 287,-483.44 339,-483.44 339,-459.19 287,-459.19"/>
<text xml:space="preserve" text-anchor="start" x="292" y="-468.69" font-family="Serif" font-size="14.00">mark_x</text>
</g>
<!-- n0in1&#45;&gt;n1 -->
<g id="e1" class="edge">
<title>n0in1:s&#45;&gt;n1:n</title>
<path fill="none" stroke="black" d="M313,-519.44C313,-505.81 313,-500.89 313,-489.85"/>
<polygon fill="black" stroke="black" points="314.75,-489.95 313,-484.95 311.25,-489.95 314.75,-489.95"/>
</g>
<!-- n0out1 -->
<!-- n1&#45;&gt;n0out1 -->
<g id="e12" class="edge">
<title>n1:s&#45;&gt;n0out1:n</title>
<path fill="none" stroke="black" d="M326,-459.19C326,-442.46 332.94,-439.42 337,-423.19 344.84,-391.83 351,-384.14 351,-351.81 351,-351.81 351,-351.81 351,-108.81 351,-68.49 329.12,-58.93 295,-37.44 234.54,0.64 139.19,-70.49 133.29,-7.92"/>
<polygon fill="black" stroke="black" points="135.04,-7.87 133.07,-2.95 131.54,-8.02 135.04,-7.87"/>
</g>
<!-- n2 -->
<!-- x_wins_rows -->
<g id="n2" class="node">
<title>n2</title>
<polygon fill="lightblue" stroke="none" points="101,-423.19 19,-423.19 19,-398.94 101,-398.94 101,-423.19"/>
<polygon fill="none" stroke="black" points="19,-398.94 19,-423.19 101,-423.19 101,-398.94 19,-398.94"/>
<text xml:space="preserve" text-anchor="start" x="24" y="-408.44" font-family="Serif" font-size="14.00">x_wins_rows</text>
</g>
<!-- n1&#45;&gt;n2 -->
<g id="e3" class="edge">
<title>n1:s&#45;&gt;n2:n</title>
<path fill="none" stroke="black" d="M300,-459.19C300,-353.54 69.74,-523.8 60.3,-429.47"/>
<polygon fill="black" stroke="black" points="62.06,-429.61 60.07,-424.7 58.56,-429.78 62.06,-429.61"/>
</g>
<!-- n2&#45;&gt;n0out1 -->
<g id="e13" class="edge">
<title>n2:s&#45;&gt;n0out1:n</title>
<path fill="none" stroke="black" d="M39.5,-398.94C39.5,-386.23 0,-304.28 0,-291.56 0,-291.56 0,-291.56 0,-108.81 0,-67.09 28.13,-63.14 61,-37.44 87.31,-16.87 127.25,-34.51 132.44,-7.84"/>
<polygon fill="black" stroke="black" points="134.17,-8.08 132.87,-2.95 130.69,-7.78 134.17,-8.08"/>
</g>
<!-- n3 -->
<!-- x_wins_diag1 -->
<g id="n3" class="node">
<title>n3</title>
<polygon fill="lightblue" stroke="none" points="122.88,-362.94 37.12,-362.94 37.12,-338.69 122.88,-338.69 122.88,-362.94"/>
<polygon fill="none" stroke="black" points="37.12,-338.69 37.12,-362.94 122.88,-362.94 122.88,-338.69 37.12,-338.69"/>
<text xml:space="preserve" text-anchor="start" x="42.12" y="-348.19" font-family="Serif" font-size="14.00">x_wins_diag1</text>
</g>
<!-- n2&#45;&gt;n3 -->
<g id="e2" class="edge">
<title>n2:s&#45;&gt;n3:n</title>
<path fill="none" stroke="black" d="M80.5,-398.94C80.5,-385.31 80.14,-380.39 80.03,-369.35"/>
<polygon fill="black" stroke="black" points="81.78,-369.45 80.01,-364.45 78.28,-369.46 81.78,-369.45"/>
</g>
<!-- n3&#45;&gt;n0out1 -->
<g id="e15" class="edge">
<title>n3:s&#45;&gt;n0out1:n</title>
<path fill="none" stroke="black" d="M58.56,-338.69C58.56,-290.1 38,-279.9 38,-231.31 38,-231.31 38,-231.31 38,-108.81 38,-68.49 66.65,-67.07 94,-37.44 108.37,-21.87 128.4,-24.26 132.32,-7.8"/>
<polygon fill="black" stroke="black" points="134.05,-8.1 132.84,-2.94 130.57,-7.73 134.05,-8.1"/>
</g>
<!-- n4 -->
<!-- x_wins_diag2 -->
<g id="n4" class="node">
<title>n4</title>
<polygon fill="lightblue" stroke="none" points="151.88,-302.69 66.12,-302.69 66.12,-278.44 151.88,-278.44 151.88,-302.69"/>
<polygon fill="none" stroke="black" points="66.12,-278.44 66.12,-302.69 151.88,-302.69 151.88,-278.44 66.12,-278.44"/>
<text xml:space="preserve" text-anchor="start" x="71.12" y="-287.94" font-family="Serif" font-size="14.00">x_wins_diag2</text>
</g>
<!-- n3&#45;&gt;n4 -->
<g id="e9" class="edge">
<title>n3:s&#45;&gt;n4:n</title>
<path fill="none" stroke="black" d="M101.44,-338.69C101.44,-324.64 107.02,-320.23 108.59,-308.89"/>
<polygon fill="black" stroke="black" points="110.32,-309.3 108.9,-304.2 106.83,-309.07 110.32,-309.3"/>
</g>
<!-- n4&#45;&gt;n0out1 -->
<g id="e14" class="edge">
<title>n4:s&#45;&gt;n0out1:n</title>
<path fill="none" stroke="black" d="M87.56,-278.44C87.56,-230.44 76,-219.06 76,-171.06 76,-171.06 76,-171.06 76,-108.81 76,-57 128.42,-55.51 132.72,-7.82"/>
<polygon fill="black" stroke="black" points="134.46,-8.02 132.93,-2.95 130.97,-7.87 134.46,-8.02"/>
</g>
<!-- n5 -->
<!-- mark_x -->
<g id="n5" class="node">
<title>n5</title>
<polygon fill="lightblue" stroke="none" points="194,-242.44 142,-242.44 142,-218.19 194,-218.19 194,-242.44"/>
<polygon fill="none" stroke="black" points="142,-218.19 142,-242.44 194,-242.44 194,-218.19 142,-218.19"/>
<text xml:space="preserve" text-anchor="start" x="147" y="-227.69" font-family="Serif" font-size="14.00">mark_x</text>
</g>
<!-- n4&#45;&gt;n5 -->
<g id="e4" class="edge">
<title>n4:s&#45;&gt;n5:n</title>
<path fill="none" stroke="black" d="M130.44,-278.44C130.44,-257.66 160.76,-263.83 166.92,-248.52"/>
<polygon fill="black" stroke="black" points="168.58,-249.16 167.73,-243.93 165.13,-248.55 168.58,-249.16"/>
</g>
<!-- n5&#45;&gt;n0out1 -->
<g id="e16" class="edge">
<title>n5:s&#45;&gt;n0out1:n</title>
<path fill="none" stroke="black" d="M181,-218.19C181,-198.96 194.83,-198.51 205,-182.19 242.79,-121.54 318.88,-93.84 275,-37.44 236.42,12.14 140.1,-61.05 133.37,-7.78"/>
<polygon fill="black" stroke="black" points="135.13,-7.84 133.09,-2.95 131.63,-8.04 135.13,-7.84"/>
</g>
<!-- n6 -->
<!-- x_wins_rows -->
<g id="n6" class="node">
<title>n6</title>
<polygon fill="lightblue" stroke="none" points="196,-182.19 114,-182.19 114,-157.94 196,-157.94 196,-182.19"/>
<polygon fill="none" stroke="black" points="114,-157.94 114,-182.19 196,-182.19 196,-157.94 114,-157.94"/>
<text xml:space="preserve" text-anchor="start" x="119" y="-167.44" font-family="Serif" font-size="14.00">x_wins_rows</text>
</g>
<!-- n5&#45;&gt;n6 -->
<g id="e7" class="edge">
<title>n5:s&#45;&gt;n6:n</title>
<path fill="none" stroke="black" d="M155,-218.19C155,-204.56 155,-199.64 155,-188.6"/>
<polygon fill="black" stroke="black" points="156.75,-188.7 155,-183.7 153.25,-188.7 156.75,-188.7"/>
</g>
<!-- n6&#45;&gt;n0out1 -->
<g id="e17" class="edge">
<title>n6:s&#45;&gt;n0out1:n</title>
<path fill="none" stroke="black" d="M134.5,-157.94C134.5,-141.93 133.33,-137.95 133,-121.94 131.93,-70.59 132.91,-56.16 132.99,-7.83"/>
<polygon fill="black" stroke="black" points="134.74,-7.96 133,-2.95 131.24,-7.95 134.74,-7.96"/>
</g>
<!-- n7 -->
<!-- x_wins_diag1 -->
<g id="n7" class="node">
<title>n7</title>
<polygon fill="lightblue" stroke="none" points="227.88,-121.94 142.12,-121.94 142.12,-97.69 227.88,-97.69 227.88,-121.94"/>
<polygon fill="none" stroke="black" points="142.12,-97.69 142.12,-121.94 227.88,-121.94 227.88,-97.69 142.12,-97.69"/>
<text xml:space="preserve" text-anchor="start" x="147.12" y="-107.19" font-family="Serif" font-size="14.00">x_wins_diag1</text>
</g>
<!-- n6&#45;&gt;n7 -->
<g id="e6" class="edge">
<title>n6:s&#45;&gt;n7:n</title>
<path fill="none" stroke="black" d="M175.5,-157.94C175.5,-143.72 182.52,-139.57 184.49,-128.19"/>
<polygon fill="black" stroke="black" points="186.21,-128.57 184.88,-123.45 182.72,-128.29 186.21,-128.57"/>
</g>
<!-- n7&#45;&gt;n0out1 -->
<g id="e11" class="edge">
<title>n7:s&#45;&gt;n0out1:n</title>
<path fill="none" stroke="black" d="M163.56,-97.69C163.56,-54.91 135.8,-47.01 133.2,-7.51"/>
<polygon fill="black" stroke="black" points="134.96,-7.89 133.05,-2.95 131.46,-8.01 134.96,-7.89"/>
</g>
<!-- n8 -->
<!-- x_wins_diag2 -->
<g id="n8" class="node">
<title>n8</title>
<polygon fill="lightblue" stroke="none" points="265.88,-61.69 180.12,-61.69 180.12,-37.44 265.88,-37.44 265.88,-61.69"/>
<polygon fill="none" stroke="black" points="180.12,-37.44 180.12,-61.69 265.88,-61.69 265.88,-37.44 180.12,-37.44"/>
<text xml:space="preserve" text-anchor="start" x="185.12" y="-46.94" font-family="Serif" font-size="14.00">x_wins_diag2</text>
</g>
<!-- n7&#45;&gt;n8 -->
<g id="e5" class="edge">
<title>n7:s&#45;&gt;n8:n</title>
<path fill="none" stroke="black" d="M206.44,-97.69C206.44,-82.42 218.89,-79.81 222.2,-67.9"/>
<polygon fill="black" stroke="black" points="223.9,-68.37 222.81,-63.19 220.43,-67.93 223.9,-68.37"/>
</g>
<!-- n8&#45;&gt;n0out1 -->
<g id="e10" class="edge">
<title>n8:s&#45;&gt;n0out1:n</title>
<path fill="none" stroke="black" d="M201.56,-37.44C201.56,-5.44 142.3,-31.57 133.97,-7.75"/>
<polygon fill="black" stroke="black" points="135.72,-7.61 133.23,-2.94 132.26,-8.14 135.72,-7.61"/>
</g>
<!-- n8&#45;&gt;n1 -->
<g id="e8" class="edge">
<title>n8:s&#45;&gt;n1:n</title>
<path fill="none" stroke="black" d="M244.44,-36.44C244.44,-26.9 258.21,-31.77 265.88,-37.44 315.83,-74.39 313,-106.93 313,-169.06 313,-351.81 313,-351.81 313,-351.81 313,-400.92 333.18,-410.43 339,-459.19 340.28,-469.89 346.47,-475.67 339,-483.44 332.86,-489.82 320.88,-493.8 315.6,-490.12"/>
<polygon fill="black" stroke="black" points="317.31,-489.63 313.63,-485.82 314.12,-491.09 317.31,-489.63"/>
</g>
</g>
</svg>
