<?xml version="1.0" encoding="UTF-8" standalone="no"?>
<!DOCTYPE svg PUBLIC "-//W3C//DTD SVG 1.1//EN"
 "http://www.w3.org/Graphics/SVG/1.1/DTD/svg11.dtd">
<!-- Generated by graphviz version 14.1.4 (0)
 -->
<!-- Title: G Pages: 1 -->
<svg width="166pt" height="228pt"
 viewBox="0.00 0.00 166.00 228.00" xmlns="http://www.w3.org/2000/svg" xmlns:xlink="http://www.w3.org/1999/xlink">
<g id="graph0" class="graph" transform="scale(1 1) rotate(0) translate(4 223.63)">
<title>G</title>
<polygon fill="white" stroke="none" points="-4,4 -4,-223.63 161.88,-223.63 161.88,4 -4,4"/>
<!-- n0in1 -->
<!-- n1 -->
<!-- x_wins_rows -->
<g id="n1" class="node">
<title>n1</title>
<polygon fill="lightblue" stroke="none" points="82,-182.19 0,-182.19 0,-157.94 82,-157.94 82,-182.19"/>
<polygon fill="none" stroke="black" points="0,-157.94 0,-182.19 82,-182.19 82,-157.94 0,-157.94"/>
<text xml:space="preserve" text-anchor="start" x="5" y="-167.44" font-family="Serif" font-size="14.00">x_wins_rows</text>
</g>
<!-- n0in1&#45;&gt;n1 -->
<g id="e1" class="edge">
<title>n0in1:s&#45;&gt;n1:n</title>
<path fill="none" stroke="black" d="M41,-218.19C41,-204.56 41,-199.64 41,-188.6"/>
<polygon fill="black" stroke="black" points="42.75,-188.7 41,-183.7 39.25,-188.7 42.75,-188.7"/>
</g>
<!-- n0out1 -->
<!-- n0out2 -->
<!-- n0out1&#45;&gt;n0out2 -->
<!-- n1&#45;&gt;n0out1 -->
<g id="e5" class="edge">
<title>n1:s&#45;&gt;n0out1:n</title>
<path fill="none" stroke="black" d="M20.5,-157.94C20.5,-131.09 18.31,-123.7 25,-97.69 27.6,-87.59 60.18,-28.97 67.53,-7.62"/>
<polygon fill="black" stroke="black" points="69.2,-8.18 68.65,-2.91 65.79,-7.37 69.2,-8.18"/>
</g>
<!-- n2 -->
<!-- x_wins_diag1 -->
<g id="n2" class="node">
<title>n2</title>
<polygon fill="lightblue" stroke="none" points="119.88,-121.94 34.12,-121.94 34.12,-97.69 119.88,-97.69 119.88,-121.94"/>
<polygon fill="none" stroke="black" points="34.12,-97.69 34.12,-121.94 119.88,-121.94 119.88,-97.69 34.12,-97.69"/>
<text xml:space="preserve" text-anchor="start" x="39.12" y="-107.19" font-family="Serif" font-size="14.00">x_wins_diag1</text>
</g>
<!-- n1&#45;&gt;n2 -->
<g id="e3" class="edge">
<title>n1:s&#45;&gt;n2:n</title>
<path fill="none" stroke="black" d="M61.5,-157.94C61.5,-142.83 73.16,-139.95 76.25,-128.1"/>
<polygon fill="black" stroke="black" points="77.95,-128.62 76.82,-123.44 74.48,-128.2 77.95,-128.62"/>
</g>
<!-- n2&#45;&gt;n0out1 -->
<g id="e4" class="edge">
<title>n2:s&#45;&gt;n0out1:n</title>
<path fill="none" stroke="black" d="M55.56,-97.69C55.56,-70.71 59.13,-64.14 63,-37.44 64.98,-23.77 67.94,-19.04 68.77,-7.92"/>
<polygon fill="black" stroke="black" points="70.52,-8.01 68.95,-2.95 67.02,-7.89 70.52,-8.01"/>
</g>
<!-- n3 -->
<!-- x_wins_diag2 -->
<g id="n3" class="node">
<title>n3</title>
<polygon fill="lightblue" stroke="none" points="157.88,-61.69 72.12,-61.69 72.12,-37.44 157.88,-37.44 157.88,-61.69"/>
<polygon fill="none" stroke="black" points="72.12,-37.44 72.12,-61.69 157.88,-61.69 157.88,-37.44 72.12,-37.44"/>
<text xml:space="preserve" text-anchor="start" x="77.12" y="-46.94" font-family="Serif" font-size="14.00">x_wins_diag2</text>
</g>
<!-- n2&#45;&gt;n3 -->
<g id="e2" class="edge">
<title>n2:s&#45;&gt;n3:n</title>
<path fill="none" stroke="black" d="M98.44,-97.69C98.44,-82.42 110.89,-79.81 114.2,-67.9"/>
<polygon fill="black" stroke="black" points="115.9,-68.37 114.81,-63.19 112.43,-67.93 115.9,-68.37"/>
</g>
<!-- n3&#45;&gt;n0out1 -->
<g id="e7" class="edge">
<title>n3:s&#45;&gt;n0out1:n</title>
<path fill="none" stroke="black" d="M93.56,-37.44C93.56,-20.49 74.76,-20.47 70.06,-7.75"/>
<polygon fill="black" stroke="black" points="71.8,-7.58 69.25,-2.93 68.35,-8.15 71.8,-7.58"/>
</g>
<!-- n3&#45;&gt;n0out2 -->
<g id="e6" class="edge">
<title>n3:s&#45;&gt;n0out2:n</title>
<path fill="none" stroke="black" d="M136.44,-37.44C136.44,-22.76 126.51,-19.34 123.72,-7.83"/>
<polygon fill="black" stroke="black" points="125.47,-7.72 123.17,-2.94 121.99,-8.11 125.47,-7.72"/>
</g>
</g>
</svg>
