<?xml version="1.0" encoding="UTF-8" standalone="no"?>
<!-- Created with Inkscape (http://www.inkscape.org/) -->

<svg
   version="1.1"
   id="svg1"
   width="352.72665"
   height="267.27326"
   viewBox="0 0 265.20801 200.95734"
   sodipodi:docname="fig-pushout-universal.pdf"
   xmlns:inkscape="http://www.inkscape.org/namespaces/inkscape"
   xmlns:sodipodi="http://sodipodi.sourceforge.net/DTD/sodipodi-0.dtd"
   xmlns="http://www.w3.org/2000/svg"
   xmlns:svg="http://www.w3.org/2000/svg">
  <defs
     id="defs1" />
  <sodipodi:namedview
     id="namedview1"
     pagecolor="#ffffff"
     bordercolor="#000000"
     borderopacity="0.25"
     inkscape:showpageshadow="2"
     inkscape:pageopacity="0.0"
     inkscape:pagecheckerboard="0"
     inkscape:deskcolor="#d1d1d1">
    <inkscape:page
       x="0"
       y="0"
       inkscape:label="1"
       id="page1"
       width="265.20801"
       height="200.95734"
       margin="0"
       bleed="0" />
  </sodipodi:namedview>
  <g
     id="g1"
     inkscape:groupmode="layer"
     inkscape:label="1">
    <path
       id="path1"
       d="m 14.44035,86.45784 h -28.8807 c -2.20095,0 -3.98511,-1.78416 -3.98511,-3.98511 V 59.26129 c 0,-2.20094 1.78416,-3.98511 3.98511,-3.98511 h 28.8807 c 2.20095,0 3.98511,1.78417 3.98511,3.98511 v 23.21144 c 0,2.20095 -1.78416,3.98511 -3.98511,3.98511 z"
       style="fill:#f5f5f5;fill-opacity:1;fill-rule:nonzero;stroke:#a6a6a6;stroke-width:0.3985;stroke-linecap:butt;stroke-linejoin:miter;stroke-miterlimit:10;stroke-dasharray:none;stroke-opacity:1"
       transform="matrix(1.3333333,0,0,-1.3333333,38.116,128.82533)" />
    <path
       id="path2"
       d="m 5.9753203,-4.8272578 c -0.011719,-0.035156 -0.058594,-0.1289063 -0.058594,-0.1640625 0,-0.011719 0.011719,-0.023437 0.2109375,-0.1875 L 7.28782,-6.0811641 c 1.6054688,-1.2421875 2.1328125,-1.6640625 2.953125,-1.734375 0.08203,-0.011719 0.199219,-0.011719 0.199219,-0.2109375 0,-0.082031 -0.03516,-0.140625 -0.128906,-0.140625 -0.128906,0 -0.269531,0.023437 -0.398438,0.023437 H 9.4557891 c -0.375,0 -0.7617188,-0.023437 -1.125,-0.023437 -0.082031,0 -0.2226563,0 -0.2226563,0.2226563 0,0.1171875 0.082031,0.1289062 0.1523438,0.1289062 0.1289062,0.011719 0.28125,0.058594 0.28125,0.2226563 0,0.2460937 -0.3515625,0.5273437 -0.4453125,0.5976562 l -4.6875,3.6445313 0.984375,-3.9375 c 0.1171875,-0.4101563 0.140625,-0.5273438 0.984375,-0.5273438 0.2226562,0 0.3398437,0 0.3398437,-0.2226562 0,-0.1289063 -0.1289062,-0.1289063 -0.1875,-0.1289063 -0.2109375,0 -0.46875,0.023437 -0.6914062,0.023437 h -1.40625 c -0.2226563,0 -0.4804688,-0.023437 -0.6914063,-0.023437 -0.1054687,0 -0.234375,0 -0.234375,0.234375 0,0.1171875 0.1054688,0.1171875 0.2929688,0.1171875 0.7265625,0 0.7265625,0.09375 0.7265625,0.2226563 0,0.023437 0,0.09375 -0.046875,0.28125 l -1.6171875,6.43359374 c -0.1054688,0.41015625 -0.1289063,0.52734375 -0.96093754,0.52734375 -0.234375,0 -0.3515625,0 -0.3515625,0.22265625 0,0.1289062475 0.10546875,0.1289062475 0.17578125,0.1289062475 0.234375,0 0.46874999,-0.0234374975 0.69140629,-0.0234374975 h 1.40625 c 0.2226562,0 0.4804687,0.0234374975 0.703125,0.0234374975 0.09375,0 0.2226562,0 0.2226562,-0.2226562475 0,-0.12890625 -0.1054687,-0.12890625 -0.28125,-0.12890625 -0.7265625,0 -0.7265625,-0.09375 -0.7265625,-0.2109375 0,-0.0820313 0.070312,-0.38671875 0.1171875,-0.57421879 l 0.46875,-1.8515625 1.8164063,-1.4179687 c 0.3398437,0.7617187 0.9726562,2.2851562 1.4648437,3.45703124 0.035156,0.0820313 0.058594,0.15234375 0.058594,0.234375 0,0.3515625 -0.4804688,0.36328125 -0.5859375,0.36328125 -0.1054688,0 -0.2226563,0 -0.2226563,0.234375 0,0.1171874975 0.1289063,0.1171874975 0.1640625,0.1171874975 0.421875,0 0.8671875,-0.0234374975 1.2773438,-0.0234374975 H 7.873758 c 0.1757813,0 0.3867188,0.0234374975 0.5625,0.0234374975 0.070312,0 0.1992188,0 0.1992188,-0.2226562475 0,-0.12890625 -0.1054688,-0.12890625 -0.2226563,-0.12890625 C 7.967508,-0.36241411 7.8151643,-0.45616406 7.639383,-0.87803906 Z m 0,0"
       style="fill:#000000;fill-opacity:1;fill-rule:nonzero;stroke:none"
       aria-label="K"
       transform="matrix(1.3333333,0,0,1.3333333,30.904,39.784)" />
    <path
       id="path3"
       d="m 99.48077,86.45784 h -28.8807 c -2.20095,0 -3.98511,-1.78416 -3.98511,-3.98511 V 59.26129 c 0,-2.20094 1.78416,-3.98511 3.98511,-3.98511 h 28.8807 c 2.20095,0 3.98511,1.78417 3.98511,3.98511 v 23.21144 c 0,2.20095 -1.78416,3.98511 -3.98511,3.98511 z"
       style="fill:#f5f5f5;fill-opacity:1;fill-rule:nonzero;stroke:#a6a6a6;stroke-width:0.3985;stroke-linecap:butt;stroke-linejoin:miter;stroke-miterlimit:10;stroke-dasharray:none;stroke-opacity:1"
       transform="matrix(1.3333333,0,0,-1.3333333,38.116,128.82533)" />
    <path
       id="path4"
       d="m 4.3823672,-7.2413203 c 0.1171875,-0.4570313 0.1523437,-0.5742188 1.1953125,-0.5742188 0.328125,0 0.4101562,0 0.4101562,-0.2226562 0,-0.1289063 -0.1289062,-0.1289063 -0.1757812,-0.1289063 -0.2460938,0 -0.515625,0.023437 -0.7617188,0.023437 h -1.59375 c -0.234375,0 -0.4921875,-0.023437 -0.7148437,-0.023437 -0.1054688,0 -0.234375,0 -0.234375,0.234375 0,0.1171875 0.1054687,0.1171875 0.2929687,0.1171875 0.7265625,0 0.7265625,0.09375 0.7265625,0.2226563 0,0.023437 0,0.09375 -0.046875,0.28125 l -1.6171875,6.43359374 c -0.1054687,0.41015625 -0.1289062,0.52734375 -0.96093746,0.52734375 -0.234375,0 -0.3515625,0 -0.3515625,0.22265625 0,0.1289062475 0.0703125,0.1289062475 0.3046875,0.1289062475 H 6.2104922 c 0.2695312,0 0.28125,-0.0117187475 0.3632812,-0.2226562475 L 7.4995547,-2.7764766 c 0.023437,-0.058594 0.046875,-0.1289062 0.046875,-0.1640625 0,-0.070312 -0.058594,-0.1171875 -0.1289063,-0.1171875 -0.011719,0 -0.070312,0 -0.09375,0.046875 -0.023437,0.011719 -0.023437,0.035156 -0.1171875,0.2578125 -0.3867187,1.0546875 -0.9140625,2.40234379 -2.9414062,2.40234379 H 3.1167422 c -0.1640625,0 -0.1875,0 -0.2578125,-0.0117188 -0.1289063,-0.0117188 -0.140625,-0.0351563 -0.140625,-0.12890625 0,-0.0820313 0.023437,-0.15234375 0.046875,-0.2578125 z m 0,0"
       style="fill:#000000;fill-opacity:1;fill-rule:nonzero;stroke:none"
       aria-label="L"
       transform="matrix(1.3333333,0,0,1.3333333,146.192,39.784)" />
    <path
       id="path5"
       d="m 14.44035,15.59082 h -28.8807 c -2.20095,0 -3.98511,-1.78416 -3.98511,-3.98511 v -23.21142 c 0,-2.20095 1.78416,-3.98511 3.98511,-3.98511 h 28.8807 c 2.20095,0 3.98511,1.78416 3.98511,3.98511 v 23.21142 c 0,2.20095 -1.78416,3.98511 -3.98511,3.98511 z"
       style="fill:#f5f5f5;fill-opacity:1;fill-rule:nonzero;stroke:#a6a6a6;stroke-width:0.3985;stroke-linecap:butt;stroke-linejoin:miter;stroke-miterlimit:10;stroke-dasharray:none;stroke-opacity:1"
       transform="matrix(1.3333333,0,0,-1.3333333,38.116,128.82533)" />
    <path
       id="path6"
       d="M 1.8764062,-0.87782812 C 1.7709375,-0.46767187 1.7475,-0.35048437 0.91546875,-0.35048437 c -0.234375,0 -0.3515625,0 -0.3515625,0.22265625 0,0.12890625 0.0703125,0.12890625 0.3046875,0.12890625 H 4.6654687 c 2.4140625,0 4.7695313,-2.49609373 4.7695313,-5.16796873 0,-1.7226563 -1.03125,-3 -2.7421875,-3 H 2.8607812 c -0.234375,0 -0.3398437,0 -0.3398437,0.234375 0,0.1171875 0.1054687,0.1171875 0.2929687,0.1171875 0.7265625,0 0.7265625,0.09375 0.7265625,0.2226562 0,0.023437 0,0.09375 -0.046875,0.28125 z M 4.3959375,-7.3465781 C 4.513125,-7.7918906 4.56,-7.8153281 5.0170312,-7.8153281 H 6.34125 c 1.1132812,0 2.1445312,0.609375 2.1445312,2.2617187 0,0.5976563 -0.234375,2.671875 -1.3945312,3.984375 -0.3398438,0.3984375 -1.2421875,1.21875003 -2.625,1.21875003 H 3.106875 c -0.1640625,0 -0.1875,0 -0.2578125,-0.0117188 -0.1289063,-0.0117188 -0.140625,-0.0351563 -0.140625,-0.12890625 0,-0.0820313 0.023437,-0.15234375 0.046875,-0.2578125 z m 0,0"
       style="fill:#000000;fill-opacity:1;fill-rule:nonzero;stroke:none"
       aria-label="D"
       transform="matrix(1.3333333,0,0,1.3333333,31.42,134.272)" />
    <path
       id="path7"
       d="m 99.48077,15.59082 h -28.8807 c -2.20095,0 -3.98511,-1.78416 -3.98511,-3.98511 v -23.21142 c 0,-2.20095 1.78416,-3.98511 3.98511,-3.98511 h 28.8807 c 2.20095,0 3.98511,1.78416 3.98511,3.98511 v 23.21142 c 0,2.20095 -1.78416,3.98511 -3.98511,3.98511 z"
       style="fill:#f5f5f5;fill-opacity:1;fill-rule:nonzero;stroke:#a6a6a6;stroke-width:0.3985;stroke-linecap:butt;stroke-linejoin:miter;stroke-miterlimit:10;stroke-dasharray:none;stroke-opacity:1"
       transform="matrix(1.3333333,0,0,-1.3333333,38.116,128.82533)" />
    <path
       id="path8"
       d="m 8.9187109,-8.3075156 c 0,-0.1054688 -0.082031,-0.1054688 -0.1054687,-0.1054688 -0.023437,0 -0.070312,0 -0.1757813,0.1171875 l -0.8203125,0.9960938 c -0.058594,-0.09375 -0.2929687,-0.515625 -0.7617187,-0.796875 -0.515625,-0.3164063 -1.03125,-0.3164063 -1.2070313,-0.3164063 -2.5546875,0 -5.24999996,2.6015625 -5.24999996,5.4257813 0,1.96875 1.35937496,3.23437498 3.15234376,3.23437498 0.8671875,0 1.9570312,-0.28125 2.5546875,-1.03125 0.1289062,0.4453125 0.3867187,0.7734375 0.46875,0.7734375 0.058594,0 0.070312,-0.03515625 0.082031,-0.03515625 0.023437,-0.0234375 0.1171875,-0.4453125 0.1757813,-0.65625 l 0.1875,-0.76171873 c 0.09375,-0.3984375 0.140625,-0.5625 0.2226562,-0.9257813 0.1289063,-0.4570312 0.1523438,-0.4921875 0.8085938,-0.5039062 0.046875,0 0.1875,0 0.1875,-0.2226563 0,-0.1171875 -0.1171875,-0.1171875 -0.1523438,-0.1171875 -0.1992187,0 -0.4335937,0.023437 -0.6445312,0.023437 H 6.9968359 c -0.5039062,0 -1.03125,-0.023437 -1.5234375,-0.023437 -0.1054687,0 -0.2460937,0 -0.2460937,0.2109375 0,0.1171875 0.09375,0.1171875 0.09375,0.1289063 h 0.2929687 c 0.9492188,0 0.9492188,0.09375 0.9492188,0.28125 0,0.011719 -0.2226563,1.21875 -0.4570313,1.5703125 -0.4570312,0.66796873 -1.3945312,0.94921873 -2.0976562,0.94921873 -0.9257813,0 -2.4140625,-0.48046875 -2.4140625,-2.54296873 0,-0.8085938 0.28125,-2.6367188 1.4414062,-3.984375 0.75,-0.8671875 1.8632813,-1.453125 2.9179688,-1.453125 1.40625,0 1.9101562,1.21875 1.9101562,2.3085937 0,0.1992188 -0.046875,0.4570313 -0.046875,0.6210938 0,0.1171875 0.1171875,0.1171875 0.1523438,0.1171875 0.140625,0 0.1523437,-0.011719 0.1992187,-0.234375 z m 0,0"
       style="fill:#000000;fill-opacity:1;fill-rule:nonzero;stroke:none"
       aria-label="G"
       transform="matrix(1.3333333,0,0,1.3333333,145.34667,134.272)" />
    <path
       id="path9"
       d="m 156.17441,-12.75597 h -28.88072 c -2.20095,0 -3.98511,-1.78416 -3.98511,-3.9851 v -23.21146 c 0,-2.20094 1.78416,-3.98511 3.98511,-3.98511 h 28.88072 c 2.20094,0 3.98511,1.78417 3.98511,3.98511 v 23.21146 c 0,2.20094 -1.78417,3.9851 -3.98511,3.9851 z"
       style="fill:#f5f5f5;fill-opacity:1;fill-rule:nonzero;stroke:#a6a6a6;stroke-width:0.3985;stroke-linecap:butt;stroke-linejoin:miter;stroke-miterlimit:10;stroke-dasharray:none;stroke-opacity:1"
       transform="matrix(1.3333333,0,0,-1.3333333,38.116,128.82533)" />
    <path
       id="path10"
       d="M 5.0962734,-0.07159375 C 7.1470547,-0.903625 8.6822109,-3.0715937 8.6822109,-5.2395625 c 0,-1.96875 -1.3007812,-3.1757812 -2.9648437,-3.1757812 -2.5664063,0 -5.14453126,2.7539062 -5.14453126,5.5078125 0,1.875 1.24218746,3.1523437 2.97656246,3.1523437 0.4101563,0 0.796875,-0.0585938 1.1835938,-0.17578125 -0.070312,0.71484375 -0.070312,0.7734375 -0.070312,1.00781255 0,0.3398437 0,1.2421875 0.9492187,1.2421875 1.4296875,0 1.9570313,-2.2382813 1.9570313,-2.3085938 0,-0.0703125 -0.046875,-0.1171875 -0.1171875,-0.1171875 -0.070312,0 -0.09375,0.05859375 -0.1289063,0.1875 -0.2578125,0.75 -0.8789062,1.1835938 -1.40625,1.1835938 -0.609375,0 -0.7617187,-0.42187505 -0.820313,-1.33593755 z m -2.15625,-0.05859375 c -0.9492187,-0.328125 -1.3945312,-1.3125 -1.3945312,-2.4140625 0,-0.84375 0.3046875,-2.4257812 1.0898437,-3.6328125 0.890625,-1.3710937 2.0742188,-1.9804687 3,-1.9804687 1.2539063,0 2.0859375,1.0078125 2.0859375,2.5664062 0,0.8789063 -0.421875,3.84375 -2.671875,5.15625 -0.058594,-0.609375 -0.2226562,-1.3242187 -1.0078125,-1.3242187 -0.6445312,0 -1.1953125,0.6445312 -1.1953125,1.2304687 0,0.12890625 0.046875,0.31640625 0.09375,0.3984375 z m 1.8164063,-0.140625 C 4.3228359,-0.0833125 3.9595547,-0.013 3.6197109,-0.013 c -0.1171875,0 -0.5390625,0 -0.5390625,-0.52734375 0,-0.43359375 0.421875,-0.98437495 0.9609375,-0.98437495 0.5976563,0 0.7265625,0.4101562 0.7265625,1.00781245 0,0.0703125 0,0.1640625 -0.011719,0.24609375 z m 0,0"
       style="fill:#000000;fill-opacity:1;fill-rule:nonzero;stroke:none"
       aria-label="Q"
       transform="matrix(1.3333333,0,0,1.3333333,220.912,170.51733)" />
    <path
       id="path11"
       d="M 18.62471,70.867 H 62.03636"
       style="fill:none;stroke:#000000;stroke-width:0.79701;stroke-linecap:butt;stroke-linejoin:miter;stroke-miterlimit:10;stroke-dasharray:none;stroke-opacity:1"
       transform="matrix(1.3333333,0,0,-1.3333333,38.116,128.82533)" />
    <path
       id="path12"
       d="M 5.83896,0 1.287,1.72005 2.79384,0 1.287,-1.72005 Z"
       style="fill:#000000;fill-opacity:1;fill-rule:nonzero;stroke:#000000;stroke-width:0.79701;stroke-linecap:butt;stroke-linejoin:miter;stroke-miterlimit:10;stroke-dasharray:none;stroke-opacity:1"
       transform="matrix(1.3333333,0,0,-1.3333333,117.37169,34.336)" />
    <path
       id="path13"
       d="m 2.5658906,-6.8084141 c 0,0 0,-0.1054687 -0.1289062,-0.1054687 -0.2226563,0 -0.9492188,0.082031 -1.2070313,0.1054687 -0.082031,0 -0.1992187,0.011719 -0.1992187,0.1992188 0,0.1171875 0.1054687,0.1171875 0.2578125,0.1171875 0.46875,0 0.4804687,0.082031 0.4804687,0.1640625 l -0.023437,0.1992187 -1.25390622,4.9804688 c -0.0351563,0.1171875 -0.0585938,0.18749999 -0.0585938,0.33984374 0,0.57421875 0.4453125,0.9140625 0.91406252,0.9140625 0.328125,0 0.5742188,-0.19921875 0.75,-0.55078125 0.1757813,-0.38671875 0.2929688,-0.96093749 0.2929688,-0.98437499 0,-0.09375 -0.09375,-0.09375 -0.1171875,-0.09375 -0.1054688,0 -0.1171875,0.035156 -0.140625,0.1757812 -0.1757813,0.64453129 -0.3632813,1.24218754 -0.7617188,1.24218754 -0.2929687,0 -0.2929687,-0.328125 -0.2929687,-0.45703125 0,-0.24609375 0.011719,-0.29296875 0.058594,-0.48046879 z m 0,0"
       style="fill:#000000;fill-opacity:1;fill-rule:nonzero;stroke:none"
       aria-label="l"
       transform="matrix(1.3333333,0,0,1.3333333,92.696,29.378667)" />
    <path
       id="path14"
       d="M 0,55.07693 V 20.16942"
       style="fill:none;stroke:#000000;stroke-width:0.79701;stroke-linecap:butt;stroke-linejoin:miter;stroke-miterlimit:10;stroke-dasharray:none;stroke-opacity:1"
       transform="matrix(1.3333333,0,0,-1.3333333,38.116,128.82533)" />
    <path
       id="path15"
       d="M 5.83896,0 1.287,1.72005 2.79384,0 1.287,-1.72005 Z"
       style="fill:#000000;fill-opacity:1;fill-rule:nonzero;stroke:#000000;stroke-width:0.79701;stroke-linecap:butt;stroke-linejoin:miter;stroke-miterlimit:10;stroke-dasharray:none;stroke-opacity:1"
       transform="matrix(0,1.3333333,1.3333333,0,38.116,98.473333)" />
    <path
       id="path16"
       d="m 2.8595391,-6.8100391 c 0,0 0,-0.1054687 -0.1289063,-0.1054687 -0.234375,0 -0.9609375,0.082031 -1.21875,0.1054687 -0.082031,0 -0.1875,0.011719 -0.1875,0.1992188 0,0.1171875 0.09375,0.1171875 0.234375,0.1171875 0.4804688,0 0.5039063,0.070312 0.5039063,0.1640625 l -0.035156,0.1992187 -1.44140624,5.74218754 c -0.0351563,0.140625 -0.0351563,0.15234375 -0.0351563,0.22265625 0,0.22265625 0.19921875,0.26953125 0.28125,0.26953125 0.12890625,0 0.28124994,-0.08203125 0.33984374,-0.2109375 0.058594,-0.0820313 0.5039062,-1.92187504 0.5625,-2.17968754 0.3398437,0.035156 1.1601563,0.1875 1.1601563,0.8554688 0,0.070312 0,0.1054687 -0.035156,0.1992187 -0.023437,0.1289063 -0.035156,0.24609379 -0.035156,0.35156254 0,0.5859375 0.3984375,0.984375 0.9140625,0.984375 0.2929688,0 0.5625,-0.15234375 0.7851563,-0.52734375 0.2460937,-0.43359375 0.3632812,-0.98437499 0.3632812,-1.00781249 0,-0.09375 -0.09375,-0.09375 -0.1289062,-0.09375 -0.09375,0 -0.1054688,0.035156 -0.140625,0.1757812 -0.1992188,0.72656254 -0.421875,1.24218754 -0.8671875,1.24218754 -0.1875,0 -0.3164063,-0.1171875 -0.3164063,-0.46875 0,-0.17578125 0.046875,-0.3984375 0.082031,-0.56250004 0.035156,-0.1640625 0.035156,-0.2109375 0.035156,-0.3046875 0,-0.65625 -0.6210937,-0.9375 -1.4648437,-1.0546875 0.3046875,-0.1757812 0.6210937,-0.4921875 0.8554687,-0.7265625 0.4804688,-0.5273437 0.9375,-0.9609375 1.4179688,-0.9609375 0.058594,0 0.070312,0 0.09375,0.011719 0.1171875,0.023437 0.1289062,0.023437 0.2109375,0.082031 0.023437,0 0.023437,0.011719 0.035156,0.035156 -0.4804687,0.035156 -0.5625,0.421875 -0.5625,0.5390625 0,0.1640625 0.1054688,0.3515625 0.375,0.3515625 0.2578125,0 0.5507813,-0.2226563 0.5507813,-0.609375 0,-0.3046875 -0.234375,-0.6328125 -0.6796875,-0.6328125 -0.28125,0 -0.7382813,0.082031 -1.453125,0.8789062 -0.3398438,0.375 -0.7265625,0.7734375 -1.1015625,0.9257813 z m 0,0"
       style="fill:#000000;fill-opacity:1;fill-rule:nonzero;stroke:none"
       aria-label="k"
       transform="matrix(1.3333333,0,0,1.3333333,25.824,86.193333)" />
    <path
       id="path17"
       d="M 85.04042,55.07693 V 20.16942"
       style="fill:none;stroke:#000000;stroke-width:0.79701;stroke-linecap:butt;stroke-linejoin:miter;stroke-miterlimit:10;stroke-dasharray:none;stroke-opacity:1"
       transform="matrix(1.3333333,0,0,-1.3333333,38.116,128.82533)" />
    <path
       id="path18"
       d="M 5.83896,0 1.287,1.72005 2.79384,0 1.287,-1.72005 Z"
       style="fill:#000000;fill-opacity:1;fill-rule:nonzero;stroke:#000000;stroke-width:0.79701;stroke-linecap:butt;stroke-linejoin:miter;stroke-miterlimit:10;stroke-dasharray:none;stroke-opacity:1"
       transform="matrix(0,1.3333333,1.3333333,0,151.50323,98.473333)" />
    <path
       id="path19"
       d="m 0.87960938,-0.58588281 c -0.0351563,0.15234375 -0.09375,0.375 -0.09375,0.421875 0,0.1875 0.140625,0.26953125 0.29296872,0.26953125 0.1171875,0 0.2929688,-0.0703125 0.3632813,-0.26953125 0.011719,-0.0234375 0.1289062,-0.4921875 0.1875,-0.73828125 L 1.8522656,-1.8046328 c 0.058594,-0.2226563 0.1171875,-0.4335938 0.1757813,-0.6679688 0.035156,-0.1640625 0.1171875,-0.4570312 0.1289062,-0.4921875 0.140625,-0.3164062 0.6679688,-1.21875 1.6171875,-1.21875 0.4453125,0 0.5390625,0.3632813 0.5390625,0.6914063 0,0.2578125 -0.070312,0.5390625 -0.1523437,0.8320312 l -0.2695313,1.1601563 -0.1992187,0.74999999 c -0.046875,0.19921875 -0.140625,0.5390625 -0.140625,0.5859375 0,0.1875 0.140625,0.26953125 0.2929687,0.26953125 0.3046875,0 0.375,-0.24609375 0.4453125,-0.5625 0.140625,-0.56250004 0.515625,-2.01562504 0.5976563,-2.40234374 0.035156,-0.1289063 0.5625,-1.3242188 1.6523437,-1.3242188 0.421875,0 0.5390625,0.3398438 0.5390625,0.6914063 0,0.5742187 -0.421875,1.7109375 -0.6210937,2.2382812 -0.09375,0.234375 -0.1289063,0.35156254 -0.1289063,0.55078129 0,0.46875 0.3515625,0.80859375 0.8085938,0.80859375 0.9375,0 1.3125,-1.45312504 1.3125,-1.53515624 0,-0.09375 -0.09375,-0.09375 -0.1171875,-0.09375 -0.1054688,0 -0.1054688,0.023437 -0.1523438,0.1757812 -0.1523437,0.52734379 -0.46875,1.24218754 -1.0195312,1.24218754 -0.1640625,0 -0.234375,-0.10546875 -0.234375,-0.328125 0,-0.2578125 0.082031,-0.4921875 0.1757812,-0.71484374 0.1875,-0.515625 0.609375,-1.6171875 0.609375,-2.1914063 0,-0.6445312 -0.3984375,-1.0664062 -1.1484375,-1.0664062 -0.75,0 -1.2539062,0.4453125 -1.6171875,0.9726562 -0.011719,-0.1289062 -0.046875,-0.46875 -0.328125,-0.7148437 -0.2460937,-0.1992188 -0.5625,-0.2578125 -0.8085937,-0.2578125 -0.9023438,0 -1.3828125,0.6445312 -1.5585938,0.8671875 -0.046875,-0.5625 -0.46875,-0.8671875 -0.9140625,-0.8671875 -0.45703122,0 -0.64453122,0.3867187 -0.73828122,0.5742187 -0.17578125,0.3398438 -0.3046875,0.9375 -0.3046875,0.9609375 0,0.1054688 0.09375,0.1054688 0.1171875,0.1054688 0.09375,0 0.10546875,-0.011719 0.1640625,-0.234375 0.17578125,-0.703125 0.375,-1.1835938 0.72656252,-1.1835938 0.1640625,0 0.3164062,0.082031 0.3164062,0.4570313 0,0.2109375 -0.035156,0.3164062 -0.1640625,0.8320312 z m 0,0"
       style="fill:#000000;fill-opacity:1;fill-rule:nonzero;stroke:none"
       aria-label="m"
       transform="matrix(1.3333333,0,0,1.3333333,156.46,84.441333)" />
    <path
       id="path20"
       d="M 18.62471,0 H 62.03636"
       style="fill:none;stroke:#000000;stroke-width:0.79701;stroke-linecap:butt;stroke-linejoin:miter;stroke-miterlimit:10;stroke-dasharray:none;stroke-opacity:1"
       transform="matrix(1.3333333,0,0,-1.3333333,38.116,128.82533)" />
    <path
       id="path21"
       d="M 5.83896,0 1.287,1.72005 2.79384,0 1.287,-1.72005 Z"
       style="fill:#000000;fill-opacity:1;fill-rule:nonzero;stroke:#000000;stroke-width:0.79701;stroke-linecap:butt;stroke-linejoin:miter;stroke-miterlimit:10;stroke-dasharray:none;stroke-opacity:1"
       transform="matrix(1.3333333,0,0,-1.3333333,117.37169,128.82533)" />
    <path
       id="path22"
       d="m 4.6872578,-3.7490703 c 0.011719,-0.070312 0.035156,-0.1171875 0.035156,-0.1875 0,-0.1640625 -0.1171875,-0.2695313 -0.2929688,-0.2695313 -0.09375,0 -0.3632812,0.070312 -0.4101562,0.4335938 -0.1757813,-0.375 -0.5273438,-0.6328125 -0.9257813,-0.6328125 -1.1367187,0 -2.36718749,1.3945312 -2.36718749,2.8359375 0,0.98437499 0.60937499,1.5703124875 1.32421879,1.5703124875 0.5859375,0 1.0546875,-0.4687499975 1.1601562,-0.5742187475 l 0.011719,0.0117188 c -0.2109375,0.87890625 -0.328125,1.2890625 -0.328125,1.3125 -0.046875,0.0820313 -0.3867188,1.07812506 -1.4414063,1.07812506 -0.1875,0 -0.51562499,-0.011719 -0.79687499,-0.1054688 C 0.96069521,1.629836 1.066164,1.3720235 1.066164,1.207961 c 0,-0.1640625 -0.10546879,-0.35156251 -0.37500004,-0.35156251 -0.22265625,0 -0.5390625,0.17578131 -0.5390625,0.57421881 0,0.4101562 0.36328125,0.609375 1.32421874,0.609375 1.2421875,0 1.9570313,-0.7734375 2.109375,-1.37109381 z m -1.2890625,2.4726562 c -0.058594,0.2578125 -0.2929687,0.51562504 -0.5039062,0.70312504 -0.2109375,0.17578125 -0.5273438,0.3515625 -0.8085938,0.3515625 -0.5039062,0 -0.65625,-0.515625 -0.65625,-0.91406254 0,-0.4804687 0.2929688,-1.6523437 0.5625,-2.15625 0.2695313,-0.4921875 0.703125,-0.890625 1.1132813,-0.890625 0.65625,0 0.796875,0.8085938 0.796875,0.8554688 0,0.046875 -0.011719,0.1054687 -0.023437,0.1523437 z m 0,0"
       style="fill:#000000;fill-opacity:1;fill-rule:nonzero;stroke:none"
       aria-label="g"
       transform="matrix(1.3333333,0,0,1.3333333,91.402667,139.50267)" />
    <path
       id="path23"
       d="M 100.68088,55.07693 C 121.46223,33.26828 130.49153,16.7208 136.55338,-8.30069"
       style="fill:none;stroke:#000000;stroke-width:0.79701;stroke-linecap:butt;stroke-linejoin:miter;stroke-miterlimit:10;stroke-dasharray:none;stroke-opacity:1"
       transform="matrix(1.3333333,0,0,-1.3333333,38.116,128.82533)" />
    <path
       id="path24"
       d="M 5.83896,0 1.287,1.72005 2.79384,0 1.287,-1.72005 Z"
       style="fill:#000000;fill-opacity:1;fill-rule:nonzero;stroke:#000000;stroke-width:0.79701;stroke-linecap:butt;stroke-linejoin:miter;stroke-miterlimit:10;stroke-dasharray:none;stroke-opacity:1"
       transform="matrix(0.31390667,1.2958,1.2958,-0.31390667,219.37272,136.53081)" />
    <path
       id="path25"
       d="m 2.8606641,-6.8087266 c 0,0 0,-0.1054687 -0.1289063,-0.1054687 -0.234375,0 -0.9609375,0.082031 -1.21875,0.1054687 -0.082031,0 -0.1875,0.011719 -0.1875,0.1992188 0,0.1171875 0.09375,0.1171875 0.234375,0.1171875 0.4804688,0 0.5039063,0.070312 0.5039063,0.1640625 l -0.035156,0.1992187 -1.44140624,5.74218754 c -0.0351563,0.140625 -0.0351563,0.15234375 -0.0351563,0.22265625 0,0.22265625 0.19921875,0.26953125 0.28125,0.26953125 0.1640625,0 0.32812494,-0.1171875 0.37499994,-0.2578125 l 0.1875,-0.75 0.2226563,-0.90234374 c 0.058594,-0.2226563 0.1171875,-0.4335938 0.1640625,-0.6679688 0.023437,-0.058594 0.1054687,-0.3867187 0.1171875,-0.4453125 0.023437,-0.09375 0.328125,-0.6445312 0.6679687,-0.9140625 0.2226564,-0.1640625 0.5273439,-0.3515625 0.9609375,-0.3515625 0.4218751,0 0.5390625,0.3398438 0.5390625,0.6914063 0,0.5390625 -0.375,1.6289062 -0.6210936,2.2382812 -0.082031,0.2226563 -0.1289064,0.35156254 -0.1289064,0.55078129 0,0.46875 0.3515625,0.80859375 0.8203125,0.80859375 0.9375,0 1.3007813,-1.45312504 1.3007813,-1.53515624 0,-0.09375 -0.09375,-0.09375 -0.1171875,-0.09375 -0.1054688,0 -0.1054688,0.023437 -0.1523438,0.1757812 -0.1523437,0.52734379 -0.46875,1.24218754 -1.0195312,1.24218754 -0.1640625,0 -0.234375,-0.10546875 -0.234375,-0.328125 0,-0.2578125 0.09375,-0.4921875 0.1757812,-0.71484374 0.1640625,-0.421875 0.609375,-1.6054688 0.609375,-2.1914063 0,-0.6445312 -0.3984375,-1.0664062 -1.1484375,-1.0664062 -0.6210936,0 -1.1015625,0.3164062 -1.4648437,0.7734375 z m 0,0"
       style="fill:#000000;fill-opacity:1;fill-rule:nonzero;stroke:none"
       aria-label="h"
       transform="matrix(1.3333333,0,0,1.3333333,208.76,91.785333)" />
    <path
       id="path26"
       d="M 18.62471,-9.19185 C 55.96584,-27.42252 81.65564,-32.4284 118.74068,-29.8498"
       style="fill:none;stroke:#000000;stroke-width:0.79701;stroke-linecap:butt;stroke-linejoin:miter;stroke-miterlimit:10;stroke-dasharray:none;stroke-opacity:1"
       transform="matrix(1.3333333,0,0,-1.3333333,38.116,128.82533)" />
    <path
       id="path27"
       d="M 5.83896,0 1.287,1.72005 2.79384,0 1.287,-1.72005 Z"
       style="fill:#000000;fill-opacity:1;fill-rule:nonzero;stroke:#000000;stroke-width:0.79701;stroke-linecap:butt;stroke-linejoin:miter;stroke-miterlimit:10;stroke-dasharray:none;stroke-opacity:1"
       transform="matrix(1.33008,-0.09246667,-0.09246667,-1.33008,192.98587,168.86499)" />
    <path
       id="path28"
       d="m 3.94975,-6.2233203 c 0,-0.1875 -0.1289063,-0.3632813 -0.375,-0.3632813 -0.2226563,0 -0.5273438,0.234375 -0.5273438,0.5273438 0,0.1992187 0.140625,0.3632812 0.375,0.3632812 0.2695313,0 0.5273438,-0.2578125 0.5273438,-0.5273437 z M 1.9575625,0.50324219 C 1.7583437,1.2532422 1.2895937,1.8274609 0.72709375,1.8274609 c -0.0585938,0 -0.2109375,0 -0.38671875,-0.09375 0.29296875,-0.070312 0.4453125,-0.328125 0.4453125,-0.5273437 0,-0.1640625 -0.10546875,-0.35156251 -0.375,-0.35156251 -0.24609375,0 -0.5390625,0.21093751 -0.5390625,0.57421871 0,0.3984375 0.3984375,0.609375 0.87890625,0.609375 0.69140625,0 1.61718745,-0.5273437 1.87499995,-1.51171871 L 3.5395937,-3.1178516 c 0.046875,-0.1992187 0.046875,-0.3398437 0.046875,-0.375 0,-0.5625 -0.421875,-0.9140625 -0.9140625,-0.9140625 -1.0195312,0 -1.5820312,1.453125 -1.5820312,1.5351563 0,0.1054687 0.09375,0.1054687 0.1171875,0.1054687 0.09375,0 0.09375,-0.011719 0.1757812,-0.1992187 0.2460938,-0.609375 0.7148438,-1.21875 1.2539063,-1.21875 0.140625,0 0.3164062,0.035156 0.3164062,0.4570312 0,0.234375 -0.023437,0.3398438 -0.058594,0.5039063 z m 0,0"
       style="fill:#000000;fill-opacity:1;fill-rule:nonzero;stroke:none"
       aria-label="j"
       transform="matrix(1.3333333,0,0,1.3333333,119.35867,178.92667)" />
    <path
       id="path29"
       d="m 103.66515,-9.31433 15.52766,-7.76659"
       style="fill:none;stroke:#000000;stroke-width:0.79701;stroke-linecap:butt;stroke-linejoin:miter;stroke-miterlimit:10;stroke-dasharray:2.98883, 2.98883;stroke-dashoffset:0;stroke-opacity:1"
       transform="matrix(1.3333333,0,0,-1.3333333,38.116,128.82533)" />
    <path
       id="path30"
       d="M 5.83896,0 1.287,1.72005 2.79384,0 1.287,-1.72005 Z"
       style="fill:#000000;fill-opacity:1;fill-rule:nonzero;stroke:#000000;stroke-width:0.79701;stroke-linecap:butt;stroke-linejoin:miter;stroke-miterlimit:10;stroke-dasharray:none;stroke-opacity:1"
       transform="matrix(1.1924267,0.59641333,0.59641333,-1.1924267,193.94587,150.05243)" />
    <path
       id="path31"
       d="m 3.4935469,-0.56111719 c 0.1054687,0.41015625 0.4570312,0.66796875 0.8789062,0.66796875 0.3515625,0 0.5742188,-0.22265625 0.7382813,-0.5390625 0.1757812,-0.36328125 0.3046875,-0.97265626 0.3046875,-0.99609376 0,-0.09375 -0.09375,-0.09375 -0.1289063,-0.09375 -0.09375,0 -0.1054687,0.035156 -0.140625,0.1757813 -0.1289062,0.56249996 -0.328125,1.24218746 -0.7382812,1.24218746 -0.2109375,0 -0.3164063,-0.12890625 -0.3164063,-0.45703125 0,-0.22265625 0.1289063,-0.69140621 0.1992188,-1.04296871 l 0.28125,-1.078125 c 0.035156,-0.140625 0.1289062,-0.5273438 0.1757812,-0.6679688 0.046875,-0.234375 0.140625,-0.609375 0.140625,-0.6679687 0,-0.1875 -0.140625,-0.2695313 -0.28125,-0.2695313 -0.058594,0 -0.3164062,0 -0.3867187,0.3398438 -0.1992188,0.7265625 -0.6328125,2.4726562 -0.75,2.99999996 -0.011719,0.046875 -0.4101563,0.84375 -1.1367188,0.84375 -0.515625,0 -0.6210937,-0.45703125 -0.6210937,-0.8203125 0,-0.56249996 0.28125,-1.34765626 0.5390625,-2.02734376 0.1171875,-0.3046875 0.1757812,-0.4453125 0.1757812,-0.6328125 0,-0.4453125 -0.328125,-0.8203125 -0.8203125,-0.8203125 -0.94921872,0 -1.31249997,1.453125 -1.31249997,1.5351563 0,0.1054687 0.09375,0.1054687 0.1171875,0.1054687 0.09375,0 0.10546875,-0.023437 0.15234375,-0.1875 0.2578125,-0.8671875 0.63281252,-1.2304687 1.00781252,-1.2304687 0.09375,0 0.2578125,0.011719 0.2578125,0.328125 0,0.234375 -0.1171875,0.5273437 -0.1757813,0.6796875 -0.3632812,0.984375 -0.5742187,1.6054687 -0.5742187,2.0859375 0,0.94921871 0.6796875,1.19531246 1.21875,1.19531246 0.65625,0 1.0195312,-0.4453125 1.1953125,-0.66796875 z m 0,0"
       style="fill:#000000;fill-opacity:1;fill-rule:nonzero;stroke:none"
       aria-label="u"
       transform="matrix(1.3333333,0,0,1.3333333,194.256,150.588)" />
  </g>
</svg>
