<?xml version="1.0" encoding="UTF-8" standalone="no"?>
<!-- Created with Inkscape (http://www.inkscape.org/) -->

<svg
   version="1.1"
   id="svg1"
   width="186.95722"
   height="362.57574"
   viewBox="0 0 140.56934 272.61334"
   sodipodi:docname="fig-hom-search.pdf"
   xmlns:inkscape="http://www.inkscape.org/namespaces/inkscape"
   xmlns:sodipodi="http://sodipodi.sourceforge.net/DTD/sodipodi-0.dtd"
   xmlns="http://www.w3.org/2000/svg"
   xmlns:svg="http://www.w3.org/2000/svg">
  <defs
     id="defs1" />
  <sodipodi:namedview
     id="namedview1"
     pagecolor="#ffffff"
     bordercolor="#000000"
     borderopacity="0.25"
     inkscape:showpageshadow="2"
     inkscape:pageopacity="0.0"
     inkscape:pagecheckerboard="0"
     inkscape:deskcolor="#d1d1d1">
    <inkscape:page
       x="0"
       y="0"
       inkscape:label="1"
       id="page1"
       width="140.56934"
       height="272.61334"
       margin="0"
       bleed="0" />
  </sodipodi:namedview>
  <g
     id="g1"
     inkscape:groupmode="layer"
     inkscape:label="1">
    <path
       id="path1"
       d="m -19.84267,84.35252 v 29.7226 c 0,2.75118 2.23021,4.98138 4.98139,4.98138 h 29.72256 c 2.75118,0 4.98139,-2.2302 4.98139,-4.98138 v -29.7226 c 0,-2.75119 -2.23021,-4.98138 -4.98139,-4.98138 h -29.72256 c -2.75118,0 -4.98139,2.23019 -4.98139,4.98138 z"
       style="fill:#f9f9f9;fill-opacity:1;fill-rule:nonzero;stroke:#b3b3b3;stroke-width:0.99628;stroke-linecap:butt;stroke-linejoin:miter;stroke-miterlimit:10;stroke-dasharray:none;stroke-opacity:1"
       transform="matrix(1.3333333,0,0,-1.3333333,70.285333,202.328)" />
    <path
       id="path2"
       d="m 4.3842344,-7.2436406 c 0.1171875,-0.4570313 0.1523437,-0.5742188 1.1953125,-0.5742188 0.328125,0 0.4101562,0 0.4101562,-0.2226562 0,-0.1289063 -0.1289062,-0.1289063 -0.1757812,-0.1289063 -0.2460938,0 -0.515625,0.023437 -0.7617188,0.023437 h -1.59375 c -0.234375,0 -0.4921875,-0.023437 -0.7148437,-0.023437 -0.1054688,0 -0.234375,0 -0.234375,0.234375 0,0.1171875 0.1054687,0.1171875 0.2929687,0.1171875 0.7265625,0 0.7265625,0.09375 0.7265625,0.2226563 0,0.023437 0,0.09375 -0.046875,0.28125 l -1.6171875,6.43359372 c -0.1054687,0.41015625 -0.1289062,0.52734375 -0.96093747,0.52734375 -0.234375,0 -0.3515625,0 -0.3515625,0.22265625 0,0.12890625 0.0703125,0.12890625 0.3046875,0.12890625 H 6.2123594 c 0.2695312,0 0.28125,-0.01171875 0.3632812,-0.22265625 L 7.5014219,-2.7787969 c 0.023437,-0.058594 0.046875,-0.1289062 0.046875,-0.1640625 0,-0.070312 -0.058594,-0.1171875 -0.1289063,-0.1171875 -0.011719,0 -0.070312,0 -0.09375,0.046875 -0.023437,0.011719 -0.023437,0.035156 -0.1171875,0.2578125 -0.3867187,1.0546875 -0.9140625,2.40234377 -2.9414062,2.40234377 H 3.1186094 c -0.1640625,0 -0.1875,0 -0.2578125,-0.0117188 -0.1289063,-0.0117188 -0.140625,-0.0351563 -0.140625,-0.12890625 0,-0.0820313 0.023437,-0.15234375 0.046875,-0.2578125 z m 0,0"
       style="fill:#000000;fill-opacity:1;fill-rule:nonzero;stroke:none"
       aria-label="L"
       transform="matrix(1.3333333,0,0,1.3333333,64.974667,33.916)" />
    <path
       id="path3"
       d="m 14.17339,99.21382 c 0,7.82785 -6.34555,14.1734 -14.17339,14.1734 -7.82784,0 -14.17339,-6.34555 -14.17339,-14.1734 0,-7.82785 6.34555,-14.1734 14.17339,-14.1734 7.82784,0 14.17339,6.34555 14.17339,14.1734 z"
       style="fill:#7373ff;fill-opacity:1;fill-rule:nonzero;stroke:#0000cc;stroke-width:1.49442;stroke-linecap:butt;stroke-linejoin:miter;stroke-miterlimit:10;stroke-dasharray:none;stroke-opacity:1"
       transform="matrix(1.3333333,0,0,-1.3333333,70.285333,202.328)" />
    <path
       id="path4"
       d="m 2.1918203,-3.7603516 c -0.4570312,-0.1054687 -0.9140625,-0.46875 -0.9140625,-0.984375 0,-0.515625 0.4921875,-1.03125 1.3007813,-1.03125 0.6445312,0 1.1015625,0.1875 1.5585937,0.5742188 L 4.2894766,-5.9751953 C 3.8324453,-6.1978516 3.4105703,-6.4205078 2.5902578,-6.4205078 c -1.2773437,0 -2.07421874,0.890625 -2.07421874,1.78125 0,0.234375 0.0351563,0.5859375 0.33984375,0.9960937 0.42187499,0.5390625 0.99609379,0.6796875 1.37109379,0.7617188 0.1171875,0.035156 0.6796875,0.1757812 0.75,0.1992187 0.4101562,0.1171875 0.8554687,0.515625 0.8554687,1.0664063 0,0.5976562 -0.5039062,1.14843749 -1.3007812,1.14843749 -0.7265625,0 -1.40625,-0.26953125 -1.98046879,-0.73828129 l -0.140625,0.78515629 C 1.2894766,0.13027344 2.1097891,0.20058594 2.5316641,0.20058594 c 1.2304687,0 2.0625,-0.9140625 2.0625,-1.91015624 0,-1.0195313 -0.8320313,-1.6757813 -1.5,-1.8398438 z M 9.1263906,-4.0767578 H 8.4115469 v 0.609375 c -0.1640625,-0.1757813 -0.5625,-0.609375 -1.2773438,-0.609375 -0.9023437,0 -1.6875,0.890625 -1.6875,2.0976562 0,1.12500004 0.6445313,2.07421879 1.5234375,2.07421879 0.5859375,0 1.1015625,-0.26953125 1.40625,-0.52734375 V 1.7357422 h 0.75 z m -0.7148437,2.8125 c 0,0.1289062 0,0.28124999 -0.3164063,0.52734374 -0.1875,0.1640625 -0.4335937,0.2578125 -0.6679687,0.2578125 -0.6914063,0 -1.2421875,-0.67968754 -1.2421875,-1.50000004 0,-0.890625 0.6445312,-1.4882812 1.3242187,-1.4882812 0.5976563,0 0.9023438,0.5976562 0.9023438,0.9726562 z m 0,0"
       style="fill:#000000;fill-opacity:1;fill-rule:nonzero;stroke:none"
       aria-label="Sq"
       transform="matrix(1.3333333,0,0,1.3333333,63.698667,73.033333)" />
    <path
       id="path5"
       d="M 0,79.37114 V 44.0647"
       style="fill:none;stroke:#000000;stroke-width:0.79701;stroke-linecap:butt;stroke-linejoin:miter;stroke-miterlimit:10;stroke-dasharray:none;stroke-opacity:1"
       transform="matrix(1.3333333,0,0,-1.3333333,70.285333,202.328)" />
    <path
       id="path6"
       d="M 5.83896,0 1.287,1.72005 2.79384,0 1.287,-1.72005 Z"
       style="fill:#000000;fill-opacity:1;fill-rule:nonzero;stroke:#000000;stroke-width:0.79701;stroke-linecap:butt;stroke-linejoin:miter;stroke-miterlimit:10;stroke-dasharray:none;stroke-opacity:1"
       transform="matrix(0,1.3333333,1.3333333,0,70.285333,140.11561)" />
    <path
       id="path7"
       d="m 2.4595781,-3.5029375 c 0.023437,-0.070312 0.328125,-0.6679688 0.7617188,-1.0546875 0.3164062,-0.28125 0.7265625,-0.46875 1.1835937,-0.46875 0.4804688,0 0.6445313,0.3515625 0.6445313,0.8320312 0,0.070312 0,0.3046875 -0.140625,0.8671875 l -0.2929688,1.2304688 c -0.09375,0.3632812 -0.328125,1.25390625 -0.3515625,1.3828125 -0.046875,0.17578125 -0.1171875,0.4921875 -0.1171875,0.5390625 0,0.1640625 0.1289063,0.29296875 0.3046875,0.29296875 0.3632813,0 0.421875,-0.26953125 0.5273438,-0.703125 L 5.7056719,-3.4443438 c 0.023437,-0.09375 0.6445312,-1.5820312 1.9570312,-1.5820312 0.4804688,0 0.6445313,0.3515625 0.6445313,0.8320312 0,0.6679688 -0.46875,1.96875 -0.7265625,2.6835938 -0.1054688,0.2929687 -0.1757813,0.4453125 -0.1757813,0.66796875 0,0.52734375 0.375,0.9609375 0.9492188,0.9609375 1.1132812,0 1.5351562,-1.75781255 1.5351562,-1.82812505 0,-0.058594 -0.058594,-0.1054687 -0.1289062,-0.1054687 -0.1054688,0 -0.1171875,0.035156 -0.1757813,0.234375 -0.2695312,0.9609375 -0.7148437,1.46484375 -1.1953125,1.46484375 -0.1171875,0 -0.3046875,-0.0117188 -0.3046875,-0.3984375 0,-0.3046875 0.140625,-0.69140625 0.1875,-0.82031255 0.2109375,-0.5742187 0.75,-1.9921875 0.75,-2.6835937 0,-0.7148438 -0.421875,-1.2539063 -1.3242187,-1.2539063 -0.796875,0 -1.453125,0.4570313 -1.921875,1.1601563 -0.035156,-0.6445313 -0.4335938,-1.1601563 -1.3359375,-1.1601563 -1.0546875,0 -1.6171875,0.75 -1.8398438,1.0546875 -0.035156,-0.6796875 -0.5273437,-1.0546875 -1.0429687,-1.0546875 -0.3515625,0 -0.62109377,0.1640625 -0.85546877,0.6210938 -0.2109375,0.4335937 -0.375,1.1601562 -0.375,1.2070312 0,0.046875 0.046875,0.1054688 0.12890625,0.1054688 0.09375,0 0.10546875,-0.011719 0.17578125,-0.28125 0.17578125,-0.703125 0.41015627,-1.40625 0.89062497,-1.40625 0.2695313,0 0.3632813,0.1875 0.3632813,0.5390625 0,0.2695312 -0.1171875,0.7382812 -0.1992188,1.1015625 l -0.3398437,1.2890625 c -0.046875,0.234375 -0.1757813,0.7734375 -0.234375,0.984375 -0.082031,0.31640625 -0.21093752,0.87890625 -0.21093752,0.9375 0,0.1640625 0.12890622,0.29296875 0.30468752,0.29296875 0.140625,0 0.3164062,-0.0703125 0.4101562,-0.24609375 0.023437,-0.0585938 0.1289063,-0.48046875 0.1875,-0.71484375 L 2.0611406,-1.9209063 Z m 0,0"
       style="fill:#000000;fill-opacity:1;fill-rule:nonzero;stroke:none"
       aria-label="m"
       transform="matrix(1.3333333,0,0,1.3333333,75.244,126.38933)" />
    <path
       id="path8"
       d="m -38.26836,-33.28697 v 66.57394 c 0,2.75118 2.23021,4.98139 4.98139,4.98139 h 66.57394 c 2.75118,0 4.98139,-2.23021 4.98139,-4.98139 v -66.57394 c 0,-2.75118 -2.23021,-4.98139 -4.98139,-4.98139 h -66.57394 c -2.75118,0 -4.98139,2.23021 -4.98139,4.98139 z"
       style="fill:#f9f9f9;fill-opacity:1;fill-rule:nonzero;stroke:#b3b3b3;stroke-width:0.99628;stroke-linecap:butt;stroke-linejoin:miter;stroke-miterlimit:10;stroke-dasharray:none;stroke-opacity:1"
       transform="matrix(1.3333333,0,0,-1.3333333,70.285333,202.328)" />
    <path
       id="path9"
       d="m 8.9176484,-8.309375 c 0,-0.1054688 -0.082031,-0.1054688 -0.1054687,-0.1054688 -0.023437,0 -0.070312,0 -0.1757813,0.1171875 l -0.8203125,0.9960938 c -0.058594,-0.09375 -0.2929687,-0.515625 -0.7617187,-0.796875 -0.515625,-0.3164063 -1.03125,-0.3164063 -1.2070313,-0.3164063 -2.5546875,0 -5.24999996,2.6015625 -5.24999996,5.4257813 0,1.96875 1.35937496,3.234375 3.15234376,3.234375 0.8671875,0 1.9570312,-0.28125 2.5546875,-1.03125 0.1289062,0.4453125 0.3867187,0.7734375 0.46875,0.7734375 0.058594,0 0.070312,-0.03515625 0.082031,-0.03515625 0.023437,-0.0234375 0.1171875,-0.4453125 0.1757813,-0.65625 l 0.1875,-0.76171875 c 0.09375,-0.3984375 0.140625,-0.5625 0.2226562,-0.9257813 0.1289063,-0.4570312 0.1523438,-0.4921875 0.8085938,-0.5039062 0.046875,0 0.1875,0 0.1875,-0.2226563 0,-0.1171875 -0.1171875,-0.1171875 -0.1523438,-0.1171875 -0.1992187,0 -0.4335937,0.023437 -0.6445312,0.023437 H 6.9957734 c -0.5039062,0 -1.03125,-0.023437 -1.5234375,-0.023437 -0.1054687,0 -0.2460937,0 -0.2460937,0.2109375 0,0.1171875 0.09375,0.1171875 0.09375,0.1289063 h 0.2929687 c 0.9492188,0 0.9492188,0.09375 0.9492188,0.28125 0,0.011719 -0.2226563,1.21875 -0.4570313,1.5703125 -0.4570312,0.66796875 -1.3945312,0.94921875 -2.0976562,0.94921875 -0.9257813,0 -2.4140625,-0.48046875 -2.4140625,-2.54296875 0,-0.8085938 0.28125,-2.6367188 1.4414062,-3.984375 0.75,-0.8671875 1.8632813,-1.453125 2.9179688,-1.453125 1.40625,0 1.9101562,1.21875 1.9101562,2.3085937 0,0.1992188 -0.046875,0.4570313 -0.046875,0.6210938 0,0.1171875 0.1171875,0.1171875 0.1523438,0.1171875 0.140625,0 0.1523437,-0.011719 0.1992187,-0.234375 z m 0,0"
       style="fill:#000000;fill-opacity:1;fill-rule:nonzero;stroke:none"
       aria-label="G"
       transform="matrix(1.3333333,0,0,1.3333333,64.129333,142.76667)" />
    <path
       id="path10"
       d="m -16.72449,25.51193 c 0,4.85324 -3.93421,8.78745 -8.78744,8.78745 -4.85324,0 -8.78745,-3.93421 -8.78745,-8.78745 0,-4.85323 3.93421,-8.78744 8.78745,-8.78744 4.85323,0 8.78744,3.93421 8.78744,8.78744 z"
       style="fill:#ccccff;fill-opacity:1;fill-rule:nonzero;stroke:#000099;stroke-width:0.99628;stroke-linecap:butt;stroke-linejoin:miter;stroke-miterlimit:10;stroke-dasharray:none;stroke-opacity:1"
       transform="matrix(1.3333333,0,0,-1.3333333,70.285333,202.328)" />
    <path
       id="path11"
       d="m 8.78743,25.51193 c 0,4.85324 -3.9342,8.78745 -8.78743,8.78745 -4.85323,0 -8.78743,-3.93421 -8.78743,-8.78745 0,-4.85323 3.9342,-8.78744 8.78743,-8.78744 4.85323,0 8.78743,3.93421 8.78743,8.78744 z"
       style="fill:#ccccff;fill-opacity:1;fill-rule:nonzero;stroke:#000099;stroke-width:0.99628;stroke-linecap:butt;stroke-linejoin:miter;stroke-miterlimit:10;stroke-dasharray:none;stroke-opacity:1"
       transform="matrix(1.3333333,0,0,-1.3333333,70.285333,202.328)" />
    <path
       id="path12"
       d="m 34.29938,25.51193 c 0,4.85324 -3.93421,8.78745 -8.78745,8.78745 -4.85323,0 -8.78744,-3.93421 -8.78744,-8.78745 0,-4.85323 3.93421,-8.78744 8.78744,-8.78744 4.85324,0 8.78745,3.93421 8.78745,8.78744 z"
       style="fill:#ccccff;fill-opacity:1;fill-rule:nonzero;stroke:#000099;stroke-width:0.99628;stroke-linecap:butt;stroke-linejoin:miter;stroke-miterlimit:10;stroke-dasharray:none;stroke-opacity:1"
       transform="matrix(1.3333333,0,0,-1.3333333,70.285333,202.328)" />
    <path
       id="path13"
       d="m -16.72449,0 c 0,4.85323 -3.93421,8.78743 -8.78744,8.78743 -4.85324,0 -8.78745,-3.9342 -8.78745,-8.78743 0,-4.85323 3.93421,-8.78743 8.78745,-8.78743 4.85323,0 8.78744,3.9342 8.78744,8.78743 z"
       style="fill:#ccccff;fill-opacity:1;fill-rule:nonzero;stroke:#000099;stroke-width:0.99628;stroke-linecap:butt;stroke-linejoin:miter;stroke-miterlimit:10;stroke-dasharray:none;stroke-opacity:1"
       transform="matrix(1.3333333,0,0,-1.3333333,70.285333,202.328)" />
    <path
       id="path14"
       d="m 8.78743,0 c 0,4.85323 -3.9342,8.78743 -8.78743,8.78743 -4.85323,0 -8.78743,-3.9342 -8.78743,-8.78743 0,-4.85323 3.9342,-8.78743 8.78743,-8.78743 4.85323,0 8.78743,3.9342 8.78743,8.78743 z"
       style="fill:#7373ff;fill-opacity:1;fill-rule:nonzero;stroke:#0000cc;stroke-width:0.99628;stroke-linecap:butt;stroke-linejoin:miter;stroke-miterlimit:10;stroke-dasharray:none;stroke-opacity:1"
       transform="matrix(1.3333333,0,0,-1.3333333,70.285333,202.328)" />
    <path
       id="path15"
       d="m 34.29938,0 c 0,4.85323 -3.93421,8.78743 -8.78745,8.78743 -4.85323,0 -8.78744,-3.9342 -8.78744,-8.78743 0,-4.85323 3.93421,-8.78743 8.78744,-8.78743 4.85324,0 8.78745,3.9342 8.78745,8.78743 z"
       style="fill:#ccccff;fill-opacity:1;fill-rule:nonzero;stroke:#000099;stroke-width:0.99628;stroke-linecap:butt;stroke-linejoin:miter;stroke-miterlimit:10;stroke-dasharray:none;stroke-opacity:1"
       transform="matrix(1.3333333,0,0,-1.3333333,70.285333,202.328)" />
    <path
       id="path16"
       d="m -16.72449,-25.51193 c 0,4.85323 -3.93421,8.78744 -8.78744,8.78744 -4.85324,0 -8.78745,-3.93421 -8.78745,-8.78744 0,-4.85324 3.93421,-8.78745 8.78745,-8.78745 4.85323,0 8.78744,3.93421 8.78744,8.78745 z"
       style="fill:#ccccff;fill-opacity:1;fill-rule:nonzero;stroke:#000099;stroke-width:0.99628;stroke-linecap:butt;stroke-linejoin:miter;stroke-miterlimit:10;stroke-dasharray:none;stroke-opacity:1"
       transform="matrix(1.3333333,0,0,-1.3333333,70.285333,202.328)" />
    <path
       id="path17"
       d="m 8.78743,-25.51193 c 0,4.85323 -3.9342,8.78744 -8.78743,8.78744 -4.85323,0 -8.78743,-3.93421 -8.78743,-8.78744 0,-4.85324 3.9342,-8.78745 8.78743,-8.78745 4.85323,0 8.78743,3.93421 8.78743,8.78745 z"
       style="fill:#ccccff;fill-opacity:1;fill-rule:nonzero;stroke:#000099;stroke-width:0.99628;stroke-linecap:butt;stroke-linejoin:miter;stroke-miterlimit:10;stroke-dasharray:none;stroke-opacity:1"
       transform="matrix(1.3333333,0,0,-1.3333333,70.285333,202.328)" />
    <path
       id="path18"
       d="m 34.29938,-25.51193 c 0,4.85323 -3.93421,8.78744 -8.78745,8.78744 -4.85323,0 -8.78744,-3.93421 -8.78744,-8.78744 0,-4.85324 3.93421,-8.78745 8.78744,-8.78745 4.85324,0 8.78745,3.93421 8.78745,8.78745 z"
       style="fill:#ccccff;fill-opacity:1;fill-rule:nonzero;stroke:#000099;stroke-width:0.99628;stroke-linecap:butt;stroke-linejoin:miter;stroke-miterlimit:10;stroke-dasharray:none;stroke-opacity:1"
       transform="matrix(1.3333333,0,0,-1.3333333,70.285333,202.328)" />
    <path
       id="path19"
       d="m -16.22635,25.51193 h 6.94078"
       style="fill:none;stroke:#a6a6a6;stroke-width:1.19553;stroke-linecap:butt;stroke-linejoin:miter;stroke-miterlimit:10;stroke-dasharray:none;stroke-opacity:1"
       transform="matrix(1.3333333,0,0,-1.3333333,70.285333,202.328)" />
    <path
       id="path20"
       d="m 9.28557,25.51193 h 6.94078"
       style="fill:none;stroke:#a6a6a6;stroke-width:1.19553;stroke-linecap:butt;stroke-linejoin:miter;stroke-miterlimit:10;stroke-dasharray:none;stroke-opacity:1"
       transform="matrix(1.3333333,0,0,-1.3333333,70.285333,202.328)" />
    <path
       id="path21"
       d="m -16.22635,0 h 6.94078"
       style="fill:none;stroke:#a6a6a6;stroke-width:1.19553;stroke-linecap:butt;stroke-linejoin:miter;stroke-miterlimit:10;stroke-dasharray:none;stroke-opacity:1"
       transform="matrix(1.3333333,0,0,-1.3333333,70.285333,202.328)" />
    <path
       id="path22"
       d="m 9.28557,0 h 6.94078"
       style="fill:none;stroke:#a6a6a6;stroke-width:1.19553;stroke-linecap:butt;stroke-linejoin:miter;stroke-miterlimit:10;stroke-dasharray:none;stroke-opacity:1"
       transform="matrix(1.3333333,0,0,-1.3333333,70.285333,202.328)" />
    <path
       id="path23"
       d="m -16.22635,-25.51193 h 6.94078"
       style="fill:none;stroke:#a6a6a6;stroke-width:1.19553;stroke-linecap:butt;stroke-linejoin:miter;stroke-miterlimit:10;stroke-dasharray:none;stroke-opacity:1"
       transform="matrix(1.3333333,0,0,-1.3333333,70.285333,202.328)" />
    <path
       id="path24"
       d="m 9.28557,-25.51193 h 6.94078"
       style="fill:none;stroke:#a6a6a6;stroke-width:1.19553;stroke-linecap:butt;stroke-linejoin:miter;stroke-miterlimit:10;stroke-dasharray:none;stroke-opacity:1"
       transform="matrix(1.3333333,0,0,-1.3333333,70.285333,202.328)" />
    <path
       id="path25"
       d="M -25.51193,16.22635 V 9.28557"
       style="fill:none;stroke:#a6a6a6;stroke-width:1.19553;stroke-linecap:butt;stroke-linejoin:miter;stroke-miterlimit:10;stroke-dasharray:none;stroke-opacity:1"
       transform="matrix(1.3333333,0,0,-1.3333333,70.285333,202.328)" />
    <path
       id="path26"
       d="m -25.51193,-9.28557 v -6.94078"
       style="fill:none;stroke:#a6a6a6;stroke-width:1.19553;stroke-linecap:butt;stroke-linejoin:miter;stroke-miterlimit:10;stroke-dasharray:none;stroke-opacity:1"
       transform="matrix(1.3333333,0,0,-1.3333333,70.285333,202.328)" />
    <path
       id="path27"
       d="M 0,16.22635 V 9.28557"
       style="fill:none;stroke:#a6a6a6;stroke-width:1.19553;stroke-linecap:butt;stroke-linejoin:miter;stroke-miterlimit:10;stroke-dasharray:none;stroke-opacity:1"
       transform="matrix(1.3333333,0,0,-1.3333333,70.285333,202.328)" />
    <path
       id="path28"
       d="m 0,-9.28557 v -6.94078"
       style="fill:none;stroke:#a6a6a6;stroke-width:1.19553;stroke-linecap:butt;stroke-linejoin:miter;stroke-miterlimit:10;stroke-dasharray:none;stroke-opacity:1"
       transform="matrix(1.3333333,0,0,-1.3333333,70.285333,202.328)" />
    <path
       id="path29"
       d="M 25.51193,16.22635 V 9.28557"
       style="fill:none;stroke:#a6a6a6;stroke-width:1.19553;stroke-linecap:butt;stroke-linejoin:miter;stroke-miterlimit:10;stroke-dasharray:none;stroke-opacity:1"
       transform="matrix(1.3333333,0,0,-1.3333333,70.285333,202.328)" />
    <path
       id="path30"
       d="m 25.51193,-9.28557 v -6.94078"
       style="fill:none;stroke:#a6a6a6;stroke-width:1.19553;stroke-linecap:butt;stroke-linejoin:miter;stroke-miterlimit:10;stroke-dasharray:none;stroke-opacity:1"
       transform="matrix(1.3333333,0,0,-1.3333333,70.285333,202.328)" />
    <path
       id="path31"
       d="M -18.94603,18.94603 -6.56589,6.56589"
       style="fill:none;stroke:#a6a6a6;stroke-width:0.99628;stroke-linecap:butt;stroke-linejoin:miter;stroke-miterlimit:10;stroke-dasharray:2.98883, 2.98883;stroke-dashoffset:0;stroke-opacity:1"
       transform="matrix(1.3333333,0,0,-1.3333333,70.285333,202.328)" />
    <path
       id="path32"
       d="M 6.56589,-6.56589 18.94603,-18.94603"
       style="fill:none;stroke:#a6a6a6;stroke-width:0.99628;stroke-linecap:butt;stroke-linejoin:miter;stroke-miterlimit:10;stroke-dasharray:2.98883, 2.98883;stroke-dashoffset:0;stroke-opacity:1"
       transform="matrix(1.3333333,0,0,-1.3333333,70.285333,202.328)" />
    <path
       id="path33"
       d="M 18.94603,18.94603 6.56589,6.56589"
       style="fill:none;stroke:#a6a6a6;stroke-width:0.99628;stroke-linecap:butt;stroke-linejoin:miter;stroke-miterlimit:10;stroke-dasharray:2.98883, 2.98883;stroke-dashoffset:0;stroke-opacity:1"
       transform="matrix(1.3333333,0,0,-1.3333333,70.285333,202.328)" />
    <path
       id="path34"
       d="M -6.56589,-6.56589 -18.94603,-18.94603"
       style="fill:none;stroke:#a6a6a6;stroke-width:0.99628;stroke-linecap:butt;stroke-linejoin:miter;stroke-miterlimit:10;stroke-dasharray:2.98883, 2.98883;stroke-dashoffset:0;stroke-opacity:1"
       transform="matrix(1.3333333,0,0,-1.3333333,70.285333,202.328)" />
  </g>
</svg>
