<?xml version="1.0" encoding="UTF-8" standalone="no"?>
<!-- Created with Inkscape (http://www.inkscape.org/) -->

<svg
   version="1.1"
   id="svg1"
   width="293.78813"
   height="262.24584"
   viewBox="0 0 220.89333 197.17732"
   sodipodi:docname="fig-pushout-complement.pdf"
   xmlns:inkscape="http://www.inkscape.org/namespaces/inkscape"
   xmlns:sodipodi="http://sodipodi.sourceforge.net/DTD/sodipodi-0.dtd"
   xmlns="http://www.w3.org/2000/svg"
   xmlns:svg="http://www.w3.org/2000/svg">
  <defs
     id="defs1" />
  <sodipodi:namedview
     id="namedview1"
     pagecolor="#ffffff"
     bordercolor="#000000"
     borderopacity="0.25"
     inkscape:showpageshadow="2"
     inkscape:pageopacity="0.0"
     inkscape:pagecheckerboard="0"
     inkscape:deskcolor="#d1d1d1">
    <inkscape:page
       x="0"
       y="0"
       inkscape:label="1"
       id="page1"
       width="220.89333"
       height="197.17732"
       margin="0"
       bleed="0" />
  </sodipodi:namedview>
  <g
     id="g1"
     inkscape:groupmode="layer"
     inkscape:label="1">
    <path
       id="path1"
       d="M -28.3468,-21.2601 H 28.34682 V 21.2601 H -28.3468 Z"
       style="fill:none;stroke:#000000;stroke-width:0.3985;stroke-linecap:butt;stroke-linejoin:miter;stroke-miterlimit:10;stroke-dasharray:none;stroke-opacity:1"
       transform="matrix(1.3333333,0,0,-1.3333333,51.344,155.28133)" />
    <g
       id="g2"
       aria-label="G&#10;(CurrentWorld)"
       transform="matrix(1.3333333,0,0,1.3333333,46.122667,144.37867)">
      <path
         id="path2"
         d="m 7.5691328,-6.9256016 c 0,-0.023437 -0.023437,-0.09375 -0.1054687,-0.09375 -0.035156,0 -0.046875,0.011719 -0.1523438,0.1171875 l -0.703125,0.7617188 c -0.082031,-0.140625 -0.5390625,-0.8789063 -1.6523437,-0.8789063 -2.2148438,0 -4.45312504,2.203125 -4.45312504,4.5117188 0,1.58203124 1.10156254,2.73046874 2.71875004,2.73046874 0.4335937,0 0.8789062,-0.09375 1.2421875,-0.24609375 0.4921875,-0.19921875 0.6796875,-0.41015625 0.8671875,-0.609375 0.082031,0.2578125 0.3515625,0.62109375 0.4453125,0.62109375 0.046875,0 0.070312,-0.0234375 0.070312,-0.03515625 0.023437,-0.0234375 0.1171875,-0.3984375 0.1640625,-0.609375 L 6.2097578,-1.4295078 c 0.035156,-0.1640625 0.082031,-0.328125 0.1289063,-0.5039063 0.1054687,-0.4453125 0.1171875,-0.46875 0.6796875,-0.4804687 0.058594,0 0.1640625,-0.011719 0.1640625,-0.1992188 0,-0.070312 -0.046875,-0.1054687 -0.1289063,-0.1054687 -0.234375,0 -0.8203125,0.023437 -1.0429687,0.023437 -0.3164063,0 -1.0898438,-0.023437 -1.3945313,-0.023437 -0.09375,0 -0.2109375,0 -0.2109375,0.1992187 0,0.1054688 0.082031,0.1054688 0.2929688,0.1054688 0.011719,0 0.3046875,0 0.5273437,0.023437 0.2578125,0.035156 0.3164063,0.058594 0.3164063,0.1875 0,0.09375 -0.1171875,0.5390625 -0.2109375,0.9023437 -0.28125,1.10156254 -1.5820313,1.20703129 -1.921875,1.20703129 -0.9609375,0 -2.0039063,-0.5625 -2.0039063,-2.08593749 0,-0.3164063 0.09375,-1.9570313 1.1484375,-3.2460938 0.5390625,-0.6796875 1.5,-1.2890625 2.484375,-1.2890625 1.0195313,0 1.6054688,0.7734375 1.6054688,1.921875 0,0.3984375 -0.035156,0.4101563 -0.035156,0.5039063 0,0.1054687 0.1171875,0.1054687 0.1523438,0.1054687 0.1289062,0 0.1289062,-0.023437 0.1757812,-0.1992187 z m 0,0"
         style="fill:#000000;fill-opacity:1;fill-rule:nonzero;stroke:none" />
      <path
         id="path3"
         d="m -18.335164,18.296078 c 0,0 0.02344,-0.02344 0.02344,-0.04687 0,-0.02344 -0.01172,-0.07031 -0.09375,-0.07031 -0.09375,0 -1.371093,0.796875 -1.371093,2.496093 0,1.6875 1.277343,2.484375 1.371093,2.484375 0.08203,0 0.09375,-0.04687 0.09375,-0.07031 0,-0.03516 -0.02344,-0.04687 -0.04687,-0.05859 -0.878906,-0.703125 -1.042968,-1.710937 -1.042968,-2.355469 0,-1.21875 0.574218,-2.027343 1.066406,-2.378906 z m 4.795898,0.246094 c 0,-0.08203 0,-0.140625 -0.08203,-0.140625 -0.05859,0 -0.07031,0.02344 -0.09375,0.05859 l -0.292969,0.386718 c -0.304687,-0.257812 -0.691406,-0.445312 -1.183593,-0.445312 -1.207032,0 -2.15625,0.832031 -2.15625,1.816406 0,0.984375 0.949218,1.804688 2.15625,1.804688 0.960937,0 1.652343,-0.609375 1.652343,-1.265625 0,-0.08203 -0.02344,-0.105469 -0.105468,-0.105469 -0.05859,0 -0.105469,0 -0.105469,0.08203 -0.04687,0.75 -0.761719,1.078125 -1.347656,1.078125 -0.703125,0 -1.664063,-0.398437 -1.664063,-1.59375 0,-1.195312 0.9375,-1.59375 1.652344,-1.59375 0.457031,0 1.183594,0.234375 1.347656,1.171875 0.01172,0.05859 0.07031,0.05859 0.105469,0.05859 0.117187,0 0.117187,-0.03516 0.117187,-0.140625 z m 2.616211,1.230469 v 0.222656 c 0.363282,0 0.410157,0.02344 0.410157,0.269531 v 0.820313 c 0,0.457031 -0.339844,0.726562 -0.75,0.726562 -0.503907,0 -0.527344,-0.210937 -0.527344,-0.457031 v -1.640625 l -0.855469,0.05859 v 0.222656 c 0.386719,0 0.410156,0.03516 0.410156,0.292969 v 1.078125 c 0.04687,0.5625 0.609375,0.609375 0.9375,0.609375 0.410157,0 0.65625,-0.1875 0.808594,-0.421875 v 0.421875 l 0.8320313,-0.05859 v -0.222656 c -0.3632813,0 -0.4101563,-0.03516 -0.4101563,-0.28125 v -1.699219 z m 2.8212894,1.03125 c 0,-0.46875 0.2578125,-0.914063 0.7382812,-0.925782 -0.011719,0.01172 -0.070312,0.07031 -0.070312,0.175782 0,0.1875 0.140625,0.257812 0.2460938,0.257812 0.1289062,0 0.2578125,-0.08203 0.2578125,-0.257812 0,-0.1875 -0.1875,-0.339844 -0.4453125,-0.339844 -0.2460938,0 -0.5742188,0.128906 -0.7617188,0.550781 h -0.011719 v -0.550781 l -0.796875,0.05859 v 0.222656 c 0.375,0 0.421875,0.02344 0.421875,0.269531 v 1.230469 c 0,0.152344 0,0.199219 -0.328125,0.199219 h -0.09375 v 0.222656 c 0.2109375,-0.01172 0.4335937,-0.02344 0.6445312,-0.02344 0.2578125,0 0.5039063,0.01172 0.7148438,0.02344 v -0.222656 h -0.140625 c -0.375,0 -0.375,-0.04687 -0.375,-0.199219 z m 2.7011718,0 c 0,-0.46875 0.2578125,-0.914063 0.7382813,-0.925782 -0.011719,0.01172 -0.070312,0.07031 -0.070312,0.175782 0,0.1875 0.140625,0.257812 0.2460937,0.257812 0.1289063,0 0.2578125,-0.08203 0.2578125,-0.257812 0,-0.1875 -0.1875,-0.339844 -0.4453125,-0.339844 -0.2460937,0 -0.5742187,0.128906 -0.7617187,0.550781 h -0.011719 v -0.550781 l -0.796875,0.05859 v 0.222656 c 0.375,0 0.421875,0.02344 0.421875,0.269531 v 1.230469 c 0,0.152344 0,0.199219 -0.328125,0.199219 h -0.09375 v 0.222656 c 0.2109375,-0.01172 0.4335938,-0.02344 0.6445313,-0.02344 0.2578125,0 0.5039062,0.01172 0.7148437,0.02344 v -0.222656 h -0.140625 c -0.375,0 -0.375,-0.04687 -0.375,-0.199219 z m 4.0576172,-0.01172 c 0.1054688,0 0.140625,0 0.140625,-0.117188 0,-0.328125 -0.1757812,-0.984375 -1.1015625,-0.984375 -0.7617187,0 -1.2890625,0.539063 -1.2890625,1.125 0,0.632813 0.5976563,1.160157 1.359375,1.160157 0.796875,0 1.03125,-0.5625 1.03125,-0.65625 0,-0.08203 -0.070312,-0.08203 -0.09375,-0.08203 -0.082031,0 -0.09375,0.02344 -0.1171875,0.09375 -0.140625,0.339844 -0.515625,0.457032 -0.7851562,0.457032 -0.4101563,0 -0.6328125,-0.222657 -0.703125,-0.304688 -0.1992188,-0.234375 -0.1992188,-0.550781 -0.1992188,-0.691406 z m -1.7460937,-0.152344 c 0.058594,-0.65625 0.5390625,-0.785156 0.7734375,-0.785156 0.6914062,0 0.7265625,0.644531 0.7382812,0.785156 z M 2.111125,20.417172 c 0,-0.550781 -0.375,-0.703125 -0.8320313,-0.703125 -0.53906245,0 -0.82031245,0.292969 -0.9257812,0.492187 V 19.714047 L -0.467,19.772641 v 0.222656 c 0.36328125,0 0.41015625,0.02344 0.41015625,0.269531 v 1.230469 c 0,0.152344 0,0.199219 -0.31640625,0.199219 H -0.467 v 0.222656 c 0.2109375,-0.01172 0.421875,-0.02344 0.6328125,-0.02344 0.2109375,0 0.421875,0.01172 0.6328125,0.02344 V 21.694516 H 0.7165937 c -0.328125,0 -0.328125,-0.04687 -0.328125,-0.199219 v -0.867188 c 0,-0.5625 0.515625,-0.75 0.8320312,-0.75 0.3632812,0 0.4453125,0.210938 0.4453125,0.527344 v 1.089844 c 0,0.152344 0,0.199219 -0.3164063,0.199219 h -0.09375 v 0.222656 c 0.2109375,-0.01172 0.421875,-0.02344 0.6328125,-0.02344 0.2109376,0 0.4218751,0.01172 0.6328126,0.02344 V 21.694516 H 2.43925 c -0.328125,0 -0.328125,-0.04687 -0.328125,-0.199219 z M 3.9128828,19.995297 H 4.7917891 V 19.772641 H 3.9128828 V 18.858578 H 3.7019453 c -0.011719,0.46875 -0.2578125,0.949219 -0.7617187,0.960938 v 0.175781 h 0.5273437 v 1.289062 c 0,0.574219 0.46875,0.691407 0.7734375,0.691407 0.375,0 0.65625,-0.28125 0.65625,-0.691407 V 21.014828 H 4.6863203 v 0.257813 c 0,0.375 -0.2226562,0.515625 -0.3984375,0.515625 -0.375,0 -0.375,-0.398438 -0.375,-0.503907 z m 9.6093752,-0.949219 c 0.04687,-0.117187 0.117187,-0.316406 0.550781,-0.316406 v -0.210938 c -0.234375,0.01172 -0.515625,0.01172 -0.527344,0.01172 -0.222656,0 -0.527343,0 -0.679687,-0.01172 v 0.210938 c 0.257812,0 0.445312,0.09375 0.445312,0.234375 0,0.03516 -0.02344,0.09375 -0.02344,0.09375 l -0.914063,2.285156 -0.960937,-2.402344 c -0.02344,-0.05859 -0.02344,-0.07031 -0.02344,-0.08203 0,-0.128906 0.292969,-0.128906 0.433594,-0.128906 v -0.210938 c -0.1875,0 -0.574219,0.01172 -0.796875,0.01172 -0.222656,0 -0.445312,0 -0.679687,-0.01172 v 0.210938 h 0.105468 c 0.269532,0 0.304688,0.03516 0.339844,0.07031 0.03516,0.02344 0.09375,0.199219 0.128906,0.292969 l -0.02344,0.07031 -0.867188,2.179687 -0.9726559,-2.414062 c -0.011719,-0.04687 -0.023437,-0.05859 -0.023437,-0.07031 0,-0.128906 0.3046875,-0.128906 0.4453125,-0.128906 v -0.210938 c -0.1875,0 -0.5742188,0.01172 -0.796875,0.01172 -0.234375,0 -0.4570313,0 -0.6796875,-0.01172 v 0.210938 h 0.09375 c 0.3398437,0 0.3632812,0.05859 0.4101562,0.1875 l 1.1953125,2.976562 c 0.035156,0.08203 0.046875,0.128907 0.1640625,0.128907 0.1054688,0 0.1289063,-0.03516 0.1640627,-0.117188 l 1.007813,-2.53125 1.007812,2.53125 c 0.03516,0.08203 0.05859,0.117188 0.164063,0.117188 0.117187,0 0.128906,-0.04687 0.164062,-0.128907 z m 3.366211,1.804688 c 0,-0.621094 -0.585938,-1.160157 -1.359375,-1.160157 -0.785157,0 -1.371094,0.539063 -1.371094,1.160157 0,0.597656 0.585937,1.125 1.371094,1.125 0.773437,0 1.359375,-0.527344 1.359375,-1.125 z m -1.359375,0.9375 c -0.878907,0 -0.878907,-0.738282 -0.878907,-0.984375 0,-0.222657 0,-0.949219 0.878907,-0.949219 0.867187,0 0.867187,0.726562 0.867187,0.949219 0,0.246093 0,0.984375 -0.867187,0.984375 z m 2.909179,-0.984375 c 0,-0.46875 0.257813,-0.914063 0.738282,-0.925782 -0.01172,0.01172 -0.07031,0.07031 -0.07031,0.175782 0,0.1875 0.140625,0.257812 0.246094,0.257812 0.128906,0 0.257812,-0.08203 0.257812,-0.257812 0,-0.1875 -0.1875,-0.339844 -0.445312,-0.339844 -0.246094,0 -0.574219,0.128906 -0.761719,0.550781 H 18.3914 v -0.550781 l -0.796875,0.05859 v 0.222656 c 0.375,0 0.421875,0.02344 0.421875,0.269531 v 1.230469 c 0,0.152344 0,0.199219 -0.328125,0.199219 h -0.09375 v 0.222656 c 0.210938,-0.01172 0.433594,-0.02344 0.644532,-0.02344 0.257812,0 0.503906,0.01172 0.714843,0.02344 v -0.222656 h -0.140625 c -0.375,0 -0.375,-0.04687 -0.375,-0.199219 z m 2.733399,-2.34375 -0.84375,0.05859 v 0.210938 c 0.375,0 0.421875,0.03516 0.421875,0.28125 v 2.484375 c 0,0.152344 0,0.199219 -0.328125,0.199219 h -0.09375 v 0.222656 c 0.210937,-0.01172 0.421875,-0.02344 0.621094,-0.02344 0.210937,0 0.421875,0.01172 0.632812,0.02344 v -0.222656 h -0.09375 c -0.316406,0 -0.316406,-0.04687 -0.316406,-0.199219 z m 2.850586,0.05859 v 0.210938 c 0.375,0 0.421875,0.03516 0.421875,0.28125 v 0.972656 c -0.117188,-0.09375 -0.386719,-0.269531 -0.796875,-0.269531 -0.75,0 -1.359375,0.503906 -1.359375,1.136719 0,0.597656 0.5625,1.125 1.300781,1.125 0.410156,0 0.691406,-0.1875 0.832031,-0.304688 v 0.304688 l 0.855469,-0.05859 v -0.222656 c -0.363281,0 -0.410156,-0.03516 -0.410156,-0.28125 v -2.953125 z m 0.398437,2.859375 C 24.18632,21.741388 23.81132,21.8117 23.62382,21.8117 c -0.257812,0 -0.503906,-0.105469 -0.667968,-0.328125 -0.164063,-0.199219 -0.175782,-0.480469 -0.175782,-0.632812 0,-0.140625 0.01172,-0.46875 0.222657,-0.691407 0.175781,-0.1875 0.433593,-0.28125 0.679687,-0.28125 0.140625,0 0.503906,0.03516 0.738281,0.375 z m 3.184571,-0.703125 c 0,-1.6875 -1.277344,-2.496093 -1.382813,-2.496093 -0.07031,0 -0.07031,0.05859 -0.07031,0.07031 0,0.01172 0,0.03516 0.02344,0.07031 0.75,0.585937 1.042969,1.453125 1.042969,2.355468 0,0.445313 -0.08203,0.914063 -0.246094,1.324219 -0.246094,0.5625 -0.550781,0.84375 -0.796875,1.042969 -0.01172,0 -0.02344,0.03516 -0.02344,0.04687 0,0.01172 0,0.07031 0.07031,0.07031 0.105469,0 1.382813,-0.796875 1.382813,-2.484375 z m 0,0"
         style="fill:#000000;fill-opacity:1;fill-rule:nonzero;stroke:none" />
    </g>
    <path
       id="path4"
       d="m -28.3468,63.78032 h 56.69362 v 42.5202 H -28.3468 Z"
       style="fill:none;stroke:#000000;stroke-width:0.3985;stroke-linecap:butt;stroke-linejoin:miter;stroke-miterlimit:10;stroke-dasharray:none;stroke-opacity:1"
       transform="matrix(1.3333333,0,0,-1.3333333,51.344,155.28133)" />
    <g
       id="g4"
       aria-label="L&#10;(Pattern)"
       transform="matrix(1.3333333,0,0,1.3333333,46.824,30.992)">
      <path
         id="path5"
         d="m 3.7267266,-6.0232969 c 0.09375,-0.3632812 0.1171875,-0.46875 1.0546875,-0.46875 0.3046875,0 0.375,0 0.375,-0.1875 0,-0.1289062 -0.1054688,-0.1289062 -0.1523438,-0.1289062 -0.328125,0 -1.1484375,0.035156 -1.4765625,0.035156 -0.3046875,0 -1.03125,-0.035156 -1.3242187,-0.035156 -0.070312,0 -0.1875,0 -0.1875,0.1992187 0,0.1171875 0.082031,0.1171875 0.28125,0.1171875 0.011719,0 0.1992187,0 0.375,0.011719 0.1757812,0.023437 0.2695312,0.035156 0.2695312,0.1640625 0,0.035156 -0.011719,0.070312 -0.046875,0.1875 l -1.3359375,5.35546872 c -0.09375,0.38671875 -0.1171875,0.46875 -0.90234374,0.46875 -0.1640625,0 -0.26953125,0 -0.26953125,0.19921875 0,0.105468755 0.09375,0.105468755 0.26953125,0.105468755 H 5.2736016 c 0.234375,0 0.2460937,0 0.3046875,-0.164062505 L 6.3634453,-2.3201719 c 0.046875,-0.1054687 0.046875,-0.1289062 0.046875,-0.140625 0,-0.035156 -0.035156,-0.1054687 -0.1289062,-0.1054687 -0.082031,0 -0.09375,0.046875 -0.1640625,0.2109375 -0.3398438,0.9140625 -0.7734375,2.05078122 -2.4960938,2.05078122 h -0.9375 c -0.140625,0 -0.1640625,0 -0.2226562,-0.0117188 -0.1054688,-0.0117188 -0.1289063,-0.0234375 -0.1289063,-0.10546875 0,-0.0234375 0,-0.046875 0.046875,-0.22265625 z m 0,0"
         style="fill:#000000;fill-opacity:1;fill-rule:nonzero;stroke:none" />
      <path
         id="path6"
         d="m -8.4051094,18.296039 c 0,0 0.023437,-0.02344 0.023437,-0.04687 0,-0.02344 -0.011719,-0.07031 -0.09375,-0.07031 -0.09375,0 -1.3710937,0.796875 -1.3710937,2.496093 0,1.6875 1.2773437,2.484375 1.3710937,2.484375 0.082031,0 0.09375,-0.04687 0.09375,-0.07031 0,-0.03516 -0.023437,-0.04687 -0.046875,-0.05859 -0.8789062,-0.703125 -1.0429687,-1.710937 -1.0429687,-2.355469 0,-1.21875 0.5742187,-2.027343 1.0664062,-2.378906 z m 2.006836,2.109375 h 1.0898437 c 0.6679688,0 1.40625,-0.386719 1.40625,-0.9375 0,-0.515625 -0.65625,-0.949219 -1.453125,-0.949219 h -2.1210937 v 0.210938 h 0.1523437 c 0.3984375,0 0.3984375,0.05859 0.3984375,0.210937 v 2.554688 c 0,0.152344 0,0.199219 -0.3984375,0.199219 h -0.1523437 v 0.222656 c 0.2226562,-0.01172 0.5390625,-0.02344 0.8203125,-0.02344 0.28125,0 0.5859375,0.01172 0.8203125,0.02344 v -0.222656 h -0.1523438 c -0.4101562,0 -0.4101562,-0.04687 -0.4101562,-0.199219 z m 0.9257812,-1.675781 c 0.8085938,0 0.984375,0.351562 0.984375,0.738281 0,0.410156 -0.1875,0.75 -0.984375,0.75 h -0.9375 v -1.289062 c 0,-0.164063 0,-0.199219 0.234375,-0.199219 z m 4.48535158,1.710937 c 0,-0.480468 -0.50390628,-0.75 -1.11328128,-0.75 -0.3046875,0 -0.890625,0.01172 -0.890625,0.433594 0,0.1875 0.140625,0.269531 0.2695313,0.269531 0.1289062,0 0.2578125,-0.09375 0.2578125,-0.269531 0,-0.117187 -0.058594,-0.1875 -0.1054688,-0.222656 0.1640625,-0.04687 0.3984375,-0.04687 0.4570313,-0.04687 0.421875,0 0.6796875,0.234375 0.6796875,0.585937 v 0.128907 c -0.4804688,0.02344 -0.75,0.04687 -1.125,0.175781 -0.328125,0.117187 -0.6210938,0.328125 -0.6210938,0.644531 0,0.46875 0.5742188,0.585938 0.9726563,0.585938 0.3867187,0 0.6796875,-0.164063 0.84375,-0.410157 0.011719,0.175782 0.1289062,0.386719 0.38671873,0.386719 0.0351563,0 0.59765625,0 0.59765625,-0.480469 v -0.28125 h -0.2109375 v 0.269532 c 0,0.04687 0,0.269531 -0.19921875,0.269531 -0.19921875,0 -0.19921875,-0.222656 -0.19921875,-0.269531 z m -0.44531248,0.773438 c 0,0.539062 -0.5976563,0.597656 -0.7148438,0.597656 -0.2929687,0 -0.5742187,-0.164062 -0.5742187,-0.421875 0,-0.164062 0.1054687,-0.621094 1.2890625,-0.667969 z m 2.4638672,-1.21875 H 1.9103203 V 19.772602 H 1.0314141 V 18.858539 H 0.82047656 c -0.0117188,0.46875 -0.2578125,0.949219 -0.76171875,0.960938 v 0.175781 h 0.52734375 v 1.289062 c 0,0.574219 0.46875004,0.691407 0.77343754,0.691407 0.375,0 0.65625,-0.28125 0.65625,-0.691407 V 21.014789 H 1.8048516 v 0.257813 c 0,0.375 -0.2226563,0.515625 -0.3984375,0.515625 -0.375,0 -0.375,-0.398438 -0.375,-0.503907 z m 2.6982422,0 H 4.6085625 V 19.772602 H 3.7296563 V 18.858539 H 3.5187188 C 3.507,19.327289 3.2609063,19.807758 2.757,19.819477 v 0.175781 h 0.5273438 v 1.289062 c 0,0.574219 0.46875,0.691407 0.7734375,0.691407 0.375,0 0.65625,-0.28125 0.65625,-0.691407 V 21.014789 H 4.5030938 v 0.257813 c 0,0.375 -0.2226563,0.515625 -0.3984375,0.515625 -0.375,0 -0.375,-0.398438 -0.375,-0.503907 z m 4.0458984,0.796875 c 0.1054687,0 0.140625,0 0.140625,-0.117188 0,-0.328125 -0.1757813,-0.984375 -1.1015625,-0.984375 -0.7617188,0 -1.2890625,0.539063 -1.2890625,1.125 0,0.632813 0.5976562,1.160157 1.359375,1.160157 0.796875,0 1.03125,-0.5625 1.03125,-0.65625 0,-0.08203 -0.070312,-0.08203 -0.09375,-0.08203 -0.082031,0 -0.09375,0.02344 -0.1171875,0.09375 -0.140625,0.339844 -0.515625,0.457032 -0.7851563,0.457032 -0.4101562,0 -0.6328125,-0.222657 -0.703125,-0.304688 C 6.0177422,21.249164 6.0177422,20.932758 6.0177422,20.792133 Z M 6.0294609,20.639789 c 0.058594,-0.65625 0.5390625,-0.785156 0.7734375,-0.785156 0.6914063,0 0.7265625,0.644531 0.7382813,0.785156 z m 3.4306641,0.164063 c 0,-0.46875 0.2578125,-0.914063 0.738281,-0.925782 -0.01172,0.01172 -0.07031,0.07031 -0.07031,0.175782 0,0.1875 0.140625,0.257812 0.246094,0.257812 0.128906,0 0.257812,-0.08203 0.257812,-0.257812 0,-0.1875 -0.1875,-0.339844 -0.445312,-0.339844 -0.2460942,0 -0.5742192,0.128906 -0.7617192,0.550781 H 9.41325 v -0.550781 l -0.796875,0.05859 v 0.222656 c 0.375,0 0.421875,0.02344 0.421875,0.269531 v 1.230469 c 0,0.152344 0,0.199219 -0.328125,0.199219 h -0.09375 v 0.222656 c 0.2109375,-0.01172 0.4335938,-0.02344 0.6445313,-0.02344 0.2578125,0 0.5039062,0.01172 0.7148437,0.02344 V 21.694477 H 9.835125 c -0.375,0 -0.375,-0.04687 -0.375,-0.199219 z m 4.467773,-0.386719 c 0,-0.550781 -0.375,-0.703125 -0.832031,-0.703125 -0.539062,0 -0.820312,0.292969 -0.925781,0.492187 v -0.492187 l -0.820313,0.05859 v 0.222656 c 0.363282,0 0.410157,0.02344 0.410157,0.269531 v 1.230469 c 0,0.152344 0,0.199219 -0.316407,0.199219 h -0.09375 v 0.222656 c 0.210938,-0.01172 0.421875,-0.02344 0.632813,-0.02344 0.210937,0 0.421875,0.01172 0.632812,0.02344 v -0.222656 h -0.08203 c -0.328125,0 -0.328125,-0.04687 -0.328125,-0.199219 V 20.62807 c 0,-0.5625 0.515625,-0.75 0.832031,-0.75 0.363282,0 0.445313,0.210938 0.445313,0.527344 v 1.089844 c 0,0.152344 0,0.199219 -0.316406,0.199219 h -0.09375 v 0.222656 c 0.210937,-0.01172 0.421875,-0.02344 0.632812,-0.02344 0.210938,0 0.421875,0.01172 0.632813,0.02344 v -0.222656 h -0.08203 c -0.328125,0 -0.328125,-0.04687 -0.328125,-0.199219 z m 2.695313,0.257812 c 0,-1.6875 -1.277344,-2.496093 -1.382813,-2.496093 -0.07031,0 -0.07031,0.05859 -0.07031,0.07031 0,0.01172 0,0.03516 0.02344,0.07031 0.75,0.585937 1.042969,1.453125 1.042969,2.355468 0,0.445313 -0.08203,0.914063 -0.246094,1.324219 -0.246093,0.5625 -0.550781,0.84375 -0.796875,1.042969 -0.01172,0 -0.02344,0.03516 -0.02344,0.04687 0,0.01172 0,0.07031 0.07031,0.07031 0.105469,0 1.382813,-0.796875 1.382813,-2.484375 z m 0,0"
         style="fill:#000000;fill-opacity:1;fill-rule:nonzero;stroke:none" />
    </g>
    <path
       id="path7"
       d="m 56.69362,63.78032 h 56.69362 v 42.5202 H 56.69362 Z"
       style="fill:none;stroke:#000000;stroke-width:0.3985;stroke-linecap:butt;stroke-linejoin:miter;stroke-miterlimit:10;stroke-dasharray:none;stroke-opacity:1"
       transform="matrix(1.3333333,0,0,-1.3333333,51.344,155.28133)" />
    <g
       id="g7"
       aria-label="K&#10;(Interface)"
       transform="matrix(1.3333333,0,0,1.3333333,158.61467,30.992)">
      <path
         id="path8"
         d="m 5.0731797,-4.0193906 c -0.011719,-0.035156 -0.058594,-0.1171875 -0.058594,-0.140625 0,-0.011719 0.1875,-0.1523438 0.2929688,-0.234375 l 1.7460937,-1.3476563 c 0.9375,-0.6796875 1.3242188,-0.7265625 1.6171875,-0.75 0.082031,-0.011719 0.1875,-0.023437 0.1875,-0.1992187 0,-0.046875 -0.035156,-0.1171875 -0.1171875,-0.1171875 -0.2109375,0 -0.46875,0.035156 -0.703125,0.035156 -0.3632812,0 -0.75,-0.035156 -1.1015625,-0.035156 -0.070312,0 -0.1992187,0 -0.1992187,0.1992187 0,0.070312 0.058594,0.1054688 0.1289062,0.1171875 0.2109375,0.011719 0.3046875,0.070312 0.3046875,0.2109375 0,0.1757813 -0.2929687,0.3984375 -0.3632812,0.4570313 l -3.8789063,2.9882812 0.796875,-3.1992187 c 0.09375,-0.3632813 0.1054688,-0.4570313 0.8320313,-0.4570313 0.2578125,0 0.3398437,0 0.3398437,-0.1992187 0,-0.09375 -0.082031,-0.1171875 -0.140625,-0.1171875 -0.2695312,0 -0.9960937,0.035156 -1.265625,0.035156 -0.2929687,0 -0.9960937,-0.035156 -1.2890625,-0.035156 -0.070312,0 -0.1992187,0 -0.1992187,0.1992187 0,0.1171875 0.09375,0.1171875 0.2929687,0.1171875 0.1289063,0 0.3046875,0.011719 0.421875,0.011719 0.1640625,0.023437 0.2226563,0.058594 0.2226563,0.1640625 0,0.035156 -0.011719,0.070312 -0.046875,0.1875 l -1.3359375,5.35546872 c -0.09375,0.38671875 -0.1171875,0.46875 -0.90234376,0.46875 -0.1640625,0 -0.28125,0 -0.28125,0.1875 0,0.117187505 0.12890625,0.117187505 0.15234375,0.117187505 0.28125,0 0.98437501,-0.035156255 1.26562501,-0.035156255 0.2109375,0 0.4335937,0.01171875 0.6328125,0.01171875 0.2226562,0 0.4453125,0.023437505 0.65625,0.023437505 0.070312,0 0.1992187,0 0.1992187,-0.199218755 0,-0.10546875 -0.09375,-0.10546875 -0.28125,-0.10546875 -0.375,0 -0.6445312,0 -0.6445312,-0.1875 0,-0.0703125 0.058594,-0.28125 0.082031,-0.43359375 C 2.5770855,-1.4412654 2.7059918,-1.9686092 2.834898,-2.4959529 l 1.4882813,-1.1484375 1.1601562,2.68359372 c 0.1171875,0.2578125 0.1171875,0.28125 0.1171875,0.33984375 0,0.3046875 -0.4335937,0.31640625 -0.515625,0.31640625 -0.1171875,0 -0.2226562,0 -0.2226562,0.19921875 0,0.105468755 0.1171875,0.105468755 0.140625,0.105468755 0.3984375,0 0.8085937,-0.035156255 1.2070312,-0.035156255 0.2226563,0 0.7617188,0.035156255 0.984375,0.035156255 0.046875,0 0.1757813,0 0.1757813,-0.199218755 0,-0.10546875 -0.1054688,-0.10546875 -0.1992188,-0.10546875 C 6.7606793,-0.31626548 6.631773,-0.41001543 6.4794293,-0.76157793 Z m 0,0"
         style="fill:#000000;fill-opacity:1;fill-rule:nonzero;stroke:none" />
      <path
         id="path9"
         d="m -8.9834609,18.296039 c 0,0 0.023437,-0.02344 0.023437,-0.04687 0,-0.02344 -0.011719,-0.07031 -0.09375,-0.07031 -0.09375,0 -1.3710941,0.796875 -1.3710941,2.496093 0,1.6875 1.2773441,2.484375 1.3710941,2.484375 0.082031,0 0.09375,-0.04687 0.09375,-0.07031 0,-0.03516 -0.023437,-0.04687 -0.046875,-0.05859 -0.8789063,-0.703125 -1.0429691,-1.710937 -1.0429691,-2.355469 0,-1.21875 0.5742191,-2.027343 1.0664066,-2.378906 z m 2.0068359,0.644531 c 0,-0.152343 0,-0.210937 0.4101563,-0.210937 h 0.1640625 v -0.210938 c -0.234375,0.01172 -0.5507813,0.01172 -0.84375,0.01172 -0.2929688,0 -0.609375,0 -0.84375,-0.01172 v 0.210938 h 0.1640625 c 0.4101562,0 0.4101562,0.05859 0.4101562,0.210937 v 2.554688 c 0,0.152344 0,0.199219 -0.4101562,0.199219 h -0.1640625 v 0.222656 c 0.234375,-0.01172 0.5507812,-0.02344 0.84375,-0.02344 0.2929687,0 0.609375,0.01172 0.84375,0.02344 v -0.222656 h -0.1640625 c -0.4101563,0 -0.4101563,-0.04687 -0.4101563,-0.199219 z m 3.9521484,1.476563 c 0,-0.550781 -0.375,-0.703125 -0.8320312,-0.703125 -0.5390625,0 -0.8203125,0.292969 -0.9257813,0.492187 v -0.492187 l -0.8203125,0.05859 v 0.222656 c 0.3632813,0 0.4101563,0.02344 0.4101563,0.269531 v 1.230469 c 0,0.152344 0,0.199219 -0.3164063,0.199219 h -0.09375 v 0.222656 c 0.2109375,-0.01172 0.421875,-0.02344 0.6328125,-0.02344 0.2109375,0 0.421875,0.01172 0.6328125,0.02344 v -0.222656 h -0.082031 c -0.328125,0 -0.328125,-0.04687 -0.328125,-0.199219 V 20.62807 c 0,-0.5625 0.515625,-0.75 0.8320312,-0.75 0.3632813,0 0.4453125,0.210938 0.4453125,0.527344 v 1.089844 c 0,0.152344 0,0.199219 -0.3164062,0.199219 h -0.09375 v 0.222656 c 0.2109375,-0.01172 0.421875,-0.02344 0.6328125,-0.02344 0.2109375,0 0.421875,0.01172 0.6328125,0.02344 v -0.222656 h -0.082031 c -0.328125,0 -0.328125,-0.04687 -0.328125,-0.199219 z m 1.8046875,-0.421875 h 0.87890629 V 19.772602 H -1.2197891 v -0.914063 h -0.2109375 c -0.011719,0.46875 -0.2578125,0.949219 -0.7617187,0.960938 v 0.175781 h 0.5273437 v 1.289062 c 0,0.574219 0.46875,0.691407 0.77343754,0.691407 0.375,0 0.65625,-0.28125 0.65625,-0.691407 v -0.269531 h -0.2109375 v 0.257813 c 0,0.375 -0.22265625,0.515625 -0.3984375,0.515625 -0.37500004,0 -0.37500004,-0.398438 -0.37500004,-0.503907 z m 4.0458985,0.796875 c 0.1054687,0 0.140625,0 0.140625,-0.117188 0,-0.328125 -0.1757813,-0.984375 -1.1015625,-0.984375 -0.7617188,0 -1.28906252,0.539063 -1.28906252,1.125 0,0.632813 0.59765622,1.160157 1.35937502,1.160157 0.796875,0 1.03125,-0.5625 1.03125,-0.65625 0,-0.08203 -0.070312,-0.08203 -0.09375,-0.08203 -0.082031,0 -0.09375,0.02344 -0.1171875,0.09375 -0.140625,0.339844 -0.515625,0.457032 -0.7851563,0.457032 -0.4101562,0 -0.6328125,-0.222657 -0.703125,-0.304688 C 1.0682969,21.249164 1.0682969,20.932758 1.0682969,20.792133 Z M 1.0800156,20.639789 c 0.058594,-0.65625 0.5390625,-0.785156 0.7734375,-0.785156 0.6914063,0 0.7265625,0.644531 0.7382813,0.785156 z m 3.4306641,0.164063 c 0,-0.46875 0.2578125,-0.914063 0.7382812,-0.925782 -0.011719,0.01172 -0.070312,0.07031 -0.070312,0.175782 0,0.1875 0.140625,0.257812 0.2460938,0.257812 0.1289062,0 0.2578125,-0.08203 0.2578125,-0.257812 0,-0.1875 -0.1875,-0.339844 -0.4453125,-0.339844 -0.2460938,0 -0.5742188,0.128906 -0.7617188,0.550781 h -0.011719 v -0.550781 l -0.796875,0.05859 v 0.222656 c 0.375,0 0.421875,0.02344 0.421875,0.269531 v 1.230469 c 0,0.152344 0,0.199219 -0.328125,0.199219 h -0.09375 v 0.222656 c 0.2109375,-0.01172 0.4335937,-0.02344 0.6445312,-0.02344 0.2578125,0 0.5039063,0.01172 0.7148438,0.02344 v -0.222656 h -0.140625 c -0.375,0 -0.375,-0.04687 -0.375,-0.199219 z m 2.7333984,-0.808594 h 0.703125 V 19.772602 H 7.2206406 v -0.539063 c 0,-0.46875 0.3164063,-0.667969 0.5390625,-0.667969 0.035156,0 0.140625,0.01172 0.140625,0.03516 h -0.011719 c -0.035156,0.03516 -0.082031,0.09375 -0.082031,0.199218 0,0.140625 0.1054688,0.257813 0.2578125,0.257813 0.1640625,0 0.2578125,-0.117188 0.2578125,-0.257813 0,-0.222656 -0.2109375,-0.398437 -0.5507812,-0.398437 -0.4335938,0 -0.9492188,0.28125 -0.9492188,0.820312 v 0.550782 H 6.3417344 v 0.222656 h 0.4804687 v 1.5 c 0,0.152344 0,0.199219 -0.328125,0.199219 h -0.082031 v 0.222656 c 0.2109375,-0.01172 0.4335937,-0.02344 0.6445312,-0.02344 0.2578125,0 0.4921875,0.01172 0.703125,0.02344 V 21.694477 H 7.6307969 c -0.3867188,0 -0.3867188,-0.04687 -0.3867188,-0.199219 z m 3.5273439,0.445312 c 0,-0.480468 -0.503906,-0.75 -1.1132814,-0.75 -0.3046875,0 -0.890625,0.01172 -0.890625,0.433594 0,0.1875 0.140625,0.269531 0.2695313,0.269531 0.1289062,0 0.2578125,-0.09375 0.2578125,-0.269531 0,-0.117187 -0.058594,-0.1875 -0.1054688,-0.222656 0.1640625,-0.04687 0.3984375,-0.04687 0.4570313,-0.04687 0.4218751,0 0.6796871,0.234375 0.6796871,0.585937 v 0.128907 c -0.4804684,0.02344 -0.7499996,0.04687 -1.1249996,0.175781 -0.328125,0.117187 -0.6210938,0.328125 -0.6210938,0.644531 0,0.46875 0.5742188,0.585938 0.9726563,0.585938 0.3867187,0 0.6796871,-0.164063 0.8437501,-0.410157 0.01172,0.175782 0.128906,0.386719 0.386719,0.386719 0.03516,0 0.597656,0 0.597656,-0.480469 v -0.28125 h -0.210938 v 0.269532 c 0,0.04687 0,0.269531 -0.199218,0.269531 -0.199219,0 -0.199219,-0.222656 -0.199219,-0.269531 z m -0.445313,0.773438 c 0,0.539062 -0.5976559,0.597656 -0.7148434,0.597656 -0.2929687,0 -0.5742187,-0.164062 -0.5742187,-0.421875 0,-0.164062 0.1054687,-0.621094 1.2890621,-0.667969 z m 3.47168,-1.300781 c -0.07031,0.04687 -0.117187,0.128906 -0.117187,0.210937 0,0.164063 0.128906,0.269531 0.269531,0.269531 0.117187,0 0.269531,-0.08203 0.269531,-0.269531 0,-0.421875 -0.5625,-0.433594 -0.902344,-0.433594 -0.984375,0 -1.394531,0.65625 -1.394531,1.148438 0,0.621094 0.574219,1.136719 1.335938,1.136719 0.855468,0 1.019531,-0.609375 1.019531,-0.65625 0,-0.07031 -0.07031,-0.07031 -0.09375,-0.07031 -0.08203,0 -0.09375,0.01172 -0.117188,0.07031 -0.164062,0.421875 -0.527343,0.46875 -0.75,0.46875 -0.433593,0 -0.902343,-0.28125 -0.902343,-0.949219 0,-0.222656 0.04687,-0.492188 0.234375,-0.703125 0.234375,-0.269531 0.527343,-0.269531 0.679687,-0.269531 0.152344,0 0.292969,0 0.46875,0.04687 z m 3.383789,0.878906 c 0.105469,0 0.140625,0 0.140625,-0.117188 0,-0.328125 -0.175781,-0.984375 -1.101562,-0.984375 -0.761719,0 -1.289063,0.539063 -1.289063,1.125 0,0.632813 0.597656,1.160157 1.359375,1.160157 0.796875,0 1.03125,-0.5625 1.03125,-0.65625 0,-0.08203 -0.07031,-0.08203 -0.09375,-0.08203 -0.08203,0 -0.09375,0.02344 -0.117187,0.09375 -0.140625,0.339844 -0.515625,0.457032 -0.785157,0.457032 -0.410156,0 -0.632812,-0.222657 -0.703125,-0.304688 -0.199218,-0.234375 -0.199218,-0.550781 -0.199218,-0.691406 z m -1.746094,-0.152344 c 0.05859,-0.65625 0.539063,-0.785156 0.773438,-0.785156 0.691406,0 0.726562,0.644531 0.738281,0.785156 z m 4.157227,0.03516 c 0,-1.6875 -1.277344,-2.496093 -1.382813,-2.496093 -0.07031,0 -0.07031,0.05859 -0.07031,0.07031 0,0.01172 0,0.03516 0.02344,0.07031 0.75,0.585937 1.042969,1.453125 1.042969,2.355468 0,0.445313 -0.08203,0.914063 -0.246094,1.324219 -0.246093,0.5625 -0.550781,0.84375 -0.796875,1.042969 -0.01172,0 -0.02344,0.03516 -0.02344,0.04687 0,0.01172 0,0.07031 0.07031,0.07031 0.105469,0 1.382813,-0.796875 1.382813,-2.484375 z m 0,0"
         style="fill:#000000;fill-opacity:1;fill-rule:nonzero;stroke:none" />
    </g>
    <path
       id="path10"
       d="M 53.07994,-21.2601 H 117.0009 V 21.2601 H 53.07994 Z"
       style="fill:none;stroke:#000000;stroke-width:0.3985;stroke-linecap:butt;stroke-linejoin:miter;stroke-miterlimit:10;stroke-dasharray:2.98883, 2.98883;stroke-dashoffset:0;stroke-opacity:1"
       transform="matrix(1.3333333,0,0,-1.3333333,51.344,155.28133)" />
    <g
       id="g10"
       aria-label="D&#10;(RemainingWorld)"
       transform="matrix(1.3333333,0,0,1.3333333,159.04667,144.37867)">
      <path
         id="path11"
         d="m 1.5821875,-0.77325781 c -0.09375,0.38671875 -0.1171875,0.46875 -0.90234375,0.46875 -0.17578125,0 -0.28125,0 -0.28125,0.1875 0,0.1171874975 0.09375,0.1171874975 0.28125,0.1171874975 H 3.9728125 c 2.0742188,0 4.03125,-2.0976562875 4.03125,-4.2890624875 0,-1.3945313 -0.84375,-2.5195313 -2.3320312,-2.5195313 H 2.3204688 c -0.1875,0 -0.2929688,0 -0.2929688,0.1992188 0,0.1171875 0.082031,0.1171875 0.28125,0.1171875 0.1289063,0 0.3164063,0.011719 0.4335938,0.011719 0.1523437,0.023437 0.2109375,0.058594 0.2109375,0.1640625 0,0.035156 0,0.070312 -0.035156,0.1875 z m 2.15625,-5.34374999 c 0.082031,-0.3515625 0.1054688,-0.375 0.5390625,-0.375 h 1.0664063 c 0.9726562,0 1.7929687,0.5273437 1.7929687,1.8398437 0,0.4921875 -0.1992187,2.1210938 -1.0429687,3.2226563 -0.28125,0.3632812 -1.078125,1.12499999 -2.296875,1.12499999 h -1.125 c -0.140625,0 -0.1640625,0 -0.2226563,-0.0117188 -0.09375,-0.0117188 -0.1289062,-0.0234375 -0.1289062,-0.10546875 0,-0.0234375 0,-0.046875 0.046875,-0.22265625 z m 0,0"
         style="fill:#000000;fill-opacity:1;fill-rule:nonzero;stroke:none" />
      <path
         id="path12"
         d="m -22.186367,18.296078 c 0,0 0.02344,-0.02344 0.02344,-0.04687 0,-0.02344 -0.01172,-0.07031 -0.09375,-0.07031 -0.09375,0 -1.371093,0.796875 -1.371093,2.496093 0,1.6875 1.277343,2.484375 1.371093,2.484375 0.08203,0 0.09375,-0.04687 0.09375,-0.07031 0,-0.03516 -0.02344,-0.04687 -0.04687,-0.05859 -0.878906,-0.703125 -1.042968,-1.710937 -1.042968,-2.355469 0,-1.21875 0.574218,-2.027343 1.066406,-2.378906 z m 3.483398,1.921875 c 0.316407,-0.08203 0.925782,-0.328125 0.925782,-0.785156 0,-0.515625 -0.773438,-0.914063 -1.59375,-0.914063 h -1.886719 v 0.210938 h 0.152344 c 0.398437,0 0.398437,0.05859 0.398437,0.210937 v 2.554688 c 0,0.152344 0,0.199219 -0.398437,0.199219 h -0.152344 v 0.222656 c 0.234375,-0.01172 0.539062,-0.02344 0.808594,-0.02344 0.269531,0 0.5625,0.01172 0.808593,0.02344 v -0.222656 h -0.152343 c -0.398438,0 -0.398438,-0.04687 -0.398438,-0.199219 v -1.195313 h 0.761719 c 0.269531,0 0.503906,0.07031 0.65625,0.199219 0.1875,0.152344 0.1875,0.269531 0.1875,0.5625 0,0.386719 0,0.574219 0.257812,0.773438 0.199219,0.152343 0.492188,0.1875 0.703125,0.1875 0.480469,0 0.609375,-0.410157 0.609375,-0.574219 0,-0.09375 -0.04687,-0.09375 -0.105468,-0.09375 -0.07031,0 -0.09375,0.02344 -0.105469,0.09375 -0.01172,0.28125 -0.199219,0.410156 -0.363281,0.410156 -0.339844,0 -0.386719,-0.375 -0.433594,-0.691406 -0.01172,-0.140625 -0.03516,-0.339844 -0.04687,-0.398438 -0.08203,-0.292968 -0.339844,-0.46875 -0.632813,-0.550781 z m -0.726562,-0.08203 h -0.761719 v -1.207031 c 0,-0.152344 0.01172,-0.175782 0.152344,-0.199219 h 0.351562 c 0.5625,0 1.324219,0 1.324219,0.703125 0,0.574219 -0.5625,0.703125 -1.066406,0.703125 z m 5.159179,0.65625 c 0.105469,0 0.140625,0 0.140625,-0.117188 0,-0.328125 -0.175781,-0.984375 -1.101562,-0.984375 -0.761719,0 -1.289063,0.539063 -1.289063,1.125 0,0.632813 0.597657,1.160157 1.359375,1.160157 0.796875,0 1.03125,-0.5625 1.03125,-0.65625 0,-0.08203 -0.07031,-0.08203 -0.09375,-0.08203 -0.08203,0 -0.09375,0.02344 -0.117187,0.09375 -0.140625,0.339844 -0.515625,0.457032 -0.785156,0.457032 -0.410157,0 -0.632813,-0.222657 -0.703125,-0.304688 -0.199219,-0.234375 -0.199219,-0.550781 -0.199219,-0.691406 z m -1.746093,-0.152344 c 0.05859,-0.65625 0.539062,-0.785156 0.773437,-0.785156 0.691406,0 0.726563,0.644531 0.738281,0.785156 z m 6.93457,-0.222656 c 0,-0.621094 -0.46875,-0.703125 -0.84375,-0.703125 -0.492187,0 -0.773437,0.246094 -0.914062,0.46875 -0.117188,-0.457031 -0.632813,-0.46875 -0.808594,-0.46875 -0.515625,0 -0.808594,0.28125 -0.925781,0.492187 v -0.492187 l -0.820313,0.05859 v 0.222656 c 0.363281,0 0.410156,0.02344 0.410156,0.269531 v 1.230469 c 0,0.152344 0,0.199219 -0.316406,0.199219 h -0.09375 v 0.222656 c 0.210938,-0.01172 0.421875,-0.02344 0.632813,-0.02344 0.210937,0 0.421875,0.01172 0.632812,0.02344 v -0.222656 h -0.08203 c -0.328125,0 -0.328125,-0.04687 -0.328125,-0.199219 v -0.867188 c 0,-0.550781 0.503906,-0.75 0.832031,-0.75 0.363281,0 0.457031,0.210938 0.457031,0.527344 v 1.089844 c 0,0.152344 0,0.199219 -0.328125,0.199219 h -0.09375 v 0.222656 c 0.222657,-0.01172 0.421875,-0.02344 0.644532,-0.02344 0.210937,0 0.421875,0.01172 0.632812,0.02344 v -0.222656 h -0.09375 c -0.328125,0 -0.328125,-0.04687 -0.328125,-0.199219 v -0.867188 c 0,-0.550781 0.515625,-0.75 0.8320313,-0.75 0.3632812,0 0.4570312,0.210938 0.4570312,0.527344 v 1.089844 c 0,0.152344 0,0.199219 -0.328125,0.199219 h -0.082031 v 0.222656 c 0.2109375,-0.01172 0.421875,-0.02344 0.6328125,-0.02344 0.2109375,0 0.421875,0.01172 0.6328125,0.02344 V 21.694516 H -8.75375 c -0.328125,0 -0.328125,-0.04687 -0.328125,-0.199219 z m 3.3427734,0.02344 c 0,-0.480468 -0.5039062,-0.75 -1.1132812,-0.75 -0.3046875,0 -0.890625,0.01172 -0.890625,0.433594 0,0.1875 0.140625,0.269531 0.2695312,0.269531 0.1289063,0 0.2578125,-0.09375 0.2578125,-0.269531 0,-0.117187 -0.058594,-0.1875 -0.1054687,-0.222656 0.1640625,-0.04687 0.3984375,-0.04687 0.4570312,-0.04687 0.421875,0 0.6796875,0.234375 0.6796875,0.585937 v 0.128907 c -0.4804687,0.02344 -0.75,0.04687 -1.125,0.175781 -0.328125,0.117187 -0.6210937,0.328125 -0.6210937,0.644531 0,0.46875 0.5742187,0.585938 0.9726562,0.585938 0.3867188,0 0.6796875,-0.164063 0.84375,-0.410157 0.011719,0.175782 0.1289063,0.386719 0.3867188,0.386719 0.035156,0 0.5976562,0 0.5976562,-0.480469 v -0.28125 h -0.2109375 v 0.269532 c 0,0.04687 0,0.269531 -0.1992187,0.269531 -0.1992188,0 -0.1992188,-0.222656 -0.1992188,-0.269531 z m -0.4453125,0.773438 c 0,0.539062 -0.5976562,0.597656 -0.7148437,0.597656 -0.2929688,0 -0.5742188,-0.164062 -0.5742188,-0.421875 0,-0.164062 0.1054688,-0.621094 1.2890625,-0.667969 z m 2.5019532,-2.367188 c 0,-0.164062 -0.140625,-0.304687 -0.3046875,-0.304687 -0.1640625,0 -0.3046875,0.117187 -0.3046875,0.304687 0,0.175782 0.140625,0.304688 0.3046875,0.304688 0.1640625,0 0.3046875,-0.140625 0.3046875,-0.304688 z m -0.8320313,0.925782 v 0.222656 c 0.3515625,0 0.3984375,0.02344 0.3984375,0.269531 v 1.230469 c 0,0.152344 0,0.199219 -0.328125,0.199219 h -0.09375 v 0.222656 c 0.2109375,-0.01172 0.421875,-0.02344 0.6210938,-0.02344 0.1875,0 0.4101562,0.01172 0.5976562,0.02344 V 21.69452 c -0.3398437,0 -0.375,0 -0.375,-0.199219 v -1.78125 z m 4.55859376,0.644531 c 0,-0.550781 -0.375,-0.703125 -0.83203125,-0.703125 -0.53906251,0 -0.82031251,0.292969 -0.92578121,0.492187 v -0.492187 l -0.8203125,0.05859 v 0.222656 c 0.3632812,0 0.4101562,0.02344 0.4101562,0.269531 v 1.230469 c 0,0.152344 0,0.199219 -0.3164062,0.199219 h -0.09375 v 0.222656 c 0.2109375,-0.01172 0.421875,-0.02344 0.6328125,-0.02344 0.2109375,0 0.421875,0.01172 0.6328125,0.02344 v -0.222656 h -0.082031 c -0.328125,0 -0.328125,-0.04687 -0.328125,-0.199219 v -0.867188 c 0,-0.5625 0.515625,-0.75 0.83203126,-0.75 0.36328125,0 0.4453125,0.210938 0.4453125,0.527344 v 1.089844 c 0,0.152344 0,0.199219 -0.31640625,0.199219 h -0.09375 v 0.222656 c 0.2109375,-0.01172 0.421875,-0.02344 0.6328125,-0.02344 0.2109375,0 0.421875,0.01172 0.6328125,0.02344 v -0.222656 h -0.0820313 c -0.328125,0 -0.328125,-0.04687 -0.328125,-0.199219 z M 2.0597266,18.846859 c 0,-0.164062 -0.140625,-0.304687 -0.3046875,-0.304687 -0.1640625,0 -0.3046875,0.117187 -0.3046875,0.304687 0,0.175782 0.140625,0.304688 0.3046875,0.304688 0.1640625,0 0.3046875,-0.140625 0.3046875,-0.304688 z m -0.8320313,0.925782 v 0.222656 c 0.3515625,0 0.3984375,0.02344 0.3984375,0.269531 v 1.230469 c 0,0.152344 0,0.199219 -0.328125,0.199219 h -0.09375 v 0.222656 c 0.2109375,-0.01172 0.421875,-0.02344 0.6210938,-0.02344 0.1875,0 0.4101562,0.01172 0.5976562,0.02344 v -0.222656 c -0.3398437,0 -0.375,0 -0.375,-0.199219 v -1.78125 z m 4.5615235,0.644531 c 0,-0.550781 -0.375,-0.703125 -0.8320313,-0.703125 -0.5390625,0 -0.8203125,0.292969 -0.9257812,0.492187 v -0.492187 l -0.8203125,0.05859 v 0.222656 c 0.3632812,0 0.4101562,0.02344 0.4101562,0.269531 v 1.230469 c 0,0.152344 0,0.199219 -0.3164062,0.199219 h -0.09375 v 0.222656 c 0.2109375,-0.01172 0.421875,-0.02344 0.6328125,-0.02344 0.2109375,0 0.421875,0.01172 0.6328125,0.02344 v -0.222656 h -0.082031 c -0.328125,0 -0.328125,-0.04687 -0.328125,-0.199219 v -0.867188 c 0,-0.5625 0.515625,-0.75 0.8320313,-0.75 0.3632812,0 0.4453125,0.210938 0.4453125,0.527344 v 1.089844 c 0,0.152344 0,0.199219 -0.3164063,0.199219 H 4.93375 v 0.222656 c 0.2109375,-0.01172 0.421875,-0.02344 0.6328125,-0.02344 0.2109375,0 0.421875,0.01172 0.6328125,0.02344 V 21.694512 H 6.117344 c -0.328125,0 -0.328125,-0.04687 -0.328125,-0.199219 z m 3.0439453,-0.433594 c 0.234375,-0.152344 0.4570312,-0.152344 0.5390625,-0.164062 -0.011719,0.02344 -0.046875,0.05859 -0.046875,0.128906 0,0.09375 0.070312,0.175781 0.1875,0.175781 0.1171875,0 0.1875,-0.08203 0.1875,-0.175781 0,-0.128906 -0.1054688,-0.292969 -0.3398438,-0.292969 -0.1289062,0 -0.3867187,0.03516 -0.65625,0.234375 -0.1054687,-0.07031 -0.3398437,-0.175781 -0.6445312,-0.175781 -0.5859375,0 -0.9960938,0.351562 -0.9960938,0.738281 0,0.246094 0.1875,0.433594 0.2578125,0.492188 -0.1171875,0.140625 -0.1523437,0.292968 -0.1523437,0.410156 0,0.257812 0.1757812,0.421875 0.2226562,0.457031 -0.2578125,0.07031 -0.5390625,0.222656 -0.5390625,0.492188 0,0.386718 0.65625,0.644531 1.3828125,0.644531 0.65625,0 1.3710938,-0.222656 1.3710938,-0.65625 0,-0.222656 -0.1289063,-0.46875 -0.375,-0.585938 -0.328125,-0.152343 -0.6445313,-0.152343 -1.1835938,-0.152343 -0.1171875,0 -0.3398437,0 -0.3632812,-0.01172 -0.2460938,-0.03516 -0.2929688,-0.234375 -0.2929688,-0.328125 0,-0.09375 0.046875,-0.175781 0.058594,-0.175781 0.011719,0 0.023437,0 0.035156,0.01172 0.1992188,0.105469 0.3984375,0.128907 0.5742188,0.128907 0.5859375,0 0.9960937,-0.351563 0.9960937,-0.726563 0,-0.246094 -0.1640625,-0.421875 -0.2226562,-0.46875 z m -0.7734375,1.03125 c -0.4335938,0 -0.5625,-0.292969 -0.5625,-0.5625 0,-0.28125 0.1289062,-0.574219 0.5625,-0.574219 0.4335937,0 0.5507812,0.292969 0.5507812,0.574219 0,0.269531 -0.1171875,0.5625 -0.5507812,0.5625 z m 0,0.914063 c 0.5039062,0 1.2070312,0 1.2070312,0.375 0,0.246093 -0.4453125,0.480468 -1.03125,0.480468 -0.5742187,0 -1.0429687,-0.222656 -1.0429687,-0.492187 0,-0.152344 0.1757812,-0.363281 0.5507812,-0.363281 z M 18.064609,19.046078 c 0.04687,-0.117187 0.117188,-0.316406 0.550782,-0.316406 v -0.210938 c -0.234375,0.01172 -0.515625,0.01172 -0.527344,0.01172 -0.222656,0 -0.527344,0 -0.679688,-0.01172 v 0.210938 c 0.257813,0 0.445313,0.09375 0.445313,0.234375 0,0.03516 -0.02344,0.09375 -0.02344,0.09375 l -0.914062,2.285156 -0.960938,-2.402344 c -0.02344,-0.05859 -0.02344,-0.07031 -0.02344,-0.08203 0,-0.128906 0.292969,-0.128906 0.433594,-0.128906 v -0.210938 c -0.1875,0 -0.574219,0.01172 -0.796875,0.01172 -0.222657,0 -0.445313,0 -0.679688,-0.01172 v 0.210938 h 0.105469 c 0.269531,0 0.304687,0.03516 0.339844,0.07031 0.03516,0.02344 0.09375,0.199219 0.128906,0.292969 l -0.02344,0.07031 -0.867187,2.179687 -0.972656,-2.414062 c -0.01172,-0.04687 -0.02344,-0.05859 -0.02344,-0.07031 0,-0.128906 0.304688,-0.128906 0.445313,-0.128906 v -0.210938 c -0.1875,0 -0.574219,0.01172 -0.796875,0.01172 -0.234375,0 -0.457032,0 -0.679688,-0.01172 v 0.210938 h 0.09375 c 0.339844,0 0.363281,0.05859 0.410156,0.1875 l 1.195313,2.976562 c 0.03516,0.08203 0.04687,0.128907 0.164062,0.128907 0.105469,0 0.128907,-0.03516 0.164063,-0.117188 l 1.007812,-2.53125 1.007813,2.53125 c 0.03516,0.08203 0.05859,0.117188 0.164062,0.117188 0.117188,0 0.128907,-0.04687 0.164063,-0.128907 z m 3.366211,1.804688 c 0,-0.621094 -0.585937,-1.160157 -1.359375,-1.160157 -0.785156,0 -1.371093,0.539063 -1.371093,1.160157 0,0.597656 0.585937,1.125 1.371093,1.125 0.773438,0 1.359375,-0.527344 1.359375,-1.125 z m -1.359375,0.9375 c -0.878906,0 -0.878906,-0.738282 -0.878906,-0.984375 0,-0.222657 0,-0.949219 0.878906,-0.949219 0.867188,0 0.867188,0.726562 0.867188,0.949219 0,0.246093 0,0.984375 -0.867188,0.984375 z m 2.90918,-0.984375 c 0,-0.46875 0.257813,-0.914063 0.738281,-0.925782 -0.01172,0.01172 -0.07031,0.07031 -0.07031,0.175782 0,0.1875 0.140625,0.257812 0.246094,0.257812 0.128906,0 0.257812,-0.08203 0.257812,-0.257812 0,-0.1875 -0.1875,-0.339844 -0.445312,-0.339844 -0.246094,0 -0.574219,0.128906 -0.761719,0.550781 h -0.01172 v -0.550781 l -0.796875,0.05859 v 0.222656 c 0.375,0 0.421875,0.02344 0.421875,0.269531 v 1.230469 c 0,0.152344 0,0.199219 -0.328125,0.199219 h -0.09375 v 0.222656 c 0.210938,-0.01172 0.433594,-0.02344 0.644531,-0.02344 0.257813,0 0.503907,0.01172 0.714844,0.02344 v -0.222656 h -0.140625 c -0.375,0 -0.375,-0.04687 -0.375,-0.199219 z m 2.736328,-2.34375 -0.84375,0.05859 v 0.210938 c 0.375,0 0.421875,0.03516 0.421875,0.28125 v 2.484375 c 0,0.152344 0,0.199219 -0.328125,0.199219 h -0.09375 v 0.222656 c 0.210938,-0.01172 0.421875,-0.02344 0.621094,-0.02344 0.210937,0 0.421875,0.01172 0.632812,0.02344 v -0.222656 h -0.09375 c -0.316406,0 -0.316406,-0.04687 -0.316406,-0.199219 z m 2.847656,0.05859 v 0.210938 c 0.375,0 0.421875,0.03516 0.421875,0.28125 v 0.972656 c -0.117187,-0.09375 -0.386718,-0.269531 -0.796875,-0.269531 -0.75,0 -1.359375,0.503906 -1.359375,1.136719 0,0.597656 0.5625,1.125 1.300782,1.125 0.410156,0 0.691406,-0.1875 0.832031,-0.304688 v 0.304688 l 0.855469,-0.05859 v -0.222656 c -0.363282,0 -0.410157,-0.03516 -0.410157,-0.28125 v -2.953125 z m 0.398438,2.859375 c -0.234375,0.363282 -0.609375,0.433594 -0.796875,0.433594 -0.257813,0 -0.503906,-0.105469 -0.667969,-0.328125 -0.164062,-0.199219 -0.175781,-0.480469 -0.175781,-0.632812 0,-0.140625 0.01172,-0.46875 0.222656,-0.691407 0.175781,-0.1875 0.433594,-0.28125 0.679688,-0.28125 0.140625,0 0.503906,0.03516 0.738281,0.375 z m 3.1875,-0.703125 c 0,-1.6875 -1.277344,-2.496093 -1.382813,-2.496093 -0.07031,0 -0.07031,0.05859 -0.07031,0.07031 0,0.01172 0,0.03516 0.02344,0.07031 0.75,0.585937 1.042969,1.453125 1.042969,2.355468 0,0.445313 -0.08203,0.914063 -0.246094,1.324219 -0.246093,0.5625 -0.550781,0.84375 -0.796875,1.042969 -0.01172,0 -0.02344,0.03516 -0.02344,0.04687 0,0.01172 0,0.07031 0.07031,0.07031 0.105469,0 1.382813,-0.796875 1.382813,-2.484375 z m 0,0"
         style="fill:#000000;fill-opacity:1;fill-rule:nonzero;stroke:none" />
    </g>
    <path
       id="path13"
       d="M 0,63.58107 V 21.91763"
       style="fill:none;stroke:#000000;stroke-width:0.3985;stroke-linecap:butt;stroke-linejoin:miter;stroke-miterlimit:10;stroke-dasharray:none;stroke-opacity:1"
       transform="matrix(1.3333333,0,0,-1.3333333,51.344,155.28133)" />
    <path
       id="path14"
       d="M -1.19551,1.59401 C -1.09587,0.99626 0,0.09961 0.29886,0 0,-0.09961 -1.09587,-0.99626 -1.19551,-1.59401"
       style="fill:none;stroke:#000000;stroke-width:0.31879;stroke-linecap:round;stroke-linejoin:round;stroke-miterlimit:10;stroke-dasharray:none;stroke-opacity:1"
       transform="matrix(0,1.3333333,1.3333333,0,51.344,126.05783)" />
    <path
       id="path15"
       d="m 0.87911719,-0.58502344 c -0.0351563,0.15234375 -0.09375,0.375 -0.09375,0.421875 0,0.1875 0.140625,0.26953125 0.29296871,0.26953125 0.1171875,0 0.2929688,-0.0703125 0.3632813,-0.26953125 0.011719,-0.0234375 0.1289062,-0.4921875 0.1875,-0.73828125 L 1.8517734,-1.8037734 c 0.058594,-0.2226563 0.1171875,-0.4335938 0.1757813,-0.6679688 0.035156,-0.1640625 0.1171875,-0.4570312 0.1289062,-0.4921875 0.140625,-0.3164062 0.6679688,-1.21875 1.6171875,-1.21875 0.4453125,0 0.5390625,0.3632813 0.5390625,0.6914063 0,0.2578125 -0.070312,0.5390625 -0.1523437,0.8320312 l -0.2695313,1.1601563 -0.1992187,0.74999996 c -0.046875,0.19921875 -0.140625,0.5390625 -0.140625,0.5859375 0,0.1875 0.140625,0.26953125 0.2929687,0.26953125 0.3046875,0 0.375,-0.24609375 0.4453125,-0.5625 0.140625,-0.56250001 0.515625,-2.01562501 0.5976563,-2.40234371 0.035156,-0.1289063 0.5625,-1.3242188 1.6523437,-1.3242188 0.421875,0 0.5390625,0.3398438 0.5390625,0.6914063 0,0.5742187 -0.421875,1.7109375 -0.6210937,2.2382812 -0.09375,0.234375 -0.1289063,0.35156251 -0.1289063,0.55078126 0,0.46875 0.3515625,0.80859375 0.8085938,0.80859375 0.9375,0 1.3125,-1.45312501 1.3125,-1.53515621 0,-0.09375 -0.09375,-0.09375 -0.1171875,-0.09375 -0.1054688,0 -0.1054688,0.023437 -0.1523438,0.1757812 -0.1523437,0.52734376 -0.46875,1.24218751 -1.0195312,1.24218751 -0.1640625,0 -0.234375,-0.10546875 -0.234375,-0.328125 0,-0.2578125 0.082031,-0.4921875 0.1757812,-0.71484371 0.1875,-0.515625 0.609375,-1.6171875 0.609375,-2.1914063 0,-0.6445312 -0.3984375,-1.0664062 -1.1484375,-1.0664062 -0.75,0 -1.2539062,0.4453125 -1.6171875,0.9726562 -0.011719,-0.1289062 -0.046875,-0.46875 -0.328125,-0.7148437 -0.2460937,-0.1992188 -0.5625,-0.2578125 -0.8085937,-0.2578125 -0.9023438,0 -1.3828125,0.6445312 -1.5585938,0.8671875 -0.046875,-0.5625 -0.46875,-0.8671875 -0.9140625,-0.8671875 -0.45703121,0 -0.64453121,0.3867187 -0.73828121,0.5742187 -0.17578125,0.3398438 -0.3046875,0.9375 -0.3046875,0.9609375 0,0.1054688 0.09375,0.1054688 0.1171875,0.1054688 0.09375,0 0.10546875,-0.011719 0.1640625,-0.234375 0.17578125,-0.703125 0.375,-1.1835938 0.72656251,-1.1835938 0.1640625,0 0.3164062,0.082031 0.3164062,0.4570313 0,0.2109375 -0.035156,0.3164062 -0.1640625,0.8320312 z m 0,0"
       style="fill:#000000;fill-opacity:1;fill-rule:nonzero;stroke:none"
       aria-label="m"
       transform="matrix(1.3333333,0,0,1.3333333,34.988,101.448)" />
    <path
       id="path16"
       d="M 29.00433,85.04042 H 56.49435"
       style="fill:none;stroke:#000000;stroke-width:0.3985;stroke-linecap:butt;stroke-linejoin:miter;stroke-miterlimit:10;stroke-dasharray:none;stroke-opacity:1"
       transform="matrix(1.3333333,0,0,-1.3333333,51.344,155.28133)" />
    <path
       id="path17"
       d="M -1.19551,1.59401 C -1.09587,0.99626 0,0.09961 0.29886,0 0,-0.09961 -1.09587,-0.99626 -1.19551,-1.59401"
       style="fill:none;stroke:#000000;stroke-width:0.31879;stroke-linecap:round;stroke-linejoin:round;stroke-miterlimit:10;stroke-dasharray:none;stroke-opacity:1"
       transform="matrix(-1.3333333,0,0,1.3333333,90.01644,41.894107)" />
    <path
       id="path18"
       d="m 2.5667422,-6.80825 c 0,0 0,-0.1054688 -0.1289063,-0.1054688 -0.2226562,0 -0.9492187,0.082031 -1.2070312,0.1054688 -0.082031,0 -0.1992188,0.011719 -0.1992188,0.1992187 0,0.1171875 0.1054688,0.1171875 0.2578125,0.1171875 0.46875,0 0.4804688,0.082031 0.4804688,0.1640625 l -0.023437,0.1992188 -1.25390626,4.9804687 c -0.0351563,0.1171875 -0.0585938,0.18750005 -0.0585938,0.3398438 0,0.57421875 0.4453125,0.9140625 0.91406256,0.9140625 0.3281249,0 0.5742186,-0.19921875 0.75,-0.55078125 0.1757812,-0.38671875 0.2929687,-0.96093755 0.2929687,-0.98437505 0,-0.09375 -0.09375,-0.09375 -0.1171875,-0.09375 -0.1054687,0 -0.1171875,0.035156 -0.140625,0.1757813 -0.1757813,0.64453125 -0.3632813,1.2421875 -0.7617187,1.2421875 -0.2929688,0 -0.2929688,-0.328125 -0.2929688,-0.45703125 0,-0.24609375 0.011719,-0.29296875 0.058594,-0.48046875 z m 0,0"
       style="fill:#000000;fill-opacity:1;fill-rule:nonzero;stroke:none"
       aria-label="l"
       transform="matrix(1.3333333,0,0,1.3333333,105.92533,37.202667)" />
    <path
       id="path19"
       d="M 85.04042,63.58107 V 21.91763"
       style="fill:none;stroke:#000000;stroke-width:0.3985;stroke-linecap:butt;stroke-linejoin:miter;stroke-miterlimit:10;stroke-dasharray:none;stroke-opacity:1"
       transform="matrix(1.3333333,0,0,-1.3333333,51.344,155.28133)" />
    <path
       id="path20"
       d="M -1.19551,1.59401 C -1.09587,0.99626 0,0.09961 0.29886,0 0,-0.09961 -1.09587,-0.99626 -1.19551,-1.59401"
       style="fill:none;stroke:#000000;stroke-width:0.31879;stroke-linecap:round;stroke-linejoin:round;stroke-miterlimit:10;stroke-dasharray:none;stroke-opacity:1"
       transform="matrix(0,1.3333333,1.3333333,0,164.73123,126.05783)" />
    <path
       id="path21"
       d="m 2.8587813,-6.80725 c 0,0 0,-0.1054688 -0.1289063,-0.1054688 -0.234375,0 -0.9609375,0.082031 -1.21875,0.1054688 -0.082031,0 -0.1875,0.011719 -0.1875,0.1992187 0,0.1171875 0.09375,0.1171875 0.234375,0.1171875 0.4804688,0 0.5039063,0.070312 0.5039063,0.1640625 L 2.02675,-6.1275625 0.58534375,-0.385375 c -0.0351563,0.140625 -0.0351563,0.15234375 -0.0351563,0.22265625 0,0.22265625 0.19921875,0.26953125 0.28125,0.26953125 0.12890625,0 0.28125005,-0.08203125 0.33984375,-0.2109375 0.058594,-0.0820313 0.5039063,-1.921875 0.5625,-2.1796875 0.3398438,0.035156 1.1601563,0.1875 1.1601563,0.8554687 0,0.070312 0,0.1054688 -0.035156,0.1992188 -0.023437,0.1289062 -0.035156,0.24609375 -0.035156,0.3515625 0,0.5859375 0.3984375,0.984375 0.9140625,0.984375 0.2929688,0 0.5625,-0.15234375 0.7851563,-0.52734375 C 4.7689375,-0.854125 4.886125,-1.4049063 4.886125,-1.4283438 c 0,-0.09375 -0.09375,-0.09375 -0.1289062,-0.09375 -0.09375,0 -0.1054688,0.035156 -0.140625,0.1757813 -0.1992188,0.7265625 -0.421875,1.2421875 -0.8671875,1.2421875 -0.1875,0 -0.3164063,-0.1171875 -0.3164063,-0.46875 0,-0.17578125 0.046875,-0.3984375 0.082031,-0.5625 0.035156,-0.1640625 0.035156,-0.2109375 0.035156,-0.3046875 0,-0.65625 -0.6210937,-0.9375 -1.4648437,-1.0546875 0.3046875,-0.1757813 0.6210937,-0.4921875 0.8554687,-0.7265625 0.4804688,-0.5273438 0.9375,-0.9609375 1.4179688,-0.9609375 0.058594,0 0.070312,0 0.09375,0.011719 0.1171875,0.023437 0.1289062,0.023437 0.2109375,0.082031 0.023437,0 0.023437,0.011719 0.035156,0.035156 -0.4804687,0.035156 -0.5625,0.421875 -0.5625,0.5390625 0,0.1640625 0.1054688,0.3515625 0.375,0.3515625 0.2578125,0 0.5507813,-0.2226562 0.5507813,-0.609375 0,-0.3046875 -0.234375,-0.6328125 -0.6796875,-0.6328125 -0.28125,0 -0.7382813,0.082031 -1.453125,0.8789063 -0.3398438,0.375 -0.7265625,0.7734375 -1.1015625,0.9257812 z m 0,0"
       style="fill:#000000;fill-opacity:1;fill-rule:nonzero;stroke:none"
       aria-label="k"
       transform="matrix(1.3333333,0,0,1.3333333,169.42267,103.20133)" />
    <path
       id="path22"
       d="M 52.88068,0 H 29.00433"
       style="fill:none;stroke:#000000;stroke-width:0.3985;stroke-linecap:butt;stroke-linejoin:miter;stroke-miterlimit:10;stroke-dasharray:none;stroke-opacity:1"
       transform="matrix(1.3333333,0,0,-1.3333333,51.344,155.28133)" />
    <path
       id="path23"
       d="M -1.19551,1.59401 C -1.09587,0.99626 0,0.09961 0.29886,0 0,-0.09961 -1.09587,-0.99626 -1.19551,-1.59401"
       style="fill:none;stroke:#000000;stroke-width:0.31879;stroke-linecap:round;stroke-linejoin:round;stroke-miterlimit:10;stroke-dasharray:none;stroke-opacity:1"
       transform="matrix(-1.3333333,0,0,1.3333333,90.01644,155.28133)" />
    <path
       id="path24"
       d="m 4.6884922,-3.7514453 c 0.011719,-0.070312 0.035156,-0.1171875 0.035156,-0.1875 0,-0.1640625 -0.1171875,-0.2695313 -0.2929687,-0.2695313 -0.09375,0 -0.3632813,0.070312 -0.4101563,0.4335938 -0.1757812,-0.375 -0.5273437,-0.6328125 -0.9257812,-0.6328125 -1.1367188,0 -2.36718751,1.3945312 -2.36718751,2.8359375 0,0.98437499 0.60937501,1.57031249 1.32421871,1.57031249 0.5859375,0 1.0546875,-0.46875 1.1601563,-0.57421875 l 0.011719,0.0117188 c -0.2109375,0.87890625 -0.328125,1.2890625 -0.328125,1.3125 -0.046875,0.0820313 -0.3867187,1.07812496 -1.4414062,1.07812496 -0.1875,0 -0.51562501,-0.011719 -0.79687501,-0.1054688 0.3046875,-0.09375 0.41015621,-0.3515625 0.41015621,-0.515625 0,-0.1640625 -0.10546871,-0.35156241 -0.37499996,-0.35156241 -0.22265625,0 -0.5390625,0.17578121 -0.5390625,0.57421871 0,0.4101562 0.36328125,0.609375 1.32421876,0.609375 1.2421875,0 1.9570312,-0.7734375 2.109375,-1.37109371 z m -1.2890625,2.4726562 c -0.058594,0.2578125 -0.2929688,0.51562504 -0.5039063,0.70312504 -0.2109375,0.17578125 -0.5273437,0.3515625 -0.8085937,0.3515625 -0.5039063,0 -0.65625,-0.515625 -0.65625,-0.91406254 0,-0.4804687 0.2929687,-1.6523437 0.5625,-2.15625 0.2695312,-0.4921875 0.703125,-0.890625 1.1132812,-0.890625 0.65625,0 0.796875,0.8085938 0.796875,0.8554688 0,0.046875 -0.011719,0.1054687 -0.023437,0.1523437 z m 0,0"
       style="fill:#000000;fill-opacity:1;fill-rule:nonzero;stroke:none"
       aria-label="g"
       transform="matrix(1.3333333,0,0,1.3333333,102.22133,165.69333)" />
    <path
       id="path25"
       d="m 3.2684922,-3.4688984 c 0,-0.84375 0.3398437,-2.109375 1.7929687,-3.1875 0.3984375,-0.3046875 0.7734375,-0.75 0.7734375,-1.4882813 0,-0.8789062 -0.5976562,-1.9570313 -2.6601562,-1.9570313 -1.5585938,0 -2.40234376,1.0078126 -2.40234376,1.9218751 0,0.515625 0.38671876,0.6328125 0.60937496,0.6328125 0.234375,0 0.5859375,-0.1757813 0.5859375,-0.5976563 0,-0.328125 -0.2460937,-0.5859375 -0.609375,-0.5859375 -0.082031,0 -0.1171875,0 -0.140625,0.011719 0.3164063,-0.75 1.1484375,-1.0898438 1.9101563,-1.0898438 1.6171875,0 1.6171875,1.0429688 1.6171875,1.59375 0,0.84375 -0.2578125,1.1132813 -0.5039063,1.3710938 -0.9726562,1.0546875 -1.2890625,2.3789062 -1.2890625,3.2578125 v 0.6914062 c 0,0.2578125 0,0.3164063 0.1640625,0.3164063 0.1523438,0 0.1523438,-0.1054688 0.1523438,-0.3632813 z m 0.5273437,2.76562496 c 0,-0.37499996 -0.3164062,-0.69140626 -0.6796875,-0.69140626 -0.4335937,0 -0.703125,0.3515625 -0.703125,0.69140626 0,0.43359375 0.3398438,0.7031250025 0.6796875,0.7031250025 0.4101563,0 0.703125,-0.3164062525 0.703125,-0.7031250025 z m 0,0"
       style="fill:#000000;fill-opacity:1;fill-rule:nonzero;stroke:none"
       aria-label="?"
       transform="matrix(1.3333333,0,0,1.3333333,103.61467,105.23067)" />
  </g>
</svg>
