<?xml version="1.0" encoding="UTF-8" standalone="no"?>
<!DOCTYPE svg PUBLIC "-//W3C//DTD SVG 1.1//EN"
 "http://www.w3.org/Graphics/SVG/1.1/DTD/svg11.dtd">
<!-- Generated by graphviz version 14.1.4 (0)
 -->
<!-- Title: TTT Pages: 1 -->
<svg width="188pt" height="188pt"
 viewBox="0.00 0.00 188.00 188.00" xmlns="http://www.w3.org/2000/svg" xmlns:xlink="http://www.w3.org/1999/xlink">
<g id="graph0" class="graph" transform="scale(1 1) rotate(0) translate(4 184)">
<title>TTT</title>
<polygon fill="white" stroke="none" points="-4,4 -4,-184 184,-184 184,4 -4,4"/>
<!-- v1 -->
<g id="node1" class="node">
<title>v1</title>
<polygon fill="none" stroke="black" points="180,-180 144,-180 144,-144 180,-144 180,-180"/>
<text xml:space="preserve" text-anchor="middle" x="162" y="-156.57" font-family="Times,serif" font-size="14.00">X</text>
</g>
<!-- v2 -->
<g id="node2" class="node">
<title>v2</title>
<polygon fill="none" stroke="black" points="36,-180 0,-180 0,-144 36,-144 36,-180"/>
<text xml:space="preserve" text-anchor="middle" x="18" y="-156.57" font-family="Times,serif" font-size="14.00">O</text>
</g>
<!-- v3 -->
<g id="node3" class="node">
<title>v3</title>
<polygon fill="none" stroke="black" points="36,-36 0,-36 0,0 36,0 36,-36"/>
<text xml:space="preserve" text-anchor="middle" x="18" y="-12.57" font-family="Times,serif" font-size="14.00">X</text>
</g>
<!-- v4 -->
<g id="node4" class="node">
<title>v4</title>
<polygon fill="none" stroke="black" points="108,-36 72,-36 72,0 108,0 108,-36"/>
<text xml:space="preserve" text-anchor="middle" x="90" y="-12.57" font-family="Times,serif" font-size="14.00">O</text>
</g>
<!-- v5 -->
<g id="node5" class="node">
<title>v5</title>
<polygon fill="none" stroke="black" points="108,-108 72,-108 72,-72 108,-72 108,-108"/>
<text xml:space="preserve" text-anchor="middle" x="90" y="-84.58" font-family="Times,serif" font-size="14.00">X</text>
</g>
<!-- v6 -->
<g id="node6" class="node">
<title>v6</title>
<polygon fill="none" stroke="black" points="36,-108 0,-108 0,-72 36,-72 36,-108"/>
<text xml:space="preserve" text-anchor="middle" x="18" y="-84.58" font-family="Times,serif" font-size="14.00">O</text>
</g>
<!-- v7 -->
<g id="node7" class="node">
<title>v7</title>
<polygon fill="none" stroke="black" points="180,-108 144,-108 144,-72 180,-72 180,-108"/>
<text xml:space="preserve" text-anchor="middle" x="162" y="-84.58" font-family="Times,serif" font-size="14.00">X</text>
</g>
<!-- v8 -->
<g id="node8" class="node">
<title>v8</title>
<polygon fill="none" stroke="black" points="108,-180 72,-180 72,-144 108,-144 108,-180"/>
</g>
<!-- v9 -->
<g id="node9" class="node">
<title>v9</title>
<polygon fill="none" stroke="black" points="180,-36 144,-36 144,0 180,0 180,-36"/>
</g>
</g>
</svg>
