<?xml version="1.0" encoding="UTF-8" standalone="no"?>
<!-- Created with Inkscape (http://www.inkscape.org/) -->

<svg
   version="1.1"
   id="svg1"
   width="644.39210"
   height="249.47253"
   viewBox="0 0 484.50534 187.57333"
   sodipodi:docname="mark-x-span.pdf"
   xmlns:inkscape="http://www.inkscape.org/namespaces/inkscape"
   xmlns:sodipodi="http://sodipodi.sourceforge.net/DTD/sodipodi-0.dtd"
   xmlns="http://www.w3.org/2000/svg"
   xmlns:svg="http://www.w3.org/2000/svg">
  <defs
     id="defs1" />
  <sodipodi:namedview
     id="namedview1"
     pagecolor="#ffffff"
     bordercolor="#000000"
     borderopacity="0.25"
     inkscape:showpageshadow="2"
     inkscape:pageopacity="0.0"
     inkscape:pagecheckerboard="0"
     inkscape:deskcolor="#d1d1d1">
    <inkscape:page
       x="0"
       y="0"
       inkscape:label="1"
       id="page1"
       width="484.50534"
       height="187.57333"
       margin="0"
       bleed="0" />
  </sodipodi:namedview>
  <g
     id="g1"
     inkscape:groupmode="layer"
     inkscape:label="1">
    <path
       id="path1"
       d="m -25.51193,-20.53055 v 41.0611 c 0,2.75119 2.23019,4.98138 4.98138,4.98138 h 41.0611 c 2.75119,0 4.98138,-2.23019 4.98138,-4.98138 v -41.0611 c 0,-2.75119 -2.23019,-4.98138 -4.98138,-4.98138 h -41.0611 c -2.75119,0 -4.98138,2.23019 -4.98138,4.98138 z"
       style="fill:#f9f9f9;fill-opacity:1;fill-rule:nonzero;stroke:#b3b3b3;stroke-width:0.99628;stroke-linecap:butt;stroke-linejoin:miter;stroke-miterlimit:10;stroke-dasharray:none;stroke-opacity:1"
       transform="matrix(1.3333333,0,0,-1.3333333,53.276,134.29733)" />
    <path
       id="path2"
       d="m 116.22208,-20.53055 v 41.0611 c 0,2.75119 2.23021,4.98138 4.98138,4.98138 h 41.06114 c 2.75118,0 4.98139,-2.23019 4.98139,-4.98138 v -41.0611 c 0,-2.75119 -2.23021,-4.98138 -4.98139,-4.98138 h -41.06114 c -2.75117,0 -4.98138,2.23019 -4.98138,4.98138 z"
       style="fill:#f9f9f9;fill-opacity:1;fill-rule:nonzero;stroke:#b3b3b3;stroke-width:0.99628;stroke-linecap:butt;stroke-linejoin:miter;stroke-miterlimit:10;stroke-dasharray:none;stroke-opacity:1"
       transform="matrix(1.3333333,0,0,-1.3333333,53.276,134.29733)" />
    <path
       id="path3"
       d="m 257.95613,-20.53055 v 84.99874 c 0,2.75119 2.23021,4.98138 4.98139,4.98138 h 41.06114 c 2.75117,0 4.98138,-2.23019 4.98138,-4.98138 v -84.99874 c 0,-2.75119 -2.23021,-4.98138 -4.98138,-4.98138 h -41.06114 c -2.75118,0 -4.98139,2.23019 -4.98139,4.98138 z"
       style="fill:#f9f9f9;fill-opacity:1;fill-rule:nonzero;stroke:#b3b3b3;stroke-width:0.99628;stroke-linecap:butt;stroke-linejoin:miter;stroke-miterlimit:10;stroke-dasharray:none;stroke-opacity:1"
       transform="matrix(1.3333333,0,0,-1.3333333,53.276,134.29733)" />
    <path
       id="path4"
       d="m 4.3814453,-7.2421562 c 0.1171875,-0.4570313 0.1523438,-0.5742188 1.1953125,-0.5742188 0.328125,0 0.4101563,0 0.4101563,-0.2226562 0,-0.1289063 -0.1289063,-0.1289063 -0.1757813,-0.1289063 -0.2460937,0 -0.515625,0.023437 -0.7617187,0.023437 h -1.59375 c -0.234375,0 -0.4921875,-0.023437 -0.7148438,-0.023437 -0.1054687,0 -0.234375,0 -0.234375,0.234375 0,0.1171875 0.1054688,0.1171875 0.2929688,0.1171875 0.7265625,0 0.7265625,0.09375 0.7265625,0.2226563 0,0.023437 0,0.09375 -0.046875,0.28125 L 1.8619141,-0.878875 c -0.1054688,0.41015625 -0.1289063,0.52734375 -0.96093754,0.52734375 -0.234375,0 -0.3515625,0 -0.3515625,0.22265625 0,0.12890625 0.0703125,0.12890625 0.3046875,0.12890625 H 6.2095703 c 0.2695313,0 0.28125,-0.01171875 0.3632813,-0.22265625 l 0.9257812,-2.5546875 c 0.023437,-0.058594 0.046875,-0.1289062 0.046875,-0.1640625 0,-0.070312 -0.058594,-0.1171875 -0.1289062,-0.1171875 -0.011719,0 -0.070312,0 -0.09375,0.046875 -0.023437,0.011719 -0.023437,0.035156 -0.1171875,0.2578125 -0.3867188,1.0546875 -0.9140625,2.40234375 -2.9414063,2.40234375 H 3.1158203 c -0.1640625,0 -0.1875,0 -0.2578125,-0.0117188 -0.1289062,-0.0117188 -0.140625,-0.0351563 -0.140625,-0.12890625 0,-0.0820312 0.023437,-0.15234375 0.046875,-0.2578125 z m 0,0"
       style="fill:#000000;fill-opacity:1;fill-rule:nonzero;stroke:none"
       aria-label="L"
       transform="matrix(1.3333333,0,0,1.3333333,47.966667,90.609333)" />
    <path
       id="path5"
       d="M 5.9777891,-4.8280937 C 5.9660703,-4.86325 5.9191953,-4.957 5.9191953,-4.9921562 c 0,-0.011719 0.011719,-0.023437 0.2109375,-0.1875 L 7.2902891,-6.082 c 1.6054687,-1.2421875 2.1328125,-1.6640625 2.9531249,-1.734375 0.08203,-0.011719 0.199219,-0.011719 0.199219,-0.2109375 0,-0.082031 -0.03516,-0.140625 -0.128906,-0.140625 -0.128907,0 -0.269532,0.023437 -0.3984379,0.023437 H 9.4582578 c -0.375,0 -0.7617187,-0.023437 -1.125,-0.023437 -0.082031,0 -0.2226562,0 -0.2226562,0.2226563 0,0.1171875 0.082031,0.1289062 0.1523437,0.1289062 0.1289063,0.011719 0.28125,0.058594 0.28125,0.2226563 0,0.2460937 -0.3515625,0.5273437 -0.4453125,0.5976562 l -4.6875,3.6445313 0.984375,-3.9375 c 0.1171875,-0.4101563 0.140625,-0.5273438 0.984375,-0.5273438 0.2226563,0 0.3398438,0 0.3398438,-0.2226562 0,-0.1289063 -0.1289063,-0.1289063 -0.1875,-0.1289063 -0.2109375,0 -0.46875,0.023437 -0.6914063,0.023437 h -1.40625 c -0.2226562,0 -0.4804687,-0.023437 -0.6914062,-0.023437 -0.1054688,0 -0.234375,0 -0.234375,0.234375 0,0.1171875 0.1054687,0.1171875 0.2929687,0.1171875 0.7265625,0 0.7265625,0.09375 0.7265625,0.2226563 0,0.023437 0,0.09375 -0.046875,0.28125 L 1.8645078,-0.878875 c -0.1054687,0.41015625 -0.1289062,0.52734375 -0.96093749,0.52734375 -0.234375,0 -0.3515625,0 -0.3515625,0.22265625 0,0.12890625 0.10546875,0.12890625 0.17578125,0.12890625 0.234375,0 0.46875004,-0.0234375 0.69140624,-0.0234375 h 1.40625 c 0.2226563,0 0.4804688,0.0234375 0.703125,0.0234375 0.09375,0 0.2226563,0 0.2226563,-0.22265625 0,-0.12890625 -0.1054688,-0.12890625 -0.28125,-0.12890625 -0.7265625,0 -0.7265625,-0.09375 -0.7265625,-0.2109375 0,-0.0820313 0.070312,-0.38671875 0.1171875,-0.57421875 l 0.46875,-1.8515625 1.8164062,-1.4179687 c 0.3398438,0.7617187 0.9726563,2.2851562 1.4648438,3.4570312 0.035156,0.0820313 0.058594,0.15234375 0.058594,0.234375 0,0.3515625 -0.4804687,0.36328125 -0.5859375,0.36328125 -0.1054687,0 -0.2226562,0 -0.2226562,0.234375 0,0.1171875 0.1289062,0.1171875 0.1640625,0.1171875 0.421875,0 0.8671875,-0.0234375 1.2773437,-0.0234375 h 0.5742188 c 0.1757812,0 0.3867187,0.0234375 0.5625,0.0234375 0.070312,0 0.1992187,0 0.1992187,-0.22265625 0,-0.12890625 -0.1054687,-0.12890625 -0.2226562,-0.12890625 C 7.9699766,-0.36325 7.8176328,-0.457 7.6418516,-0.878875 Z m 0,0"
       style="fill:#000000;fill-opacity:1;fill-rule:nonzero;stroke:none"
       aria-label="K"
       transform="matrix(1.3333333,0,0,1.3333333,235.04133,90.609333)" />
    <path
       id="path6"
       d="m 4.3935234,-7.3491094 c 0.1171875,-0.4453125 0.1640625,-0.46875 0.6210938,-0.46875 h 0.8671875 c 1.03125,0 1.7929687,0.3046875 1.7929687,1.2421875 0,0.609375 -0.3164062,2.3671875 -2.71875,2.3671875 H 3.6083672 Z m 1.6640625,3.28125 c 1.4882813,-0.3164062 2.6484375,-1.2773437 2.6484375,-2.3085937 0,-0.9257813 -0.9492187,-1.7929688 -2.6132812,-1.7929688 h -3.234375 c -0.2460938,0 -0.3515625,0 -0.3515625,0.234375 0,0.1171875 0.082031,0.1171875 0.3164062,0.1171875 0.7148438,0 0.7148438,0.09375 0.7148438,0.2226563 0,0.023437 0,0.09375 -0.046875,0.28125 l -1.6171875,6.43359373 c -0.1054688,0.41015625 -0.1289063,0.52734375 -0.94921876,0.52734375 -0.28125,0 -0.36328125,0 -0.36328125,0.234375 0,0.1171875 0.12890625,0.1171875 0.1640625,0.1171875 0.22265625,0 0.46875001,-0.0234375 0.69140621,-0.0234375 h 1.4179688 c 0.2109375,0 0.46875,0.0234375 0.6796875,0.0234375 0.09375,0 0.2226562,0 0.2226562,-0.22265625 0,-0.12890625 -0.1054687,-0.12890625 -0.28125,-0.12890625 -0.7265625,0 -0.7265625,-0.09375 -0.7265625,-0.2109375 0,-0.0117188 0,-0.09375 0.023437,-0.1875 l 0.796875,-3.22265628 h 1.4296875 c 1.1367188,0 1.359375,0.7265625 1.359375,1.1132813 0,0.1875 -0.1289062,0.6445312 -0.2109375,0.9609375 -0.1289062,0.5507812 -0.1640625,0.6796875 -0.1640625,0.90234373 0,0.85546875 0.6914063,1.2421875 1.4882813,1.2421875 0.9726562,0 1.3945312,-1.18359375 1.3945312,-1.34765623 0,-0.082031 -0.058594,-0.1171875 -0.1289062,-0.1171875 -0.1054688,0 -0.1289063,0.070312 -0.1523438,0.1640625 -0.28125,0.85546873 -0.7734375,1.06640623 -1.0664062,1.06640623 -0.3046875,0 -0.4921875,-0.12890625 -0.4921875,-0.66796875 0,-0.29296875 0.140625,-1.37109378 0.1523437,-1.44140628 0.058594,-0.4335937 0.058594,-0.4804687 0.058594,-0.5742187 0,-0.8789063 -0.703125,-1.2539063 -1.160156,-1.3945313 z m 0,0"
       style="fill:#000000;fill-opacity:1;fill-rule:nonzero;stroke:none"
       aria-label="R"
       transform="matrix(1.3333333,0,0,1.3333333,425.224,33.916)" />
    <path
       id="path7"
       d="M 15.59082,0 C 15.59082,8.61067 8.61067,15.59082 0,15.59082 -8.61067,15.59082 -15.59082,8.61067 -15.59082,0 c 0,-8.61067 6.98015,-15.59082 15.59082,-15.59082 8.61067,0 15.59082,6.98015 15.59082,15.59082 z"
       style="fill:#ccccff;fill-opacity:1;fill-rule:nonzero;stroke:#000099;stroke-width:1.49442;stroke-linecap:butt;stroke-linejoin:miter;stroke-miterlimit:10;stroke-dasharray:none;stroke-opacity:1"
       transform="matrix(1.3333333,0,0,-1.3333333,53.276,134.29733)" />
    <path
       id="path8"
       d="m 2.1919609,-3.7618516 c -0.4570312,-0.1054687 -0.9140625,-0.46875 -0.9140625,-0.984375 0,-0.515625 0.4921875,-1.03125 1.3007813,-1.03125 0.6445312,0 1.1015625,0.1875 1.5585937,0.5742188 L 4.2896172,-5.9766953 C 3.8325859,-6.1993516 3.4107109,-6.4220078 2.5903984,-6.4220078 c -1.2773437,0 -2.07421871,0.890625 -2.07421871,1.78125 0,0.234375 0.0351563,0.5859375 0.33984375,0.9960937 0.42187496,0.5390625 0.99609376,0.6796875 1.37109376,0.7617188 0.1171875,0.035156 0.6796875,0.1757812 0.75,0.1992187 0.4101562,0.1171875 0.8554687,0.515625 0.8554687,1.0664063 0,0.5976562 -0.5039062,1.14843749 -1.3007812,1.14843749 -0.7265625,0 -1.40625,-0.26953125 -1.98046876,-0.73828129 l -0.140625,0.78515629 C 1.2896172,0.12877344 2.1099297,0.19908594 2.5318047,0.19908594 c 1.2304687,0 2.0625,-0.9140625 2.0625,-1.91015624 0,-1.0195313 -0.8320313,-1.6757813 -1.5,-1.8398438 z M 9.1265313,-4.0782578 H 8.4116875 v 0.609375 c -0.1640625,-0.1757813 -0.5625,-0.609375 -1.2773437,-0.609375 -0.9023438,0 -1.6875,0.890625 -1.6875,2.0976562 0,1.12500004 0.6445312,2.07421879 1.5234375,2.07421879 0.5859375,0 1.1015625,-0.26953125 1.40625,-0.52734375 V 1.7342422 h 0.75 z m -0.7148438,2.8125 c 0,0.1289062 0,0.28124999 -0.3164062,0.52734374 -0.1875,0.1640625 -0.4335938,0.2578125 -0.6679688,0.2578125 -0.6914062,0 -1.2421875,-0.67968754 -1.2421875,-1.50000004 0,-0.890625 0.6445313,-1.4882812 1.3242188,-1.4882812 0.5976562,0 0.9023437,0.5976562 0.9023437,0.9726562 z m 0,0"
       style="fill:#000000;fill-opacity:1;fill-rule:nonzero;stroke:none"
       aria-label="Sq"
       transform="matrix(1.3333333,0,0,1.3333333,46.690667,137.28533)" />
    <path
       id="path9"
       d="m 157.32487,0 c 0,8.61067 -6.98016,15.59082 -15.59083,15.59082 -8.61067,0 -15.59082,-6.98015 -15.59082,-15.59082 0,-8.61067 6.98015,-15.59082 15.59082,-15.59082 8.61067,0 15.59083,6.98015 15.59083,15.59082 z"
       style="fill:#ccccff;fill-opacity:1;fill-rule:nonzero;stroke:#000099;stroke-width:1.49442;stroke-linecap:butt;stroke-linejoin:miter;stroke-miterlimit:10;stroke-dasharray:none;stroke-opacity:1"
       transform="matrix(1.3333333,0,0,-1.3333333,53.276,134.29733)" />
    <path
       id="path10"
       d="m 2.1923828,-3.7618516 c -0.4570312,-0.1054687 -0.9140625,-0.46875 -0.9140625,-0.984375 0,-0.515625 0.4921875,-1.03125 1.3007813,-1.03125 0.6445312,0 1.1015625,0.1875 1.5585937,0.5742188 L 4.2900391,-5.9766953 C 3.8330078,-6.1993516 3.4111328,-6.4220078 2.5908203,-6.4220078 c -1.2773437,0 -2.07421874,0.890625 -2.07421874,1.78125 0,0.234375 0.0351563,0.5859375 0.33984375,0.9960937 0.42187499,0.5390625 0.99609379,0.6796875 1.37109379,0.7617188 0.1171875,0.035156 0.6796875,0.1757812 0.75,0.1992187 0.4101562,0.1171875 0.8554687,0.515625 0.8554687,1.0664063 0,0.5976562 -0.5039062,1.14843749 -1.3007812,1.14843749 -0.7265625,0 -1.40625,-0.26953125 -1.98046879,-0.73828129 l -0.140625,0.78515629 C 1.2900391,0.12877344 2.1103516,0.19908594 2.5322266,0.19908594 c 1.2304687,0 2.0625,-0.9140625 2.0625,-1.91015624 0,-1.0195313 -0.8320313,-1.6757813 -1.5,-1.8398438 z M 9.1269531,-4.0782578 H 8.4121094 v 0.609375 c -0.1640625,-0.1757813 -0.5625,-0.609375 -1.2773438,-0.609375 -0.9023437,0 -1.6875,0.890625 -1.6875,2.0976562 0,1.12500004 0.6445313,2.07421879 1.5234375,2.07421879 0.5859375,0 1.1015625,-0.26953125 1.40625,-0.52734375 V 1.7342422 h 0.75 z m -0.7148437,2.8125 c 0,0.1289062 0,0.28124999 -0.3164063,0.52734374 -0.1875,0.1640625 -0.4335937,0.2578125 -0.6679687,0.2578125 -0.6914063,0 -1.2421875,-0.67968754 -1.2421875,-1.50000004 0,-0.890625 0.6445312,-1.4882812 1.3242187,-1.4882812 0.5976563,0 0.9023438,0.5976562 0.9023438,0.9726562 z m 0,0"
       style="fill:#000000;fill-opacity:1;fill-rule:nonzero;stroke:none"
       aria-label="Sq"
       transform="matrix(1.3333333,0,0,1.3333333,235.66667,137.28533)" />
    <path
       id="path11"
       d="m 299.05891,46.77203 c 0,8.61069 -6.98014,15.59084 -15.59081,15.59084 -8.61068,0 -15.59084,-6.98015 -15.59084,-15.59084 0,-8.61067 6.98016,-15.59082 15.59084,-15.59082 8.61067,0 15.59081,6.98015 15.59081,15.59082 z"
       style="fill:#ffcc99;fill-opacity:1;fill-rule:nonzero;stroke:#b35900;stroke-width:1.49442;stroke-linecap:butt;stroke-linejoin:miter;stroke-miterlimit:10;stroke-dasharray:none;stroke-opacity:1"
       transform="matrix(1.3333333,0,0,-1.3333333,53.276,134.29733)" />
    <path
       id="path12"
       d="M 3.422625,-3.2807969 5.6374688,-6.2222031 H 4.7116875 L 3.0124688,-3.9136094 1.2780938,-6.2222031 H 0.2585625 L 2.5905938,-3.2807969 0.12965625,4.53125e-4 H 1.0554375 L 3.0124688,-2.7182969 5.016375,4.53125e-4 h 1.0078125 z m 0,0"
       style="fill:#000000;fill-opacity:1;fill-rule:nonzero;stroke:none"
       aria-label="X"
       transform="matrix(1.3333333,0,0,1.3333333,427.124,76.085333)" />
    <path
       id="path13"
       d="m 299.05891,0 c 0,8.61067 -6.98014,15.59082 -15.59081,15.59082 -8.61068,0 -15.59084,-6.98015 -15.59084,-15.59082 0,-8.61067 6.98016,-15.59082 15.59084,-15.59082 8.61067,0 15.59081,6.98015 15.59081,15.59082 z"
       style="fill:#ccccff;fill-opacity:1;fill-rule:nonzero;stroke:#000099;stroke-width:1.49442;stroke-linecap:butt;stroke-linejoin:miter;stroke-miterlimit:10;stroke-dasharray:none;stroke-opacity:1"
       transform="matrix(1.3333333,0,0,-1.3333333,53.276,134.29733)" />
    <path
       id="path14"
       d="m 2.1928047,-3.7618516 c -0.4570313,-0.1054687 -0.9140625,-0.46875 -0.9140625,-0.984375 0,-0.515625 0.4921875,-1.03125 1.3007812,-1.03125 0.6445313,0 1.1015625,0.1875 1.5585938,0.5742188 L 4.2904609,-5.9766953 C 3.8334297,-6.1993516 3.4115547,-6.4220078 2.5912422,-6.4220078 c -1.2773438,0 -2.07421876,0.890625 -2.07421876,1.78125 0,0.234375 0.0351563,0.5859375 0.33984375,0.9960937 0.42187501,0.5390625 0.99609371,0.6796875 1.37109371,0.7617188 0.1171875,0.035156 0.6796875,0.1757812 0.75,0.1992187 0.4101563,0.1171875 0.8554688,0.515625 0.8554688,1.0664063 0,0.5976562 -0.5039063,1.14843749 -1.3007813,1.14843749 -0.7265625,0 -1.40625,-0.26953125 -1.98046871,-0.73828129 l -0.140625,0.78515629 C 1.2904609,0.12877344 2.1107734,0.19908594 2.5326484,0.19908594 c 1.2304688,0 2.0625,-0.9140625 2.0625,-1.91015624 0,-1.0195313 -0.8320312,-1.6757813 -1.5,-1.8398438 z M 9.127375,-4.0782578 H 8.4125313 v 0.609375 c -0.1640625,-0.1757813 -0.5625,-0.609375 -1.2773438,-0.609375 -0.9023437,0 -1.6875,0.890625 -1.6875,2.0976562 0,1.12500004 0.6445313,2.07421879 1.5234375,2.07421879 0.5859375,0 1.1015625,-0.26953125 1.40625,-0.52734375 V 1.7342422 h 0.75 z m -0.7148437,2.8125 c 0,0.1289062 0,0.28124999 -0.3164063,0.52734374 -0.1875,0.1640625 -0.4335937,0.2578125 -0.6679687,0.2578125 -0.6914063,0 -1.2421875,-0.67968754 -1.2421875,-1.50000004 0,-0.890625 0.6445312,-1.4882812 1.3242187,-1.4882812 0.5976563,0 0.9023438,0.5976562 0.9023438,0.9726562 z m 0,0"
       style="fill:#000000;fill-opacity:1;fill-rule:nonzero;stroke:none"
       aria-label="Sq"
       transform="matrix(1.3333333,0,0,1.3333333,424.64267,137.28533)" />
    <path
       id="path15"
       d="M 283.4681,30.434 V 20.71738"
       style="fill:none;stroke:#000000;stroke-width:0.79701;stroke-linecap:butt;stroke-linejoin:miter;stroke-miterlimit:10;stroke-dasharray:none;stroke-opacity:1"
       transform="matrix(1.3333333,0,0,-1.3333333,53.276,134.29733)" />
    <path
       id="path16"
       d="M 5.83896,0 1.287,1.72005 2.79384,0 1.287,-1.72005 Z"
       style="fill:#000000;fill-opacity:1;fill-rule:nonzero;stroke:#000000;stroke-width:0.79701;stroke-linecap:butt;stroke-linejoin:miter;stroke-miterlimit:10;stroke-dasharray:none;stroke-opacity:1"
       transform="matrix(0,1.3333333,1.3333333,0,431.23347,103.21471)" />
    <path
       id="path17"
       d="m 1.9566562,-1.0778047 c -0.070312,0.25781251 -0.234375,0.93750001 -0.7382812,0.93750001 -0.1757813,0 -0.3046875,-0.0703125 -0.36328125,-0.1171875 0.16406245,-0.0585938 0.28124995,-0.19921875 0.28124995,-0.375 0,-0.234375 -0.18749995,-0.28125 -0.28124995,-0.28125 -0.22265625,0 -0.3984375,0.19921875 -0.3984375,0.4453125 0,0.38671875 0.3984375,0.55078125 0.74999995,0.55078125 0.3632813,0 0.6210938,-0.22265625 0.8203125,-0.50390625 0.1289063,0.29296875 0.4335938,0.50390625 0.8203125,0.50390625 0.8203125,0 1.3007813,-0.99609375 1.3007813,-1.23046876 0,-0.09375 -0.1171875,-0.09375 -0.1523438,-0.09375 -0.09375,0 -0.1289062,0.023437 -0.1523437,0.1054688 -0.2578125,0.82031246 -0.75,0.99609371 -0.984375,0.99609371 -0.2460938,0 -0.4101563,-0.17578125 -0.4101563,-0.50390625 0,-0.17578125 0.09375,-0.56249996 0.1640625,-0.83203126 0.082031,-0.3515625 0.1640625,-0.6914062 0.2578125,-1.03125 0.1289063,-0.4921875 0.3984375,-0.7851562 0.703125,-0.7851562 0.1992188,0 0.3398438,0.1054687 0.3515625,0.1171875 -0.070312,0.023437 -0.28125,0.1523437 -0.28125,0.375 0,0.2226562 0.1757813,0.2695312 0.28125,0.2695312 0.1523438,0 0.3984375,-0.1054687 0.3984375,-0.4335937 0,-0.4335938 -0.4804687,-0.5507813 -0.75,-0.5507813 -0.328125,0 -0.5976562,0.1875 -0.8085937,0.5039063 -0.09375,-0.1875 -0.3398438,-0.5039063 -0.8203125,-0.5039063 -0.8320313,0 -1.3125,1.0078125 -1.3125,1.21875 0,0.1054688 0.10546875,0.1054688 0.15234375,0.1054688 0.10546875,0 0.12890625,-0.023437 0.15234375,-0.1054688 0.2460937,-0.7851562 0.7265625,-0.9960937 0.9960937,-0.9960937 0.2578125,0 0.4101563,0.2109375 0.4101563,0.5039062 0,0.1640625 -0.035156,0.328125 -0.1289063,0.6679688 z m 5.1855469,-1.875 c -0.28125,0.070312 -0.28125,0.3046875 -0.28125,0.328125 0,0.140625 0.1054688,0.234375 0.2460938,0.234375 0.035156,0 0.3515625,0 0.3515625,-0.4335937 0,-0.4804688 -0.46875,-0.6914063 -0.9257813,-0.6914063 -1.078125,0 -1.3359375,0.8671875 -1.3359375,1.171875 0,0.2109375 0.09375,0.4335938 0.2578125,0.5625 0.1757813,0.1523438 0.2695313,0.1757813 0.7382813,0.2695313 0.1757812,0.035156 0.5976562,0.1289062 0.5976562,0.52734371 0,0.24609375 -0.2109375,0.84375 -1.0898437,0.84375 -0.1640625,0 -0.6328125,-0.0234375 -0.796875,-0.3984375 0.3515625,-0.0585938 0.3515625,-0.36328125 0.3515625,-0.38671875 0,-0.15234376 -0.1054688,-0.25781246 -0.28125,-0.25781246 -0.2109375,0 -0.4101563,0.1523437 -0.4101563,0.49218746 0,0.4453125 0.4335938,0.7734375 1.1367188,0.7734375 1.2539062,0 1.5820312,-0.9375 1.5820312,-1.32421876 0,-0.7148437 -0.703125,-0.8554687 -0.9609375,-0.9140625 -0.3515625,-0.070312 -0.6210937,-0.1171875 -0.6210937,-0.4453125 0,-0.2226562 0.1992187,-0.6914062 0.8203125,-0.6914062 0.2460937,0 0.5273437,0.09375 0.6210937,0.3398437 z m 4.4472659,-0.3515625 c 0.02344,-0.046875 0.02344,-0.070312 0.02344,-0.09375 0,-0.070312 -0.04687,-0.1171875 -0.105469,-0.1171875 -0.117187,0 -0.398437,0.3398438 -0.503906,0.5039063 -0.128906,-0.2578125 -0.363281,-0.5039063 -0.761719,-0.5039063 -0.9374995,0 -1.898437,1.1835938 -1.898437,2.3203125 0,0.76171876 0.4570312,1.27734376 1.0546875,1.27734376 0.46875,0 0.8554685,-0.375 0.8906245,-0.41015625 -0.02344,0.1171875 -0.234375,0.9375 -0.28125,1.16015625 C 9.89025,1.2542266 9.89025,1.2776641 9.3863437,1.2776641 c -0.09375,0 -0.1875,0 -0.1875,0.1523437 0,0.082031 0.046875,0.1171875 0.1171875,0.1171875 0.2460938,0 0.5273438,-0.023437 0.7968748,-0.023437 0.632813,0 0.738281,0.023437 0.808594,0.023437 0.04687,0 0.152344,0 0.152344,-0.1523437 0,-0.1171875 -0.105469,-0.1171875 -0.199219,-0.1171875 -0.222656,0 -0.386719,0 -0.386719,-0.1054688 0,-0.011719 0,-0.058594 0.02344,-0.17578124 z m -1.113282,2.25 c -0.07031,0.26953126 -0.585937,0.91406251 -1.054687,0.91406251 -0.375,0 -0.5039063,-0.41015625 -0.5039063,-0.7265625 0,-0.37500001 0.234375,-1.31250001 0.4335938,-1.68750001 0.3164062,-0.5742187 0.6679685,-0.7382812 0.8906245,-0.7382812 0.503907,0 0.597657,0.6796875 0.597657,0.7617187 0,0.023437 -0.01172,0.082031 -0.02344,0.1054688 z m 0,0"
       style="fill:#000000;fill-opacity:1;fill-rule:nonzero;stroke:none"
       aria-label="xsq"
       transform="matrix(1.3333333,0,0,1.3333333,436.188,104.37067)" />
    <path
       id="path18"
       d="M 125.39601,0 H 20.71738"
       style="fill:none;stroke:#000000;stroke-width:0.79701;stroke-linecap:butt;stroke-linejoin:miter;stroke-miterlimit:10;stroke-dasharray:none;stroke-opacity:1"
       transform="matrix(1.3333333,0,0,-1.3333333,53.276,134.29733)" />
    <path
       id="path19"
       d="M 5.83896,0 1.287,1.72005 2.79384,0 1.287,-1.72005 Z"
       style="fill:#000000;fill-opacity:1;fill-rule:nonzero;stroke:#000000;stroke-width:0.79701;stroke-linecap:butt;stroke-linejoin:miter;stroke-miterlimit:10;stroke-dasharray:none;stroke-opacity:1"
       transform="matrix(-1.3333333,0,0,1.3333333,84.358627,134.29733)" />
    <path
       id="path20"
       d="m 3.035375,-7.9913047 c 0.011719,-0.046875 0.035156,-0.1289062 0.035156,-0.1875 0,-0.1171875 -0.1171875,-0.1171875 -0.140625,-0.1171875 -0.011719,0 -0.4453125,0.035156 -0.65625,0.058594 -0.2109375,0.011719 -0.3867188,0.035156 -0.5976563,0.046875 -0.2929687,0.023437 -0.375,0.035156 -0.375,0.2578125 0,0.1171875 0.1171875,0.1171875 0.2460938,0.1171875 0.609375,0 0.609375,0.1054687 0.609375,0.2226562 0,0.046875 0,0.070312 -0.058594,0.2929688 L 0.60959375,-1.3702109 C 0.5744375,-1.2413047 0.551,-1.1475547 0.551,-0.96005469 c 0,0.59765625 0.4453125,1.078125 1.0546875,1.078125 0.3867188,0 0.65625,-0.2578125 0.84375,-0.6328125 0.1992188,-0.3984375 0.375,-1.14843751 0.375,-1.19531251 0,-0.058594 -0.046875,-0.1054687 -0.1171875,-0.1054687 -0.1171875,0 -0.1289062,0.058594 -0.1757812,0.234375 -0.2109375,0.83203121 -0.421875,1.46484371 -0.9023438,1.46484371 -0.3632812,0 -0.3632812,-0.38671875 -0.3632812,-0.55078125 0,-0.046875 0,-0.3046875 0.082031,-0.63281246 z m 0,0"
       style="fill:#000000;fill-opacity:1;fill-rule:nonzero;stroke:none"
       aria-label="l"
       transform="matrix(1.3333333,0,0,1.3333333,145.26533,129.33867)" />
    <path
       id="path21"
       d="M 158.07208,0 H 262.75072"
       style="fill:none;stroke:#000000;stroke-width:0.79701;stroke-linecap:butt;stroke-linejoin:miter;stroke-miterlimit:10;stroke-dasharray:none;stroke-opacity:1"
       transform="matrix(1.3333333,0,0,-1.3333333,53.276,134.29733)" />
    <path
       id="path22"
       d="M 5.83896,0 1.287,1.72005 2.79384,0 1.287,-1.72005 Z"
       style="fill:#000000;fill-opacity:1;fill-rule:nonzero;stroke:#000000;stroke-width:0.79701;stroke-linecap:butt;stroke-linejoin:miter;stroke-miterlimit:10;stroke-dasharray:none;stroke-opacity:1"
       transform="matrix(1.3333333,0,0,-1.3333333,400.15081,134.29733)" />
    <path
       id="path23"
       d="m 4.6522031,-4.8858359 c -0.375,0.070312 -0.5625,0.328125 -0.5625,0.5976562 0,0.28125 0.2226563,0.375 0.3984375,0.375 0.328125,0 0.609375,-0.28125 0.609375,-0.6445312 0,-0.375 -0.375,-0.7148438 -0.9726562,-0.7148438 -0.4804688,0 -1.03125,0.2226563 -1.5351563,0.9492188 -0.082031,-0.6328125 -0.5625,-0.9492188 -1.03125,-0.9492188 -0.46875,0 -0.71484372,0.3632813 -0.85546872,0.6210938 -0.19921875,0.4335937 -0.375,1.1484375 -0.375,1.2070312 0,0.046875 0.046875,0.1054688 0.12890625,0.1054688 0.09375,0 0.10546875,-0.011719 0.17578125,-0.28125 0.17578125,-0.7148438 0.41015622,-1.40625 0.89062502,-1.40625 0.28125,0 0.3632812,0.1992187 0.3632812,0.5390625 0,0.2695312 -0.1171875,0.7382812 -0.1992187,1.1015625 l -0.3398438,1.2890625 c -0.046875,0.234375 -0.1757812,0.7734375 -0.234375,0.984375 -0.082031,0.31640621 -0.21093747,0.87890621 -0.21093747,0.93749996 0,0.1640625 0.12890627,0.29296875 0.30468747,0.29296875 0.1289063,0 0.3632813,-0.08203125 0.4335938,-0.31640625 0.035156,-0.10546875 0.4804687,-1.91015626 0.5507812,-2.17968746 0.058594,-0.2578125 0.1289063,-0.515625 0.1875,-0.7734375 0.046875,-0.1757813 0.09375,-0.3632813 0.1289063,-0.515625 0.035156,-0.1054688 0.3632812,-0.6914063 0.65625,-0.9609375 0.1523437,-0.1289063 0.4570312,-0.3984375 0.9492187,-0.3984375 0.1875,0 0.3867188,0.035156 0.5390625,0.140625 z m 0,0"
       style="fill:#000000;fill-opacity:1;fill-rule:nonzero;stroke:none"
       aria-label="r"
       transform="matrix(1.3333333,0,0,1.3333333,333.008,129.33867)" />
  </g>
</svg>
