<?xml version="1.0" encoding="UTF-8" standalone="no"?>
<!DOCTYPE svg PUBLIC "-//W3C//DTD SVG 1.1//EN"
 "http://www.w3.org/Graphics/SVG/1.1/DTD/svg11.dtd">
<!-- Generated by graphviz version 14.1.4 (0)
 -->
<!-- Title: G Pages: 1 -->
<svg width="381pt" height="187pt"
 viewBox="0.00 0.00 381.00 187.00" xmlns="http://www.w3.org/2000/svg" xmlns:xlink="http://www.w3.org/1999/xlink">
<g id="graph0" class="graph" transform="scale(1 1) rotate(0) translate(4 183.1)">
<title>G</title>
<polygon fill="white" stroke="none" points="-4,4 -4,-183.1 377,-183.1 377,4 -4,4"/>
<!-- n1 -->
<g id="node1" class="node">
<title>n1</title>
<ellipse fill="none" stroke="black" cx="163" cy="-73.35" rx="27" ry="18"/>
<text xml:space="preserve" text-anchor="middle" x="163" y="-67.92" font-family="Times,serif" font-size="14.00">Sq</text>
</g>
<!-- n7 -->
<g id="node7" class="node">
<title>n7</title>
<ellipse fill="black" stroke="black" cx="163" cy="-1.8" rx="1.8" ry="1.8"/>
<text xml:space="preserve" text-anchor="middle" x="128.2" y="-6.05" font-family="Times,serif" font-size="14.00">SquareNum</text>
</g>
<!-- n1&#45;&gt;n7 -->
<g id="edge9" class="edge">
<title>n1&#45;&gt;n7</title>
<path fill="none" stroke="black" d="M163,-55.16C163,-42.62 163,-25.94 163,-14.81"/>
<polygon fill="black" stroke="black" points="166.5,-15.12 163,-5.12 159.5,-15.12 166.5,-15.12"/>
<text xml:space="preserve" text-anchor="middle" x="175.38" y="-24.05" font-family="Times,serif" font-size="14.00">num</text>
</g>
<!-- n2 -->
<g id="node2" class="node">
<title>n2</title>
<ellipse fill="none" stroke="black" cx="27" cy="-161.1" rx="27" ry="18"/>
<text xml:space="preserve" text-anchor="middle" x="27" y="-155.67" font-family="Times,serif" font-size="14.00">RowE</text>
</g>
<!-- n2&#45;&gt;n1 -->
<g id="edge3" class="edge">
<title>n2&#45;&gt;n1</title>
<path fill="none" stroke="black" d="M16.77,-144.42C11.09,-133.55 6.61,-119.31 14.5,-109.35 28.01,-92.28 85.4,-82.7 124.75,-78.03"/>
<polygon fill="black" stroke="black" points="125.01,-81.52 134.56,-76.93 124.23,-74.57 125.01,-81.52"/>
<text xml:space="preserve" text-anchor="middle" x="24.25" y="-111.8" font-family="Times,serif" font-size="14.00">rsrc</text>
</g>
<!-- n2&#45;&gt;n1 -->
<g id="edge4" class="edge">
<title>n2&#45;&gt;n1</title>
<path fill="none" stroke="black" d="M37.73,-144.55C46.05,-133.46 58.47,-118.89 72.25,-109.35 88.77,-97.92 109.53,-89.56 127.02,-83.88"/>
<polygon fill="black" stroke="black" points="127.98,-87.24 136.52,-80.97 125.93,-80.55 127.98,-87.24"/>
<text xml:space="preserve" text-anchor="middle" x="81.62" y="-111.8" font-family="Times,serif" font-size="14.00">rtgt</text>
</g>
<!-- n3 -->
<g id="node3" class="node">
<title>n3</title>
<ellipse fill="none" stroke="black" cx="105" cy="-161.1" rx="27" ry="18"/>
<text xml:space="preserve" text-anchor="middle" x="105" y="-155.67" font-family="Times,serif" font-size="14.00">ColE</text>
</g>
<!-- n3&#45;&gt;n1 -->
<g id="edge5" class="edge">
<title>n3&#45;&gt;n1</title>
<path fill="none" stroke="black" d="M98.08,-143.48C94.86,-133 92.94,-119.58 99,-109.35 105.41,-98.54 116.47,-90.85 127.62,-85.48"/>
<polygon fill="black" stroke="black" points="128.93,-88.73 136.78,-81.62 126.21,-82.28 128.93,-88.73"/>
<text xml:space="preserve" text-anchor="middle" x="109.5" y="-111.8" font-family="Times,serif" font-size="14.00">csrc</text>
</g>
<!-- n3&#45;&gt;n1 -->
<g id="edge6" class="edge">
<title>n3&#45;&gt;n1</title>
<path fill="none" stroke="black" d="M115.64,-144.37C124.09,-131.88 136.07,-114.16 145.87,-99.68"/>
<polygon fill="black" stroke="black" points="148.68,-101.77 151.38,-91.52 142.88,-97.84 148.68,-101.77"/>
<text xml:space="preserve" text-anchor="middle" x="149.32" y="-111.8" font-family="Times,serif" font-size="14.00">ctgt</text>
</g>
<!-- n4 -->
<g id="node4" class="node">
<title>n4</title>
<ellipse fill="none" stroke="black" cx="193" cy="-161.1" rx="27" ry="18"/>
<text xml:space="preserve" text-anchor="middle" x="193" y="-155.67" font-family="Times,serif" font-size="14.00">DiagE</text>
</g>
<!-- n4&#45;&gt;n1 -->
<g id="edge7" class="edge">
<title>n4&#45;&gt;n1</title>
<path fill="none" stroke="black" d="M187.07,-143.16C182.96,-131.41 177.4,-115.51 172.66,-101.95"/>
<polygon fill="black" stroke="black" points="176.02,-100.97 169.41,-92.68 169.41,-103.28 176.02,-100.97"/>
<text xml:space="preserve" text-anchor="middle" x="191.56" y="-111.8" font-family="Times,serif" font-size="14.00">dsrc</text>
</g>
<!-- n4&#45;&gt;n1 -->
<g id="edge8" class="edge">
<title>n4&#45;&gt;n1</title>
<path fill="none" stroke="black" d="M202.61,-144.01C207.43,-133.75 211.23,-120.36 206,-109.35 202.85,-102.73 197.78,-96.96 192.19,-92.1"/>
<polygon fill="black" stroke="black" points="194.49,-89.45 184.42,-86.17 190.25,-95.02 194.49,-89.45"/>
<text xml:space="preserve" text-anchor="middle" x="219.02" y="-111.8" font-family="Times,serif" font-size="14.00">dtgt</text>
</g>
<!-- n5 -->
<g id="node5" class="node">
<title>n5</title>
<ellipse fill="none" stroke="black" cx="274" cy="-161.1" rx="27" ry="18"/>
<text xml:space="preserve" text-anchor="middle" x="274" y="-155.67" font-family="Times,serif" font-size="14.00">X</text>
</g>
<!-- n5&#45;&gt;n1 -->
<g id="edge1" class="edge">
<title>n5&#45;&gt;n1</title>
<path fill="none" stroke="black" d="M264.01,-143.9C256.72,-133.08 246.03,-119.09 234,-109.35 223.01,-100.45 209.39,-93.06 197.03,-87.39"/>
<polygon fill="black" stroke="black" points="198.54,-84.23 187.97,-83.46 195.75,-90.65 198.54,-84.23"/>
<text xml:space="preserve" text-anchor="middle" x="258.46" y="-111.8" font-family="Times,serif" font-size="14.00">xsq</text>
</g>
<!-- n6 -->
<g id="node6" class="node">
<title>n6</title>
<ellipse fill="none" stroke="black" cx="346" cy="-161.1" rx="27" ry="18"/>
<text xml:space="preserve" text-anchor="middle" x="346" y="-155.67" font-family="Times,serif" font-size="14.00">O</text>
</g>
<!-- n6&#45;&gt;n1 -->
<g id="edge2" class="edge">
<title>n6&#45;&gt;n1</title>
<path fill="none" stroke="black" d="M329.24,-146.49C314.78,-135.29 292.98,-119.64 272,-109.35 248.86,-98 221.19,-89.17 199.52,-83.21"/>
<polygon fill="black" stroke="black" points="200.5,-79.86 189.94,-80.67 198.71,-86.62 200.5,-79.86"/>
<text xml:space="preserve" text-anchor="middle" x="307.01" y="-111.8" font-family="Times,serif" font-size="14.00">osq</text>
</g>
</g>
</svg>
