<?xml version="1.0" encoding="UTF-8" standalone="no"?>
<!DOCTYPE svg PUBLIC "-//W3C//DTD SVG 1.1//EN"
 "http://www.w3.org/Graphics/SVG/1.1/DTD/svg11.dtd">
<!-- Generated by graphviz version 14.1.4 (0)
 -->
<!-- Title: G Pages: 1 -->
<svg width="207pt" height="187pt"
 viewBox="0.00 0.00 207.00 187.00" xmlns="http://www.w3.org/2000/svg" xmlns:xlink="http://www.w3.org/1999/xlink">
<g id="graph0" class="graph" transform="scale(1 1) rotate(0) translate(4 183.1)">
<title>G</title>
<polygon fill="white" stroke="none" points="-4,4 -4,-183.1 203,-183.1 203,4 -4,4"/>
<!-- n1 -->
<g id="node1" class="node">
<title>n1</title>
<ellipse fill="none" stroke="black" cx="81" cy="-73.35" rx="27" ry="18"/>
<text xml:space="preserve" text-anchor="middle" x="81" y="-67.92" font-family="Times,serif" font-size="14.00">Sq</text>
</g>
<!-- n5 -->
<g id="node5" class="node">
<title>n5</title>
<ellipse fill="black" stroke="black" cx="81" cy="-1.8" rx="1.8" ry="1.8"/>
<text xml:space="preserve" text-anchor="middle" x="46.2" y="-6.05" font-family="Times,serif" font-size="14.00">SquareNum</text>
</g>
<!-- n1&#45;&gt;n5 -->
<g id="edge5" class="edge">
<title>n1&#45;&gt;n5</title>
<path fill="none" stroke="black" d="M81,-55.16C81,-42.62 81,-25.94 81,-14.81"/>
<polygon fill="black" stroke="black" points="84.5,-15.12 81,-5.12 77.5,-15.12 84.5,-15.12"/>
<text xml:space="preserve" text-anchor="middle" x="93.38" y="-24.05" font-family="Times,serif" font-size="14.00">num</text>
</g>
<!-- n2 -->
<g id="node2" class="node">
<title>n2</title>
<ellipse fill="none" stroke="black" cx="27" cy="-161.1" rx="27" ry="18"/>
<text xml:space="preserve" text-anchor="middle" x="27" y="-155.67" font-family="Times,serif" font-size="14.00">E</text>
</g>
<!-- n2&#45;&gt;n1 -->
<g id="edge3" class="edge">
<title>n2&#45;&gt;n1</title>
<path fill="none" stroke="black" d="M22.58,-143.09C20.84,-132.72 20.4,-119.55 26,-109.35 30.85,-100.51 38.99,-93.58 47.54,-88.31"/>
<polygon fill="black" stroke="black" points="49.14,-91.42 56.27,-83.58 45.81,-85.27 49.14,-91.42"/>
<text xml:space="preserve" text-anchor="middle" x="33.5" y="-111.8" font-family="Times,serif" font-size="14.00">src</text>
</g>
<!-- n2&#45;&gt;n1 -->
<g id="edge4" class="edge">
<title>n2&#45;&gt;n1</title>
<path fill="none" stroke="black" d="M37.16,-143.97C44.93,-131.63 55.79,-114.38 64.76,-100.13"/>
<polygon fill="black" stroke="black" points="67.71,-102.01 70.08,-91.69 61.79,-98.28 67.71,-102.01"/>
<text xml:space="preserve" text-anchor="middle" x="65.96" y="-111.8" font-family="Times,serif" font-size="14.00">tgt</text>
</g>
<!-- n3 -->
<g id="node3" class="node">
<title>n3</title>
<ellipse fill="none" stroke="black" cx="100" cy="-161.1" rx="27" ry="18"/>
<text xml:space="preserve" text-anchor="middle" x="100" y="-155.67" font-family="Times,serif" font-size="14.00">X</text>
</g>
<!-- n3&#45;&gt;n1 -->
<g id="edge1" class="edge">
<title>n3&#45;&gt;n1</title>
<path fill="none" stroke="black" d="M96.25,-143.16C93.69,-131.61 90.24,-116.03 87.26,-102.62"/>
<polygon fill="black" stroke="black" points="90.72,-102.03 85.14,-93.03 83.88,-103.55 90.72,-102.03"/>
<text xml:space="preserve" text-anchor="middle" x="101.58" y="-111.8" font-family="Times,serif" font-size="14.00">xsq</text>
</g>
<!-- n4 -->
<g id="node4" class="node">
<title>n4</title>
<ellipse fill="none" stroke="black" cx="172" cy="-161.1" rx="27" ry="18"/>
<text xml:space="preserve" text-anchor="middle" x="172" y="-155.67" font-family="Times,serif" font-size="14.00">O</text>
</g>
<!-- n4&#45;&gt;n1 -->
<g id="edge2" class="edge">
<title>n4&#45;&gt;n1</title>
<path fill="none" stroke="black" d="M156.97,-145.94C142.62,-132.41 120.76,-111.82 104.18,-96.19"/>
<polygon fill="black" stroke="black" points="106.83,-93.88 97.15,-89.57 102.03,-98.97 106.83,-93.88"/>
<text xml:space="preserve" text-anchor="middle" x="144.03" y="-111.8" font-family="Times,serif" font-size="14.00">osq</text>
</g>
</g>
</svg>
