<?xml version="1.0" encoding="UTF-8" standalone="no"?>
<!-- Created with Inkscape (http://www.inkscape.org/) -->

<svg
   version="1.1"
   id="svg1"
   width="413.04836"
   height="222.03197"
   viewBox="0 0 310.56268 166.94133"
   sodipodi:docname="fig-dpo-diagram.pdf"
   xmlns:inkscape="http://www.inkscape.org/namespaces/inkscape"
   xmlns:sodipodi="http://sodipodi.sourceforge.net/DTD/sodipodi-0.dtd"
   xmlns="http://www.w3.org/2000/svg"
   xmlns:svg="http://www.w3.org/2000/svg">
  <defs
     id="defs1" />
  <sodipodi:namedview
     id="namedview1"
     pagecolor="#ffffff"
     bordercolor="#000000"
     borderopacity="0.25"
     inkscape:showpageshadow="2"
     inkscape:pageopacity="0.0"
     inkscape:pagecheckerboard="0"
     inkscape:deskcolor="#d1d1d1">
    <inkscape:page
       x="0"
       y="0"
       inkscape:label="1"
       id="page1"
       width="310.56268"
       height="166.94133"
       margin="0"
       bleed="0" />
  </sodipodi:namedview>
  <g
     id="g1"
     inkscape:groupmode="layer"
     inkscape:label="1">
    <path
       id="path1"
       d="m 17.275,87.87506 h -34.55 c -2.20094,0 -3.9851,-1.78416 -3.9851,-3.98511 V 57.84407 c 0,-2.20094 1.78416,-3.98511 3.9851,-3.98511 h 34.55 c 2.20094,0 3.9851,1.78417 3.9851,3.98511 v 26.04588 c 0,2.20095 -1.78416,3.98511 -3.9851,3.98511 z"
       style="fill:#f5f5f5;fill-opacity:1;fill-rule:nonzero;stroke:#a6a6a6;stroke-width:0.3985;stroke-linecap:butt;stroke-linejoin:miter;stroke-miterlimit:10;stroke-dasharray:none;stroke-opacity:1"
       transform="matrix(1.3333333,0,0,-1.3333333,41.896,130.71467)" />
    <path
       id="path2"
       d="M 4.3832656,-7.2432812 C 4.5004531,-7.7003125 4.5356094,-7.8175 5.5785781,-7.8175 c 0.328125,0 0.4101563,0 0.4101563,-0.2226562 0,-0.1289063 -0.1289063,-0.1289063 -0.1757813,-0.1289063 -0.2460937,0 -0.515625,0.023437 -0.7617187,0.023437 h -1.59375 c -0.234375,0 -0.4921875,-0.023437 -0.7148438,-0.023437 -0.1054687,0 -0.234375,0 -0.234375,0.234375 0,0.1171875 0.1054688,0.1171875 0.2929688,0.1171875 0.7265625,0 0.7265625,0.09375 0.7265625,0.2226563 0,0.023437 0,0.09375 -0.046875,0.28125 L 1.8637344,-0.88 c -0.1054688,0.41015625 -0.1289063,0.52734375 -0.96093752,0.52734375 -0.234375,0 -0.3515625,0 -0.3515625,0.22265625 0,0.12890625 0.0703125,0.12890625 0.3046875,0.12890625 H 6.2113906 c 0.2695313,0 0.28125,-0.01171875 0.3632813,-0.22265625 l 0.9257812,-2.5546875 c 0.023437,-0.058594 0.046875,-0.1289062 0.046875,-0.1640625 0,-0.070312 -0.058594,-0.1171875 -0.1289062,-0.1171875 -0.011719,0 -0.070312,0 -0.09375,0.046875 -0.023437,0.011719 -0.023437,0.035156 -0.1171875,0.2578125 -0.3867188,1.0546875 -0.9140625,2.40234375 -2.9414063,2.40234375 H 3.1176406 c -0.1640625,0 -0.1875,0 -0.2578125,-0.0117188 -0.1289062,-0.0117188 -0.140625,-0.0351563 -0.140625,-0.12890625 0,-0.0820313 0.023437,-0.15234375 0.046875,-0.2578125 z m 0,0"
       style="fill:#000000;fill-opacity:1;fill-rule:nonzero;stroke:none"
       aria-label="L"
       transform="matrix(1.3333333,0,0,1.3333333,36.585333,41.673333)" />
    <path
       id="path3"
       d="M 102.31541,87.87506 H 67.76543 c -2.20095,0 -3.98511,-1.78416 -3.98511,-3.98511 V 57.84407 c 0,-2.20094 1.78416,-3.98511 3.98511,-3.98511 h 34.54998 c 2.20095,0 3.98511,1.78417 3.98511,3.98511 v 26.04588 c 0,2.20095 -1.78416,3.98511 -3.98511,3.98511 z"
       style="fill:#f5f5f5;fill-opacity:1;fill-rule:nonzero;stroke:#a6a6a6;stroke-width:0.3985;stroke-linecap:butt;stroke-linejoin:miter;stroke-miterlimit:10;stroke-dasharray:none;stroke-opacity:1"
       transform="matrix(1.3333333,0,0,-1.3333333,41.896,130.71467)" />
    <path
       id="path4"
       d="m 5.9772969,-4.8292187 c -0.011719,-0.035156 -0.058594,-0.1289063 -0.058594,-0.1640625 0,-0.011719 0.011719,-0.023437 0.2109375,-0.1875 L 7.2897969,-6.083125 c 1.6054687,-1.2421875 2.1328125,-1.6640625 2.9531251,-1.734375 0.08203,-0.011719 0.199219,-0.011719 0.199219,-0.2109375 0,-0.082031 -0.03516,-0.140625 -0.128907,-0.140625 -0.128906,0 -0.269531,0.023437 -0.3984371,0.023437 H 9.4577656 c -0.375,0 -0.7617187,-0.023437 -1.125,-0.023437 -0.082031,0 -0.2226562,0 -0.2226562,0.2226563 0,0.1171875 0.082031,0.1289062 0.1523437,0.1289062 0.1289063,0.011719 0.28125,0.058594 0.28125,0.2226563 0,0.2460937 -0.3515625,0.5273437 -0.4453125,0.5976562 l -4.6875,3.6445313 0.984375,-3.9375 C 4.5124531,-7.7003125 4.5358906,-7.8175 5.3796406,-7.8175 c 0.2226563,0 0.3398438,0 0.3398438,-0.2226562 0,-0.1289063 -0.1289063,-0.1289063 -0.1875,-0.1289063 -0.2109375,0 -0.46875,0.023437 -0.6914063,0.023437 h -1.40625 c -0.2226562,0 -0.4804687,-0.023437 -0.6914062,-0.023437 -0.1054688,0 -0.234375,0 -0.234375,0.234375 0,0.1171875 0.1054687,0.1171875 0.2929687,0.1171875 0.7265625,0 0.7265625,0.09375 0.7265625,0.2226563 0,0.023437 0,0.09375 -0.046875,0.28125 L 1.8640156,-0.88 c -0.1054687,0.41015625 -0.1289062,0.52734375 -0.96093747,0.52734375 -0.234375,0 -0.3515625,0 -0.3515625,0.22265625 0,0.12890625 0.10546875,0.12890625 0.17578125,0.12890625 0.234375,0 0.46875002,-0.0234375 0.69140622,-0.0234375 h 1.40625 c 0.2226563,0 0.4804688,0.0234375 0.703125,0.0234375 0.09375,0 0.2226563,0 0.2226563,-0.22265625 0,-0.12890625 -0.1054688,-0.12890625 -0.28125,-0.12890625 -0.7265625,0 -0.7265625,-0.09375 -0.7265625,-0.2109375 0,-0.0820313 0.070312,-0.38671875 0.1171875,-0.57421875 l 0.46875,-1.8515625 1.8164062,-1.4179687 c 0.3398438,0.7617187 0.9726563,2.2851562 1.4648438,3.4570312 0.035156,0.0820313 0.058594,0.15234375 0.058594,0.234375 0,0.3515625 -0.4804687,0.36328125 -0.5859375,0.36328125 -0.1054687,0 -0.2226562,0 -0.2226562,0.234375 0,0.1171875 0.1289062,0.1171875 0.1640625,0.1171875 0.421875,0 0.8671875,-0.0234375 1.2773437,-0.0234375 h 0.5742188 c 0.1757812,0 0.3867187,0.0234375 0.5625,0.0234375 0.070312,0 0.1992187,0 0.1992187,-0.22265625 0,-0.12890625 -0.1054687,-0.12890625 -0.2226562,-0.12890625 C 7.9694844,-0.364375 7.8171406,-0.458125 7.6413594,-0.88 Z m 0,0"
       style="fill:#000000;fill-opacity:1;fill-rule:nonzero;stroke:none"
       aria-label="K"
       transform="matrix(1.3333333,0,0,1.3333333,148.06933,41.673333)" />
    <path
       id="path5"
       d="m 187.35585,87.87506 h -34.54999 c -2.20094,0 -3.9851,-1.78416 -3.9851,-3.98511 V 57.84407 c 0,-2.20094 1.78416,-3.98511 3.9851,-3.98511 h 34.54999 c 2.20095,0 3.98511,1.78417 3.98511,3.98511 v 26.04588 c 0,2.20095 -1.78416,3.98511 -3.98511,3.98511 z"
       style="fill:#f5f5f5;fill-opacity:1;fill-rule:nonzero;stroke:#a6a6a6;stroke-width:0.3985;stroke-linecap:butt;stroke-linejoin:miter;stroke-miterlimit:10;stroke-dasharray:none;stroke-opacity:1"
       transform="matrix(1.3333333,0,0,-1.3333333,41.896,130.71467)" />
    <path
       id="path6"
       d="M 4.3936484,-7.34875 C 4.5108359,-7.7940625 4.5577109,-7.8175 5.0147422,-7.8175 h 0.8671875 c 1.03125,0 1.7929687,0.3046875 1.7929687,1.2421875 0,0.609375 -0.3164062,2.3671875 -2.71875,2.3671875 H 3.6084922 Z m 1.6640625,3.28125 c 1.4882813,-0.3164062 2.6484375,-1.2773437 2.6484375,-2.3085937 0,-0.9257813 -0.9492187,-1.7929688 -2.6132812,-1.7929688 h -3.234375 c -0.2460938,0 -0.3515625,0 -0.3515625,0.234375 0,0.1171875 0.082031,0.1171875 0.3164062,0.1171875 0.7148438,0 0.7148438,0.09375 0.7148438,0.2226563 0,0.023437 0,0.09375 -0.046875,0.28125 L 1.8741172,-0.88 c -0.1054688,0.41015625 -0.1289063,0.52734375 -0.94921876,0.52734375 -0.28125,0 -0.36328125,0 -0.36328125,0.234375 0,0.1171875 0.12890625,0.1171875 0.1640625,0.1171875 0.22265625,0 0.46875001,-0.0234375 0.69140621,-0.0234375 h 1.4179688 c 0.2109375,0 0.46875,0.0234375 0.6796875,0.0234375 0.09375,0 0.2226562,0 0.2226562,-0.22265625 0,-0.12890625 -0.1054687,-0.12890625 -0.28125,-0.12890625 -0.7265625,0 -0.7265625,-0.09375 -0.7265625,-0.2109375 0,-0.0117188 0,-0.09375 0.023437,-0.1875 L 3.5498984,-3.97375 h 1.4296875 c 1.1367188,0 1.359375,0.7265625 1.359375,1.1132813 0,0.1875 -0.1289062,0.6445312 -0.2109375,0.9609375 -0.1289062,0.5507812 -0.1640625,0.6796875 -0.1640625,0.9023437 0,0.85546875 0.6914063,1.2421875 1.4882813,1.2421875 0.9726562,0 1.3945312,-1.18359375 1.3945312,-1.3476562 0,-0.082031 -0.058594,-0.1171875 -0.1289062,-0.1171875 -0.1054688,0 -0.1289063,0.070312 -0.1523438,0.1640625 -0.28125,0.8554687 -0.7734375,1.0664062 -1.0664062,1.0664062 -0.3046875,0 -0.4921875,-0.12890625 -0.4921875,-0.66796875 0,-0.29296875 0.140625,-1.37109375 0.1523437,-1.44140625 0.058594,-0.4335937 0.058594,-0.4804687 0.058594,-0.5742187 0,-0.8789063 -0.703125,-1.2539063 -1.1601565,-1.3945313 z m 0,0"
       style="fill:#000000;fill-opacity:1;fill-rule:nonzero;stroke:none"
       aria-label="R"
       transform="matrix(1.3333333,0,0,1.3333333,262.66133,41.673333)" />
    <path
       id="path7"
       d="m 17.275,17.00804 h -34.55 c -2.20094,0 -3.9851,-1.78416 -3.9851,-3.98511 v -26.04586 c 0,-2.20095 1.78416,-3.98511 3.9851,-3.98511 h 34.55 c 2.20094,0 3.9851,1.78416 3.9851,3.98511 v 26.04586 c 0,2.20095 -1.78416,3.98511 -3.9851,3.98511 z"
       style="fill:#f5f5f5;fill-opacity:1;fill-rule:nonzero;stroke:#a6a6a6;stroke-width:0.3985;stroke-linecap:butt;stroke-linejoin:miter;stroke-miterlimit:10;stroke-dasharray:none;stroke-opacity:1"
       transform="matrix(1.3333333,0,0,-1.3333333,41.896,130.71467)" />
    <path
       id="path8"
       d="m 8.9166797,-8.3094766 c 0,-0.1054687 -0.082031,-0.1054687 -0.1054688,-0.1054687 -0.023437,0 -0.070312,0 -0.1757812,0.1171875 l -0.8203125,0.9960937 c -0.058594,-0.09375 -0.2929688,-0.515625 -0.7617188,-0.796875 -0.515625,-0.3164062 -1.03125,-0.3164062 -1.2070312,-0.3164062 -2.5546875,0 -5.25000001,2.6015625 -5.25000001,5.4257812 0,1.96875 1.35937501,3.23437504 3.15234371,3.23437504 0.8671875,0 1.9570313,-0.28125 2.5546875,-1.03125 0.1289063,0.4453125 0.3867188,0.7734375 0.46875,0.7734375 0.058594,0 0.070312,-0.03515625 0.082031,-0.03515625 0.023437,-0.0234375 0.1171875,-0.4453125 0.1757812,-0.65625 l 0.1875,-0.76171879 c 0.09375,-0.3984375 0.140625,-0.5625 0.2226563,-0.9257812 0.1289062,-0.4570313 0.1523437,-0.4921875 0.8085937,-0.5039063 0.046875,0 0.1875,0 0.1875,-0.2226562 0,-0.1171875 -0.1171875,-0.1171875 -0.1523437,-0.1171875 -0.1992188,0 -0.4335938,0.023437 -0.6445313,0.023437 H 6.9948047 c -0.5039063,0 -1.03125,-0.023437 -1.5234375,-0.023437 -0.1054688,0 -0.2460938,0 -0.2460938,0.2109375 0,0.1171875 0.09375,0.1171875 0.09375,0.1289062 h 0.2929688 c 0.9492187,0 0.9492187,0.09375 0.9492187,0.28125 0,0.011719 -0.2226562,1.21875 -0.4570312,1.5703125 -0.4570313,0.66796879 -1.3945313,0.94921879 -2.0976563,0.94921879 -0.9257812,0 -2.4140625,-0.48046875 -2.4140625,-2.54296879 0,-0.8085937 0.28125,-2.6367187 1.4414063,-3.984375 0.75,-0.8671875 1.8632812,-1.453125 2.9179687,-1.453125 1.40625,0 1.9101563,1.21875 1.9101563,2.3085938 0,0.1992187 -0.046875,0.4570312 -0.046875,0.6210937 0,0.1171875 0.1171875,0.1171875 0.1523437,0.1171875 0.140625,0 0.1523438,-0.011719 0.1992188,-0.234375 z m 0,0"
       style="fill:#000000;fill-opacity:1;fill-rule:nonzero;stroke:none"
       aria-label="G"
       transform="matrix(1.3333333,0,0,1.3333333,35.74,136.16133)" />
    <path
       id="path9"
       d="M 102.31541,17.00804 H 67.76543 c -2.20095,0 -3.98511,-1.78416 -3.98511,-3.98511 v -26.04586 c 0,-2.20095 1.78416,-3.98511 3.98511,-3.98511 h 34.54998 c 2.20095,0 3.98511,1.78416 3.98511,3.98511 v 26.04586 c 0,2.20095 -1.78416,3.98511 -3.98511,3.98511 z"
       style="fill:#f5f5f5;fill-opacity:1;fill-rule:nonzero;stroke:#a6a6a6;stroke-width:0.3985;stroke-linecap:butt;stroke-linejoin:miter;stroke-miterlimit:10;stroke-dasharray:none;stroke-opacity:1"
       transform="matrix(1.3333333,0,0,-1.3333333,41.896,130.71467)" />
    <path
       id="path10"
       d="m 1.8754531,-0.87978906 c -0.1054687,0.41015625 -0.1289062,0.52734375 -0.96093747,0.52734375 -0.234375,0 -0.3515625,0 -0.3515625,0.22265625 0,0.1289062475 0.0703125,0.1289062475 0.3046875,0.1289062475 H 4.6645156 c 2.4140625,0 4.7695313,-2.4960937875 4.7695313,-5.1679687875 0,-1.7226562 -1.03125,-3 -2.7421875,-3 H 2.8598281 c -0.234375,0 -0.3398437,0 -0.3398437,0.234375 0,0.1171875 0.1054687,0.1171875 0.2929687,0.1171875 0.7265625,0 0.7265625,0.09375 0.7265625,0.2226563 0,0.023437 0,0.09375 -0.046875,0.28125 z M 4.3949844,-7.3485391 c 0.1171875,-0.4453125 0.1640625,-0.46875 0.6210937,-0.46875 h 1.3242188 c 1.1132812,0 2.1445312,0.609375 2.1445312,2.2617188 0,0.5976562 -0.234375,2.671875 -1.3945312,3.984375 -0.3398438,0.3984375 -1.2421875,1.21874999 -2.625,1.21874999 h -1.359375 c -0.1640625,0 -0.1875,0 -0.2578125,-0.0117188 -0.1289063,-0.0117188 -0.140625,-0.0351563 -0.140625,-0.12890625 0,-0.0820313 0.023437,-0.15234375 0.046875,-0.2578125 z m 0,0"
       style="fill:#000000;fill-opacity:1;fill-rule:nonzero;stroke:none"
       aria-label="D"
       transform="matrix(1.3333333,0,0,1.3333333,148.58533,136.16133)" />
    <path
       id="path11"
       d="m 187.35585,17.00804 h -34.54999 c -2.20094,0 -3.9851,-1.78416 -3.9851,-3.98511 v -26.04586 c 0,-2.20095 1.78416,-3.98511 3.9851,-3.98511 h 34.54999 c 2.20095,0 3.98511,1.78416 3.98511,3.98511 v 26.04586 c 0,2.20095 -1.78416,3.98511 -3.98511,3.98511 z"
       style="fill:#f5f5f5;fill-opacity:1;fill-rule:nonzero;stroke:#a6a6a6;stroke-width:0.3985;stroke-linecap:butt;stroke-linejoin:miter;stroke-miterlimit:10;stroke-dasharray:none;stroke-opacity:1"
       transform="matrix(1.3333333,0,0,-1.3333333,41.896,130.71467)" />
    <g
       id="g11"
       aria-label="G&#10;′"
       transform="matrix(1.3333333,0,0,1.3333333,260.648,136.55867)">
      <path
         id="path12"
         d="m 8.9182969,-8.3086484 c 0,-0.1054688 -0.082031,-0.1054688 -0.1054688,-0.1054688 -0.023437,0 -0.070312,0 -0.1757812,0.1171875 l -0.8203125,0.9960938 c -0.058594,-0.09375 -0.2929688,-0.515625 -0.7617188,-0.796875 -0.515625,-0.3164063 -1.03125,-0.3164063 -1.2070312,-0.3164063 -2.5546875,0 -5.25000002,2.6015625 -5.25000002,5.4257813 0,1.96875 1.35937502,3.23437496 3.15234372,3.23437496 0.8671875,0 1.9570313,-0.28125 2.5546875,-1.03125 0.1289063,0.4453125 0.3867188,0.7734375 0.46875,0.7734375 0.058594,0 0.070312,-0.03515625 0.082031,-0.03515625 0.023437,-0.0234375 0.1171875,-0.4453125 0.1757812,-0.65625 l 0.1875,-0.76171871 c 0.09375,-0.3984375 0.140625,-0.5625 0.2226563,-0.9257813 0.1289062,-0.4570312 0.1523437,-0.4921875 0.8085937,-0.5039062 0.046875,0 0.1875,0 0.1875,-0.2226563 0,-0.1171875 -0.1171875,-0.1171875 -0.1523437,-0.1171875 -0.1992188,0 -0.4335938,0.023437 -0.6445313,0.023437 H 6.9964219 c -0.5039063,0 -1.03125,-0.023437 -1.5234375,-0.023437 -0.1054688,0 -0.2460938,0 -0.2460938,0.2109375 0,0.1171875 0.09375,0.1171875 0.09375,0.1289063 h 0.2929688 c 0.9492187,0 0.9492187,0.09375 0.9492187,0.28125 0,0.011719 -0.2226562,1.21875 -0.4570312,1.5703125 -0.4570313,0.66796871 -1.3945313,0.94921871 -2.0976563,0.94921871 -0.9257812,0 -2.4140625,-0.48046875 -2.4140625,-2.54296871 0,-0.8085938 0.28125,-2.6367188 1.4414063,-3.984375 0.75,-0.8671875 1.8632812,-1.453125 2.9179687,-1.453125 1.40625,0 1.9101563,1.21875 1.9101563,2.3085937 0,0.1992188 -0.046875,0.4570313 -0.046875,0.6210938 0,0.1171875 0.1171875,0.1171875 0.1523437,0.1171875 0.140625,0 0.1523438,-0.011719 0.1992188,-0.234375 z m 0,0"
         style="fill:#000000;fill-opacity:1;fill-rule:nonzero;stroke:none" />
      <path
         id="path13"
         d="m 11.344078,-8.1123594 c 0.04687,-0.1054687 0.07031,-0.1640625 0.07031,-0.2460937 0,-0.2578125 -0.234375,-0.4335938 -0.457032,-0.4335938 -0.316406,0 -0.410156,0.28125 -0.445312,0.3867188 l -1.0078126,3.4335937 c -0.035156,0.09375 -0.035156,0.1171875 -0.035156,0.1289063 0,0.070312 0.046875,0.09375 0.1289063,0.1171875 0.1523437,0.058594 0.1640625,0.058594 0.1757812,0.058594 0.023437,0 0.070312,0 0.1289063,-0.1289062 z m 0,0"
         style="fill:#000000;fill-opacity:1;fill-rule:nonzero;stroke:none" />
    </g>
    <path
       id="path14"
       d="M 63.58107,70.867 H 25.83868"
       style="fill:none;stroke:#000000;stroke-width:0.79701;stroke-linecap:butt;stroke-linejoin:miter;stroke-miterlimit:10;stroke-dasharray:none;stroke-opacity:1"
       transform="matrix(1.3333333,0,0,-1.3333333,41.896,130.71467)" />
    <path
       id="path15"
       d="M 5.83896,0 1.287,1.72005 2.79384,0 1.287,-1.72005 Z"
       style="fill:#000000;fill-opacity:1;fill-rule:nonzero;stroke:#000000;stroke-width:0.79701;stroke-linecap:butt;stroke-linejoin:miter;stroke-miterlimit:10;stroke-dasharray:none;stroke-opacity:1"
       transform="matrix(-1.3333333,0,0,1.3333333,79.807053,36.225333)" />
    <path
       id="path16"
       d="m 2.5668281,-6.8074453 c 0,0 0,-0.1054688 -0.1289062,-0.1054688 -0.2226563,0 -0.9492188,0.082031 -1.2070313,0.1054688 -0.082031,0 -0.1992187,0.011719 -0.1992187,0.1992187 0,0.1171875 0.1054687,0.1171875 0.2578125,0.1171875 0.46875,0 0.4804687,0.082031 0.4804687,0.1640625 l -0.023437,0.1992188 -1.25390622,4.9804687 c -0.0351563,0.1171875 -0.0585938,0.18750004 -0.0585938,0.33984379 0,0.57421875 0.4453125,0.9140625 0.91406252,0.9140625 0.328125,0 0.5742188,-0.19921875 0.75,-0.55078125 0.1757813,-0.38671875 0.2929688,-0.96093754 0.2929688,-0.98437504 0,-0.09375 -0.09375,-0.09375 -0.1171875,-0.09375 -0.1054688,0 -0.1171875,0.035156 -0.140625,0.1757813 -0.1757813,0.64453124 -0.3632813,1.24218749 -0.7617188,1.24218749 -0.2929687,0 -0.2929687,-0.328125 -0.2929687,-0.45703125 0,-0.24609375 0.011719,-0.29296875 0.058594,-0.48046874 z m 0,0"
       style="fill:#000000;fill-opacity:1;fill-rule:nonzero;stroke:none"
       aria-label="l"
       transform="matrix(1.3333333,0,0,1.3333333,96.476,31.268)" />
    <path
       id="path17"
       d="m 106.49977,70.867 h 37.74239"
       style="fill:none;stroke:#000000;stroke-width:0.79701;stroke-linecap:butt;stroke-linejoin:miter;stroke-miterlimit:10;stroke-dasharray:none;stroke-opacity:1"
       transform="matrix(1.3333333,0,0,-1.3333333,41.896,130.71467)" />
    <path
       id="path18"
       d="M 5.83896,0 1.287,1.72005 2.79384,0 1.287,-1.72005 Z"
       style="fill:#000000;fill-opacity:1;fill-rule:nonzero;stroke:#000000;stroke-width:0.79701;stroke-linecap:butt;stroke-linejoin:miter;stroke-miterlimit:10;stroke-dasharray:none;stroke-opacity:1"
       transform="matrix(1.3333333,0,0,-1.3333333,230.7594,36.225333)" />
    <path
       id="path19"
       d="m 0.87863281,-0.58478906 c -0.0351563,0.15234375 -0.09375,0.375 -0.09375,0.421875 0,0.1875 0.140625,0.26953125 0.29296879,0.26953125 0.1171875,0 0.2929687,-0.0703125 0.3632812,-0.26953125 0.023437,-0.046875 0.3632813,-1.39453124 0.3984375,-1.58203124 0.082031,-0.328125 0.2578125,-1.0195313 0.3164063,-1.2890625 0.046875,-0.1289063 0.328125,-0.5976563 0.5625,-0.8203125 0.082031,-0.070312 0.375,-0.328125 0.796875,-0.328125 0.2578125,0 0.4101562,0.1171875 0.421875,0.1171875 -0.3046875,0.046875 -0.515625,0.2929687 -0.515625,0.5507812 0,0.1640625 0.1054687,0.3515625 0.375,0.3515625 0.2695312,0 0.5507812,-0.234375 0.5507812,-0.5859375 0,-0.3515625 -0.328125,-0.65625 -0.8320312,-0.65625 -0.6445313,0 -1.0898438,0.4921875 -1.2773438,0.7734375 -0.082031,-0.4570312 -0.4335937,-0.7734375 -0.9023437,-0.7734375 -0.45703129,0 -0.64453129,0.3867188 -0.73828129,0.5742188 -0.17578125,0.3398437 -0.3046875,0.9375 -0.3046875,0.9609375 0,0.1054687 0.09375,0.1054687 0.1171875,0.1054687 0.09375,0 0.10546875,-0.011719 0.1640625,-0.234375 0.17578125,-0.703125 0.375,-1.1835937 0.72656249,-1.1835937 0.1757813,0 0.3164063,0.082031 0.3164063,0.4570312 0,0.2109375 -0.035156,0.3164063 -0.1640625,0.8320313 z m 0,0"
       style="fill:#000000;fill-opacity:1;fill-rule:nonzero;stroke:none"
       aria-label="r"
       transform="matrix(1.3333333,0,0,1.3333333,208.79333,31.268)" />
    <path
       id="path20"
       d="M 0,53.65971 V 21.58664"
       style="fill:none;stroke:#000000;stroke-width:0.79701;stroke-linecap:butt;stroke-linejoin:miter;stroke-miterlimit:10;stroke-dasharray:none;stroke-opacity:1"
       transform="matrix(1.3333333,0,0,-1.3333333,41.896,130.71467)" />
    <path
       id="path21"
       d="M 5.83896,0 1.287,1.72005 2.79384,0 1.287,-1.72005 Z"
       style="fill:#000000;fill-opacity:1;fill-rule:nonzero;stroke:#000000;stroke-width:0.79701;stroke-linecap:butt;stroke-linejoin:miter;stroke-miterlimit:10;stroke-dasharray:none;stroke-opacity:1"
       transform="matrix(0,1.3333333,1.3333333,0,41.896,98.473027)" />
    <path
       id="path22"
       d="m 0.87898438,-0.58491406 c -0.0351563,0.15234375 -0.09375,0.375 -0.09375,0.421875 0,0.1875 0.140625,0.26953125 0.29296872,0.26953125 0.1171875,0 0.2929688,-0.0703125 0.3632813,-0.26953125 0.011719,-0.0234375 0.1289062,-0.4921875 0.1875,-0.73828125 L 1.8516406,-1.8036641 c 0.058594,-0.2226562 0.1171875,-0.4335937 0.1757813,-0.6679687 0.035156,-0.1640625 0.1171875,-0.4570313 0.1289062,-0.4921875 0.140625,-0.3164063 0.6679688,-1.21875 1.6171875,-1.21875 0.4453125,0 0.5390625,0.3632812 0.5390625,0.6914062 0,0.2578125 -0.070312,0.5390625 -0.1523437,0.8320313 l -0.2695313,1.1601562 -0.1992187,0.75000004 c -0.046875,0.19921875 -0.140625,0.5390625 -0.140625,0.5859375 0,0.1875 0.140625,0.26953125 0.2929687,0.26953125 0.3046875,0 0.375,-0.24609375 0.4453125,-0.5625 0.140625,-0.56249999 0.515625,-2.01562499 0.5976563,-2.40234379 0.035156,-0.1289062 0.5625,-1.3242187 1.6523437,-1.3242187 0.421875,0 0.5390625,0.3398437 0.5390625,0.6914062 0,0.5742188 -0.421875,1.7109375 -0.6210937,2.2382813 -0.09375,0.234375 -0.1289063,0.35156249 -0.1289063,0.55078124 0,0.46875 0.3515625,0.80859375 0.8085938,0.80859375 0.9375,0 1.3125,-1.45312499 1.3125,-1.53515629 0,-0.09375 -0.09375,-0.09375 -0.1171875,-0.09375 -0.1054688,0 -0.1054688,0.023437 -0.1523438,0.1757813 -0.1523437,0.52734374 -0.46875,1.24218749 -1.0195312,1.24218749 -0.1640625,0 -0.234375,-0.10546875 -0.234375,-0.328125 0,-0.2578125 0.082031,-0.4921875 0.1757812,-0.71484379 0.1875,-0.515625 0.609375,-1.6171875 0.609375,-2.1914062 0,-0.6445313 -0.3984375,-1.0664063 -1.1484375,-1.0664063 -0.75,0 -1.2539062,0.4453125 -1.6171875,0.9726563 -0.011719,-0.1289063 -0.046875,-0.46875 -0.328125,-0.7148438 -0.2460937,-0.1992187 -0.5625,-0.2578125 -0.8085937,-0.2578125 -0.9023438,0 -1.3828125,0.6445313 -1.5585938,0.8671875 -0.046875,-0.5625 -0.46875,-0.8671875 -0.9140625,-0.8671875 -0.45703122,0 -0.64453122,0.3867188 -0.73828122,0.5742188 -0.17578125,0.3398437 -0.3046875,0.9375 -0.3046875,0.9609375 0,0.1054687 0.09375,0.1054687 0.1171875,0.1054687 0.09375,0 0.10546875,-0.011719 0.1640625,-0.234375 0.17578125,-0.703125 0.375,-1.1835937 0.72656252,-1.1835937 0.1640625,0 0.3164062,0.082031 0.3164062,0.4570312 0,0.2109375 -0.035156,0.3164063 -0.1640625,0.8320313 z m 0,0"
       style="fill:#000000;fill-opacity:1;fill-rule:nonzero;stroke:none"
       aria-label="m"
       transform="matrix(1.3333333,0,0,1.3333333,25.273333,86.330667)" />
    <path
       id="path23"
       d="M 85.04042,53.65971 V 21.58664"
       style="fill:none;stroke:#000000;stroke-width:0.79701;stroke-linecap:butt;stroke-linejoin:miter;stroke-miterlimit:10;stroke-dasharray:none;stroke-opacity:1"
       transform="matrix(1.3333333,0,0,-1.3333333,41.896,130.71467)" />
    <path
       id="path24"
       d="M 5.83896,0 1.287,1.72005 2.79384,0 1.287,-1.72005 Z"
       style="fill:#000000;fill-opacity:1;fill-rule:nonzero;stroke:#000000;stroke-width:0.79701;stroke-linecap:butt;stroke-linejoin:miter;stroke-miterlimit:10;stroke-dasharray:none;stroke-opacity:1"
       transform="matrix(0,1.3333333,1.3333333,0,155.28323,98.473027)" />
    <path
       id="path25"
       d="m 2.8580859,-6.8090703 c 0,0 0,-0.1054688 -0.1289062,-0.1054688 -0.234375,0 -0.9609375,0.082031 -1.21875,0.1054688 -0.082031,0 -0.1875,0.011719 -0.1875,0.1992187 0,0.1171875 0.09375,0.1171875 0.234375,0.1171875 0.4804687,0 0.5039062,0.070312 0.5039062,0.1640625 l -0.035156,0.1992188 -1.44140626,5.74218749 c -0.0351563,0.140625 -0.0351563,0.15234375 -0.0351563,0.22265625 0,0.22265625 0.19921875,0.26953125 0.28125,0.26953125 0.12890625,0 0.28124996,-0.08203125 0.33984366,-0.2109375 0.058594,-0.0820312 0.5039063,-1.92187499 0.5625,-2.17968749 0.3398439,0.035156 1.1601563,0.1875 1.1601563,0.8554687 0,0.070312 0,0.1054688 -0.035156,0.1992188 -0.023437,0.1289062 -0.035156,0.24609374 -0.035156,0.35156249 0,0.5859375 0.3984375,0.984375 0.9140625,0.984375 0.2929687,0 0.5625,-0.15234375 0.7851562,-0.52734375 0.2460938,-0.43359375 0.3632813,-0.98437504 0.3632813,-1.00781254 0,-0.09375 -0.09375,-0.09375 -0.1289063,-0.09375 -0.09375,0 -0.1054687,0.035156 -0.140625,0.1757813 -0.1992187,0.72656249 -0.421875,1.24218749 -0.8671875,1.24218749 -0.1875,0 -0.3164062,-0.1171875 -0.3164062,-0.46875 0,-0.17578125 0.046875,-0.3984375 0.082031,-0.56249999 0.035156,-0.1640625 0.035156,-0.2109375 0.035156,-0.3046875 0,-0.65625 -0.6210939,-0.9375 -1.4648439,-1.0546875 0.3046875,-0.1757813 0.6210939,-0.4921875 0.8554689,-0.7265625 0.4804686,-0.5273438 0.9375,-0.9609375 1.4179686,-0.9609375 0.058594,0 0.070312,0 0.09375,0.011719 0.1171875,0.023437 0.1289063,0.023437 0.2109375,0.082031 0.023437,0 0.023437,0.011719 0.035156,0.035156 -0.4804688,0.035156 -0.5625,0.421875 -0.5625,0.5390625 0,0.1640625 0.1054687,0.3515625 0.375,0.3515625 0.2578125,0 0.5507812,-0.2226562 0.5507812,-0.609375 0,-0.3046875 -0.234375,-0.6328125 -0.6796875,-0.6328125 -0.28125,0 -0.7382811,0.082031 -1.453125,0.8789063 -0.3398436,0.375 -0.7265624,0.7734375 -1.1015625,0.9257812 z m 0,0"
       style="fill:#000000;fill-opacity:1;fill-rule:nonzero;stroke:none"
       aria-label="k"
       transform="matrix(1.3333333,0,0,1.3333333,160.24,88.082667)" />
    <path
       id="path26"
       d="M 170.08086,53.65971 V 21.58664"
       style="fill:none;stroke:#000000;stroke-width:0.79701;stroke-linecap:butt;stroke-linejoin:miter;stroke-miterlimit:10;stroke-dasharray:none;stroke-opacity:1"
       transform="matrix(1.3333333,0,0,-1.3333333,41.896,130.71467)" />
    <path
       id="path27"
       d="M 5.83896,0 1.287,1.72005 2.79384,0 1.287,-1.72005 Z"
       style="fill:#000000;fill-opacity:1;fill-rule:nonzero;stroke:#000000;stroke-width:0.79701;stroke-linecap:butt;stroke-linejoin:miter;stroke-miterlimit:10;stroke-dasharray:none;stroke-opacity:1"
       transform="matrix(0,1.3333333,1.3333333,0,268.67048,98.473027)" />
    <g
       id="g27"
       aria-label="m&#10;′"
       transform="matrix(1.3333333,0,0,1.3333333,273.62533,88.464)">
      <path
         id="path28"
         d="m 0.87865625,-0.58530469 c -0.0351563,0.15234375 -0.09375,0.375 -0.09375,0.421875 0,0.1875 0.140625,0.26953125 0.29296875,0.26953125 0.1171875,0 0.2929688,-0.0703125 0.3632813,-0.26953125 0.011719,-0.0234375 0.1289062,-0.4921875 0.1875,-0.73828125 L 1.8513125,-1.8040547 C 1.9099063,-2.0267109 1.9685,-2.2376484 2.0270938,-2.4720234 2.06225,-2.6360859 2.1442813,-2.9290547 2.156,-2.9642109 c 0.140625,-0.3164063 0.6679688,-1.21875 1.6171875,-1.21875 0.4453125,0 0.5390625,0.3632812 0.5390625,0.6914062 0,0.2578125 -0.070312,0.5390625 -0.1523437,0.8320313 L 3.890375,-1.4993672 3.6911563,-0.74936719 c -0.046875,0.19921875 -0.140625,0.5390625 -0.140625,0.5859375 0,0.1875 0.140625,0.26953125 0.2929687,0.26953125 0.3046875,0 0.375,-0.24609375 0.4453125,-0.5625 0.140625,-0.56249996 0.515625,-2.01562496 0.5976563,-2.40234376 0.035156,-0.1289062 0.5625,-1.3242187 1.6523437,-1.3242187 0.421875,0 0.5390625,0.3398437 0.5390625,0.6914062 0,0.5742188 -0.421875,1.7109375 -0.6210937,2.2382813 -0.09375,0.234375 -0.1289063,0.35156246 -0.1289063,0.55078121 0,0.46875 0.3515625,0.80859375 0.8085938,0.80859375 0.9375,0 1.3125,-1.45312496 1.3125,-1.53515626 0,-0.09375 -0.09375,-0.09375 -0.1171875,-0.09375 -0.1054688,0 -0.1054688,0.023437 -0.1523438,0.1757813 -0.1523437,0.52734371 -0.46875,1.24218746 -1.0195312,1.24218746 -0.1640625,0 -0.234375,-0.10546875 -0.234375,-0.328125 0,-0.2578125 0.082031,-0.4921875 0.1757812,-0.71484376 0.1875,-0.515625 0.609375,-1.6171875 0.609375,-2.1914062 0,-0.6445313 -0.3984375,-1.0664063 -1.1484375,-1.0664063 -0.75,0 -1.2539062,0.4453125 -1.6171875,0.9726563 -0.011719,-0.1289063 -0.046875,-0.46875 -0.328125,-0.7148438 -0.2460937,-0.1992187 -0.5625,-0.2578125 -0.8085937,-0.2578125 -0.9023438,0 -1.3828125,0.6445313 -1.5585938,0.8671875 -0.046875,-0.5625 -0.46875,-0.8671875 -0.9140625,-0.8671875 -0.45703125,0 -0.64453125,0.3867188 -0.73828125,0.5742188 -0.17578125,0.3398437 -0.3046875,0.9375 -0.3046875,0.9609375 0,0.1054687 0.09375,0.1054687 0.1171875,0.1054687 0.09375,0 0.10546875,-0.011719 0.1640625,-0.234375 0.17578125,-0.703125 0.375,-1.1835937 0.72656255,-1.1835937 0.1640625,0 0.3164062,0.082031 0.3164062,0.4570312 0,0.2109375 -0.035156,0.3164063 -0.1640625,0.8320313 z m 0,0"
         style="fill:#000000;fill-opacity:1;fill-rule:nonzero;stroke:none" />
      <path
         id="path29"
         d="m 10.775141,-6.9075703 c 0.04687,-0.1171875 0.05859,-0.1757813 0.05859,-0.2226563 0,-0.2109375 -0.199218,-0.3867187 -0.410156,-0.3867187 -0.269531,0 -0.351562,0.2226562 -0.386719,0.328125 l -0.9140621,3.0234375 c -0.011719,0.011719 -0.035156,0.1054687 -0.035156,0.1171875 0,0.082031 0.2109375,0.1523437 0.2695313,0.1523437 0.046875,0 0.058594,-0.023437 0.1054687,-0.1289062 z m 0,0"
         style="fill:#000000;fill-opacity:1;fill-rule:nonzero;stroke:none" />
    </g>
    <path
       id="path30"
       d="M 63.58107,0 H 25.83868"
       style="fill:none;stroke:#000000;stroke-width:0.79701;stroke-linecap:butt;stroke-linejoin:miter;stroke-miterlimit:10;stroke-dasharray:none;stroke-opacity:1"
       transform="matrix(1.3333333,0,0,-1.3333333,41.896,130.71467)" />
    <path
       id="path31"
       d="M 5.83896,0 1.287,1.72005 2.79384,0 1.287,-1.72005 Z"
       style="fill:#000000;fill-opacity:1;fill-rule:nonzero;stroke:#000000;stroke-width:0.79701;stroke-linecap:butt;stroke-linejoin:miter;stroke-miterlimit:10;stroke-dasharray:none;stroke-opacity:1"
       transform="matrix(-1.3333333,0,0,1.3333333,79.807053,130.71467)" />
    <path
       id="path32"
       d="m 4.6881953,-3.7491016 c 0.011719,-0.070312 0.035156,-0.1171875 0.035156,-0.1875 0,-0.1640625 -0.1171875,-0.2695312 -0.2929688,-0.2695312 -0.09375,0 -0.3632812,0.070312 -0.4101562,0.4335937 -0.1757813,-0.375 -0.5273438,-0.6328125 -0.9257813,-0.6328125 -1.1367187,0 -2.36718749,1.3945313 -2.36718749,2.8359375 0,0.98437504 0.60937499,1.5703125375 1.32421879,1.5703125375 0.5859375,0 1.0546875,-0.4687499975 1.1601562,-0.5742187475 l 0.011719,0.0117188 c -0.2109375,0.87890625 -0.328125,1.2890625 -0.328125,1.3125 -0.046875,0.0820313 -0.3867188,1.07812501 -1.4414063,1.07812501 -0.1875,0 -0.51562499,-0.011719 -0.79687499,-0.1054687 0.3046875,-0.09375 0.41015629,-0.3515625 0.41015629,-0.515625 0,-0.1640625 -0.10546879,-0.35156256 -0.37500004,-0.35156256 -0.22265625,0 -0.5390625,0.17578126 -0.5390625,0.57421876 0,0.4101563 0.36328125,0.609375 1.32421874,0.609375 1.2421875,0 1.9570313,-0.7734375 2.109375,-1.37109376 z m -1.2890625,2.4726563 c -0.058594,0.2578125 -0.2929687,0.51562499 -0.5039062,0.70312499 -0.2109375,0.17578125 -0.5273438,0.3515625 -0.8085938,0.3515625 -0.5039062,0 -0.65625,-0.515625 -0.65625,-0.91406249 0,-0.4804688 0.2929688,-1.6523438 0.5625,-2.15625 0.2695313,-0.4921875 0.703125,-0.890625 1.1132813,-0.890625 0.65625,0 0.796875,0.8085937 0.796875,0.8554687 0,0.046875 -0.011719,0.1054688 -0.023437,0.1523438 z m 0,0"
       style="fill:#000000;fill-opacity:1;fill-rule:nonzero;stroke:none"
       aria-label="g"
       transform="matrix(1.3333333,0,0,1.3333333,95.182667,141.39333)" />
    <path
       id="path33"
       d="m 106.49977,0 h 37.74239"
       style="fill:none;stroke:#000000;stroke-width:0.79701;stroke-linecap:butt;stroke-linejoin:miter;stroke-miterlimit:10;stroke-dasharray:none;stroke-opacity:1"
       transform="matrix(1.3333333,0,0,-1.3333333,41.896,130.71467)" />
    <path
       id="path34"
       d="M 5.83896,0 1.287,1.72005 2.79384,0 1.287,-1.72005 Z"
       style="fill:#000000;fill-opacity:1;fill-rule:nonzero;stroke:#000000;stroke-width:0.79701;stroke-linecap:butt;stroke-linejoin:miter;stroke-miterlimit:10;stroke-dasharray:none;stroke-opacity:1"
       transform="matrix(1.3333333,0,0,-1.3333333,230.7594,130.71467)" />
    <g
       id="g34"
       aria-label="g&#10;′"
       transform="matrix(1.3333333,0,0,1.3333333,206.70533,145.66)">
      <path
         id="path35"
         d="m 4.6887734,-3.7498828 c 0.011719,-0.070312 0.035156,-0.1171875 0.035156,-0.1875 0,-0.1640625 -0.1171875,-0.2695313 -0.2929688,-0.2695313 -0.09375,0 -0.3632812,0.070312 -0.4101562,0.4335938 -0.1757813,-0.375 -0.5273438,-0.6328125 -0.9257813,-0.6328125 -1.1367187,0 -2.36718746,1.3945312 -2.36718746,2.8359375 0,0.98437499 0.60937496,1.5703124875 1.32421876,1.5703124875 0.5859375,0 1.0546875,-0.4687499975 1.1601562,-0.5742187475 l 0.011719,0.0117188 c -0.2109375,0.87890625 -0.328125,1.2890625 -0.328125,1.3125 -0.046875,0.0820313 -0.3867188,1.07812506 -1.4414063,1.07812506 -0.1875,0 -0.51562496,-0.011719 -0.79687496,-0.1054688 0.3046875,-0.09375 0.41015626,-0.3515625 0.41015626,-0.515625 0,-0.1640625 -0.10546876,-0.35156251 -0.37500001,-0.35156251 -0.22265625,0 -0.5390625,0.17578131 -0.5390625,0.57421881 0,0.4101562 0.36328125,0.609375 1.32421871,0.609375 1.2421875,0 1.9570313,-0.7734375 2.109375,-1.37109381 z m -1.2890625,2.4726562 c -0.058594,0.2578125 -0.2929687,0.51562504 -0.5039062,0.70312504 -0.2109375,0.17578125 -0.5273438,0.3515625 -0.8085938,0.3515625 -0.5039062,0 -0.65625,-0.515625 -0.65625,-0.91406254 0,-0.4804687 0.2929688,-1.6523437 0.5625,-2.15625 0.2695313,-0.4921875 0.703125,-0.890625 1.1132813,-0.890625 0.65625,0 0.796875,0.8085938 0.796875,0.8554688 0,0.046875 -0.011719,0.1054687 -0.023437,0.1523437 z m 0,0"
         style="fill:#000000;fill-opacity:1;fill-rule:nonzero;stroke:none" />
      <path
         id="path36"
         d="m 7.1350625,-6.9080859 c 0.046875,-0.1171875 0.058594,-0.1757813 0.058594,-0.2226563 0,-0.2109375 -0.1992188,-0.3867187 -0.4101563,-0.3867187 -0.2695312,0 -0.3515625,0.2226562 -0.3867187,0.328125 L 5.482719,-4.1658984 c -0.011719,0.011719 -0.035156,0.1054687 -0.035156,0.1171875 0,0.082031 0.2109375,0.1523437 0.2695313,0.1523437 0.046875,0 0.058594,-0.023437 0.1054687,-0.1289062 z m 0,0"
         style="fill:#000000;fill-opacity:1;fill-rule:nonzero;stroke:none" />
    </g>
  </g>
</svg>
