<?xml version="1.0" encoding="UTF-8" standalone="no"?>
<!-- Created with Inkscape (http://www.inkscape.org/) -->

<svg
   version="1.1"
   id="svg1"
   width="538.71738"
   height="106.41596"
   viewBox="0 0 405.05066 80.012001"
   sodipodi:docname="fig-span-placeholder.pdf"
   xmlns:inkscape="http://www.inkscape.org/namespaces/inkscape"
   xmlns:sodipodi="http://sodipodi.sourceforge.net/DTD/sodipodi-0.dtd"
   xmlns="http://www.w3.org/2000/svg"
   xmlns:svg="http://www.w3.org/2000/svg">
  <defs
     id="defs1" />
  <sodipodi:namedview
     id="namedview1"
     pagecolor="#ffffff"
     bordercolor="#000000"
     borderopacity="0.25"
     inkscape:showpageshadow="2"
     inkscape:pageopacity="0.0"
     inkscape:pagecheckerboard="0"
     inkscape:deskcolor="#d1d1d1">
    <inkscape:page
       x="0"
       y="0"
       inkscape:label="1"
       id="page1"
       width="405.05066"
       height="80.012001"
       margin="0"
       bleed="0" />
  </sodipodi:namedview>
  <g
     id="g1"
     inkscape:groupmode="layer"
     inkscape:label="1">
    <path
       id="path1"
       d="m 24.3617,19.84268 h -48.7234 c -2.20094,0 -3.9851,-1.78416 -3.9851,-3.98511 v -31.71514 c 0,-2.20095 1.78416,-3.98511 3.9851,-3.98511 h 48.7234 c 2.20094,0 3.9851,1.78416 3.9851,3.98511 v 31.71514 c 0,2.20095 -1.78416,3.98511 -3.9851,3.98511 z"
       style="fill:#f5f5f5;fill-opacity:1;fill-rule:nonzero;stroke:#a6a6a6;stroke-width:0.3985;stroke-linecap:butt;stroke-linejoin:miter;stroke-miterlimit:10;stroke-dasharray:none;stroke-opacity:1"
       transform="matrix(1.3333333,0,0,-1.3333333,51.344,40.006667)" />
    <path
       id="path2"
       d="m 3.7267266,-6.0222812 c 0.09375,-0.3632813 0.1171875,-0.46875 1.0546875,-0.46875 0.3046875,0 0.375,0 0.375,-0.1875 0,-0.1289063 -0.1054688,-0.1289063 -0.1523438,-0.1289063 -0.328125,0 -1.1484375,0.035156 -1.4765625,0.035156 -0.3046875,0 -1.03125,-0.035156 -1.3242187,-0.035156 -0.070312,0 -0.1875,0 -0.1875,0.1992188 0,0.1171875 0.082031,0.1171875 0.28125,0.1171875 0.011719,0 0.1992187,0 0.375,0.011719 0.1757812,0.023437 0.2695312,0.035156 0.2695312,0.1640625 0,0.035156 -0.011719,0.070312 -0.046875,0.1875 l -1.3359375,5.35546875 c -0.09375,0.38671875 -0.1171875,0.46875 -0.90234374,0.46875 -0.1640625,0 -0.26953125,0 -0.26953125,0.19921875 0,0.10546875 0.09375,0.10546875 0.26953125,0.10546875 H 5.2736016 c 0.234375,0 0.2460937,0 0.3046875,-0.1640625 L 6.3634453,-2.3191562 c 0.046875,-0.1054688 0.046875,-0.1289063 0.046875,-0.140625 0,-0.035156 -0.035156,-0.1054688 -0.1289062,-0.1054688 -0.082031,0 -0.09375,0.046875 -0.1640625,0.2109375 -0.3398438,0.9140625 -0.7734375,2.05078125 -2.4960938,2.05078125 h -0.9375 c -0.140625,0 -0.1640625,0 -0.2226562,-0.0117188 -0.1054688,-0.0117188 -0.1289063,-0.0234375 -0.1289063,-0.10546875 0,-0.0234375 0,-0.046875 0.046875,-0.22265625 z m 0,0"
       style="fill:#000000;fill-opacity:1;fill-rule:nonzero;stroke:none"
       aria-label="L"
       transform="matrix(1.3333333,0,0,1.3333333,46.824,44.545333)" />
    <path
       id="path3"
       d="m 137.74893,19.84268 h -48.7234 c -2.20095,0 -3.98511,-1.78416 -3.98511,-3.98511 v -31.71514 c 0,-2.20095 1.78416,-3.98511 3.98511,-3.98511 h 48.7234 c 2.20094,0 3.98511,1.78416 3.98511,3.98511 v 31.71514 c 0,2.20095 -1.78417,3.98511 -3.98511,3.98511 z"
       style="fill:#f5f5f5;fill-opacity:1;fill-rule:nonzero;stroke:#a6a6a6;stroke-width:0.3985;stroke-linecap:butt;stroke-linejoin:miter;stroke-miterlimit:10;stroke-dasharray:none;stroke-opacity:1"
       transform="matrix(1.3333333,0,0,-1.3333333,51.344,40.006667)" />
    <path
       id="path4"
       d="M 5.0748359,-4.018375 C 5.0631169,-4.053531 5.0162419,-4.1355625 5.0162419,-4.159 c 0,-0.011719 0.1875,-0.1523437 0.2929687,-0.234375 l 1.7460938,-1.3476562 c 0.9375,-0.6796875 1.3242187,-0.7265625 1.6171875,-0.75 0.082031,-0.011719 0.1875,-0.023437 0.1875,-0.1992188 0,-0.046875 -0.035156,-0.1171875 -0.1171875,-0.1171875 -0.2109375,0 -0.46875,0.035156 -0.703125,0.035156 -0.3632813,0 -0.75,-0.035156 -1.1015625,-0.035156 -0.070312,0 -0.1992188,0 -0.1992188,0.1992188 0,0.070312 0.058594,0.1054687 0.1289063,0.1171875 0.2109375,0.011719 0.3046875,0.070312 0.3046875,0.2109375 0,0.1757812 -0.2929688,0.3984375 -0.3632813,0.4570312 L 2.9303047,-2.8347812 3.7271797,-6.034 c 0.09375,-0.3632812 0.1054687,-0.4570312 0.8320312,-0.4570312 0.2578125,0 0.3398438,0 0.3398438,-0.1992188 0,-0.09375 -0.082031,-0.1171875 -0.140625,-0.1171875 -0.2695313,0 -0.9960938,0.035156 -1.265625,0.035156 -0.2929688,0 -0.9960938,-0.035156 -1.2890625,-0.035156 -0.070312,0 -0.1992188,0 -0.1992188,0.1992188 0,0.1171875 0.09375,0.1171875 0.2929688,0.1171875 0.1289062,0 0.3046875,0.011719 0.421875,0.011719 0.1640625,0.023437 0.2226562,0.058594 0.2226562,0.1640625 0,0.035156 -0.011719,0.070312 -0.046875,0.1875 l -1.3359375,5.35546875 c -0.09375,0.38671875 -0.1171875,0.46875 -0.90234371,0.46875 -0.1640625,0 -0.28125,0 -0.28125,0.1875 0,0.1171875 0.12890625,0.1171875 0.15234375,0.1171875 0.28125,0 0.98437496,-0.03515625 1.26562496,-0.03515625 0.2109375,0 0.4335938,0.01171875 0.6328125,0.01171875 0.2226563,0 0.4453125,0.0234375 0.65625,0.0234375 0.070312,0 0.1992188,0 0.1992188,-0.19921875 0,-0.10546875 -0.09375,-0.10546875 -0.28125,-0.10546875 -0.375,0 -0.6445313,0 -0.6445313,-0.1875 0,-0.0703125 0.058594,-0.28125 0.082031,-0.43359375 0.140625,-0.515625 0.2695312,-1.0429687 0.3984375,-1.5703125 l 1.4882812,-1.1484375 1.1601563,2.68359375 c 0.1171875,0.2578125 0.1171875,0.28125 0.1171875,0.33984375 0,0.3046875 -0.4335938,0.31640625 -0.515625,0.31640625 -0.1171875,0 -0.2226563,0 -0.2226563,0.19921875 0,0.10546875 0.1171875,0.10546875 0.140625,0.10546875 0.3984375,0 0.8085938,-0.03515625 1.2070313,-0.03515625 0.2226562,0 0.7617187,0.03515625 0.984375,0.03515625 0.046875,0 0.1757812,0 0.1757812,-0.19921875 0,-0.10546875 -0.1054687,-0.10546875 -0.1992187,-0.10546875 C 6.7623359,-0.31525 6.6334297,-0.409 6.4810859,-0.7605625 Z m 0,0"
       style="fill:#000000;fill-opacity:1;fill-rule:nonzero;stroke:none"
       aria-label="K"
       transform="matrix(1.3333333,0,0,1.3333333,196.40933,44.545333)" />
    <path
       id="path5"
       d="m 251.13617,19.84268 h -48.7234 c -2.20095,0 -3.98511,-1.78416 -3.98511,-3.98511 v -31.71514 c 0,-2.20095 1.78416,-3.98511 3.98511,-3.98511 h 48.7234 c 2.20094,0 3.98511,1.78416 3.98511,3.98511 v 31.71514 c 0,2.20095 -1.78417,3.98511 -3.98511,3.98511 z"
       style="fill:#f5f5f5;fill-opacity:1;fill-rule:nonzero;stroke:#a6a6a6;stroke-width:0.3985;stroke-linecap:butt;stroke-linejoin:miter;stroke-miterlimit:10;stroke-dasharray:none;stroke-opacity:1"
       transform="matrix(1.3333333,0,0,-1.3333333,51.344,40.006667)" />
    <path
       id="path6"
       d="m 3.7392422,-6.1160312 c 0.058594,-0.234375 0.082031,-0.3398438 0.28125,-0.3632813 0.082031,-0.011719 0.3984375,-0.011719 0.5976562,-0.011719 0.7148438,0 1.8164063,0 1.8164063,0.984375 0,0.3398437 -0.1523438,1.0195312 -0.5507813,1.4179687 C 5.6259609,-3.8308753 5.0986172,-3.514469 4.2079922,-3.514469 H 3.0947109 Z m 1.4296875,2.7304687 c 1.0078125,-0.2226562 2.1914062,-0.9140625 2.1914062,-1.921875 0,-0.8554687 -0.890625,-1.5 -2.203125,-1.5 H 2.3212734 c -0.1992187,0 -0.2929687,0 -0.2929687,0.1992188 0,0.1171875 0.09375,0.1171875 0.28125,0.1171875 0.023437,0 0.2109375,0 0.3867187,0.011719 0.1757813,0.023437 0.2578125,0.035156 0.2578125,0.1640625 0,0.035156 0,0.070312 -0.035156,0.1875 l -1.3359375,5.35546875 c -0.09375,0.38671875 -0.1171875,0.46875 -0.90234376,0.46875 -0.17578125,0 -0.26953125,0 -0.26953125,0.19921875 0,0.10546875 0.1171875,0.10546875 0.140625,0.10546875 0.28125,0 0.97265621,-0.03515625 1.25390621,-0.03515625 0.28125,0 0.984375,0.03515625 1.265625,0.03515625 0.082031,0 0.1992188,0 0.1992188,-0.19921875 0,-0.10546875 -0.09375,-0.10546875 -0.28125,-0.10546875 -0.3632813,0 -0.6445313,0 -0.6445313,-0.1875 0,-0.0585938 0.011719,-0.10546875 0.023437,-0.1640625 l 0.65625,-2.63671875 h 1.1953125 c 0.9023438,0 1.078125,0.5507813 1.078125,0.9023438 0,0.1523437 -0.082031,0.4570312 -0.140625,0.6914062 -0.070312,0.2695313 -0.1523437,0.6445313 -0.1523437,0.84375 0,1.078125 1.1953125,1.078125 1.3242187,1.078125 0.84375,0 1.1953125,-1.0078125 1.1953125,-1.1484375 0,-0.1171875 -0.1171875,-0.1171875 -0.1171875,-0.1171875 -0.09375,0 -0.1171875,0.0703125 -0.1289062,0.140625 -0.2578125,0.73828125 -0.6796875,0.90234375 -0.9140625,0.90234375 -0.328125,0 -0.3984375,-0.22265625 -0.3984375,-0.609375 0,-0.3046875 0.058594,-0.82031245 0.1054687,-1.13671875 0.011719,-0.140625 0.035156,-0.328125 0.035156,-0.46875 0,-0.7617187 -0.6679688,-1.078125 -0.9374994,-1.1718753 z m 0,0"
       style="fill:#000000;fill-opacity:1;fill-rule:nonzero;stroke:none"
       aria-label="R"
       transform="matrix(1.3333333,0,0,1.3333333,348.612,44.545333)" />
    <path
       id="path7"
       d="M 84.84117,0 H 32.9254"
       style="fill:none;stroke:#000000;stroke-width:0.79701;stroke-linecap:butt;stroke-linejoin:miter;stroke-miterlimit:10;stroke-dasharray:none;stroke-opacity:1"
       transform="matrix(1.3333333,0,0,-1.3333333,51.344,40.006667)" />
    <path
       id="path8"
       d="M 5.83896,0 1.287,1.72005 2.79384,0 1.287,-1.72005 Z"
       style="fill:#000000;fill-opacity:1;fill-rule:nonzero;stroke:#000000;stroke-width:0.79701;stroke-linecap:butt;stroke-linejoin:miter;stroke-miterlimit:10;stroke-dasharray:none;stroke-opacity:1"
       transform="matrix(-1.3333333,0,0,1.3333333,98.703987,40.006667)" />
    <path
       id="path9"
       d="m 3.0343516,-7.9930312 c 0.011719,-0.046875 0.035156,-0.1289063 0.035156,-0.1875 0,-0.1171875 -0.1171875,-0.1171875 -0.140625,-0.1171875 -0.011719,0 -0.4453125,0.035156 -0.65625,0.058594 -0.2109375,0.011719 -0.3867187,0.035156 -0.5976562,0.046875 -0.2929688,0.023437 -0.375,0.035156 -0.375,0.2578125 0,0.1171875 0.1171875,0.1171875 0.2460937,0.1171875 0.609375,0 0.609375,0.1054688 0.609375,0.2226563 0,0.046875 0,0.070312 -0.058594,0.2929687 l -1.48828129,5.9296875 c -0.0351563,0.1289063 -0.0585938,0.2226563 -0.0585938,0.41015625 0,0.59765625 0.4453125,1.078125 1.05468759,1.078125 0.3867187,0 0.65625,-0.2578125 0.84375,-0.6328125 0.1992187,-0.3984375 0.375,-1.14843745 0.375,-1.19531245 0,-0.058594 -0.046875,-0.1054688 -0.1171875,-0.1054688 -0.1171875,0 -0.1289063,0.058594 -0.1757813,0.234375 -0.2109375,0.83203125 -0.421875,1.46484375 -0.9023437,1.46484375 -0.3632813,0 -0.3632813,-0.38671875 -0.3632813,-0.55078125 0,-0.046875 0,-0.3046875 0.082031,-0.6328125 z m 0,0"
       style="fill:#000000;fill-opacity:1;fill-rule:nonzero;stroke:none"
       aria-label="l"
       transform="matrix(1.3333333,0,0,1.3333333,124.43467,35.048)" />
    <path
       id="path10"
       d="m 141.93329,0 h 51.91579"
       style="fill:none;stroke:#000000;stroke-width:0.79701;stroke-linecap:butt;stroke-linejoin:miter;stroke-miterlimit:10;stroke-dasharray:none;stroke-opacity:1"
       transform="matrix(1.3333333,0,0,-1.3333333,51.344,40.006667)" />
    <path
       id="path11"
       d="M 5.83896,0 1.287,1.72005 2.79384,0 1.287,-1.72005 Z"
       style="fill:#000000;fill-opacity:1;fill-rule:nonzero;stroke:#000000;stroke-width:0.79701;stroke-linecap:butt;stroke-linejoin:miter;stroke-miterlimit:10;stroke-dasharray:none;stroke-opacity:1"
       transform="matrix(1.3333333,0,0,-1.3333333,306.34996,40.006667)" />
    <path
       id="path12"
       d="m 4.6524531,-4.8875625 c -0.375,0.070312 -0.5625,0.328125 -0.5625,0.5976563 0,0.28125 0.2226563,0.375 0.3984375,0.375 0.328125,0 0.609375,-0.28125 0.609375,-0.6445313 0,-0.375 -0.375,-0.7148437 -0.9726562,-0.7148437 -0.4804688,0 -1.03125,0.2226562 -1.5351563,0.9492187 -0.082031,-0.6328125 -0.5625,-0.9492187 -1.03125,-0.9492187 -0.46875,0 -0.71484372,0.3632812 -0.85546872,0.6210937 -0.19921875,0.4335938 -0.375,1.1484375 -0.375,1.2070313 0,0.046875 0.046875,0.1054687 0.12890625,0.1054687 0.09375,0 0.10546875,-0.011719 0.17578125,-0.28125 0.17578125,-0.7148437 0.41015622,-1.40625 0.89062502,-1.40625 0.28125,0 0.3632812,0.1992188 0.3632812,0.5390625 0,0.2695313 -0.1171875,0.7382813 -0.1992187,1.1015625 L 1.3477656,-2.0985 c -0.046875,0.234375 -0.1757812,0.7734375 -0.234375,0.984375 -0.082031,0.31640625 -0.21093747,0.87890625 -0.21093747,0.9375 0,0.1640625 0.12890627,0.29296875 0.30468747,0.29296875 0.1289063,0 0.3632813,-0.08203125 0.4335938,-0.31640625 0.035156,-0.10546875 0.4804687,-1.9101562 0.5507812,-2.1796875 0.058594,-0.2578125 0.1289063,-0.515625 0.1875,-0.7734375 0.046875,-0.1757812 0.09375,-0.3632812 0.1289063,-0.515625 0.035156,-0.1054687 0.3632812,-0.6914062 0.65625,-0.9609375 0.1523437,-0.1289062 0.4570312,-0.3984375 0.9492187,-0.3984375 0.1875,0 0.3867188,0.035156 0.5390625,0.140625 z m 0,0"
       style="fill:#000000;fill-opacity:1;fill-rule:nonzero;stroke:none"
       aria-label="r"
       transform="matrix(1.3333333,0,0,1.3333333,274.38267,35.048)" />
  </g>
</svg>
