<?xml version="1.0" encoding="UTF-8" standalone="no"?>
<!-- Created with Inkscape (http://www.inkscape.org/) -->

<svg
   version="1.1"
   id="svg1"
   width="311.18"
   height="220.82"
   viewBox="0 0 233.96933 166.03333"
   sodipodi:docname="fig-nac-triangle.pdf"
   xmlns:inkscape="http://www.inkscape.org/namespaces/inkscape"
   xmlns:sodipodi="http://sodipodi.sourceforge.net/DTD/sodipodi-0.dtd"
   xmlns="http://www.w3.org/2000/svg"
   xmlns:svg="http://www.w3.org/2000/svg">
  <defs
     id="defs1" />
  <sodipodi:namedview
     id="namedview1"
     pagecolor="#ffffff"
     bordercolor="#000000"
     borderopacity="0.25"
     inkscape:showpageshadow="2"
     inkscape:pageopacity="0.0"
     inkscape:pagecheckerboard="0"
     inkscape:deskcolor="#d1d1d1">
    <inkscape:page
       x="0"
       y="0"
       inkscape:label="1"
       id="page1"
       width="233.96933"
       height="166.03333"
       margin="0"
       bleed="0" />
  </sodipodi:namedview>
  <g
     id="g1"
     inkscape:groupmode="layer"
     inkscape:label="1">
    <path
       id="path1"
       d="m 11.60571,11.37415 h -23.21142 c -2.20095,0 -3.98511,-1.78417 -3.98511,-3.98511 V -7.38904 c 0,-2.20094 1.78416,-3.98511 3.98511,-3.98511 h 23.21142 c 2.20095,0 3.98511,1.78417 3.98511,3.98511 V 7.38904 c 0,2.20094 -1.78416,3.98511 -3.98511,3.98511 z"
       style="fill:none;stroke:#a6a6a6;stroke-width:0.79701;stroke-linecap:butt;stroke-linejoin:miter;stroke-miterlimit:10;stroke-dasharray:none;stroke-opacity:1"
       transform="matrix(1.3333333,0,0,-1.3333333,31.945333,26.324)" />
    <path
       id="path2"
       d="m 3.7268984,-6.0229766 c 0.09375,-0.3632812 0.1171875,-0.46875 1.0546875,-0.46875 0.3046875,0 0.375,0 0.375,-0.1875 0,-0.1289062 -0.1054687,-0.1289062 -0.1523437,-0.1289062 -0.328125,0 -1.1484375,0.035156 -1.4765625,0.035156 -0.3046875,0 -1.03125,-0.035156 -1.3242188,-0.035156 -0.070312,0 -0.1875,0 -0.1875,0.1992187 0,0.1171875 0.082031,0.1171875 0.28125,0.1171875 0.011719,0 0.1992188,0 0.375,0.011719 0.1757813,0.023437 0.2695313,0.035156 0.2695313,0.1640625 0,0.035156 -0.011719,0.070312 -0.046875,0.1875 l -1.3359375,5.35546874 c -0.09375,0.38671875 -0.1171875,0.46875 -0.90234376,0.46875 -0.1640625,0 -0.26953125,0 -0.26953125,0.19921875 0,0.1054687475 0.09375,0.1054687475 0.26953125,0.1054687475 H 5.2737734 c 0.234375,0 0.2460938,0 0.3046875,-0.1640624975 L 6.3636172,-2.3198516 c 0.046875,-0.1054687 0.046875,-0.1289062 0.046875,-0.140625 0,-0.035156 -0.035156,-0.1054687 -0.1289063,-0.1054687 -0.082031,0 -0.09375,0.046875 -0.1640625,0.2109375 -0.3398437,0.9140625 -0.7734375,2.05078124 -2.4960937,2.05078124 h -0.9375 c -0.140625,0 -0.1640625,0 -0.2226563,-0.0117188 -0.1054687,-0.0117188 -0.1289062,-0.0234375 -0.1289062,-0.10546875 0,-0.0234375 0,-0.046875 0.046875,-0.22265625 z m 0,0"
       style="fill:#000000;fill-opacity:1;fill-rule:nonzero;stroke:none"
       aria-label="L"
       transform="matrix(1.3333333,0,0,1.3333333,27.425333,30.862667)" />
    <path
       id="path3"
       d="m 139.16635,11.37415 h -23.21144 c -2.20094,0 -3.98511,-1.78417 -3.98511,-3.98511 V -7.38904 c 0,-2.20094 1.78417,-3.98511 3.98511,-3.98511 h 23.21144 c 2.20095,0 3.98511,1.78417 3.98511,3.98511 V 7.38904 c 0,2.20094 -1.78416,3.98511 -3.98511,3.98511 z"
       style="fill:none;stroke:#a6a6a6;stroke-width:0.79701;stroke-linecap:butt;stroke-linejoin:miter;stroke-miterlimit:10;stroke-dasharray:none;stroke-opacity:1"
       transform="matrix(1.3333333,0,0,-1.3333333,31.945333,26.324)" />
    <path
       id="path4"
       d="m 7.5357891,-5.7534453 c 0.09375,-0.3984375 0.2695312,-0.7148438 1.0664062,-0.7382813 0.058594,0 0.1757813,-0.011719 0.1757813,-0.1992187 0,-0.011719 0,-0.1171875 -0.1289063,-0.1171875 -0.328125,0 -0.6796875,0.035156 -1.0078125,0.035156 -0.3398437,0 -0.6914062,-0.035156 -1.0195312,-0.035156 -0.058594,0 -0.1757813,0 -0.1757813,0.1992187 0,0.1171875 0.09375,0.1171875 0.1757813,0.1171875 0.5742187,0.011719 0.6796875,0.2109375 0.6796875,0.4335938 0,0.035156 -0.023437,0.1757812 -0.023437,0.2109375 l -1.125,4.4296875 -2.203125,-5.1914063 c -0.070312,-0.1875 -0.082031,-0.1992187 -0.3164063,-0.1992187 h -1.335938 c -0.1992187,0 -0.28125,0 -0.28125,0.1992187 0,0.1171875 0.082031,0.1171875 0.28125,0.1171875 0.046875,0 0.6679688,0 0.6679688,0.082031 l -1.3359375,5.3554687 c -0.09375,0.39843754 -0.2695313,0.71484379 -1.06640629,0.75000004 -0.0585938,0 -0.17578125,0 -0.17578125,0.19921875 0,0.0703125 0.046875,0.1054687475 0.12890625,0.1054687475 0.31640625,0 0.66796879,-0.0351562475 0.99609379,-0.0351562475 0.3398437,0 0.703125,0.0351562475 1.03125,0.0351562475 0.046875,0 0.1757812,0 0.1757812,-0.1992187475 0,-0.10546875 -0.09375,-0.10546875 -0.1992187,-0.10546875 -0.5742188,-0.0234375 -0.65625,-0.24609375 -0.65625,-0.4453125 0,-0.0703125 0.011719,-0.1171875 0.035156,-0.22265625 l 1.324219,-5.26171849 c 0.035156,0.058594 0.035156,0.082031 0.082031,0.1757813 l 2.484375,5.87109374 c 0.070312,0.1640625 0.09375,0.1874999975 0.1875,0.1874999975 0.1054688,0 0.1054688,-0.0351562475 0.1640625,-0.2109374975 z m 0,0"
       style="fill:#000000;fill-opacity:1;fill-rule:nonzero;stroke:none"
       aria-label="N"
       transform="matrix(1.3333333,0,0,1.3333333,195.964,30.862667)" />
    <path
       id="path5"
       d="M 75.38603,-73.66628 H 52.17458 c -2.20095,0 -3.98511,-1.78416 -3.98511,-3.9851 v -14.77808 c 0,-2.20094 1.78416,-3.98511 3.98511,-3.98511 h 23.21145 c 2.20095,0 3.98511,1.78417 3.98511,3.98511 v 14.77808 c 0,2.20094 -1.78416,3.9851 -3.98511,3.9851 z"
       style="fill:none;stroke:#a6a6a6;stroke-width:0.79701;stroke-linecap:butt;stroke-linejoin:miter;stroke-miterlimit:10;stroke-dasharray:none;stroke-opacity:1"
       transform="matrix(1.3333333,0,0,-1.3333333,31.945333,26.324)" />
    <path
       id="path6"
       d="m 7.5696016,-6.9272109 c 0,-0.023437 -0.023437,-0.09375 -0.1054688,-0.09375 -0.035156,0 -0.046875,0.011719 -0.1523437,0.1171875 l -0.703125,0.7617187 c -0.082031,-0.140625 -0.5390625,-0.8789062 -1.6523438,-0.8789062 -2.2148437,0 -4.45312499,2.203125 -4.45312499,4.5117187 0,1.58203126 1.10156249,2.73046876 2.71874999,2.73046876 0.4335938,0 0.8789063,-0.09375 1.2421875,-0.24609375 0.4921875,-0.19921875 0.6796875,-0.41015625 0.8671875,-0.609375 0.082031,0.2578125 0.3515625,0.62109375 0.4453125,0.62109375 0.046875,0 0.070312,-0.0234375 0.070312,-0.03515625 0.023437,-0.0234375 0.1171875,-0.3984375 0.1640625,-0.609375 L 6.2102266,-1.4311172 c 0.035156,-0.1640625 0.082031,-0.328125 0.1289062,-0.5039062 0.1054688,-0.4453125 0.1171875,-0.46875 0.6796875,-0.4804688 0.058594,0 0.1640625,-0.011719 0.1640625,-0.1992187 0,-0.070312 -0.046875,-0.1054688 -0.1289062,-0.1054688 -0.234375,0 -0.8203125,0.023437 -1.0429688,0.023437 -0.3164062,0 -1.0898437,-0.023437 -1.3945312,-0.023437 -0.09375,0 -0.2109375,0 -0.2109375,0.1992188 0,0.1054687 0.082031,0.1054687 0.2929687,0.1054687 0.011719,0 0.3046875,0 0.5273438,0.023437 0.2578125,0.035156 0.3164062,0.058594 0.3164062,0.1875 0,0.09375 -0.1171875,0.5390625 -0.2109375,0.9023438 -0.28125,1.10156246 -1.5820312,1.20703121 -1.921875,1.20703121 -0.9609375,0 -2.0039062,-0.5625 -2.0039062,-2.08593751 0,-0.3164062 0.09375,-1.9570312 1.1484375,-3.2460937 0.5390625,-0.6796875 1.5,-1.2890625 2.484375,-1.2890625 1.0195312,0 1.6054687,0.7734375 1.6054687,1.921875 0,0.3984375 -0.035156,0.4101562 -0.035156,0.5039062 0,0.1054688 0.1171875,0.1054688 0.1523437,0.1054688 0.1289063,0 0.1289063,-0.023437 0.1757813,-0.1992188 z m 0,0"
       style="fill:#000000;fill-opacity:1;fill-rule:nonzero;stroke:none"
       aria-label="G"
       transform="matrix(1.3333333,0,0,1.3333333,111.76267,144.248)" />
    <path
       id="path7"
       d="m 15.98933,0 h 91.20263"
       style="fill:none;stroke:#000000;stroke-width:0.79701;stroke-linecap:butt;stroke-linejoin:miter;stroke-miterlimit:10;stroke-dasharray:none;stroke-opacity:1"
       transform="matrix(1.3333333,0,0,-1.3333333,31.945333,26.324)" />
    <path
       id="path8"
       d="M 5.83896,0 1.287,1.72005 2.79384,0 1.287,-1.72005 Z"
       style="fill:#000000;fill-opacity:1;fill-rule:nonzero;stroke:#000000;stroke-width:0.79701;stroke-linecap:butt;stroke-linejoin:miter;stroke-miterlimit:10;stroke-dasharray:none;stroke-opacity:1"
       transform="matrix(1.3333333,0,0,-1.3333333,171.40847,26.324)" />
    <path
       id="path9"
       d="m 0.87990625,-0.58454687 c -0.0351563,0.15234375 -0.09375,0.375 -0.09375,0.421875 0,0.1875 0.140625,0.26953125 0.29296875,0.26953125 0.1171875,0 0.2929687,-0.0703125 0.3632812,-0.26953125 0.011719,-0.0234375 0.1289063,-0.4921875 0.1875,-0.73828125 L 1.8525625,-1.8032969 C 1.9111562,-2.0259531 1.96975,-2.2368906 2.0283437,-2.4712656 2.0635,-2.6353281 2.1455312,-2.9282969 2.15725,-2.9634531 c 0.140625,-0.3164063 0.6679687,-1.21875 1.6171875,-1.21875 0.4453125,0 0.5390625,0.3632812 0.5390625,0.6914062 0,0.6210938 -0.4921875,1.8984375 -0.6445313,2.3320313 -0.09375,0.22265623 -0.1054687,0.33984373 -0.1054687,0.45703123 0,0.46875 0.3515625,0.80859375 0.8203125,0.80859375 0.9375,0 1.3007812,-1.45312498 1.3007812,-1.53515628 0,-0.09375 -0.082031,-0.09375 -0.1171875,-0.09375 -0.09375,0 -0.09375,0.023437 -0.1523437,0.1757813 -0.1992188,0.67968748 -0.5273438,1.24218748 -1.0078125,1.24218748 -0.1757813,0 -0.2460938,-0.10546875 -0.2460938,-0.328125 0,-0.2578125 0.09375,-0.4921875 0.1875,-0.71484378 0.1875,-0.5273437 0.5976563,-1.6171875 0.5976563,-2.1914062 0,-0.6679688 -0.421875,-1.0664063 -1.1367188,-1.0664063 -0.9023437,0 -1.3828125,0.6445313 -1.5585937,0.8671875 -0.046875,-0.5507812 -0.4570313,-0.8671875 -0.9140625,-0.8671875 -0.45703125,0 -0.64453125,0.3867188 -0.75,0.5742188 -0.15234375,0.3398437 -0.29296875,0.9257812 -0.29296875,0.9609375 0,0.1054687 0.09375,0.1054687 0.1171875,0.1054687 0.09375,0 0.10546875,-0.011719 0.1640625,-0.234375 0.17578125,-0.703125 0.375,-1.1835937 0.72656245,-1.1835937 0.1992188,0 0.3164063,0.1289062 0.3164063,0.4570312 0,0.2109375 -0.035156,0.3164063 -0.1640625,0.8320313 z m 0,0"
       style="fill:#000000;fill-opacity:1;fill-rule:nonzero;stroke:none"
       aria-label="n"
       transform="matrix(1.3333333,0,0,1.3333333,112.99867,21.365333)" />
    <path
       id="path10"
       d="M 8.82948,-11.77264 52.33197,-69.76462"
       style="fill:none;stroke:#000000;stroke-width:0.79701;stroke-linecap:butt;stroke-linejoin:miter;stroke-miterlimit:10;stroke-dasharray:none;stroke-opacity:1"
       transform="matrix(1.3333333,0,0,-1.3333333,31.945333,26.324)" />
    <path
       id="path11"
       d="M 5.83896,0 1.287,1.72005 2.79384,0 1.287,-1.72005 Z"
       style="fill:#000000;fill-opacity:1;fill-rule:nonzero;stroke:#000000;stroke-width:0.79701;stroke-linecap:butt;stroke-linejoin:miter;stroke-miterlimit:10;stroke-dasharray:none;stroke-opacity:1"
       transform="matrix(0.80006667,1.0665733,1.0665733,-0.80006667,99.645427,116.57617)" />
    <path
       id="path12"
       d="m 0.87746094,-0.5866875 c -0.0351563,0.15234375 -0.09375,0.375 -0.09375,0.421875 0,0.1875 0.140625,0.26953125 0.29296876,0.26953125 0.1171875,0 0.2929687,-0.0703125 0.3632812,-0.26953125 C 1.4516797,-0.18825 1.5688672,-0.657 1.6274609,-0.90309375 L 1.8501172,-1.8054375 c 0.058594,-0.2226562 0.1171875,-0.4335937 0.1757812,-0.6679687 0.035156,-0.1640625 0.1171875,-0.4570313 0.1289063,-0.4921875 0.140625,-0.3164063 0.6679687,-1.21875 1.6171875,-1.21875 0.4453125,0 0.5390625,0.3632812 0.5390625,0.6914062 0,0.2578125 -0.070312,0.5390625 -0.1523438,0.8320313 l -0.2695312,1.1601562 -0.1992188,0.75 c -0.046875,0.19921875 -0.140625,0.5390625 -0.140625,0.5859375 0,0.1875 0.140625,0.26953125 0.2929688,0.26953125 0.3046875,0 0.375,-0.24609375 0.4453125,-0.5625 0.140625,-0.56249995 0.515625,-2.01562495 0.5976562,-2.40234375 0.035156,-0.1289062 0.5625,-1.3242187 1.6523438,-1.3242187 0.421875,0 0.5390625,0.3398437 0.5390625,0.6914062 0,0.5742188 -0.421875,1.7109375 -0.6210938,2.2382813 -0.09375,0.234375 -0.1289062,0.35156245 -0.1289062,0.5507812 0,0.46875 0.3515625,0.80859375 0.8085937,0.80859375 0.9375,0 1.3125,-1.45312495 1.3125,-1.53515625 0,-0.09375 -0.09375,-0.09375 -0.1171875,-0.09375 -0.1054687,0 -0.1054687,0.023437 -0.1523437,0.1757813 -0.1523438,0.5273437 -0.46875,1.24218745 -1.0195313,1.24218745 -0.1640625,0 -0.234375,-0.10546875 -0.234375,-0.328125 0,-0.2578125 0.082031,-0.4921875 0.1757813,-0.71484375 0.1875,-0.515625 0.609375,-1.6171875 0.609375,-2.1914062 0,-0.6445313 -0.3984375,-1.0664063 -1.1484375,-1.0664063 -0.75,0 -1.2539063,0.4453125 -1.6171875,0.9726563 C 4.9321484,-3.56325 4.8969922,-3.9030937 4.6157422,-4.1491875 4.3696484,-4.3484062 4.0532422,-4.407 3.8071484,-4.407 2.9048047,-4.407 2.4243359,-3.7624687 2.2485547,-3.5398125 2.2016797,-4.1023125 1.7798047,-4.407 1.3344922,-4.407 c -0.45703126,0 -0.64453126,0.3867188 -0.73828126,0.5742188 -0.17578125,0.3398437 -0.3046875,0.9375 -0.3046875,0.9609375 0,0.1054687 0.09375,0.1054687 0.1171875,0.1054687 0.09375,0 0.10546875,-0.011719 0.1640625,-0.234375 0.17578125,-0.703125 0.375,-1.1835937 0.72656246,-1.1835937 0.1640625,0 0.3164063,0.082031 0.3164063,0.4570312 0,0.2109375 -0.035156,0.3164063 -0.1640625,0.8320313 z m 0,0"
       style="fill:#000000;fill-opacity:1;fill-rule:nonzero;stroke:none"
       aria-label="m"
       transform="matrix(1.3333333,0,0,1.3333333,55.193333,85.876)" />
    <path
       id="path13"
       d="M 118.73114,-11.77264 75.22864,-69.76462"
       style="fill:none;stroke:#a6a6a6;stroke-width:0.79701;stroke-linecap:butt;stroke-linejoin:miter;stroke-miterlimit:10;stroke-dasharray:2.98883, 2.98883;stroke-dashoffset:0;stroke-opacity:1"
       transform="matrix(1.3333333,0,0,-1.3333333,31.945333,26.324)" />
    <path
       id="path14"
       d="M 5.83896,0 1.287,1.72005 2.79384,0 1.287,-1.72005 Z"
       style="fill:#a6a6a6;fill-opacity:1;fill-rule:nonzero;stroke:#a6a6a6;stroke-width:0.79701;stroke-linecap:butt;stroke-linejoin:miter;stroke-miterlimit:10;stroke-dasharray:none;stroke-opacity:1"
       transform="matrix(-0.80006667,1.0665733,1.0665733,0.80006667,134.32605,116.57617)" />
    <g
       id="g14"
       aria-label="∄q"
       transform="matrix(1.3333333,0,0,1.3333333,167.11467,86.301333)">
      <path
         id="path15"
         d="m 4.0184922,-8.1566641 c 0.035156,-0.140625 0.046875,-0.1757812 0.046875,-0.2109375 0,-0.1640625 -0.1523438,-0.1992187 -0.1992188,-0.1992187 -0.1640625,0 -0.1992187,0.1640625 -0.2226562,0.2578125 L 3.3388047,-6.9144766 H 0.90130469 c -0.1640625,0 -0.33984375,0 -0.33984375,0.1992188 0,0.1992187 0.17578125,0.1992187 0.33984375,0.1992187 H 3.2450547 l -0.6445313,2.859375 H 1.0419297 c -0.16406251,0 -0.33984376,0 -0.33984376,0.1992188 0,0.1992187 0.17578125,0.1992187 0.33984376,0.1992187 H 2.5067734 L 1.8739609,-0.39885156 H 0.90130469 c -0.1640625,0 -0.33984375,0 -0.33984375,0.19921875 0,0.1992187475 0.17578125,0.1992187475 0.33984375,0.1992187475 H 1.7802109 C 1.6747422,0.45661719 1.7216172,0.29255469 1.6161484,0.73786719 1.5575547,0.97224219 1.4638047,1.4175547 1.4638047,1.4527109 c 0,0.1757813 0.1523437,0.1992188 0.1992187,0.1992188 0.1640625,0 0.1875,-0.140625 0.2109375,-0.234375 C 2.0263047,0.76130469 2.0380234,0.70271094 2.1903672,-4.140625e-4 h 2.4257812 c 0.3164063,0 0.3515625,-0.0351562475 0.3515625,-0.3515624975 V -6.5629141 c 0,-0.3164062 -0.023437,-0.3515625 -0.3515625,-0.3515625 H 3.7489609 Z m -0.9960938,4.5 0.6328125,-2.859375 h 0.9140625 v 2.859375 z M 2.2841172,-0.39885156 2.9286484,-3.2582266 h 1.640625 v 2.85937504 z m 0,0"
         style="fill:#a6a6a6;fill-opacity:1;fill-rule:nonzero;stroke:none" />
      <path
         id="path16"
         d="m 11.694273,-4.2894766 c 0,-0.046875 -0.02344,-0.1054687 -0.09375,-0.1054687 -0.117187,0 -0.515625,0.3984375 -0.679687,0.6914062 -0.222656,-0.5390625 -0.609375,-0.703125 -0.9257813,-0.703125 -1.171875,0 -2.4023438,1.4765625 -2.4023438,2.9179688 0,0.98437499 0.5859375,1.59374999 1.3125,1.59374999 0.4335938,0 0.8203125,-0.234375 1.1835941,-0.59765625 -0.09375,0.3515625 -0.4218753,1.69921876 -0.4570316,1.79296876 -0.082031,0.2695312 -0.1523437,0.3164062 -0.7148437,0.328125 -0.1289063,0 -0.2226563,0 -0.2226563,0.1992187 0,0 0,0.1054688 0.1289063,0.1054688 0.3164062,0 0.6679687,-0.035156 0.9960937,-0.035156 0.3281246,0 0.6914066,0.035156 1.0195316,0.035156 0.04687,0 0.175781,0 0.175781,-0.1992188 0,-0.1054687 -0.09375,-0.1054687 -0.257813,-0.1054687 -0.46875,0 -0.46875,-0.070312 -0.46875,-0.1640625 0,-0.070312 0.01172,-0.1289063 0.03516,-0.2226563 z m -2.7539058,4.18359379 c -0.5976563,0 -0.6445313,-0.7734375 -0.6445313,-0.93749999 0,-0.4804688 0.2929688,-1.5703125 0.4570313,-1.9804688 0.3164062,-0.7382812 0.8320312,-1.1601562 1.2421875,-1.1601562 0.6445313,0 0.7851563,0.8085937 0.7851563,0.8789062 0,0.058594 -0.550781,2.2382813 -0.574219,2.2734375 -0.152344,0.28125004 -0.7148436,0.92578129 -1.2656248,0.92578129 z m 0,0"
         style="fill:#a6a6a6;fill-opacity:1;fill-rule:nonzero;stroke:none" />
    </g>
  </g>
</svg>
