<?xml version="1.0" encoding="UTF-8" standalone="no"?>
<!-- Created with Inkscape (http://www.inkscape.org/) -->

<svg
   version="1.1"
   id="svg1"
   width="229.36292"
   height="189.96833"
   viewBox="0 0 172.45332 142.83333"
   sodipodi:docname="fig-naturality.pdf"
   xmlns:inkscape="http://www.inkscape.org/namespaces/inkscape"
   xmlns:sodipodi="http://sodipodi.sourceforge.net/DTD/sodipodi-0.dtd"
   xmlns="http://www.w3.org/2000/svg"
   xmlns:svg="http://www.w3.org/2000/svg">
  <defs
     id="defs1" />
  <sodipodi:namedview
     id="namedview1"
     pagecolor="#ffffff"
     bordercolor="#000000"
     borderopacity="0.25"
     inkscape:showpageshadow="2"
     inkscape:pageopacity="0.0"
     inkscape:pagecheckerboard="0"
     inkscape:deskcolor="#d1d1d1">
    <inkscape:page
       x="0"
       y="0"
       inkscape:label="1"
       id="page1"
       width="172.45332"
       height="142.83333"
       margin="0"
       bleed="0" />
  </sodipodi:namedview>
  <g
     id="g1"
     inkscape:groupmode="layer"
     inkscape:label="1">
    <g
       id="g2"
       aria-label="I(c)"
       transform="matrix(1.3333333,0,0,1.3333333,36.069333,36.942667)">
      <path
         id="path2"
         d="m 3.7272969,-6.0361016 c 0.09375,-0.3632812 0.1171875,-0.4570312 0.9023437,-0.4570312 0.2460938,0 0.3164063,0 0.3164063,-0.1875 0,-0.1289063 -0.1054688,-0.1289063 -0.140625,-0.1289063 -0.2929688,0 -1.03125,0.035156 -1.3125,0.035156 -0.3046875,0 -1.03125,-0.035156 -1.3359375,-0.035156 -0.058594,0 -0.1992188,0 -0.1992188,0.1992188 0,0.1171875 0.09375,0.1171875 0.28125,0.1171875 0.421875,0 0.6914063,0 0.6914063,0.1875 0,0.046875 0,0.070312 -0.023437,0.1640625 l -1.3476563,5.36718749 c -0.082031,0.36328125 -0.1171875,0.46875 -0.90234373,0.46875 -0.22265625,0 -0.31640625,0 -0.31640625,0.19921875 0,0.1054687475 0.1171875,0.1054687475 0.15234375,0.1054687475 0.28125,0 1.00781253,-0.0351562475 1.30078123,-0.0351562475 0.3046875,0 1.03125,0.0351562475 1.3359375,0.0351562475 0.082031,0 0.1992188,0 0.1992188,-0.1874999975 0,-0.1171875 -0.082031,-0.1171875 -0.3046875,-0.1171875 -0.1757813,0 -0.2226563,0 -0.421875,-0.0234375 -0.2109375,-0.0234375 -0.2460938,-0.0585938 -0.2460938,-0.17578125 0,-0.0703125 0.011719,-0.15234375 0.035156,-0.22265625 z m 0,0"
         style="fill:#000000;fill-opacity:1;fill-rule:nonzero;stroke:none" />
      <path
         id="path3"
         d="m 8.4528828,2.3896797 c 0,-0.035156 0,-0.046875 -0.1640625,-0.2226563 -1.2421875,-1.25390621 -1.5703125,-3.12890621 -1.5703125,-4.6640625 0,-1.7226562 0.3867188,-3.4570312 1.6054688,-4.7109375 0.1289062,-0.1171875 0.1289062,-0.1289062 0.1289062,-0.1640625 0,-0.070312 -0.035156,-0.1054687 -0.09375,-0.1054687 -0.1054687,0 -0.9960937,0.6796875 -1.5820312,1.9453125 -0.515625,1.1015625 -0.6328125,2.203125 -0.6328125,3.0351562 0,0.7851563 0.1171875,1.99218754 0.65625,3.11718754 0.5976562,1.21874996 1.453125,1.87499996 1.5585937,1.87499996 0.058594,0 0.09375,-0.035156 0.09375,-0.1054687 z m 0,0"
         style="fill:#000000;fill-opacity:1;fill-rule:nonzero;stroke:none" />
      <path
         id="path4"
         d="m 12.985109,-3.7861016 c -0.164062,0 -0.304687,0 -0.445312,0.140625 -0.152344,0.1523438 -0.175781,0.3164063 -0.175781,0.3867188 0,0.234375 0.175781,0.3515625 0.363281,0.3515625 0.292969,0 0.5625,-0.2460938 0.5625,-0.6445313 0,-0.4804687 -0.46875,-0.8554687 -1.171875,-0.8554687 -1.347656,0 -2.6718751,1.4296875 -2.6718751,2.8359375 0,0.89062499 0.5742191,1.67578124 1.6171871,1.67578124 1.417969,0 2.261719,-1.0546875 2.261719,-1.17187504 0,-0.058594 -0.07031,-0.1289062 -0.128906,-0.1289062 -0.04687,0 -0.07031,0.023437 -0.128906,0.09375 -0.785157,0.99609374 -1.875,0.99609374 -1.992188,0.99609374 -0.621094,0 -0.890625,-0.4921875 -0.890625,-1.08984374 0,-0.4101563 0.199219,-1.3710938 0.539063,-1.9921875 0.304687,-0.5625 0.855468,-0.9960938 1.40625,-0.9960938 0.328125,0 0.714843,0.1289063 0.855468,0.3984375 z m 0,0"
         style="fill:#000000;fill-opacity:1;fill-rule:nonzero;stroke:none" />
      <path
         id="path5"
         d="m 16.231203,-2.4970391 c 0,-0.7734375 -0.117187,-1.9804687 -0.65625,-3.1054687 -0.597656,-1.21875 -1.464844,-1.875 -1.558594,-1.875 -0.05859,0 -0.105468,0.046875 -0.105468,0.1054687 0,0.035156 0,0.046875 0.199218,0.234375 0.972657,0.984375 1.535157,2.5664063 1.535157,4.640625 0,1.71093754 -0.363282,3.45703129 -1.59375,4.7226563 -0.140625,0.1171875 -0.140625,0.1289062 -0.140625,0.1640625 0,0.058594 0.04687,0.1054687 0.105468,0.1054687 0.09375,0 0.996094,-0.6796875 1.582032,-1.94531246 0.503906,-1.1015625 0.632812,-2.20312504 0.632812,-3.04687504 z m 0,0"
         style="fill:#000000;fill-opacity:1;fill-rule:nonzero;stroke:none" />
    </g>
    <g
       id="g5"
       aria-label="J(c)"
       transform="matrix(1.3333333,0,0,1.3333333,110.77867,36.942667)">
      <path
         id="path6"
         d="m 5.3896328,-6.0829766 c 0.082031,-0.328125 0.09375,-0.4101562 0.6445313,-0.4101562 0.1640625,0 0.2695312,0 0.2695312,-0.1875 0,-0.09375 -0.058594,-0.1289063 -0.140625,-0.1289063 -0.2460937,0 -0.8554687,0.035156 -1.1015625,0.035156 -0.328125,0 -1.1367187,-0.035156 -1.4648437,-0.035156 -0.09375,0 -0.2109375,0 -0.2109375,0.1992188 0,0.1171875 0.082031,0.1171875 0.3398437,0.1171875 0.2226563,0 0.328125,0 0.5742188,0.011719 0.2460937,0.035156 0.3164062,0.070312 0.3164062,0.1992188 0,0.070312 -0.023437,0.140625 -0.046875,0.2109375 L 3.4208828,-1.500945 c -0.234375,0.97265624 -0.9140625,1.4999999875 -1.4296875,1.4999999875 -0.2578125,0 -0.7851562,-0.1054687475 -0.9492187,-0.6210937475 0.035156,0.0117188 0.1054687,0.0117188 0.1171875,0.0117188 0.3984375,0 0.65625,-0.33984375 0.65625,-0.63281254 0,-0.3164063 -0.2695313,-0.421875 -0.4453125,-0.421875 -0.1757813,0 -0.66796879,0.1171875 -0.66796879,0.79687504 0,0.62109375 0.52734379,1.08984375 1.32421879,1.08984375 0.9140625,0 1.9453125,-0.65625 2.1914062,-1.65234379 z m 0,0"
         style="fill:#000000;fill-opacity:1;fill-rule:nonzero;stroke:none" />
      <path
         id="path7"
         d="m 9.775375,2.3896797 c 0,-0.035156 0,-0.046875 -0.1640625,-0.2226563 C 8.369125,0.91311719 8.041,-0.96188281 8.041,-2.4970391 c 0,-1.7226562 0.3867187,-3.4570312 1.6054687,-4.7109375 0.1289063,-0.1171875 0.1289063,-0.1289062 0.1289063,-0.1640625 0,-0.070312 -0.035156,-0.1054687 -0.09375,-0.1054687 -0.1054688,0 -0.9960938,0.6796875 -1.5820313,1.9453125 -0.515625,1.1015625 -0.6328125,2.203125 -0.6328125,3.0351562 0,0.7851563 0.1171875,1.99218754 0.65625,3.11718754 0.5976563,1.21874996 1.453125,1.87499996 1.5585938,1.87499996 0.058594,0 0.09375,-0.035156 0.09375,-0.1054687 z m 0,0"
         style="fill:#000000;fill-opacity:1;fill-rule:nonzero;stroke:none" />
      <path
         id="path8"
         d="m 14.307602,-3.7861016 c -0.164063,0 -0.304688,0 -0.445313,0.140625 -0.152344,0.1523438 -0.175781,0.3164063 -0.175781,0.3867188 0,0.234375 0.175781,0.3515625 0.363281,0.3515625 0.292969,0 0.5625,-0.2460938 0.5625,-0.6445313 0,-0.4804687 -0.46875,-0.8554687 -1.171875,-0.8554687 -1.347656,0 -2.671875,1.4296875 -2.671875,2.8359375 0,0.89062499 0.574219,1.67578124 1.617188,1.67578124 1.417968,0 2.261718,-1.0546875 2.261718,-1.17187504 0,-0.058594 -0.07031,-0.1289062 -0.128906,-0.1289062 -0.04687,0 -0.07031,0.023437 -0.128906,0.09375 -0.785156,0.99609374 -1.875,0.99609374 -1.992188,0.99609374 -0.621093,0 -0.890625,-0.4921875 -0.890625,-1.08984374 0,-0.4101563 0.199219,-1.3710938 0.539063,-1.9921875 0.304687,-0.5625 0.855469,-0.9960938 1.40625,-0.9960938 0.328125,0 0.714844,0.1289063 0.855469,0.3984375 z m 0,0"
         style="fill:#000000;fill-opacity:1;fill-rule:nonzero;stroke:none" />
      <path
         id="path9"
         d="m 17.550766,-2.4970391 c 0,-0.7734375 -0.117188,-1.9804687 -0.65625,-3.1054687 -0.597657,-1.21875 -1.464844,-1.875 -1.558594,-1.875 -0.05859,0 -0.105469,0.046875 -0.105469,0.1054687 0,0.035156 0,0.046875 0.199219,0.234375 0.972656,0.984375 1.535156,2.5664063 1.535156,4.640625 0,1.71093754 -0.363281,3.45703129 -1.59375,4.7226563 -0.140625,0.1171875 -0.140625,0.1289062 -0.140625,0.1640625 0,0.058594 0.04687,0.1054687 0.105469,0.1054687 0.09375,0 0.996094,-0.6796875 1.582031,-1.94531246 0.503906,-1.1015625 0.632813,-2.20312504 0.632813,-3.04687504 z m 0,0"
         style="fill:#000000;fill-opacity:1;fill-rule:nonzero;stroke:none" />
    </g>
    <g
       id="g9"
       aria-label="I(d)"
       transform="matrix(1.3333333,0,0,1.3333333,35.486667,112.53333)">
      <path
         id="path10"
         d="m 3.7277734,-6.0337891 c 0.09375,-0.3632812 0.1171875,-0.4570312 0.9023438,-0.4570312 0.2460937,0 0.3164062,0 0.3164062,-0.1875 0,-0.1289063 -0.1054687,-0.1289063 -0.140625,-0.1289063 -0.2929687,0 -1.03125,0.035156 -1.3125,0.035156 -0.3046875,0 -1.03125,-0.035156 -1.3359375,-0.035156 -0.058594,0 -0.1992187,0 -0.1992187,0.1992188 0,0.1171875 0.09375,0.1171875 0.28125,0.1171875 0.421875,0 0.6914062,0 0.6914062,0.1875 0,0.046875 0,0.070312 -0.023437,0.1640625 l -1.3476562,5.36718749 c -0.082031,0.36328125 -0.1171875,0.46875 -0.90234376,0.46875 -0.22265625,0 -0.31640625,0 -0.31640625,0.19921875 0,0.10546875 0.1171875,0.10546875 0.15234375,0.10546875 0.28125,0 1.00781246,-0.03515625 1.30078126,-0.03515625 0.3046875,0 1.03125,0.03515625 1.3359375,0.03515625 0.082031,0 0.1992187,0 0.1992187,-0.1875 0,-0.1171875 -0.082031,-0.1171875 -0.3046875,-0.1171875 -0.1757812,0 -0.2226562,0 -0.421875,-0.0234375 -0.2109375,-0.0234375 -0.2460937,-0.0585938 -0.2460937,-0.17578125 0,-0.0703125 0.011719,-0.15234375 0.035156,-0.22265625 z m 0,0"
         style="fill:#000000;fill-opacity:1;fill-rule:nonzero;stroke:none" />
      <path
         id="path11"
         d="m 8.4533594,2.3919922 c 0,-0.035156 0,-0.046875 -0.1640625,-0.2226563 -1.2421875,-1.25390621 -1.5703125,-3.12890621 -1.5703125,-4.6640625 0,-1.7226562 0.3867187,-3.4570312 1.6054687,-4.7109375 0.1289063,-0.1171875 0.1289063,-0.1289062 0.1289063,-0.1640625 0,-0.070312 -0.035156,-0.1054687 -0.09375,-0.1054687 -0.1054688,0 -0.9960938,0.6796875 -1.5820313,1.9453125 -0.515625,1.1015625 -0.6328125,2.203125 -0.6328125,3.0351562 0,0.7851563 0.1171875,1.99218754 0.65625,3.11718754 0.5976563,1.21874996 1.453125,1.87499996 1.5585938,1.87499996 0.058594,0 0.09375,-0.035156 0.09375,-0.1054687 z m 0,0"
         style="fill:#000000;fill-opacity:1;fill-rule:nonzero;stroke:none" />
      <path
         id="path12"
         d="m 14.180898,-6.8072266 c 0,0 0,-0.1054687 -0.128906,-0.1054687 -0.152344,0 -1.101562,0.09375 -1.265625,0.1054687 -0.08203,0.011719 -0.140625,0.070312 -0.140625,0.1992188 0,0.1171875 0.08203,0.1171875 0.234375,0.1171875 0.480469,0 0.503906,0.070312 0.503906,0.1640625 l -0.03516,0.1992187 -0.597656,2.3671875 c -0.175781,-0.375 -0.46875,-0.6445312 -0.914063,-0.6445312 -1.171875,0 -2.4023433,1.4648437 -2.4023433,2.9179687 0,0.93750004 0.5507812,1.59375004 1.3242183,1.59375004 0.199219,0 0.703125,-0.03515625 1.300782,-0.73828125 0.07031,0.41015625 0.421875,0.73828125 0.902343,0.73828125 0.351563,0 0.574219,-0.22265625 0.738282,-0.5390625 0.164062,-0.36328125 0.292968,-0.97265624 0.292968,-0.99609374 0,-0.09375 -0.08203,-0.09375 -0.117187,-0.09375 -0.09375,0 -0.105469,0.035156 -0.140625,0.1757812 -0.164063,0.64453129 -0.351563,1.24218754 -0.75,1.24218754 -0.269531,0 -0.304688,-0.2578125 -0.304688,-0.45703125 0,-0.24609375 0.02344,-0.31640625 0.05859,-0.48046879 z m -2.074218,5.625 c -0.04687,0.1757813 -0.04687,0.19921879 -0.199219,0.36328129 -0.445313,0.55078125 -0.84375,0.71484375 -1.125,0.71484375 -0.503906,0 -0.644531,-0.55078125 -0.644531,-0.93750004 0,-0.5039062 0.328125,-1.7226562 0.550781,-2.1796875 0.304687,-0.5976562 0.761719,-0.9609375 1.160156,-0.9609375 0.644531,0 0.785156,0.8203125 0.785156,0.8789063 0,0.058594 -0.02344,0.1171875 -0.03516,0.1640625 z m 0,0"
         style="fill:#000000;fill-opacity:1;fill-rule:nonzero;stroke:none" />
      <path
         id="path13"
         d="m 17.104727,-2.4947266 c 0,-0.7734375 -0.117188,-1.9804687 -0.65625,-3.1054687 -0.597657,-1.21875 -1.464844,-1.875 -1.558594,-1.875 -0.05859,0 -0.105469,0.046875 -0.105469,0.1054687 0,0.035156 0,0.046875 0.199219,0.234375 0.972656,0.984375 1.535156,2.5664063 1.535156,4.640625 0,1.71093754 -0.363281,3.45703129 -1.59375,4.7226563 -0.140625,0.1171875 -0.140625,0.1289062 -0.140625,0.1640625 0,0.058594 0.04687,0.1054687 0.105469,0.1054687 0.09375,0 0.996094,-0.6796875 1.582031,-1.94531246 0.503906,-1.1015625 0.632813,-2.20312504 0.632813,-3.04687504 z m 0,0"
         style="fill:#000000;fill-opacity:1;fill-rule:nonzero;stroke:none" />
    </g>
    <g
       id="g13"
       aria-label="J(d)"
       transform="matrix(1.3333333,0,0,1.3333333,110.196,112.53333)">
      <path
         id="path14"
         d="m 5.3901094,-6.0806641 c 0.082031,-0.328125 0.09375,-0.4101562 0.6445312,-0.4101562 0.1640625,0 0.2695313,0 0.2695313,-0.1875 0,-0.09375 -0.058594,-0.1289063 -0.140625,-0.1289063 -0.2460938,0 -0.8554688,0.035156 -1.1015625,0.035156 -0.328125,0 -1.1367188,-0.035156 -1.4648438,-0.035156 -0.09375,0 -0.2109375,0 -0.2109375,0.1992188 0,0.1171875 0.082031,0.1171875 0.3398438,0.1171875 0.2226562,0 0.328125,0 0.5742187,0.011719 0.2460938,0.035156 0.3164063,0.070312 0.3164063,0.1992188 0,0.070312 -0.023437,0.140625 -0.046875,0.2109375 l -1.1484375,4.5703125 c -0.234375,0.97265624 -0.9140625,1.49999999 -1.4296875,1.49999999 -0.2578125,0 -0.7851563,-0.10546875 -0.9492188,-0.62109375 0.035156,0.0117188 0.1054688,0.0117188 0.1171875,0.0117188 0.3984375,0 0.65625,-0.33984375 0.65625,-0.63281254 0,-0.3164062 -0.2695312,-0.421875 -0.4453125,-0.421875 -0.1757812,0 -0.66796872,0.1171875 -0.66796872,0.79687504 0,0.62109375 0.52734372,1.08984375 1.32421872,1.08984375 0.9140625,0 1.9453125,-0.65625 2.1914063,-1.65234379 z m 0,0"
         style="fill:#000000;fill-opacity:1;fill-rule:nonzero;stroke:none" />
      <path
         id="path15"
         d="m 9.7758516,2.3919922 c 0,-0.035156 0,-0.046875 -0.1640625,-0.2226563 -1.2421875,-1.25390621 -1.5703125,-3.12890621 -1.5703125,-4.6640625 0,-1.7226562 0.3867187,-3.4570312 1.6054687,-4.7109375 0.1289063,-0.1171875 0.1289063,-0.1289062 0.1289063,-0.1640625 0,-0.070312 -0.035156,-0.1054687 -0.09375,-0.1054687 -0.1054688,0 -0.9960938,0.6796875 -1.5820313,1.9453125 -0.515625,1.1015625 -0.6328125,2.203125 -0.6328125,3.0351562 0,0.7851563 0.1171875,1.99218754 0.65625,3.11718754 0.5976563,1.21874996 1.453125,1.87499996 1.5585938,1.87499996 0.058594,0 0.09375,-0.035156 0.09375,-0.1054687 z m 0,0"
         style="fill:#000000;fill-opacity:1;fill-rule:nonzero;stroke:none" />
      <path
         id="path16"
         d="m 15.500461,-6.8072266 c 0,0 0,-0.1054687 -0.128906,-0.1054687 -0.152344,0 -1.101563,0.09375 -1.265625,0.1054687 -0.08203,0.011719 -0.140625,0.070312 -0.140625,0.1992188 0,0.1171875 0.08203,0.1171875 0.234375,0.1171875 0.480468,0 0.503906,0.070312 0.503906,0.1640625 l -0.03516,0.1992187 -0.597657,2.3671875 c -0.175781,-0.375 -0.46875,-0.6445312 -0.914062,-0.6445312 -1.171875,0 -2.402344,1.4648437 -2.402344,2.9179687 0,0.93750004 0.550781,1.59375004 1.324219,1.59375004 0.199219,0 0.703125,-0.03515625 1.300781,-0.73828125 0.07031,0.41015625 0.421875,0.73828125 0.902344,0.73828125 0.351562,0 0.574219,-0.22265625 0.738281,-0.5390625 0.164063,-0.36328125 0.292969,-0.97265624 0.292969,-0.99609374 0,-0.09375 -0.08203,-0.09375 -0.117188,-0.09375 -0.09375,0 -0.105468,0.035156 -0.140625,0.1757812 -0.164062,0.64453129 -0.351562,1.24218754 -0.75,1.24218754 -0.269531,0 -0.304687,-0.2578125 -0.304687,-0.45703125 0,-0.24609375 0.02344,-0.31640625 0.05859,-0.48046879 z m -2.074219,5.625 c -0.04687,0.1757813 -0.04687,0.19921879 -0.199219,0.36328129 -0.445312,0.55078125 -0.84375,0.71484375 -1.125,0.71484375 -0.503906,0 -0.644531,-0.55078125 -0.644531,-0.93750004 0,-0.5039062 0.328125,-1.7226562 0.550781,-2.1796875 0.304688,-0.5976562 0.761719,-0.9609375 1.160157,-0.9609375 0.644531,0 0.785156,0.8203125 0.785156,0.8789063 0,0.058594 -0.02344,0.1171875 -0.03516,0.1640625 z m 0,0"
         style="fill:#000000;fill-opacity:1;fill-rule:nonzero;stroke:none" />
      <path
         id="path17"
         d="m 18.427219,-2.4947266 c 0,-0.7734375 -0.117188,-1.9804687 -0.65625,-3.1054687 -0.597656,-1.21875 -1.464844,-1.875 -1.558594,-1.875 -0.05859,0 -0.105469,0.046875 -0.105469,0.1054687 0,0.035156 0,0.046875 0.199219,0.234375 0.972656,0.984375 1.535156,2.5664063 1.535156,4.640625 0,1.71093754 -0.363281,3.45703129 -1.59375,4.7226563 -0.140625,0.1171875 -0.140625,0.1289062 -0.140625,0.1640625 0,0.058594 0.04687,0.1054687 0.105469,0.1054687 0.09375,0 0.996094,-0.6796875 1.582031,-1.94531246 0.503907,-1.1015625 0.632813,-2.20312504 0.632813,-3.04687504 z m 0,0"
         style="fill:#000000;fill-opacity:1;fill-rule:nonzero;stroke:none" />
    </g>
    <path
       id="path18"
       d="M 12.13058,56.69362 H 43.44402"
       style="fill:none;stroke:#000000;stroke-width:0.3985;stroke-linecap:butt;stroke-linejoin:miter;stroke-miterlimit:10;stroke-dasharray:none;stroke-opacity:1"
       transform="matrix(1.3333333,0,0,-1.3333333,47.550667,109.212)" />
    <path
       id="path19"
       d="M -1.19551,1.59401 C -1.09587,0.99626 0,0.09961 0.29886,0 0,-0.09961 -1.09587,-0.99626 -1.19551,-1.59401"
       style="fill:none;stroke:#000000;stroke-width:0.31879;stroke-linecap:round;stroke-linejoin:round;stroke-miterlimit:10;stroke-dasharray:none;stroke-opacity:1"
       transform="matrix(1.3333333,0,0,-1.3333333,105.47603,33.620507)" />
    <g
       id="g19"
       aria-label="h&#10;c"
       transform="matrix(1.3333333,0,0,1.3333333,78.373333,26.936)">
      <path
         id="path20"
         d="m 2.860625,-6.8074687 c 0,0 0,-0.1054688 -0.1289063,-0.1054688 -0.234375,0 -0.9609375,0.082031 -1.21875,0.1054688 -0.082031,0 -0.1875,0.011719 -0.1875,0.1992187 0,0.1171875 0.09375,0.1171875 0.234375,0.1171875 0.4804688,0 0.5039063,0.070312 0.5039063,0.1640625 l -0.035156,0.1992188 -1.4414062,5.74218745 c -0.0351563,0.140625 -0.0351563,0.15234375 -0.0351563,0.22265625 0,0.22265625 0.19921875,0.26953125 0.28125,0.26953125 0.1640625,0 0.3281249,-0.1171875 0.3749999,-0.2578125 l 0.1875,-0.75 0.2226563,-0.90234375 C 1.6770312,-2.0262187 1.735625,-2.2371562 1.7825,-2.4715312 1.8059375,-2.530125 1.8879687,-2.85825 1.8996875,-2.9168437 1.923125,-3.0105937 2.2278125,-3.561375 2.5676562,-3.8309062 2.7903125,-3.9949687 3.095,-4.1824687 3.5285937,-4.1824687 c 0.421875,0 0.5390625,0.3398437 0.5390625,0.6914062 0,0.5390625 -0.375,1.6289063 -0.6210937,2.2382813 -0.082031,0.2226562 -0.1289063,0.35156245 -0.1289063,0.5507812 0,0.46875 0.3515625,0.80859375 0.8203125,0.80859375 0.9375,0 1.3007813,-1.45312495 1.3007813,-1.53515625 0,-0.09375 -0.09375,-0.09375 -0.1171875,-0.09375 -0.1054688,0 -0.1054688,0.023437 -0.1523438,0.1757813 -0.1523437,0.5273437 -0.46875,1.24218745 -1.0195312,1.24218745 -0.1640625,0 -0.234375,-0.10546875 -0.234375,-0.328125 0,-0.2578125 0.09375,-0.4921875 0.1757812,-0.71484375 0.1640625,-0.421875 0.609375,-1.6054687 0.609375,-2.1914062 0,-0.6445313 -0.3984375,-1.0664063 -1.1484375,-1.0664063 -0.6210937,0 -1.1015625,0.3164063 -1.4648437,0.7734375 z m 0,0"
         style="fill:#000000;fill-opacity:1;fill-rule:nonzero;stroke:none" />
      <path
         id="path21"
         d="m 8.7991016,-1.1766094 c -0.2578125,0.046875 -0.3632813,0.23437503 -0.3632813,0.38671878 0,0.1875 0.1523438,0.2578125 0.2695313,0.2578125 0.1640625,0 0.3984375,-0.10546875 0.3984375,-0.4453125 0,-0.46874998 -0.5390625,-0.59765628 -0.9140625,-0.59765628 -1.0429688,0 -2.015625,0.96093753 -2.015625,1.92187503 0,0.609375 0.421875,1.21874997 1.2890625,1.21874997 1.1835937,0 1.734375,-0.69140622 1.734375,-0.78515622 0,-0.046875 -0.070312,-0.1171875 -0.1289063,-0.1171875 -0.035156,0 -0.046875,0.0117188 -0.1054687,0.0703125 C 8.4123828,1.3663594 7.6037891,1.3663594 7.4748828,1.3663594 c -0.5039062,0 -0.7265625,-0.3398438 -0.7265625,-0.77343752 0,-0.19921875 0.1054688,-0.9609375 0.46875,-1.44140625 0.2578125,-0.33984373 0.6210938,-0.53906253 0.9726563,-0.53906253 0.09375,0 0.4335937,0.011719 0.609375,0.2109375 z m 0,0"
         style="fill:#000000;fill-opacity:1;fill-rule:nonzero;stroke:none" />
    </g>
    <path
       id="path22"
       d="M 0,48.19241 V 8.95947"
       style="fill:none;stroke:#000000;stroke-width:0.3985;stroke-linecap:butt;stroke-linejoin:miter;stroke-miterlimit:10;stroke-dasharray:none;stroke-opacity:1"
       transform="matrix(1.3333333,0,0,-1.3333333,47.550667,109.212)" />
    <path
       id="path23"
       d="M -1.19551,1.59401 C -1.09587,0.99626 0,0.09961 0.29886,0 0,-0.09961 -1.09587,-0.99626 -1.19551,-1.59401"
       style="fill:none;stroke:#000000;stroke-width:0.31879;stroke-linecap:round;stroke-linejoin:round;stroke-miterlimit:10;stroke-dasharray:none;stroke-opacity:1"
       transform="matrix(0,1.3333333,1.3333333,0,47.550667,97.26604)" />
    <g
       id="g23"
       aria-label="I(f)"
       transform="matrix(1.3333333,0,0,1.3333333,17.710667,74.737333)">
      <path
         id="path24"
         d="m 3.7267656,-6.0344453 c 0.09375,-0.3632813 0.1171875,-0.4570313 0.9023438,-0.4570313 0.2460937,0 0.3164062,0 0.3164062,-0.1875 0,-0.1289062 -0.1054687,-0.1289062 -0.140625,-0.1289062 -0.2929687,0 -1.03125,0.035156 -1.3125,0.035156 -0.3046875,0 -1.03125,-0.035156 -1.3359375,-0.035156 -0.058594,0 -0.1992187,0 -0.1992187,0.1992187 0,0.1171875 0.09375,0.1171875 0.28125,0.1171875 0.421875,0 0.6914062,0 0.6914062,0.1875 0,0.046875 0,0.070312 -0.023437,0.1640625 l -1.3476562,5.36718754 c -0.082031,0.36328125 -0.1171875,0.46875 -0.90234378,0.46875 -0.22265625,0 -0.31640625,0 -0.31640625,0.19921875 0,0.1054687475 0.1171875,0.1054687475 0.15234375,0.1054687475 0.28125,0 1.00781248,-0.0351562475 1.30078128,-0.0351562475 0.3046875,0 1.03125,0.0351562475 1.3359375,0.0351562475 0.082031,0 0.1992187,0 0.1992187,-0.1874999975 0,-0.1171875 -0.082031,-0.1171875 -0.3046875,-0.1171875 -0.1757812,0 -0.2226562,0 -0.421875,-0.0234375 -0.2109375,-0.0234375 -0.2460937,-0.0585938 -0.2460937,-0.17578125 0,-0.0703125 0.011719,-0.15234375 0.035156,-0.22265625 z m 0,0"
         style="fill:#000000;fill-opacity:1;fill-rule:nonzero;stroke:none" />
      <path
         id="path25"
         d="m 8.4552812,2.3913359 c 0,-0.035156 0,-0.046875 -0.1640625,-0.2226562 -1.2421875,-1.25390626 -1.5703125,-3.12890626 -1.5703125,-4.6640625 0,-1.7226563 0.3867188,-3.4570313 1.6054688,-4.7109375 0.1289062,-0.1171875 0.1289062,-0.1289063 0.1289062,-0.1640625 0,-0.070312 -0.035156,-0.1054688 -0.09375,-0.1054688 -0.1054687,0 -0.9960937,0.6796875 -1.5820312,1.9453125 -0.515625,1.1015625 -0.6328125,2.203125 -0.6328125,3.0351563 0,0.7851562 0.1171875,1.99218749 0.65625,3.11718749 0.5976562,1.21875001 1.453125,1.87500001 1.5585937,1.87500001 0.058594,0 0.09375,-0.035156 0.09375,-0.1054688 z m 0,0"
         style="fill:#000000;fill-opacity:1;fill-rule:nonzero;stroke:none" />
      <path
         id="path26"
         d="m 12.691609,-3.9836641 h 0.855469 c 0.199219,0 0.304688,0 0.304688,-0.1992187 0,-0.1054688 -0.105469,-0.1054688 -0.269532,-0.1054688 h -0.832031 l 0.210938,-1.1367187 c 0.03516,-0.2109375 0.175781,-0.9140625 0.234375,-1.0429688 0.09375,-0.1875 0.257812,-0.3398437 0.46875,-0.3398437 0.04687,0 0.304687,0 0.492187,0.1875 -0.433594,0.035156 -0.539062,0.3867187 -0.539062,0.5390625 0,0.2226562 0.175781,0.3398437 0.363281,0.3398437 0.269531,0 0.550781,-0.2109375 0.550781,-0.5976562 0,-0.4570313 -0.457031,-0.6796875 -0.867187,-0.6796875 -0.339844,0 -0.960938,0.1757812 -1.265625,1.1601562 -0.05859,0.2109375 -0.08203,0.3164063 -0.328125,1.5703125 h -0.679688 c -0.199219,0 -0.304687,0 -0.304687,0.1875 0,0.1171875 0.09375,0.1171875 0.28125,0.1171875 h 0.65625 l -0.75,3.93750004 c -0.175782,0.9609375 -0.339844,1.87499996 -0.867188,1.87499996 -0.03516,0 -0.28125,0 -0.4687499,-0.1875 0.4570309,-0.023437 0.5390629,-0.3867187 0.5390629,-0.5390625 0,-0.22265621 -0.175782,-0.33984371 -0.363282,-0.33984371 -0.2578121,0 -0.5507809,0.2109375 -0.5507809,0.59765621 0,0.4453125 0.4335938,0.6796875 0.8437499,0.6796875 0.550781,0 0.949219,-0.5859375 1.125,-0.9609375 0.328125,-0.63281246 0.550781,-1.83984371 0.5625,-1.91015621 z m 0,0"
         style="fill:#000000;fill-opacity:1;fill-rule:nonzero;stroke:none" />
      <path
         id="path27"
         d="m 17.868367,-2.4953828 c 0,-0.7734375 -0.117187,-1.9804688 -0.65625,-3.1054688 -0.597656,-1.21875 -1.464844,-1.875 -1.558594,-1.875 -0.05859,0 -0.105468,0.046875 -0.105468,0.1054688 0,0.035156 0,0.046875 0.199218,0.234375 0.972657,0.984375 1.535157,2.5664062 1.535157,4.640625 0,1.71093749 -0.363282,3.45703124 -1.59375,4.7226562 -0.140625,0.1171875 -0.140625,0.1289063 -0.140625,0.1640625 0,0.058594 0.04687,0.1054688 0.105468,0.1054688 0.09375,0 0.996094,-0.6796875 1.582032,-1.94531251 0.503906,-1.1015625 0.632812,-2.20312499 0.632812,-3.04687499 z m 0,0"
         style="fill:#000000;fill-opacity:1;fill-rule:nonzero;stroke:none" />
    </g>
    <path
       id="path28"
       d="M 12.56761,0 H 43.007"
       style="fill:none;stroke:#000000;stroke-width:0.3985;stroke-linecap:butt;stroke-linejoin:miter;stroke-miterlimit:10;stroke-dasharray:none;stroke-opacity:1"
       transform="matrix(1.3333333,0,0,-1.3333333,47.550667,109.212)" />
    <path
       id="path29"
       d="M -1.19551,1.59401 C -1.09587,0.99626 0,0.09961 0.29886,0 0,-0.09961 -1.09587,-0.99626 -1.19551,-1.59401"
       style="fill:none;stroke:#000000;stroke-width:0.31879;stroke-linecap:round;stroke-linejoin:round;stroke-miterlimit:10;stroke-dasharray:none;stroke-opacity:1"
       transform="matrix(1.3333333,0,0,-1.3333333,104.89333,109.212)" />
    <g
       id="g29"
       aria-label="h&#10;d"
       transform="matrix(1.3333333,0,0,1.3333333,77.981333,123.12933)">
      <path
         id="path30"
         d="m 2.8587266,-6.8089141 c 0,0 0,-0.1054687 -0.1289063,-0.1054687 -0.234375,0 -0.9609375,0.082031 -1.21875,0.1054687 -0.082031,0 -0.1875,0.011719 -0.1875,0.1992188 0,0.1171875 0.09375,0.1171875 0.234375,0.1171875 0.4804688,0 0.5039063,0.070312 0.5039063,0.1640625 l -0.035156,0.1992187 -1.44140624,5.74218754 c -0.0351563,0.140625 -0.0351563,0.15234375 -0.0351563,0.22265625 0,0.22265625 0.19921875,0.26953125 0.28125,0.26953125 0.1640625,0 0.32812494,-0.1171875 0.37499994,-0.2578125 l 0.1875,-0.75 0.2226563,-0.90234374 c 0.058594,-0.2226563 0.1171875,-0.4335938 0.1640625,-0.6679688 0.023437,-0.058594 0.1054687,-0.3867187 0.1171875,-0.4453125 0.023437,-0.09375 0.328125,-0.6445312 0.6679687,-0.9140625 0.2226563,-0.1640625 0.5273438,-0.3515625 0.9609375,-0.3515625 0.421875,0 0.5390625,0.3398438 0.5390625,0.6914063 0,0.5390625 -0.375,1.6289062 -0.6210937,2.2382812 -0.082031,0.2226563 -0.1289063,0.35156254 -0.1289063,0.55078129 0,0.46875 0.3515625,0.80859375 0.8203125,0.80859375 0.9375,0 1.3007813,-1.45312504 1.3007813,-1.53515624 0,-0.09375 -0.09375,-0.09375 -0.1171875,-0.09375 -0.1054688,0 -0.1054688,0.023437 -0.1523438,0.1757812 -0.1523437,0.52734379 -0.46875,1.24218754 -1.0195312,1.24218754 -0.1640625,0 -0.234375,-0.10546875 -0.234375,-0.328125 0,-0.2578125 0.09375,-0.4921875 0.1757812,-0.71484374 0.1640625,-0.421875 0.609375,-1.6054688 0.609375,-2.1914063 0,-0.6445312 -0.3984375,-1.0664062 -1.1484375,-1.0664062 -0.6210937,0 -1.1015625,0.3164062 -1.4648437,0.7734375 z m 0,0"
         style="fill:#000000;fill-opacity:1;fill-rule:nonzero;stroke:none" />
      <path
         id="path31"
         d="m 9.7229844,-3.1350859 c 0,-0.011719 0.023437,-0.1054688 0.023437,-0.1171875 0,-0.035156 -0.023437,-0.09375 -0.1054688,-0.09375 -0.140625,0 -0.7265625,0.058594 -0.9023437,0.070312 -0.046875,0.011719 -0.1523438,0.011719 -0.1523438,0.1640625 0,0.09375 0.1054688,0.09375 0.1875,0.09375 0.328125,0 0.328125,0.046875 0.328125,0.1054687 0,0.046875 -0.011719,0.09375 -0.023437,0.1523438 l -0.3984375,1.59375 c -0.140625,-0.234375 -0.3867187,-0.4101563 -0.7148437,-0.4101563 -0.890625,0 -1.8046875,0.97265626 -1.8046875,1.98046876 0,0.67968754 0.4570312,1.16015624 1.0546875,1.16015624 0.375,0 0.7148437,-0.2109375 0.9960937,-0.4921875 0.1289063,0.421875 0.5273438,0.4921875 0.7148438,0.4921875 0.2460937,0 0.421875,-0.1523437 0.5507812,-0.375 0.1523438,-0.26953124 0.2460938,-0.66796874 0.2460938,-0.69140624 0,-0.09375 -0.09375,-0.09375 -0.1171875,-0.09375 -0.09375,0 -0.1054688,0.0351563 -0.1523438,0.22265625 -0.082031,0.328125 -0.2109375,0.73828129 -0.5039062,0.73828129 -0.1875,0 -0.234375,-0.1523438 -0.234375,-0.3398438 0,-0.12890624 0.011719,-0.19921874 0.035156,-0.28124999 z M 8.2347031,0.62663281 c -0.046875,0.1875 -0.1992187,0.328125 -0.3515625,0.45703129 -0.070312,0.058594 -0.3398437,0.28125 -0.6445312,0.28125 -0.2578125,0 -0.515625,-0.1757813 -0.515625,-0.66796879 0,-0.375 0.2109375,-1.13671875 0.3632812,-1.41796875 0.328125,-0.56249996 0.6796875,-0.66796876 0.8789063,-0.66796876 0.4804687,0 0.6210937,0.52734376 0.6210937,0.60937501 0,0.0234375 -0.011719,0.0820313 -0.023437,0.09375 z m 0,0"
         style="fill:#000000;fill-opacity:1;fill-rule:nonzero;stroke:none" />
    </g>
    <path
       id="path32"
       d="M 56.69362,48.19241 V 8.95947"
       style="fill:none;stroke:#000000;stroke-width:0.3985;stroke-linecap:butt;stroke-linejoin:miter;stroke-miterlimit:10;stroke-dasharray:none;stroke-opacity:1"
       transform="matrix(1.3333333,0,0,-1.3333333,47.550667,109.212)" />
    <path
       id="path33"
       d="M -1.19551,1.59401 C -1.09587,0.99626 0,0.09961 0.29886,0 0,-0.09961 -1.09587,-0.99626 -1.19551,-1.59401"
       style="fill:none;stroke:#000000;stroke-width:0.31879;stroke-linecap:round;stroke-linejoin:round;stroke-miterlimit:10;stroke-dasharray:none;stroke-opacity:1"
       transform="matrix(0,1.3333333,1.3333333,0,123.14216,97.26604)" />
    <g
       id="g33"
       aria-label="J(f)"
       transform="matrix(1.3333333,0,0,1.3333333,127.83333,74.737333)">
      <path
         id="path34"
         d="m 5.3896484,-6.0813203 c 0.082031,-0.328125 0.09375,-0.4101563 0.6445313,-0.4101563 0.1640625,0 0.2695312,0 0.2695312,-0.1875 0,-0.09375 -0.058594,-0.1289062 -0.140625,-0.1289062 -0.2460937,0 -0.8554687,0.035156 -1.1015625,0.035156 -0.328125,0 -1.1367187,-0.035156 -1.4648437,-0.035156 -0.09375,0 -0.2109375,0 -0.2109375,0.1992187 0,0.1171875 0.082031,0.1171875 0.3398437,0.1171875 0.2226563,0 0.328125,0 0.5742188,0.011719 0.2460937,0.035156 0.3164062,0.070312 0.3164062,0.1992187 0,0.070312 -0.023437,0.140625 -0.046875,0.2109375 L 3.4208984,-1.4992891 C 3.1865234,-0.52663281 2.5068359,7.109375e-4 1.9912109,7.109375e-4 c -0.2578125,0 -0.7851562,-0.1054687475 -0.9492187,-0.6210937475 0.035156,0.0117188 0.1054687,0.0117188 0.1171875,0.0117188 0.3984375,0 0.65625,-0.33984375 0.65625,-0.63281249 0,-0.3164062 -0.2695313,-0.421875 -0.4453125,-0.421875 -0.1757813,0 -0.66796876,0.1171875 -0.66796876,0.79687499 0,0.62109375 0.52734376,1.08984375 1.32421876,1.08984375 0.9140625,0 1.9453125,-0.65625 2.1914062,-1.65234374 z m 0,0"
         style="fill:#000000;fill-opacity:1;fill-rule:nonzero;stroke:none" />
      <path
         id="path35"
         d="m 9.7753906,2.3913359 c 0,-0.035156 0,-0.046875 -0.1640625,-0.2226562 -1.2421875,-1.25390626 -1.5703125,-3.12890626 -1.5703125,-4.6640625 0,-1.7226563 0.3867188,-3.4570313 1.6054688,-4.7109375 0.1289062,-0.1171875 0.1289062,-0.1289063 0.1289062,-0.1640625 0,-0.070312 -0.035156,-0.1054688 -0.09375,-0.1054688 -0.1054687,0 -0.9960937,0.6796875 -1.5820312,1.9453125 -0.515625,1.1015625 -0.6328125,2.203125 -0.6328125,3.0351563 0,0.7851562 0.1171875,1.99218749 0.65625,3.11718749 0.5976562,1.21875001 1.453125,1.87500001 1.5585937,1.87500001 0.058594,0 0.09375,-0.035156 0.09375,-0.1054688 z m 0,0"
         style="fill:#000000;fill-opacity:1;fill-rule:nonzero;stroke:none" />
      <path
         id="path36"
         d="m 14.014648,-3.9836641 h 0.855469 c 0.199219,0 0.304688,0 0.304688,-0.1992187 0,-0.1054688 -0.105469,-0.1054688 -0.269532,-0.1054688 h -0.832031 l 0.210938,-1.1367187 c 0.03516,-0.2109375 0.175781,-0.9140625 0.234375,-1.0429688 0.09375,-0.1875 0.257812,-0.3398437 0.46875,-0.3398437 0.04687,0 0.304687,0 0.492187,0.1875 -0.433594,0.035156 -0.539062,0.3867187 -0.539062,0.5390625 0,0.2226562 0.175781,0.3398437 0.363281,0.3398437 0.269531,0 0.550781,-0.2109375 0.550781,-0.5976562 0,-0.4570313 -0.457031,-0.6796875 -0.867187,-0.6796875 -0.339844,0 -0.960938,0.1757812 -1.265625,1.1601562 -0.05859,0.2109375 -0.08203,0.3164063 -0.328125,1.5703125 h -0.679688 c -0.199219,0 -0.304687,0 -0.304687,0.1875 0,0.1171875 0.09375,0.1171875 0.28125,0.1171875 h 0.65625 l -0.75,3.93750004 c -0.175782,0.9609375 -0.339844,1.87499996 -0.867188,1.87499996 -0.03516,0 -0.28125,0 -0.46875,-0.1875 0.457031,-0.023437 0.539063,-0.3867187 0.539063,-0.5390625 0,-0.22265621 -0.175782,-0.33984371 -0.363282,-0.33984371 -0.257812,0 -0.550781,0.2109375 -0.550781,0.59765621 0,0.4453125 0.433594,0.6796875 0.84375,0.6796875 0.550781,0 0.949219,-0.5859375 1.125,-0.9609375 0.328125,-0.63281246 0.550781,-1.83984371 0.5625,-1.91015621 z m 0,0"
         style="fill:#000000;fill-opacity:1;fill-rule:nonzero;stroke:none" />
      <path
         id="path37"
         d="m 19.188477,-2.4953828 c 0,-0.7734375 -0.117188,-1.9804688 -0.65625,-3.1054688 -0.597657,-1.21875 -1.464844,-1.875 -1.558594,-1.875 -0.05859,0 -0.105469,0.046875 -0.105469,0.1054688 0,0.035156 0,0.046875 0.199219,0.234375 0.972656,0.984375 1.535156,2.5664062 1.535156,4.640625 0,1.71093749 -0.363281,3.45703124 -1.59375,4.7226562 -0.140625,0.1171875 -0.140625,0.1289063 -0.140625,0.1640625 0,0.058594 0.04687,0.1054688 0.105469,0.1054688 0.09375,0 0.996094,-0.6796875 1.582031,-1.94531251 0.503906,-1.1015625 0.632813,-2.20312499 0.632813,-3.04687499 z m 0,0"
         style="fill:#000000;fill-opacity:1;fill-rule:nonzero;stroke:none" />
    </g>
  </g>
</svg>
