<?xml version="1.0" encoding="UTF-8" standalone="no"?>
<!DOCTYPE svg PUBLIC "-//W3C//DTD SVG 1.1//EN"
 "http://www.w3.org/Graphics/SVG/1.1/DTD/svg11.dtd">
<!-- Generated by graphviz version 14.1.5 (0)
 -->
<!-- Title: G Pages: 1 -->
<svg width="205pt" height="191pt"
 viewBox="0.00 0.00 205.00 191.00" xmlns="http://www.w3.org/2000/svg" xmlns:xlink="http://www.w3.org/1999/xlink">
<g id="graph0" class="graph" transform="scale(1 1) rotate(0) translate(4 187.25)">
<title>G</title>
<polygon fill="white" stroke="none" points="-4,4 -4,-187.25 201.26,-187.25 201.26,4 -4,4"/>
<!-- v1 -->
<g id="node1" class="node">
<title>v1</title>
<ellipse fill="tan" stroke="tan" cx="19.63" cy="-19.63" rx="19.63" ry="19.63"/>
<text xml:space="preserve" text-anchor="middle" x="19.63" y="-14.2" font-family="Times,serif" font-size="14.00">30</text>
</g>
<!-- v2 -->
<g id="node2" class="node">
<title>v2</title>
<ellipse fill="tan" stroke="tan" cx="19.63" cy="-91.63" rx="19.63" ry="19.63"/>
<text xml:space="preserve" text-anchor="middle" x="19.63" y="-86.2" font-family="Times,serif" font-size="14.00">13</text>
</g>
<!-- v3 -->
<g id="node3" class="node">
<title>v3</title>
<ellipse fill="lightgreen" stroke="lightgreen" cx="19.63" cy="-163.63" rx="18" ry="18"/>
</g>
<!-- v4 -->
<g id="node4" class="node">
<title>v4</title>
<ellipse fill="lightgreen" stroke="lightgreen" cx="91.63" cy="-19.63" rx="18" ry="18"/>
</g>
<!-- v5 -->
<g id="node5" class="node">
<title>v5</title>
<ellipse fill="tan" stroke="tan" cx="91.63" cy="-91.63" rx="18" ry="18"/>
<text xml:space="preserve" text-anchor="middle" x="91.63" y="-86.2" font-family="Times,serif" font-size="14.00">5</text>
</g>
<!-- v6 -->
<g id="node6" class="node">
<title>v6</title>
<ellipse fill="lightgreen" stroke="lightgreen" cx="91.63" cy="-163.63" rx="18" ry="18"/>
</g>
<!-- v7 -->
<g id="node7" class="node">
<title>v7</title>
<ellipse fill="lightgreen" stroke="lightgreen" cx="163.63" cy="-19.63" rx="18" ry="18"/>
</g>
<!-- v8 -->
<g id="node8" class="node">
<title>v8</title>
<ellipse fill="lightgreen" stroke="lightgreen" cx="163.63" cy="-91.63" rx="18" ry="18"/>
</g>
<!-- v9 -->
<g id="node9" class="node">
<title>v9</title>
<ellipse fill="tan" stroke="tan" cx="163.63" cy="-163.63" rx="19.63" ry="19.63"/>
<text xml:space="preserve" text-anchor="middle" x="163.63" y="-158.2" font-family="Times,serif" font-size="14.00">30</text>
</g>
<!-- w1 -->
<g id="node10" class="node">
<title>w1</title>
<polygon fill="red" stroke="red" points="35.85,-54.99 14.25,-54.99 14.25,-33.39 35.85,-33.39 35.85,-54.99"/>
<text xml:space="preserve" text-anchor="middle" x="25.05" y="-38.76" font-family="Times,serif" font-size="14.00">1⁵</text>
</g>
<!-- w2 -->
<g id="node11" class="node">
<title>w2</title>
<polygon fill="red" stroke="red" points="197.26,-109.07 175.66,-109.07 175.66,-87.47 197.26,-87.47 197.26,-109.07"/>
<text xml:space="preserve" text-anchor="middle" x="186.46" y="-92.84" font-family="Times,serif" font-size="14.00">2⁵</text>
</g>
<!-- s5 -->
<g id="node12" class="node">
<title>s5</title>
<polygon fill="lightblue" stroke="lightblue" points="179.95,-89.15 158.35,-89.15 158.35,-67.55 179.95,-67.55 179.95,-89.15"/>
<text xml:space="preserve" text-anchor="middle" x="169.15" y="-72.92" font-family="Times,serif" font-size="14.00">5⁸</text>
</g>
<!-- s6 -->
<g id="node13" class="node">
<title>s6</title>
<polygon fill="lightblue" stroke="lightblue" points="36.37,-50.26 14.77,-50.26 14.77,-28.66 36.37,-28.66 36.37,-50.26"/>
<text xml:space="preserve" text-anchor="middle" x="25.57" y="-34.03" font-family="Times,serif" font-size="14.00">6⁹*</text>
</g>
</g>
</svg>
