<?xml version="1.0" encoding="UTF-8" standalone="no"?>
<!DOCTYPE svg PUBLIC "-//W3C//DTD SVG 1.1//EN"
 "http://www.w3.org/Graphics/SVG/1.1/DTD/svg11.dtd">
<!-- Generated by graphviz version 14.1.5 (0)
 -->
<!-- Title: G Pages: 1 -->
<svg width="749pt" height="830pt"
 viewBox="0.00 0.00 749.00 830.00" xmlns="http://www.w3.org/2000/svg" xmlns:xlink="http://www.w3.org/1999/xlink">
<g id="graph0" class="graph" transform="scale(1 1) rotate(0) translate(4 825.88)">
<title>G</title>
<polygon fill="white" stroke="none" points="-4,4 -4,-825.88 744.52,-825.88 744.52,4 -4,4"/>
<text xml:space="preserve" text-anchor="middle" x="370.26" y="-804.58" font-family="Serif" font-size="14.00">[1.0, 2.0, 1.0] </text>
<!-- n0in1 -->
<!-- n1 -->
<!-- while -->
<g id="n1" class="node">
<title>n1</title>
<polygon fill="lightpink" stroke="none" points="600.54,-761.19 552.54,-761.19 552.54,-736.94 600.54,-736.94 600.54,-761.19"/>
<polygon fill="none" stroke="black" points="552.54,-736.94 552.54,-761.19 600.54,-761.19 600.54,-736.94 552.54,-736.94"/>
<text xml:space="preserve" text-anchor="start" x="561.54" y="-746.44" font-family="Serif" font-size="14.00">while</text>
</g>
<!-- n0in1&#45;&gt;n1 -->
<g id="e1" class="edge">
<title>n0in1:s&#45;&gt;n1:n</title>
<path fill="none" stroke="black" d="M576.54,-798.19C576.54,-784.06 576.54,-779.03 576.54,-767.46"/>
<polygon fill="black" stroke="black" points="578.29,-767.7 576.54,-762.7 574.79,-767.7 578.29,-767.7"/>
</g>
<!-- n0out1 -->
<!-- n1&#45;&gt;n0out1 -->
<g id="e50" class="edge">
<title>n1:s&#45;&gt;n0out1:n</title>
<path fill="none" stroke="black" d="M588.54,-736.94C588.54,-671.14 728.54,-754.61 728.54,-688.82 728.54,-688.82 728.54,-688.82 728.54,-53.56 728.54,-32.57 728.54,-25.85 728.54,-7.53"/>
<polygon fill="black" stroke="black" points="730.29,-7.95 728.54,-2.95 726.79,-7.95 730.29,-7.95"/>
</g>
<!-- n2 -->
<!-- Query sheep -->
<g id="n2" class="node">
<title>n2</title>
<polygon fill="yellow" stroke="none" points="623.41,-699.94 543.66,-699.94 543.66,-675.69 623.41,-675.69 623.41,-699.94"/>
<polygon fill="none" stroke="black" points="543.66,-675.69 543.66,-699.94 623.41,-699.94 623.41,-675.69 543.66,-675.69"/>
<text xml:space="preserve" text-anchor="start" x="548.66" y="-685.19" font-family="Serif" font-size="14.00">Query sheep</text>
</g>
<!-- n1&#45;&gt;n2 -->
<g id="e7" class="edge">
<title>n1:s&#45;&gt;n2:n</title>
<path fill="none" stroke="black" d="M564.54,-736.94C564.54,-722.8 563.84,-717.79 563.65,-706.22"/>
<polygon fill="black" stroke="black" points="565.4,-706.44 563.61,-701.45 561.9,-706.47 565.4,-706.44"/>
</g>
<!-- n3 -->
<!-- Fail -->
<g id="n3" class="node">
<title>n3</title>
<polygon fill="red" stroke="none" points="700.04,-625.44 669.04,-625.44 669.04,-601.19 700.04,-601.19 700.04,-625.44"/>
<polygon fill="none" stroke="black" points="669.04,-601.19 669.04,-625.44 700.04,-625.44 700.04,-601.19 669.04,-601.19"/>
<text xml:space="preserve" text-anchor="start" x="674.04" y="-610.69" font-family="Serif" font-size="14.00">Fail</text>
</g>
<!-- n2&#45;&gt;n3 -->
<g id="e17" class="edge">
<title>n2:s&#45;&gt;n3:n</title>
<path fill="none" stroke="black" d="M610.12,-675.69C610.12,-654.39 637,-669.77 654.54,-657.69 668.77,-647.89 681.25,-645.51 683.98,-631.62"/>
<polygon fill="black" stroke="black" points="685.7,-632.08 684.4,-626.95 682.21,-631.77 685.7,-632.08"/>
</g>
<!-- n4 -->
<!-- Sheep_eat -->
<g id="n4" class="node">
<title>n4</title>
<polygon fill="lightblue" stroke="none" points="539.29,-625.44 473.79,-625.44 473.79,-601.19 539.29,-601.19 539.29,-625.44"/>
<polygon fill="none" stroke="black" points="473.79,-601.19 473.79,-625.44 539.29,-625.44 539.29,-601.19 473.79,-601.19"/>
<text xml:space="preserve" text-anchor="start" x="478.79" y="-610.69" font-family="Serif" font-size="14.00">Sheep_eat</text>
</g>
<!-- n2&#45;&gt;n4 -->
<!-- S -->
<g id="e19" class="edge">
<title>n2:s&#45;&gt;n4:n</title>
<path fill="none" stroke="black" d="M583.54,-675.69C583.54,-637.22 515.3,-662.86 507.3,-631.91"/>
<polygon fill="black" stroke="black" points="509.04,-631.7 506.71,-626.94 505.56,-632.11 509.04,-631.7"/>
<text xml:space="preserve" text-anchor="middle" x="577.75" y="-644.39" font-family="Serif" font-size="14.00">S</text>
</g>
<!-- n13 -->
<!-- Query wolves -->
<g id="n13" class="node">
<title>n13</title>
<polygon fill="yellow" stroke="none" points="335.16,-625.44 247.91,-625.44 247.91,-601.19 335.16,-601.19 335.16,-625.44"/>
<polygon fill="none" stroke="black" points="247.91,-601.19 247.91,-625.44 335.16,-625.44 335.16,-601.19 247.91,-601.19"/>
<text xml:space="preserve" text-anchor="start" x="252.91" y="-610.69" font-family="Serif" font-size="14.00">Query wolves</text>
</g>
<!-- n2&#45;&gt;n13 -->
<g id="e32" class="edge">
<title>n2:s&#45;&gt;n13:n</title>
<path fill="none" stroke="black" d="M556.95,-675.69C556.95,-645.32 304.51,-656.2 272.95,-630.99"/>
<polygon fill="black" stroke="black" points="274.51,-630.19 270.48,-626.75 271.48,-631.95 274.51,-630.19"/>
</g>
<!-- n5 -->
<!-- turn -->
<g id="n5" class="node">
<title>n5</title>
<polygon fill="lightpink" stroke="none" points="504.54,-550.94 432.54,-550.94 432.54,-526.69 504.54,-526.69 504.54,-550.94"/>
<polygon fill="none" stroke="black" points="432.54,-526.69 432.54,-550.94 504.54,-550.94 504.54,-526.69 432.54,-526.69"/>
<text xml:space="preserve" text-anchor="start" x="457.29" y="-536.19" font-family="Serif" font-size="14.00">turn</text>
</g>
<!-- n4&#45;&gt;n5 -->
<!-- S (in) -->
<g id="e24" class="edge">
<title>n4:s&#45;&gt;n5:n</title>
<path fill="none" stroke="black" d="M490.16,-601.19C490.16,-589.11 474.97,-594.11 469.79,-583.19 464.65,-572.36 467.23,-567.12 468.21,-557.32"/>
<polygon fill="black" stroke="black" points="469.95,-557.53 468.46,-552.45 466.46,-557.36 469.95,-557.53"/>
<text xml:space="preserve" text-anchor="middle" x="485.16" y="-569.89" font-family="Serif" font-size="14.00">S (in)</text>
</g>
<!-- n4&#45;&gt;n5 -->
<!-- S -->
<g id="e25" class="edge">
<title>n4:s&#45;&gt;n5:n</title>
<path fill="none" stroke="black" d="M522.91,-601.19C522.91,-583.74 513.44,-580.68 500.54,-568.94 490.35,-559.67 474.57,-564.85 469.89,-556.89"/>
<polygon fill="black" stroke="black" points="471.69,-556.9 468.87,-552.42 468.28,-557.68 471.69,-556.9"/>
<text xml:space="preserve" text-anchor="middle" x="520.31" y="-569.89" font-family="Serif" font-size="14.00">S</text>
</g>
<!-- n6 -->
<!-- turn_left -->
<g id="n6" class="node">
<title>n6</title>
<polygon fill="lightblue" stroke="none" points="417.16,-476.44 359.91,-476.44 359.91,-452.19 417.16,-452.19 417.16,-476.44"/>
<polygon fill="none" stroke="black" points="359.91,-452.19 359.91,-476.44 417.16,-476.44 417.16,-452.19 359.91,-452.19"/>
<text xml:space="preserve" text-anchor="start" x="364.91" y="-461.69" font-family="Serif" font-size="14.00">turn_left</text>
</g>
<!-- n5&#45;&gt;n6 -->
<!-- S -->
<g id="e22" class="edge">
<title>n5:s&#45;&gt;n6:n</title>
<path fill="none" stroke="black" d="M444.54,-526.69C444.54,-511.93 400.89,-497.1 390.66,-482.32"/>
<polygon fill="black" stroke="black" points="392.4,-481.97 389.05,-477.86 389.11,-483.16 392.4,-481.97"/>
<text xml:space="preserve" text-anchor="middle" x="431.74" y="-495.39" font-family="Serif" font-size="14.00">S</text>
</g>
<!-- n7 -->
<!-- turn_right -->
<g id="n7" class="node">
<title>n7</title>
<polygon fill="lightblue" stroke="none" points="574.29,-476.44 508.79,-476.44 508.79,-452.19 574.29,-452.19 574.29,-476.44"/>
<polygon fill="none" stroke="black" points="508.79,-452.19 508.79,-476.44 574.29,-476.44 574.29,-452.19 508.79,-452.19"/>
<text xml:space="preserve" text-anchor="start" x="513.79" y="-461.69" font-family="Serif" font-size="14.00">turn_right</text>
</g>
<!-- n5&#45;&gt;n7 -->
<!-- S -->
<g id="e21" class="edge">
<title>n5:s&#45;&gt;n7:n</title>
<path fill="none" stroke="black" d="M492.54,-526.69C492.54,-497.81 534.53,-506.07 540.77,-482.7"/>
<polygon fill="black" stroke="black" points="542.48,-483.12 541.35,-477.94 539,-482.69 542.48,-483.12"/>
<text xml:space="preserve" text-anchor="middle" x="534.7" y="-495.39" font-family="Serif" font-size="14.00">S</text>
</g>
<!-- n8 -->
<!-- move_fwd -->
<g id="n8" class="node">
<title>n8</title>
<polygon fill="lightblue" stroke="none" points="527.79,-401.94 459.29,-401.94 459.29,-377.69 527.79,-377.69 527.79,-401.94"/>
<polygon fill="none" stroke="black" points="459.29,-377.69 459.29,-401.94 527.79,-401.94 527.79,-377.69 459.29,-377.69"/>
<text xml:space="preserve" text-anchor="start" x="464.29" y="-387.19" font-family="Serif" font-size="14.00">move_fwd</text>
</g>
<!-- n5&#45;&gt;n8 -->
<!-- S (out) -->
<g id="e26" class="edge">
<title>n5:s&#45;&gt;n8:n</title>
<path fill="none" stroke="black" d="M468.54,-526.69C468.54,-493.45 452.85,-484.13 462.04,-452.19 468.67,-429.13 489.32,-428.26 492.98,-408.41"/>
<polygon fill="black" stroke="black" points="494.72,-408.58 493.41,-403.45 491.23,-408.28 494.72,-408.58"/>
<text xml:space="preserve" text-anchor="middle" x="480.79" y="-458.14" font-family="Serif" font-size="14.00">S (out)</text>
</g>
<!-- n6&#45;&gt;n8 -->
<!-- S -->
<g id="e27" class="edge">
<title>n6:s&#45;&gt;n8:n</title>
<path fill="none" stroke="black" d="M374.22,-452.19C374.22,-436.42 376.53,-429.55 389.04,-419.94 405.82,-407.04 476.8,-421.81 491.04,-407.86"/>
<polygon fill="black" stroke="black" points="492.62,-408.62 492.95,-403.33 489.39,-407.26 492.62,-408.62"/>
<text xml:space="preserve" text-anchor="middle" x="392.79" y="-420.89" font-family="Serif" font-size="14.00">S</text>
</g>
<!-- n6&#45;&gt;n8 -->
<!-- S -->
<g id="e28" class="edge">
<title>n6:s&#45;&gt;n8:n</title>
<path fill="none" stroke="black" d="M402.85,-452.19C402.85,-432.86 415.66,-430.21 432.04,-419.94 454.09,-406.11 487.21,-426.32 492.74,-408.14"/>
<polygon fill="black" stroke="black" points="494.44,-408.62 493.34,-403.44 490.97,-408.18 494.44,-408.62"/>
<text xml:space="preserve" text-anchor="middle" x="435.79" y="-420.89" font-family="Serif" font-size="14.00">S</text>
</g>
<!-- n7&#45;&gt;n8 -->
<!-- S -->
<g id="e13" class="edge">
<title>n7:s&#45;&gt;n8:n</title>
<path fill="none" stroke="black" d="M557.91,-452.19C557.91,-444.39 510.37,-419.59 497,-407.01"/>
<polygon fill="black" stroke="black" points="498.66,-406.33 494.39,-403.19 495.77,-408.31 498.66,-406.33"/>
<text xml:space="preserve" text-anchor="middle" x="539" y="-420.89" font-family="Serif" font-size="14.00">S</text>
</g>
<!-- n7&#45;&gt;n8 -->
<!-- S -->
<g id="e29" class="edge">
<title>n7:s&#45;&gt;n8:n</title>
<path fill="none" stroke="black" d="M525.16,-452.19C525.16,-440.19 511.73,-444.15 505.04,-434.19 497.87,-423.53 494.61,-418.73 493.77,-408.35"/>
<polygon fill="black" stroke="black" points="495.52,-408.39 493.59,-403.45 492.02,-408.51 495.52,-408.39"/>
<text xml:space="preserve" text-anchor="middle" x="508.79" y="-420.89" font-family="Serif" font-size="14.00">S</text>
</g>
<!-- n9 -->
<!-- reprod -->
<g id="n9" class="node">
<title>n9</title>
<polygon fill="lightpink" stroke="none" points="534.54,-327.44 486.54,-327.44 486.54,-303.19 534.54,-303.19 534.54,-327.44"/>
<polygon fill="none" stroke="black" points="486.54,-303.19 486.54,-327.44 534.54,-327.44 534.54,-303.19 486.54,-303.19"/>
<text xml:space="preserve" text-anchor="start" x="492.91" y="-312.69" font-family="Serif" font-size="14.00">reprod</text>
</g>
<!-- n8&#45;&gt;n9 -->
<!-- S -->
<g id="e11" class="edge">
<title>n8:s&#45;&gt;n9:n</title>
<path fill="none" stroke="black" d="M476.41,-377.69C476.41,-363.21 473.07,-357.53 481.04,-345.44 488.03,-334.82 503.67,-339.98 508.84,-333.34"/>
<polygon fill="black" stroke="black" points="510.42,-334.18 510.12,-328.89 507.06,-333.22 510.42,-334.18"/>
<text xml:space="preserve" text-anchor="middle" x="484.79" y="-346.39" font-family="Serif" font-size="14.00">S</text>
</g>
<!-- n8&#45;&gt;n9 -->
<!-- S -->
<g id="e12" class="edge">
<title>n8:s&#45;&gt;n9:n</title>
<path fill="none" stroke="black" d="M510.66,-377.69C510.66,-357.62 510.56,-351.08 510.54,-333.76"/>
<polygon fill="black" stroke="black" points="512.29,-333.95 510.54,-328.95 508.79,-333.95 512.29,-333.95"/>
<text xml:space="preserve" text-anchor="middle" x="514.38" y="-346.39" font-family="Serif" font-size="14.00">S</text>
</g>
<!-- n10 -->
<!-- reproduce -->
<g id="n10" class="node">
<title>n10</title>
<polygon fill="lightblue" stroke="none" points="530.54,-252.94 466.54,-252.94 466.54,-228.69 530.54,-228.69 530.54,-252.94"/>
<polygon fill="none" stroke="black" points="466.54,-228.69 466.54,-252.94 530.54,-252.94 530.54,-228.69 466.54,-228.69"/>
<text xml:space="preserve" text-anchor="start" x="471.54" y="-238.19" font-family="Serif" font-size="14.00">reproduce</text>
</g>
<!-- n9&#45;&gt;n10 -->
<!-- S -->
<g id="e18" class="edge">
<title>n9:s&#45;&gt;n10:n</title>
<path fill="none" stroke="black" d="M498.54,-303.19C498.54,-283.12 498.54,-276.58 498.54,-259.26"/>
<polygon fill="black" stroke="black" points="500.29,-259.45 498.54,-254.45 496.79,-259.45 500.29,-259.45"/>
<text xml:space="preserve" text-anchor="middle" x="502.29" y="-271.89" font-family="Serif" font-size="14.00">S</text>
</g>
<!-- n11 -->
<!-- starve -->
<g id="n11" class="node">
<title>n11</title>
<polygon fill="lightblue" stroke="none" points="605.54,-178.44 557.54,-178.44 557.54,-154.19 605.54,-154.19 605.54,-178.44"/>
<polygon fill="none" stroke="black" points="557.54,-154.19 557.54,-178.44 605.54,-178.44 605.54,-154.19 557.54,-154.19"/>
<text xml:space="preserve" text-anchor="start" x="565.04" y="-163.69" font-family="Serif" font-size="14.00">starve</text>
</g>
<!-- n9&#45;&gt;n11 -->
<!-- S -->
<g id="e23" class="edge">
<title>n9:s&#45;&gt;n11:n</title>
<path fill="none" stroke="black" d="M522.54,-303.19C522.54,-254.43 567.88,-257.5 581.54,-210.69 584.89,-199.19 582.64,-194.4 581.81,-184.76"/>
<polygon fill="black" stroke="black" points="583.56,-184.87 581.6,-179.95 580.07,-185.02 583.56,-184.87"/>
<text xml:space="preserve" text-anchor="middle" x="576.9" y="-234.64" font-family="Serif" font-size="14.00">S</text>
</g>
<!-- n10&#45;&gt;n11 -->
<!-- S -->
<g id="e16" class="edge">
<title>n10:s&#45;&gt;n11:n</title>
<path fill="none" stroke="black" d="M514.54,-228.69C514.54,-193.79 573.42,-212.88 580.78,-184.73"/>
<polygon fill="black" stroke="black" points="582.5,-185.12 581.36,-179.94 579.02,-184.7 582.5,-185.12"/>
<text xml:space="preserve" text-anchor="middle" x="574.05" y="-197.39" font-family="Serif" font-size="14.00">S</text>
</g>
<!-- n10&#45;&gt;n11 -->
<!-- S -->
<g id="e20" class="edge">
<title>n10:s&#45;&gt;n11:n</title>
<path fill="none" stroke="black" d="M482.54,-228.69C482.54,-204.26 505.29,-207.57 527.04,-196.44 547.61,-185.91 575.65,-200.63 580.73,-184.5"/>
<polygon fill="black" stroke="black" points="582.41,-185.13 581.34,-179.94 578.94,-184.67 582.41,-185.13"/>
<text xml:space="preserve" text-anchor="middle" x="530.79" y="-197.39" font-family="Serif" font-size="14.00">S</text>
</g>
<!-- n11&#45;&gt;n2 -->
<g id="e15" class="edge">
<title>n11:s&#45;&gt;n2:n</title>
<path fill="none" stroke="black" d="M569.54,-153.19C569.54,-147.84 561.16,-150.25 557.54,-154.19 540.47,-172.74 557.7,-185.95 562.54,-210.69 566.24,-229.63 566.04,-234.77 572.54,-252.94 582.76,-281.53 602.54,-283.95 602.54,-314.31 602.54,-614.32 602.54,-614.32 602.54,-614.32 602.54,-643.13 618.71,-647.26 623.41,-675.69 625.17,-686.32 630.84,-692.13 623.41,-699.94 619.3,-704.26 611.71,-707.23 607.18,-706.03"/>
<polygon fill="black" stroke="black" points="608.72,-705.17 604.36,-702.16 605.89,-707.24 608.72,-705.17"/>
</g>
<!-- n12 -->
<g id="n12" class="node">
<title>n12</title>
<polygon fill="lavender" stroke="none" points="634.54,-96.81 610.54,-96.81 610.54,-86.81 634.54,-86.81 634.54,-96.81"/>
<polygon fill="none" stroke="black" points="610.54,-86.81 610.54,-96.81 634.54,-96.81 634.54,-86.81 610.54,-86.81"/>
</g>
<!-- n11&#45;&gt;n12 -->
<!-- S -->
<g id="e10" class="edge">
<title>n11:s&#45;&gt;n12:n</title>
<path fill="none" stroke="black" d="M593.54,-154.19C593.54,-128.33 617.97,-126.18 621.98,-104.21"/>
<polygon fill="black" stroke="black" points="623.72,-104.46 622.41,-99.32 620.23,-104.15 623.72,-104.46"/>
<text xml:space="preserve" text-anchor="middle" x="615.24" y="-122.89" font-family="Serif" font-size="14.00">S</text>
</g>
<!-- n12&#45;&gt;n2 -->
<g id="e14" class="edge">
<title>n12:s&#45;&gt;n2:n</title>
<path fill="none" stroke="black" d="M622.54,-85.81C622.54,-80.46 630.76,-83.02 634.54,-86.81 659.19,-111.64 640.54,-130.32 640.54,-165.31 640.54,-614.32 640.54,-614.32 640.54,-614.32 640.54,-653.12 652.8,-674.59 623.41,-699.94 619,-703.74 611.79,-706.81 607.36,-705.96"/>
<polygon fill="black" stroke="black" points="608.85,-705.02 604.4,-702.14 606.08,-707.16 608.85,-705.02"/>
</g>
<!-- n14 -->
<!-- Fail -->
<g id="n14" class="node">
<title>n14</title>
<polygon fill="red" stroke="none" points="391.04,-550.94 360.04,-550.94 360.04,-526.69 391.04,-526.69 391.04,-550.94"/>
<polygon fill="none" stroke="black" points="360.04,-526.69 360.04,-550.94 391.04,-550.94 391.04,-526.69 360.04,-526.69"/>
<text xml:space="preserve" text-anchor="start" x="365.04" y="-536.19" font-family="Serif" font-size="14.00">Fail</text>
</g>
<!-- n13&#45;&gt;n14 -->
<g id="e40" class="edge">
<title>n13:s&#45;&gt;n14:n</title>
<path fill="none" stroke="black" d="M320.62,-601.19C320.62,-587.53 335.3,-592.23 345.54,-583.19 358.37,-571.85 371.71,-570.65 374.85,-557.41"/>
<polygon fill="black" stroke="black" points="376.59,-557.6 375.38,-552.45 373.11,-557.23 376.59,-557.6"/>
</g>
<!-- n15 -->
<!-- Wolf_eat -->
<g id="n15" class="node">
<title>n15</title>
<polygon fill="lightblue" stroke="none" points="263.29,-550.94 203.79,-550.94 203.79,-526.69 263.29,-526.69 263.29,-550.94"/>
<polygon fill="none" stroke="black" points="203.79,-526.69 203.79,-550.94 263.29,-550.94 263.29,-526.69 203.79,-526.69"/>
<text xml:space="preserve" text-anchor="start" x="208.79" y="-536.19" font-family="Serif" font-size="14.00">Wolf_eat</text>
</g>
<!-- n13&#45;&gt;n15 -->
<!-- W -->
<g id="e42" class="edge">
<title>n13:s&#45;&gt;n15:n</title>
<path fill="none" stroke="black" d="M291.54,-601.19C291.54,-587.32 276.66,-592.11 266.04,-583.19 252.27,-571.64 237.48,-571.21 234.2,-557.26"/>
<polygon fill="black" stroke="black" points="235.96,-557.23 233.69,-552.45 232.48,-557.6 235.96,-557.23"/>
<text xml:space="preserve" text-anchor="middle" x="272.79" y="-569.89" font-family="Serif" font-size="14.00">W</text>
</g>
<!-- n24 -->
<!-- Query grass -->
<g id="n24" class="node">
<title>n24</title>
<polygon fill="yellow" stroke="none" points="145.29,-550.94 67.79,-550.94 67.79,-526.69 145.29,-526.69 145.29,-550.94"/>
<polygon fill="none" stroke="black" points="67.79,-526.69 67.79,-550.94 145.29,-550.94 145.29,-526.69 67.79,-526.69"/>
<text xml:space="preserve" text-anchor="start" x="72.79" y="-536.19" font-family="Serif" font-size="14.00">Query grass</text>
</g>
<!-- n13&#45;&gt;n24 -->
<g id="e2" class="edge">
<title>n13:s&#45;&gt;n24:n</title>
<path fill="none" stroke="black" d="M262.45,-601.19C262.45,-594.86 221.43,-571.23 215.54,-568.94 190.78,-559.32 102.57,-576.62 88.94,-556.81"/>
<polygon fill="black" stroke="black" points="90.72,-556.67 87.6,-552.39 87.37,-557.68 90.72,-556.67"/>
</g>
<!-- n16 -->
<!-- turn -->
<g id="n16" class="node">
<title>n16</title>
<polygon fill="lightpink" stroke="none" points="246.54,-476.44 174.54,-476.44 174.54,-452.19 246.54,-452.19 246.54,-476.44"/>
<polygon fill="none" stroke="black" points="174.54,-452.19 174.54,-476.44 246.54,-476.44 246.54,-452.19 174.54,-452.19"/>
<text xml:space="preserve" text-anchor="start" x="199.29" y="-461.69" font-family="Serif" font-size="14.00">turn</text>
</g>
<!-- n15&#45;&gt;n16 -->
<!-- W -->
<g id="e47" class="edge">
<title>n15:s&#45;&gt;n16:n</title>
<path fill="none" stroke="black" d="M218.66,-526.69C218.66,-518.17 213.73,-517.05 212.04,-508.69 209.66,-496.93 210.21,-492.32 210.45,-482.75"/>
<polygon fill="black" stroke="black" points="212.2,-482.98 210.52,-477.95 208.7,-482.93 212.2,-482.98"/>
<text xml:space="preserve" text-anchor="middle" x="218.79" y="-495.39" font-family="Serif" font-size="14.00">W</text>
</g>
<!-- n15&#45;&gt;n16 -->
<!-- W -->
<g id="e48" class="edge">
<title>n15:s&#45;&gt;n16:n</title>
<path fill="none" stroke="black" d="M248.41,-526.69C248.41,-509.12 236.25,-508.37 225.54,-494.44 220.77,-488.25 214.72,-487.08 211.99,-482.49"/>
<polygon fill="black" stroke="black" points="213.76,-482.37 210.89,-477.91 210.35,-483.18 213.76,-482.37"/>
<text xml:space="preserve" text-anchor="middle" x="246.67" y="-495.39" font-family="Serif" font-size="14.00">W</text>
</g>
<!-- n17 -->
<!-- turn_left -->
<g id="n17" class="node">
<title>n17</title>
<polygon fill="lightblue" stroke="none" points="132.16,-401.94 74.91,-401.94 74.91,-377.69 132.16,-377.69 132.16,-401.94"/>
<polygon fill="none" stroke="black" points="74.91,-377.69 74.91,-401.94 132.16,-401.94 132.16,-377.69 74.91,-377.69"/>
<text xml:space="preserve" text-anchor="start" x="79.91" y="-387.19" font-family="Serif" font-size="14.00">turn_left</text>
</g>
<!-- n16&#45;&gt;n17 -->
<!-- W -->
<g id="e45" class="edge">
<title>n16:s&#45;&gt;n17:n</title>
<path fill="none" stroke="black" d="M186.54,-452.19C186.54,-430.44 159.65,-445.44 141.04,-434.19 124.28,-424.07 107.62,-423.83 104.18,-408.37"/>
<polygon fill="black" stroke="black" points="105.93,-408.25 103.69,-403.45 102.45,-408.6 105.93,-408.25"/>
<text xml:space="preserve" text-anchor="middle" x="147.79" y="-420.89" font-family="Serif" font-size="14.00">W</text>
</g>
<!-- n18 -->
<!-- turn_right -->
<g id="n18" class="node">
<title>n18</title>
<polygon fill="lightblue" stroke="none" points="265.29,-401.94 199.79,-401.94 199.79,-377.69 265.29,-377.69 265.29,-401.94"/>
<polygon fill="none" stroke="black" points="199.79,-377.69 199.79,-401.94 265.29,-401.94 265.29,-377.69 199.79,-377.69"/>
<text xml:space="preserve" text-anchor="start" x="204.79" y="-387.19" font-family="Serif" font-size="14.00">turn_right</text>
</g>
<!-- n16&#45;&gt;n18 -->
<!-- W -->
<g id="e44" class="edge">
<title>n16:s&#45;&gt;n18:n</title>
<path fill="none" stroke="black" d="M234.54,-452.19C234.54,-432.11 232.92,-425.59 232.59,-408.27"/>
<polygon fill="black" stroke="black" points="234.35,-408.44 232.55,-403.45 230.85,-408.47 234.35,-408.44"/>
<text xml:space="preserve" text-anchor="middle" x="240.75" y="-420.89" font-family="Serif" font-size="14.00">W</text>
</g>
<!-- n19 -->
<!-- move_fwd -->
<g id="n19" class="node">
<title>n19</title>
<polygon fill="lightblue" stroke="none" points="209.79,-327.44 141.29,-327.44 141.29,-303.19 209.79,-303.19 209.79,-327.44"/>
<polygon fill="none" stroke="black" points="141.29,-303.19 141.29,-327.44 209.79,-327.44 209.79,-303.19 141.29,-303.19"/>
<text xml:space="preserve" text-anchor="start" x="146.29" y="-312.69" font-family="Serif" font-size="14.00">move_fwd</text>
</g>
<!-- n16&#45;&gt;n19 -->
<!-- W -->
<g id="e49" class="edge">
<title>n16:s&#45;&gt;n19:n</title>
<path fill="none" stroke="black" d="M210.54,-452.19C210.54,-425.35 185.07,-427.55 177.04,-401.94 167.78,-372.44 174.5,-361.95 175.43,-333.74"/>
<polygon fill="black" stroke="black" points="177.18,-333.98 175.51,-328.95 173.68,-333.92 177.18,-333.98"/>
<text xml:space="preserve" text-anchor="middle" x="183.79" y="-383.64" font-family="Serif" font-size="14.00">W</text>
</g>
<!-- n17&#45;&gt;n19 -->
<!-- W -->
<g id="e9" class="edge">
<title>n17:s&#45;&gt;n19:n</title>
<path fill="none" stroke="black" d="M117.85,-377.69C117.85,-360.04 127.7,-357 141.04,-345.44 152.06,-335.88 169.04,-341.95 174.08,-333.69"/>
<polygon fill="black" stroke="black" points="175.76,-334.18 175.19,-328.91 172.35,-333.39 175.76,-334.18"/>
<text xml:space="preserve" text-anchor="middle" x="147.79" y="-346.39" font-family="Serif" font-size="14.00">W</text>
</g>
<!-- n17&#45;&gt;n19 -->
<!-- W -->
<g id="e31" class="edge">
<title>n17:s&#45;&gt;n19:n</title>
<path fill="none" stroke="black" d="M89.22,-377.69C89.22,-361.32 94.12,-355.5 107.04,-345.44 129.93,-327.61 168.83,-354.11 174.77,-333.7"/>
<polygon fill="black" stroke="black" points="176.48,-334.12 175.35,-328.94 173,-333.69 176.48,-334.12"/>
<text xml:space="preserve" text-anchor="middle" x="113.79" y="-346.39" font-family="Serif" font-size="14.00">W</text>
</g>
<!-- n18&#45;&gt;n19 -->
<!-- W -->
<g id="e30" class="edge">
<title>n18:s&#45;&gt;n19:n</title>
<path fill="none" stroke="black" d="M216.16,-377.69C216.16,-351.33 181.93,-355.22 176.31,-333.82"/>
<polygon fill="black" stroke="black" points="178.06,-333.69 175.72,-328.94 174.58,-334.12 178.06,-333.69"/>
<text xml:space="preserve" text-anchor="middle" x="214.14" y="-346.39" font-family="Serif" font-size="14.00">W</text>
</g>
<!-- n18&#45;&gt;n19 -->
<!-- W -->
<g id="e36" class="edge">
<title>n18:s&#45;&gt;n19:n</title>
<path fill="none" stroke="black" d="M248.91,-377.69C248.91,-358.89 236.84,-356.36 221.54,-345.44 205.76,-334.18 181.99,-345.88 176.63,-333.67"/>
<polygon fill="black" stroke="black" points="178.39,-333.55 175.8,-328.93 174.94,-334.16 178.39,-333.55"/>
<text xml:space="preserve" text-anchor="middle" x="248.86" y="-346.39" font-family="Serif" font-size="14.00">W</text>
</g>
<!-- n20 -->
<!-- reprod -->
<g id="n20" class="node">
<title>n20</title>
<polygon fill="lightpink" stroke="none" points="219.54,-252.94 171.54,-252.94 171.54,-228.69 219.54,-228.69 219.54,-252.94"/>
<polygon fill="none" stroke="black" points="171.54,-228.69 171.54,-252.94 219.54,-252.94 219.54,-228.69 171.54,-228.69"/>
<text xml:space="preserve" text-anchor="start" x="177.91" y="-238.19" font-family="Serif" font-size="14.00">reprod</text>
</g>
<!-- n19&#45;&gt;n20 -->
<!-- W -->
<g id="e34" class="edge">
<title>n19:s&#45;&gt;n20:n</title>
<path fill="none" stroke="black" d="M158.41,-303.19C158.41,-288.84 152.22,-282.98 160.04,-270.94 168.16,-258.42 187.85,-266.81 193.8,-259.11"/>
<polygon fill="black" stroke="black" points="195.46,-259.68 195.13,-254.4 192.09,-258.74 195.46,-259.68"/>
<text xml:space="preserve" text-anchor="middle" x="166.79" y="-271.89" font-family="Serif" font-size="14.00">W</text>
</g>
<!-- n19&#45;&gt;n20 -->
<!-- W -->
<g id="e35" class="edge">
<title>n19:s&#45;&gt;n20:n</title>
<path fill="none" stroke="black" d="M192.66,-303.19C192.66,-283.09 194.98,-276.6 195.45,-259.27"/>
<polygon fill="black" stroke="black" points="197.2,-259.48 195.52,-254.45 193.7,-259.43 197.2,-259.48"/>
<text xml:space="preserve" text-anchor="middle" x="201.51" y="-271.89" font-family="Serif" font-size="14.00">W</text>
</g>
<!-- n21 -->
<!-- reproduce -->
<g id="n21" class="node">
<title>n21</title>
<polygon fill="lightblue" stroke="none" points="215.54,-178.44 151.54,-178.44 151.54,-154.19 215.54,-154.19 215.54,-178.44"/>
<polygon fill="none" stroke="black" points="151.54,-154.19 151.54,-178.44 215.54,-178.44 215.54,-154.19 151.54,-154.19"/>
<text xml:space="preserve" text-anchor="start" x="156.54" y="-163.69" font-family="Serif" font-size="14.00">reproduce</text>
</g>
<!-- n20&#45;&gt;n21 -->
<!-- W -->
<g id="e41" class="edge">
<title>n20:s&#45;&gt;n21:n</title>
<path fill="none" stroke="black" d="M183.54,-228.69C183.54,-208.62 183.54,-202.08 183.54,-184.76"/>
<polygon fill="black" stroke="black" points="185.29,-184.95 183.54,-179.95 181.79,-184.95 185.29,-184.95"/>
<text xml:space="preserve" text-anchor="middle" x="190.29" y="-197.39" font-family="Serif" font-size="14.00">W</text>
</g>
<!-- n22 -->
<!-- starve -->
<g id="n22" class="node">
<title>n22</title>
<polygon fill="lightblue" stroke="none" points="284.54,-103.94 236.54,-103.94 236.54,-79.69 284.54,-79.69 284.54,-103.94"/>
<polygon fill="none" stroke="black" points="236.54,-79.69 236.54,-103.94 284.54,-103.94 284.54,-79.69 236.54,-79.69"/>
<text xml:space="preserve" text-anchor="start" x="244.04" y="-89.19" font-family="Serif" font-size="14.00">starve</text>
</g>
<!-- n20&#45;&gt;n22 -->
<!-- W -->
<g id="e46" class="edge">
<title>n20:s&#45;&gt;n22:n</title>
<path fill="none" stroke="black" d="M207.54,-228.69C207.54,-179.69 253.63,-183.18 267.54,-136.19 269.33,-130.12 268.7,-128.16 267.54,-121.94 266.45,-116.14 263.55,-113.86 261.84,-110.22"/>
<polygon fill="black" stroke="black" points="263.57,-109.96 260.84,-105.42 260.15,-110.67 263.57,-109.96"/>
<text xml:space="preserve" text-anchor="middle" x="265.75" y="-160.14" font-family="Serif" font-size="14.00">W</text>
</g>
<!-- n21&#45;&gt;n22 -->
<!-- W -->
<g id="e39" class="edge">
<title>n21:s&#45;&gt;n22:n</title>
<path fill="none" stroke="black" d="M199.54,-154.19C199.54,-121.4 252.7,-136.65 259.76,-110.24"/>
<polygon fill="black" stroke="black" points="261.48,-110.62 260.35,-105.44 258.01,-110.19 261.48,-110.62"/>
<text xml:space="preserve" text-anchor="middle" x="257.06" y="-122.89" font-family="Serif" font-size="14.00">W</text>
</g>
<!-- n21&#45;&gt;n22 -->
<!-- W -->
<g id="e43" class="edge">
<title>n21:s&#45;&gt;n22:n</title>
<path fill="none" stroke="black" d="M167.54,-154.19C167.54,-133.84 182.53,-132.32 200.04,-121.94 222.09,-108.86 254.38,-128.09 259.76,-110.07"/>
<polygon fill="black" stroke="black" points="261.45,-110.62 260.35,-105.44 257.98,-110.18 261.45,-110.62"/>
<text xml:space="preserve" text-anchor="middle" x="206.79" y="-122.89" font-family="Serif" font-size="14.00">W</text>
</g>
<!-- n22&#45;&gt;n13 -->
<g id="e38" class="edge">
<title>n22:s&#45;&gt;n13:n</title>
<path fill="none" stroke="black" d="M248.54,-78.69C248.54,-73.34 240.16,-75.75 236.54,-79.69 219.47,-98.24 235.11,-111.81 241.54,-136.19 246.66,-155.61 248.87,-160.33 257.54,-178.44 271.18,-206.97 293.54,-208.19 293.54,-239.81 293.54,-539.82 293.54,-539.82 293.54,-539.82 293.54,-561.85 304.38,-565.52 317.54,-583.19 324.22,-592.17 330.93,-590.82 335.16,-601.19 339.23,-611.17 342.61,-617.65 335.16,-625.44 330.45,-630.37 321.58,-633.66 316.73,-631.81"/>
<polygon fill="black" stroke="black" points="318.3,-631.02 314.16,-627.72 315.34,-632.88 318.3,-631.02"/>
</g>
<!-- n23 -->
<g id="n23" class="node">
<title>n23</title>
<polygon fill="lavender" stroke="none" points="321.54,-29.44 297.54,-29.44 297.54,-19.44 321.54,-19.44 321.54,-29.44"/>
<polygon fill="none" stroke="black" points="297.54,-19.44 297.54,-29.44 321.54,-29.44 321.54,-19.44 297.54,-19.44"/>
</g>
<!-- n22&#45;&gt;n23 -->
<!-- W -->
<g id="e33" class="edge">
<title>n22:s&#45;&gt;n23:n</title>
<path fill="none" stroke="black" d="M272.54,-79.69C272.54,-54.34 303.45,-56.52 308.76,-35.9"/>
<polygon fill="black" stroke="black" points="310.5,-36.12 309.36,-30.94 307.02,-35.7 310.5,-36.12"/>
<text xml:space="preserve" text-anchor="middle" x="307.34" y="-48.39" font-family="Serif" font-size="14.00">W</text>
</g>
<!-- n23&#45;&gt;n13 -->
<g id="e37" class="edge">
<title>n23:s&#45;&gt;n13:n</title>
<path fill="none" stroke="black" d="M309.54,-18.44C309.54,-13.09 317.65,-15.76 321.54,-19.44 344.81,-41.45 331.54,-58.78 331.54,-90.81 331.54,-539.82 331.54,-539.82 331.54,-539.82 331.54,-567.14 334.36,-573.88 335.16,-601.19 335.48,-611.96 342.61,-617.65 335.16,-625.44 330.45,-630.37 321.58,-633.66 316.73,-631.81"/>
<polygon fill="black" stroke="black" points="318.3,-631.02 314.16,-627.72 315.34,-632.88 318.3,-631.02"/>
</g>
<!-- n24&#45;&gt;n1 -->
<g id="e5" class="edge">
<title>n24:s&#45;&gt;n1:n</title>
<path fill="none" stroke="black" d="M80.7,-525.69C80.7,-513.42 41.61,-510.96 67.79,-550.94 113.14,-620.21 162.05,-593.73 238.54,-625.44 274.71,-640.44 283.43,-645.18 320.54,-657.69 335.85,-662.86 590.78,-724.05 600.54,-736.94 607.04,-745.54 608,-753.41 600.54,-761.19 595.11,-766.85 584.71,-770.49 579.57,-767.8"/>
<polygon fill="black" stroke="black" points="581.17,-767.09 577.26,-763.52 578.09,-768.75 581.17,-767.09"/>
</g>
<!-- n25 -->
<!-- Fail -->
<g id="n25" class="node">
<title>n25</title>
<polygon fill="red" stroke="none" points="156.04,-476.44 125.04,-476.44 125.04,-452.19 156.04,-452.19 156.04,-476.44"/>
<polygon fill="none" stroke="black" points="125.04,-452.19 125.04,-476.44 156.04,-476.44 156.04,-452.19 125.04,-452.19"/>
<text xml:space="preserve" text-anchor="start" x="130.04" y="-461.69" font-family="Serif" font-size="14.00">Fail</text>
</g>
<!-- n24&#45;&gt;n25 -->
<g id="e3" class="edge">
<title>n24:s&#45;&gt;n25:n</title>
<path fill="none" stroke="black" d="M132.37,-526.69C132.37,-506.36 138.96,-500.26 140.3,-482.83"/>
<polygon fill="black" stroke="black" points="142.04,-483.01 140.48,-477.95 138.55,-482.88 142.04,-483.01"/>
</g>
<!-- n26 -->
<!-- GrassIncrements -->
<g id="n26" class="node">
<title>n26</title>
<polygon fill="lightblue" stroke="none" points="107.29,-476.44 5.79,-476.44 5.79,-452.19 107.29,-452.19 107.29,-476.44"/>
<polygon fill="none" stroke="black" points="5.79,-452.19 5.79,-476.44 107.29,-476.44 107.29,-452.19 5.79,-452.19"/>
<text xml:space="preserve" text-anchor="start" x="10.79" y="-461.69" font-family="Serif" font-size="14.00">GrassIncrements</text>
</g>
<!-- n24&#45;&gt;n26 -->
<!-- G -->
<g id="e8" class="edge">
<title>n24:s&#45;&gt;n26:n</title>
<path fill="none" stroke="black" d="M106.54,-526.69C106.54,-500.23 65.41,-530.04 49.79,-508.69 42.49,-498.72 52.31,-493.04 55.56,-482.71"/>
<polygon fill="black" stroke="black" points="57.26,-483.15 56.3,-477.94 53.8,-482.61 57.26,-483.15"/>
<text xml:space="preserve" text-anchor="middle" x="54.66" y="-495.39" font-family="Serif" font-size="14.00">G</text>
</g>
<!-- n26&#45;&gt;n24 -->
<!-- G -->
<g id="e4" class="edge">
<title>n26:s&#45;&gt;n24:n</title>
<path fill="none" stroke="black" d="M31.16,-451.19C31.16,-442.34 -15.51,-447.02 5.79,-476.44 20.81,-497.19 37.29,-483.67 60.54,-494.44 71.53,-499.53 72.71,-503.78 83.79,-508.69 109.82,-520.23 128.21,-503.9 145.29,-526.69 151.75,-535.32 152.71,-543.13 145.29,-550.94 141.39,-555.04 134.26,-557.9 129.82,-556.95"/>
<polygon fill="black" stroke="black" points="131.3,-556 126.84,-553.13 128.54,-558.15 131.3,-556"/>
<text xml:space="preserve" text-anchor="middle" x="88.66" y="-495.39" font-family="Serif" font-size="14.00">G</text>
</g>
<!-- n26&#45;&gt;n24 -->
<!-- G -->
<g id="e6" class="edge">
<title>n26:s&#45;&gt;n24:n</title>
<path fill="none" stroke="black" d="M81.91,-451.19C81.91,-439.9 98.57,-445.02 107.29,-452.19 117.26,-460.39 113.65,-497.93 120.79,-508.69 128.26,-519.95 139.18,-514.63 145.29,-526.69 150.15,-536.31 152.71,-543.13 145.29,-550.94 141.39,-555.04 134.26,-557.9 129.82,-556.95"/>
<polygon fill="black" stroke="black" points="131.3,-556 126.84,-553.13 128.54,-558.15 131.3,-556"/>
<text xml:space="preserve" text-anchor="middle" x="125.66" y="-495.39" font-family="Serif" font-size="14.00">G</text>
</g>
</g>
</svg>
