<?xml version="1.0" encoding="UTF-8" standalone="no"?>
<!DOCTYPE svg PUBLIC "-//W3C//DTD SVG 1.1//EN"
 "http://www.w3.org/Graphics/SVG/1.1/DTD/svg11.dtd">
<!-- Generated by graphviz version 14.1.5 (0)
 -->
<!-- Title: G Pages: 1 -->
<svg width="743pt" height="830pt"
 viewBox="0.00 0.00 743.00 830.00" xmlns="http://www.w3.org/2000/svg" xmlns:xlink="http://www.w3.org/1999/xlink">
<g id="graph0" class="graph" transform="scale(1 1) rotate(0) translate(4 825.88)">
<title>G</title>
<polygon fill="white" stroke="none" points="-4,4 -4,-825.88 738.52,-825.88 738.52,4 -4,4"/>
<text xml:space="preserve" text-anchor="middle" x="367.26" y="-804.58" font-family="Serif" font-size="14.00">Success</text>
<!-- n0in1 -->
<!-- n1 -->
<!-- while -->
<g id="n1" class="node">
<title>n1</title>
<polygon fill="lightpink" stroke="none" points="594.54,-761.19 546.54,-761.19 546.54,-736.94 594.54,-736.94 594.54,-761.19"/>
<polygon fill="none" stroke="black" points="546.54,-736.94 546.54,-761.19 594.54,-761.19 594.54,-736.94 546.54,-736.94"/>
<text xml:space="preserve" text-anchor="start" x="555.54" y="-746.44" font-family="Serif" font-size="14.00">while</text>
</g>
<!-- n0in1&#45;&gt;n1 -->
<g id="e1" class="edge">
<title>n0in1:s&#45;&gt;n1:n</title>
<path fill="none" stroke="black" d="M570.54,-798.19C570.54,-784.06 570.54,-779.03 570.54,-767.46"/>
<polygon fill="black" stroke="black" points="572.29,-767.7 570.54,-762.7 568.79,-767.7 572.29,-767.7"/>
</g>
<!-- n0out1 -->
<!-- n1&#45;&gt;n0out1 -->
<g id="e50" class="edge">
<title>n1:s&#45;&gt;n0out1:n</title>
<path fill="none" stroke="black" d="M582.54,-736.94C582.54,-671.14 722.54,-754.61 722.54,-688.82 722.54,-688.82 722.54,-688.82 722.54,-53.56 722.54,-32.57 722.54,-25.85 722.54,-7.53"/>
<polygon fill="black" stroke="black" points="724.29,-7.95 722.54,-2.95 720.79,-7.95 724.29,-7.95"/>
</g>
<!-- n2 -->
<!-- Query sheep -->
<g id="n2" class="node">
<title>n2</title>
<polygon fill="yellow" stroke="none" points="617.41,-699.94 537.66,-699.94 537.66,-675.69 617.41,-675.69 617.41,-699.94"/>
<polygon fill="none" stroke="black" points="537.66,-675.69 537.66,-699.94 617.41,-699.94 617.41,-675.69 537.66,-675.69"/>
<text xml:space="preserve" text-anchor="start" x="542.66" y="-685.19" font-family="Serif" font-size="14.00">Query sheep</text>
</g>
<!-- n1&#45;&gt;n2 -->
<g id="e7" class="edge">
<title>n1:s&#45;&gt;n2:n</title>
<path fill="none" stroke="black" d="M558.54,-736.94C558.54,-722.8 557.84,-717.79 557.65,-706.22"/>
<polygon fill="black" stroke="black" points="559.4,-706.44 557.61,-701.45 555.9,-706.47 559.4,-706.44"/>
</g>
<!-- n3 -->
<!-- Fail -->
<g id="n3" class="node">
<title>n3</title>
<polygon fill="red" stroke="none" points="694.04,-625.44 663.04,-625.44 663.04,-601.19 694.04,-601.19 694.04,-625.44"/>
<polygon fill="none" stroke="black" points="663.04,-601.19 663.04,-625.44 694.04,-625.44 694.04,-601.19 663.04,-601.19"/>
<text xml:space="preserve" text-anchor="start" x="668.04" y="-610.69" font-family="Serif" font-size="14.00">Fail</text>
</g>
<!-- n2&#45;&gt;n3 -->
<g id="e17" class="edge">
<title>n2:s&#45;&gt;n3:n</title>
<path fill="none" stroke="black" d="M604.12,-675.69C604.12,-654.39 631,-669.77 648.54,-657.69 662.77,-647.89 675.25,-645.51 677.98,-631.62"/>
<polygon fill="black" stroke="black" points="679.7,-632.08 678.4,-626.95 676.21,-631.77 679.7,-632.08"/>
</g>
<!-- n4 -->
<!-- Sheep_eat -->
<g id="n4" class="node">
<title>n4</title>
<polygon fill="lightblue" stroke="none" points="519.29,-625.44 453.79,-625.44 453.79,-601.19 519.29,-601.19 519.29,-625.44"/>
<polygon fill="none" stroke="black" points="453.79,-601.19 453.79,-625.44 519.29,-625.44 519.29,-601.19 453.79,-601.19"/>
<text xml:space="preserve" text-anchor="start" x="458.79" y="-610.69" font-family="Serif" font-size="14.00">Sheep_eat</text>
</g>
<!-- n2&#45;&gt;n4 -->
<!-- S -->
<g id="e19" class="edge">
<title>n2:s&#45;&gt;n4:n</title>
<path fill="none" stroke="black" d="M577.54,-675.69C577.54,-631.84 495.54,-667.59 487.22,-631.82"/>
<polygon fill="black" stroke="black" points="488.97,-631.73 486.7,-626.95 485.49,-632.1 488.97,-631.73"/>
<text xml:space="preserve" text-anchor="middle" x="571.82" y="-644.39" font-family="Serif" font-size="14.00">S</text>
</g>
<!-- n13 -->
<!-- Query wolves -->
<g id="n13" class="node">
<title>n13</title>
<polygon fill="yellow" stroke="none" points="335.16,-625.44 247.91,-625.44 247.91,-601.19 335.16,-601.19 335.16,-625.44"/>
<polygon fill="none" stroke="black" points="247.91,-601.19 247.91,-625.44 335.16,-625.44 335.16,-601.19 247.91,-601.19"/>
<text xml:space="preserve" text-anchor="start" x="252.91" y="-610.69" font-family="Serif" font-size="14.00">Query wolves</text>
</g>
<!-- n2&#45;&gt;n13 -->
<g id="e32" class="edge">
<title>n2:s&#45;&gt;n13:n</title>
<path fill="none" stroke="black" d="M550.95,-675.69C550.95,-661.09 312.96,-644.26 274.84,-629.3"/>
<polygon fill="black" stroke="black" points="275.98,-627.96 270.93,-626.35 273.87,-630.76 275.98,-627.96"/>
</g>
<!-- n5 -->
<!-- turn -->
<g id="n5" class="node">
<title>n5</title>
<polygon fill="lightpink" stroke="none" points="506.54,-550.94 434.54,-550.94 434.54,-526.69 506.54,-526.69 506.54,-550.94"/>
<polygon fill="none" stroke="black" points="434.54,-526.69 434.54,-550.94 506.54,-550.94 506.54,-526.69 434.54,-526.69"/>
<text xml:space="preserve" text-anchor="start" x="459.29" y="-536.19" font-family="Serif" font-size="14.00">turn</text>
</g>
<!-- n4&#45;&gt;n5 -->
<!-- S -->
<g id="e24" class="edge">
<title>n4:s&#45;&gt;n5:n</title>
<path fill="none" stroke="black" d="M470.16,-601.19C470.16,-581.12 470.46,-574.58 470.53,-557.26"/>
<polygon fill="black" stroke="black" points="472.27,-557.46 470.53,-552.45 468.77,-557.45 472.27,-557.46"/>
<text xml:space="preserve" text-anchor="middle" x="474.19" y="-569.89" font-family="Serif" font-size="14.00">S</text>
</g>
<!-- n4&#45;&gt;n5 -->
<!-- S -->
<g id="e25" class="edge">
<title>n4:s&#45;&gt;n5:n</title>
<path fill="none" stroke="black" d="M502.91,-601.19C502.91,-589.77 479,-570.68 472.28,-557.1"/>
<polygon fill="black" stroke="black" points="473.99,-556.73 470.95,-552.4 470.62,-557.68 473.99,-556.73"/>
<text xml:space="preserve" text-anchor="middle" x="496.19" y="-569.89" font-family="Serif" font-size="14.00">S</text>
</g>
<!-- n6 -->
<!-- turn_left -->
<g id="n6" class="node">
<title>n6</title>
<polygon fill="lightblue" stroke="none" points="417.16,-476.44 359.91,-476.44 359.91,-452.19 417.16,-452.19 417.16,-476.44"/>
<polygon fill="none" stroke="black" points="359.91,-452.19 359.91,-476.44 417.16,-476.44 417.16,-452.19 359.91,-452.19"/>
<text xml:space="preserve" text-anchor="start" x="364.91" y="-461.69" font-family="Serif" font-size="14.00">turn_left</text>
</g>
<!-- n5&#45;&gt;n6 -->
<!-- S -->
<g id="e22" class="edge">
<title>n5:s&#45;&gt;n6:n</title>
<path fill="none" stroke="black" d="M446.54,-526.69C446.54,-511.64 401.33,-497.29 390.74,-482.4"/>
<polygon fill="black" stroke="black" points="392.44,-481.94 389.06,-477.86 389.15,-483.16 392.44,-481.94"/>
<text xml:space="preserve" text-anchor="middle" x="433.15" y="-495.39" font-family="Serif" font-size="14.00">S</text>
</g>
<!-- n7 -->
<!-- turn_right -->
<g id="n7" class="node">
<title>n7</title>
<polygon fill="lightblue" stroke="none" points="568.29,-476.44 502.79,-476.44 502.79,-452.19 568.29,-452.19 568.29,-476.44"/>
<polygon fill="none" stroke="black" points="502.79,-452.19 502.79,-476.44 568.29,-476.44 568.29,-452.19 502.79,-452.19"/>
<text xml:space="preserve" text-anchor="start" x="507.79" y="-461.69" font-family="Serif" font-size="14.00">turn_right</text>
</g>
<!-- n5&#45;&gt;n7 -->
<!-- S -->
<g id="e21" class="edge">
<title>n5:s&#45;&gt;n7:n</title>
<path fill="none" stroke="black" d="M494.54,-526.69C494.54,-500.23 529.09,-504.29 534.75,-482.84"/>
<polygon fill="black" stroke="black" points="536.48,-483.12 535.35,-477.94 533.01,-482.69 536.48,-483.12"/>
<text xml:space="preserve" text-anchor="middle" x="530.43" y="-495.39" font-family="Serif" font-size="14.00">S</text>
</g>
<!-- n8 -->
<!-- move_fwd -->
<g id="n8" class="node">
<title>n8</title>
<polygon fill="lightblue" stroke="none" points="494.79,-401.94 426.29,-401.94 426.29,-377.69 494.79,-377.69 494.79,-401.94"/>
<polygon fill="none" stroke="black" points="426.29,-377.69 426.29,-401.94 494.79,-401.94 494.79,-377.69 426.29,-377.69"/>
<text xml:space="preserve" text-anchor="start" x="431.29" y="-387.19" font-family="Serif" font-size="14.00">move_fwd</text>
</g>
<!-- n5&#45;&gt;n8 -->
<!-- S (in) -->
<g id="e26" class="edge">
<title>n5:s&#45;&gt;n8:n</title>
<path fill="none" stroke="black" d="M470.54,-526.69C470.54,-504.09 464.85,-498.94 462.79,-476.44 459.96,-445.64 460.45,-436.29 460.53,-408.23"/>
<polygon fill="black" stroke="black" points="462.28,-408.46 460.53,-403.45 458.78,-408.45 462.28,-408.46"/>
<text xml:space="preserve" text-anchor="middle" x="478.16" y="-458.14" font-family="Serif" font-size="14.00">S (in)</text>
</g>
<!-- n6&#45;&gt;n8 -->
<!-- S -->
<g id="e27" class="edge">
<title>n6:s&#45;&gt;n8:n</title>
<path fill="none" stroke="black" d="M374.22,-452.19C374.22,-436.42 376.91,-430.02 389.04,-419.94 412.37,-400.55 453.78,-429.72 459.8,-408.16"/>
<polygon fill="black" stroke="black" points="461.51,-408.61 460.36,-403.44 458.03,-408.2 461.51,-408.61"/>
<text xml:space="preserve" text-anchor="middle" x="392.79" y="-420.89" font-family="Serif" font-size="14.00">S</text>
</g>
<!-- n6&#45;&gt;n8 -->
<!-- S -->
<g id="e28" class="edge">
<title>n6:s&#45;&gt;n8:n</title>
<path fill="none" stroke="black" d="M402.85,-452.19C402.85,-432.86 417.24,-432.38 432.04,-419.94 441.53,-411.95 454.84,-415.12 459.14,-407.94"/>
<polygon fill="black" stroke="black" points="460.77,-408.68 460.19,-403.41 457.36,-407.89 460.77,-408.68"/>
<text xml:space="preserve" text-anchor="middle" x="435.79" y="-420.89" font-family="Serif" font-size="14.00">S</text>
</g>
<!-- n7&#45;&gt;n8 -->
<!-- S -->
<g id="e13" class="edge">
<title>n7:s&#45;&gt;n8:n</title>
<path fill="none" stroke="black" d="M551.91,-452.19C551.91,-430.58 534.28,-430.69 515.54,-419.94 495.32,-408.34 466.57,-424.11 461.36,-408.02"/>
<polygon fill="black" stroke="black" points="463.15,-408.16 460.74,-403.44 459.68,-408.63 463.15,-408.16"/>
<text xml:space="preserve" text-anchor="middle" x="547.55" y="-420.89" font-family="Serif" font-size="14.00">S</text>
</g>
<!-- n7&#45;&gt;n8 -->
<!-- S -->
<g id="e29" class="edge">
<title>n7:s&#45;&gt;n8:n</title>
<path fill="none" stroke="black" d="M519.16,-452.19C519.16,-437.04 473.47,-422.85 462.76,-407.93"/>
<polygon fill="black" stroke="black" points="464.45,-407.43 461.06,-403.36 461.17,-408.66 464.45,-407.43"/>
<text xml:space="preserve" text-anchor="middle" x="505.59" y="-420.89" font-family="Serif" font-size="14.00">S</text>
</g>
<!-- n9 -->
<!-- reprod -->
<g id="n9" class="node">
<title>n9</title>
<polygon fill="lightpink" stroke="none" points="528.54,-327.44 480.54,-327.44 480.54,-303.19 528.54,-303.19 528.54,-327.44"/>
<polygon fill="none" stroke="black" points="480.54,-303.19 480.54,-327.44 528.54,-327.44 528.54,-303.19 480.54,-303.19"/>
<text xml:space="preserve" text-anchor="start" x="486.91" y="-312.69" font-family="Serif" font-size="14.00">reprod</text>
</g>
<!-- n8&#45;&gt;n9 -->
<!-- S (out) -->
<g id="e11" class="edge">
<title>n8:s&#45;&gt;n9:n</title>
<path fill="none" stroke="black" d="M443.41,-377.69C443.41,-363.34 436.2,-356.75 445.04,-345.44 460.46,-325.72 496.79,-349.65 503.47,-333.75"/>
<polygon fill="black" stroke="black" points="505.18,-334.15 504.28,-328.93 501.73,-333.57 505.18,-334.15"/>
<text xml:space="preserve" text-anchor="middle" x="463.79" y="-346.39" font-family="Serif" font-size="14.00">S (out)</text>
</g>
<!-- n8&#45;&gt;n9 -->
<!-- S -->
<g id="e12" class="edge">
<title>n8:s&#45;&gt;n9:n</title>
<path fill="none" stroke="black" d="M477.66,-377.69C477.66,-354.64 499.92,-352.9 503.92,-333.68"/>
<polygon fill="black" stroke="black" points="505.64,-334.09 504.39,-328.95 502.16,-333.75 505.64,-334.09"/>
<text xml:space="preserve" text-anchor="middle" x="501.79" y="-346.39" font-family="Serif" font-size="14.00">S</text>
</g>
<!-- n10 -->
<!-- reproduce -->
<g id="n10" class="node">
<title>n10</title>
<polygon fill="lightblue" stroke="none" points="524.54,-252.94 460.54,-252.94 460.54,-228.69 524.54,-228.69 524.54,-252.94"/>
<polygon fill="none" stroke="black" points="460.54,-228.69 460.54,-252.94 524.54,-252.94 524.54,-228.69 460.54,-228.69"/>
<text xml:space="preserve" text-anchor="start" x="465.54" y="-238.19" font-family="Serif" font-size="14.00">reproduce</text>
</g>
<!-- n9&#45;&gt;n10 -->
<!-- S -->
<g id="e18" class="edge">
<title>n9:s&#45;&gt;n10:n</title>
<path fill="none" stroke="black" d="M492.54,-303.19C492.54,-283.12 492.54,-276.58 492.54,-259.26"/>
<polygon fill="black" stroke="black" points="494.29,-259.45 492.54,-254.45 490.79,-259.45 494.29,-259.45"/>
<text xml:space="preserve" text-anchor="middle" x="496.29" y="-271.89" font-family="Serif" font-size="14.00">S</text>
</g>
<!-- n11 -->
<!-- starve -->
<g id="n11" class="node">
<title>n11</title>
<polygon fill="lightblue" stroke="none" points="599.54,-178.44 551.54,-178.44 551.54,-154.19 599.54,-154.19 599.54,-178.44"/>
<polygon fill="none" stroke="black" points="551.54,-154.19 551.54,-178.44 599.54,-178.44 599.54,-154.19 551.54,-154.19"/>
<text xml:space="preserve" text-anchor="start" x="559.04" y="-163.69" font-family="Serif" font-size="14.00">starve</text>
</g>
<!-- n9&#45;&gt;n11 -->
<!-- S -->
<g id="e23" class="edge">
<title>n9:s&#45;&gt;n11:n</title>
<path fill="none" stroke="black" d="M516.54,-303.19C516.54,-254.43 561.88,-257.5 575.54,-210.69 578.89,-199.19 576.64,-194.4 575.81,-184.76"/>
<polygon fill="black" stroke="black" points="577.56,-184.87 575.6,-179.95 574.07,-185.02 577.56,-184.87"/>
<text xml:space="preserve" text-anchor="middle" x="570.9" y="-234.64" font-family="Serif" font-size="14.00">S</text>
</g>
<!-- n10&#45;&gt;n11 -->
<!-- S -->
<g id="e16" class="edge">
<title>n10:s&#45;&gt;n11:n</title>
<path fill="none" stroke="black" d="M508.54,-228.69C508.54,-193.79 567.42,-212.88 574.78,-184.73"/>
<polygon fill="black" stroke="black" points="576.5,-185.12 575.36,-179.94 573.02,-184.7 576.5,-185.12"/>
<text xml:space="preserve" text-anchor="middle" x="568.05" y="-197.39" font-family="Serif" font-size="14.00">S</text>
</g>
<!-- n10&#45;&gt;n11 -->
<!-- S -->
<g id="e20" class="edge">
<title>n10:s&#45;&gt;n11:n</title>
<path fill="none" stroke="black" d="M476.54,-228.69C476.54,-204.26 499.29,-207.57 521.04,-196.44 541.61,-185.91 569.65,-200.63 574.73,-184.5"/>
<polygon fill="black" stroke="black" points="576.41,-185.13 575.34,-179.94 572.94,-184.67 576.41,-185.13"/>
<text xml:space="preserve" text-anchor="middle" x="524.79" y="-197.39" font-family="Serif" font-size="14.00">S</text>
</g>
<!-- n11&#45;&gt;n2 -->
<g id="e15" class="edge">
<title>n11:s&#45;&gt;n2:n</title>
<path fill="none" stroke="black" d="M563.54,-153.19C563.54,-147.84 555.16,-150.25 551.54,-154.19 534.47,-172.74 551.7,-185.95 556.54,-210.69 560.24,-229.63 560.04,-234.77 566.54,-252.94 576.76,-281.53 596.54,-283.95 596.54,-314.31 596.54,-614.32 596.54,-614.32 596.54,-614.32 596.54,-643.13 612.71,-647.26 617.41,-675.69 619.17,-686.32 624.84,-692.13 617.41,-699.94 613.3,-704.26 605.71,-707.23 601.18,-706.03"/>
<polygon fill="black" stroke="black" points="602.72,-705.17 598.36,-702.16 599.89,-707.24 602.72,-705.17"/>
</g>
<!-- n12 -->
<g id="n12" class="node">
<title>n12</title>
<polygon fill="lavender" stroke="none" points="628.54,-96.81 604.54,-96.81 604.54,-86.81 628.54,-86.81 628.54,-96.81"/>
<polygon fill="none" stroke="black" points="604.54,-86.81 604.54,-96.81 628.54,-96.81 628.54,-86.81 604.54,-86.81"/>
</g>
<!-- n11&#45;&gt;n12 -->
<!-- S -->
<g id="e10" class="edge">
<title>n11:s&#45;&gt;n12:n</title>
<path fill="none" stroke="black" d="M587.54,-154.19C587.54,-128.33 611.97,-126.18 615.98,-104.21"/>
<polygon fill="black" stroke="black" points="617.72,-104.46 616.41,-99.32 614.23,-104.15 617.72,-104.46"/>
<text xml:space="preserve" text-anchor="middle" x="609.24" y="-122.89" font-family="Serif" font-size="14.00">S</text>
</g>
<!-- n12&#45;&gt;n2 -->
<g id="e14" class="edge">
<title>n12:s&#45;&gt;n2:n</title>
<path fill="none" stroke="black" d="M616.54,-85.81C616.54,-80.46 624.76,-83.02 628.54,-86.81 653.19,-111.64 634.54,-130.32 634.54,-165.31 634.54,-614.32 634.54,-614.32 634.54,-614.32 634.54,-653.12 646.8,-674.59 617.41,-699.94 613,-703.74 605.79,-706.81 601.36,-705.96"/>
<polygon fill="black" stroke="black" points="602.85,-705.02 598.4,-702.14 600.08,-707.16 602.85,-705.02"/>
</g>
<!-- n14 -->
<!-- Fail -->
<g id="n14" class="node">
<title>n14</title>
<polygon fill="red" stroke="none" points="391.04,-550.94 360.04,-550.94 360.04,-526.69 391.04,-526.69 391.04,-550.94"/>
<polygon fill="none" stroke="black" points="360.04,-526.69 360.04,-550.94 391.04,-550.94 391.04,-526.69 360.04,-526.69"/>
<text xml:space="preserve" text-anchor="start" x="365.04" y="-536.19" font-family="Serif" font-size="14.00">Fail</text>
</g>
<!-- n13&#45;&gt;n14 -->
<g id="e40" class="edge">
<title>n13:s&#45;&gt;n14:n</title>
<path fill="none" stroke="black" d="M320.62,-601.19C320.62,-587.53 335.3,-592.23 345.54,-583.19 358.37,-571.85 371.71,-570.65 374.85,-557.41"/>
<polygon fill="black" stroke="black" points="376.59,-557.6 375.38,-552.45 373.11,-557.23 376.59,-557.6"/>
</g>
<!-- n15 -->
<!-- Wolf_eat -->
<g id="n15" class="node">
<title>n15</title>
<polygon fill="lightblue" stroke="none" points="263.29,-550.94 203.79,-550.94 203.79,-526.69 263.29,-526.69 263.29,-550.94"/>
<polygon fill="none" stroke="black" points="203.79,-526.69 203.79,-550.94 263.29,-550.94 263.29,-526.69 203.79,-526.69"/>
<text xml:space="preserve" text-anchor="start" x="208.79" y="-536.19" font-family="Serif" font-size="14.00">Wolf_eat</text>
</g>
<!-- n13&#45;&gt;n15 -->
<!-- W -->
<g id="e42" class="edge">
<title>n13:s&#45;&gt;n15:n</title>
<path fill="none" stroke="black" d="M291.54,-601.19C291.54,-587.32 276.66,-592.11 266.04,-583.19 252.27,-571.64 237.48,-571.21 234.2,-557.26"/>
<polygon fill="black" stroke="black" points="235.96,-557.23 233.69,-552.45 232.48,-557.6 235.96,-557.23"/>
<text xml:space="preserve" text-anchor="middle" x="272.79" y="-569.89" font-family="Serif" font-size="14.00">W</text>
</g>
<!-- n24 -->
<!-- Query grass -->
<g id="n24" class="node">
<title>n24</title>
<polygon fill="yellow" stroke="none" points="144.29,-550.94 66.79,-550.94 66.79,-526.69 144.29,-526.69 144.29,-550.94"/>
<polygon fill="none" stroke="black" points="66.79,-526.69 66.79,-550.94 144.29,-550.94 144.29,-526.69 66.79,-526.69"/>
<text xml:space="preserve" text-anchor="start" x="71.79" y="-536.19" font-family="Serif" font-size="14.00">Query grass</text>
</g>
<!-- n13&#45;&gt;n24 -->
<g id="e2" class="edge">
<title>n13:s&#45;&gt;n24:n</title>
<path fill="none" stroke="black" d="M262.45,-601.19C262.45,-594.68 219.62,-571.24 213.54,-568.94 188.89,-559.62 101.43,-576.48 87.92,-556.78"/>
<polygon fill="black" stroke="black" points="89.72,-556.67 86.6,-552.39 86.37,-557.68 89.72,-556.67"/>
</g>
<!-- n16 -->
<!-- turn -->
<g id="n16" class="node">
<title>n16</title>
<polygon fill="lightpink" stroke="none" points="246.54,-476.44 174.54,-476.44 174.54,-452.19 246.54,-452.19 246.54,-476.44"/>
<polygon fill="none" stroke="black" points="174.54,-452.19 174.54,-476.44 246.54,-476.44 246.54,-452.19 174.54,-452.19"/>
<text xml:space="preserve" text-anchor="start" x="199.29" y="-461.69" font-family="Serif" font-size="14.00">turn</text>
</g>
<!-- n15&#45;&gt;n16 -->
<!-- W -->
<g id="e47" class="edge">
<title>n15:s&#45;&gt;n16:n</title>
<path fill="none" stroke="black" d="M218.66,-526.69C218.66,-518.17 213.73,-517.05 212.04,-508.69 209.66,-496.93 210.21,-492.32 210.45,-482.75"/>
<polygon fill="black" stroke="black" points="212.2,-482.98 210.52,-477.95 208.7,-482.93 212.2,-482.98"/>
<text xml:space="preserve" text-anchor="middle" x="218.79" y="-495.39" font-family="Serif" font-size="14.00">W</text>
</g>
<!-- n15&#45;&gt;n16 -->
<!-- W -->
<g id="e48" class="edge">
<title>n15:s&#45;&gt;n16:n</title>
<path fill="none" stroke="black" d="M248.41,-526.69C248.41,-509.12 236.25,-508.37 225.54,-494.44 220.77,-488.25 214.72,-487.08 211.99,-482.49"/>
<polygon fill="black" stroke="black" points="213.76,-482.37 210.89,-477.91 210.35,-483.18 213.76,-482.37"/>
<text xml:space="preserve" text-anchor="middle" x="246.67" y="-495.39" font-family="Serif" font-size="14.00">W</text>
</g>
<!-- n17 -->
<!-- turn_left -->
<g id="n17" class="node">
<title>n17</title>
<polygon fill="lightblue" stroke="none" points="132.16,-401.94 74.91,-401.94 74.91,-377.69 132.16,-377.69 132.16,-401.94"/>
<polygon fill="none" stroke="black" points="74.91,-377.69 74.91,-401.94 132.16,-401.94 132.16,-377.69 74.91,-377.69"/>
<text xml:space="preserve" text-anchor="start" x="79.91" y="-387.19" font-family="Serif" font-size="14.00">turn_left</text>
</g>
<!-- n16&#45;&gt;n17 -->
<!-- W -->
<g id="e45" class="edge">
<title>n16:s&#45;&gt;n17:n</title>
<path fill="none" stroke="black" d="M186.54,-452.19C186.54,-430.44 159.65,-445.44 141.04,-434.19 124.28,-424.07 107.62,-423.83 104.18,-408.37"/>
<polygon fill="black" stroke="black" points="105.93,-408.25 103.69,-403.45 102.45,-408.6 105.93,-408.25"/>
<text xml:space="preserve" text-anchor="middle" x="147.79" y="-420.89" font-family="Serif" font-size="14.00">W</text>
</g>
<!-- n18 -->
<!-- turn_right -->
<g id="n18" class="node">
<title>n18</title>
<polygon fill="lightblue" stroke="none" points="265.29,-401.94 199.79,-401.94 199.79,-377.69 265.29,-377.69 265.29,-401.94"/>
<polygon fill="none" stroke="black" points="199.79,-377.69 199.79,-401.94 265.29,-401.94 265.29,-377.69 199.79,-377.69"/>
<text xml:space="preserve" text-anchor="start" x="204.79" y="-387.19" font-family="Serif" font-size="14.00">turn_right</text>
</g>
<!-- n16&#45;&gt;n18 -->
<!-- W -->
<g id="e44" class="edge">
<title>n16:s&#45;&gt;n18:n</title>
<path fill="none" stroke="black" d="M234.54,-452.19C234.54,-432.11 232.92,-425.59 232.59,-408.27"/>
<polygon fill="black" stroke="black" points="234.35,-408.44 232.55,-403.45 230.85,-408.47 234.35,-408.44"/>
<text xml:space="preserve" text-anchor="middle" x="240.75" y="-420.89" font-family="Serif" font-size="14.00">W</text>
</g>
<!-- n19 -->
<!-- move_fwd -->
<g id="n19" class="node">
<title>n19</title>
<polygon fill="lightblue" stroke="none" points="209.79,-327.44 141.29,-327.44 141.29,-303.19 209.79,-303.19 209.79,-327.44"/>
<polygon fill="none" stroke="black" points="141.29,-303.19 141.29,-327.44 209.79,-327.44 209.79,-303.19 141.29,-303.19"/>
<text xml:space="preserve" text-anchor="start" x="146.29" y="-312.69" font-family="Serif" font-size="14.00">move_fwd</text>
</g>
<!-- n16&#45;&gt;n19 -->
<!-- W -->
<g id="e49" class="edge">
<title>n16:s&#45;&gt;n19:n</title>
<path fill="none" stroke="black" d="M210.54,-452.19C210.54,-425.35 185.07,-427.55 177.04,-401.94 167.78,-372.44 174.5,-361.95 175.43,-333.74"/>
<polygon fill="black" stroke="black" points="177.18,-333.98 175.51,-328.95 173.68,-333.92 177.18,-333.98"/>
<text xml:space="preserve" text-anchor="middle" x="183.79" y="-383.64" font-family="Serif" font-size="14.00">W</text>
</g>
<!-- n17&#45;&gt;n19 -->
<!-- W -->
<g id="e9" class="edge">
<title>n17:s&#45;&gt;n19:n</title>
<path fill="none" stroke="black" d="M117.85,-377.69C117.85,-360.04 127.7,-357 141.04,-345.44 152.06,-335.88 169.04,-341.95 174.08,-333.69"/>
<polygon fill="black" stroke="black" points="175.76,-334.18 175.19,-328.91 172.35,-333.39 175.76,-334.18"/>
<text xml:space="preserve" text-anchor="middle" x="147.79" y="-346.39" font-family="Serif" font-size="14.00">W</text>
</g>
<!-- n17&#45;&gt;n19 -->
<!-- W -->
<g id="e31" class="edge">
<title>n17:s&#45;&gt;n19:n</title>
<path fill="none" stroke="black" d="M89.22,-377.69C89.22,-361.32 94.12,-355.5 107.04,-345.44 129.93,-327.61 168.83,-354.11 174.77,-333.7"/>
<polygon fill="black" stroke="black" points="176.48,-334.12 175.35,-328.94 173,-333.69 176.48,-334.12"/>
<text xml:space="preserve" text-anchor="middle" x="113.79" y="-346.39" font-family="Serif" font-size="14.00">W</text>
</g>
<!-- n18&#45;&gt;n19 -->
<!-- W -->
<g id="e30" class="edge">
<title>n18:s&#45;&gt;n19:n</title>
<path fill="none" stroke="black" d="M216.16,-377.69C216.16,-351.33 181.93,-355.22 176.31,-333.82"/>
<polygon fill="black" stroke="black" points="178.06,-333.69 175.72,-328.94 174.58,-334.12 178.06,-333.69"/>
<text xml:space="preserve" text-anchor="middle" x="214.14" y="-346.39" font-family="Serif" font-size="14.00">W</text>
</g>
<!-- n18&#45;&gt;n19 -->
<!-- W -->
<g id="e36" class="edge">
<title>n18:s&#45;&gt;n19:n</title>
<path fill="none" stroke="black" d="M248.91,-377.69C248.91,-359.45 238.26,-356.21 223.54,-345.44 207.16,-333.46 181.88,-346.61 176.55,-333.54"/>
<polygon fill="black" stroke="black" points="178.33,-333.58 175.78,-328.93 174.87,-334.15 178.33,-333.58"/>
<text xml:space="preserve" text-anchor="middle" x="249.03" y="-346.39" font-family="Serif" font-size="14.00">W</text>
</g>
<!-- n20 -->
<!-- reprod -->
<g id="n20" class="node">
<title>n20</title>
<polygon fill="lightpink" stroke="none" points="219.54,-252.94 171.54,-252.94 171.54,-228.69 219.54,-228.69 219.54,-252.94"/>
<polygon fill="none" stroke="black" points="171.54,-228.69 171.54,-252.94 219.54,-252.94 219.54,-228.69 171.54,-228.69"/>
<text xml:space="preserve" text-anchor="start" x="177.91" y="-238.19" font-family="Serif" font-size="14.00">reprod</text>
</g>
<!-- n19&#45;&gt;n20 -->
<!-- W -->
<g id="e34" class="edge">
<title>n19:s&#45;&gt;n20:n</title>
<path fill="none" stroke="black" d="M158.41,-303.19C158.41,-288.84 152.22,-282.98 160.04,-270.94 168.16,-258.42 187.85,-266.81 193.8,-259.11"/>
<polygon fill="black" stroke="black" points="195.46,-259.68 195.13,-254.4 192.09,-258.74 195.46,-259.68"/>
<text xml:space="preserve" text-anchor="middle" x="166.79" y="-271.89" font-family="Serif" font-size="14.00">W</text>
</g>
<!-- n19&#45;&gt;n20 -->
<!-- W -->
<g id="e35" class="edge">
<title>n19:s&#45;&gt;n20:n</title>
<path fill="none" stroke="black" d="M192.66,-303.19C192.66,-283.09 194.98,-276.6 195.45,-259.27"/>
<polygon fill="black" stroke="black" points="197.2,-259.48 195.52,-254.45 193.7,-259.43 197.2,-259.48"/>
<text xml:space="preserve" text-anchor="middle" x="201.51" y="-271.89" font-family="Serif" font-size="14.00">W</text>
</g>
<!-- n21 -->
<!-- reproduce -->
<g id="n21" class="node">
<title>n21</title>
<polygon fill="lightblue" stroke="none" points="215.54,-178.44 151.54,-178.44 151.54,-154.19 215.54,-154.19 215.54,-178.44"/>
<polygon fill="none" stroke="black" points="151.54,-154.19 151.54,-178.44 215.54,-178.44 215.54,-154.19 151.54,-154.19"/>
<text xml:space="preserve" text-anchor="start" x="156.54" y="-163.69" font-family="Serif" font-size="14.00">reproduce</text>
</g>
<!-- n20&#45;&gt;n21 -->
<!-- W -->
<g id="e41" class="edge">
<title>n20:s&#45;&gt;n21:n</title>
<path fill="none" stroke="black" d="M183.54,-228.69C183.54,-208.62 183.54,-202.08 183.54,-184.76"/>
<polygon fill="black" stroke="black" points="185.29,-184.95 183.54,-179.95 181.79,-184.95 185.29,-184.95"/>
<text xml:space="preserve" text-anchor="middle" x="190.29" y="-197.39" font-family="Serif" font-size="14.00">W</text>
</g>
<!-- n22 -->
<!-- starve -->
<g id="n22" class="node">
<title>n22</title>
<polygon fill="lightblue" stroke="none" points="284.54,-103.94 236.54,-103.94 236.54,-79.69 284.54,-79.69 284.54,-103.94"/>
<polygon fill="none" stroke="black" points="236.54,-79.69 236.54,-103.94 284.54,-103.94 284.54,-79.69 236.54,-79.69"/>
<text xml:space="preserve" text-anchor="start" x="244.04" y="-89.19" font-family="Serif" font-size="14.00">starve</text>
</g>
<!-- n20&#45;&gt;n22 -->
<!-- W -->
<g id="e46" class="edge">
<title>n20:s&#45;&gt;n22:n</title>
<path fill="none" stroke="black" d="M207.54,-228.69C207.54,-179.69 253.63,-183.18 267.54,-136.19 269.33,-130.12 268.7,-128.16 267.54,-121.94 266.45,-116.14 263.55,-113.86 261.84,-110.22"/>
<polygon fill="black" stroke="black" points="263.57,-109.96 260.84,-105.42 260.15,-110.67 263.57,-109.96"/>
<text xml:space="preserve" text-anchor="middle" x="265.75" y="-160.14" font-family="Serif" font-size="14.00">W</text>
</g>
<!-- n21&#45;&gt;n22 -->
<!-- W -->
<g id="e39" class="edge">
<title>n21:s&#45;&gt;n22:n</title>
<path fill="none" stroke="black" d="M199.54,-154.19C199.54,-121.4 252.7,-136.65 259.76,-110.24"/>
<polygon fill="black" stroke="black" points="261.48,-110.62 260.35,-105.44 258.01,-110.19 261.48,-110.62"/>
<text xml:space="preserve" text-anchor="middle" x="257.06" y="-122.89" font-family="Serif" font-size="14.00">W</text>
</g>
<!-- n21&#45;&gt;n22 -->
<!-- W -->
<g id="e43" class="edge">
<title>n21:s&#45;&gt;n22:n</title>
<path fill="none" stroke="black" d="M167.54,-154.19C167.54,-133.84 182.53,-132.32 200.04,-121.94 222.09,-108.86 254.38,-128.09 259.76,-110.07"/>
<polygon fill="black" stroke="black" points="261.45,-110.62 260.35,-105.44 257.98,-110.18 261.45,-110.62"/>
<text xml:space="preserve" text-anchor="middle" x="206.79" y="-122.89" font-family="Serif" font-size="14.00">W</text>
</g>
<!-- n22&#45;&gt;n13 -->
<g id="e38" class="edge">
<title>n22:s&#45;&gt;n13:n</title>
<path fill="none" stroke="black" d="M248.54,-78.69C248.54,-73.34 240.16,-75.75 236.54,-79.69 219.47,-98.24 235.11,-111.81 241.54,-136.19 246.66,-155.61 248.87,-160.33 257.54,-178.44 271.18,-206.97 293.54,-208.19 293.54,-239.81 293.54,-539.82 293.54,-539.82 293.54,-539.82 293.54,-561.85 304.38,-565.52 317.54,-583.19 324.22,-592.17 330.93,-590.82 335.16,-601.19 339.23,-611.17 342.61,-617.65 335.16,-625.44 330.45,-630.37 321.58,-633.66 316.73,-631.81"/>
<polygon fill="black" stroke="black" points="318.3,-631.02 314.16,-627.72 315.34,-632.88 318.3,-631.02"/>
</g>
<!-- n23 -->
<g id="n23" class="node">
<title>n23</title>
<polygon fill="lavender" stroke="none" points="321.54,-29.44 297.54,-29.44 297.54,-19.44 321.54,-19.44 321.54,-29.44"/>
<polygon fill="none" stroke="black" points="297.54,-19.44 297.54,-29.44 321.54,-29.44 321.54,-19.44 297.54,-19.44"/>
</g>
<!-- n22&#45;&gt;n23 -->
<!-- W -->
<g id="e33" class="edge">
<title>n22:s&#45;&gt;n23:n</title>
<path fill="none" stroke="black" d="M272.54,-79.69C272.54,-54.34 303.45,-56.52 308.76,-35.9"/>
<polygon fill="black" stroke="black" points="310.5,-36.12 309.36,-30.94 307.02,-35.7 310.5,-36.12"/>
<text xml:space="preserve" text-anchor="middle" x="307.34" y="-48.39" font-family="Serif" font-size="14.00">W</text>
</g>
<!-- n23&#45;&gt;n13 -->
<g id="e37" class="edge">
<title>n23:s&#45;&gt;n13:n</title>
<path fill="none" stroke="black" d="M309.54,-18.44C309.54,-13.09 317.65,-15.76 321.54,-19.44 344.81,-41.45 331.54,-58.78 331.54,-90.81 331.54,-539.82 331.54,-539.82 331.54,-539.82 331.54,-567.14 334.36,-573.88 335.16,-601.19 335.48,-611.96 342.61,-617.65 335.16,-625.44 330.45,-630.37 321.58,-633.66 316.73,-631.81"/>
<polygon fill="black" stroke="black" points="318.3,-631.02 314.16,-627.72 315.34,-632.88 318.3,-631.02"/>
</g>
<!-- n24&#45;&gt;n1 -->
<g id="e5" class="edge">
<title>n24:s&#45;&gt;n1:n</title>
<path fill="none" stroke="black" d="M79.7,-525.69C79.7,-513.47 40.61,-511.05 66.79,-550.94 112.44,-620.5 160.56,-596.41 238.54,-625.44 257.96,-632.67 582.27,-720.24 594.54,-736.94 600.92,-745.63 602,-753.41 594.54,-761.19 589.11,-766.85 578.71,-770.49 573.57,-767.8"/>
<polygon fill="black" stroke="black" points="575.17,-767.09 571.26,-763.52 572.09,-768.75 575.17,-767.09"/>
</g>
<!-- n25 -->
<!-- Fail -->
<g id="n25" class="node">
<title>n25</title>
<polygon fill="red" stroke="none" points="156.04,-476.44 125.04,-476.44 125.04,-452.19 156.04,-452.19 156.04,-476.44"/>
<polygon fill="none" stroke="black" points="125.04,-452.19 125.04,-476.44 156.04,-476.44 156.04,-452.19 125.04,-452.19"/>
<text xml:space="preserve" text-anchor="start" x="130.04" y="-461.69" font-family="Serif" font-size="14.00">Fail</text>
</g>
<!-- n24&#45;&gt;n25 -->
<g id="e3" class="edge">
<title>n24:s&#45;&gt;n25:n</title>
<path fill="none" stroke="black" d="M131.37,-526.69C131.37,-506.29 138.77,-500.31 140.27,-482.84"/>
<polygon fill="black" stroke="black" points="142.02,-483.02 140.47,-477.95 138.52,-482.88 142.02,-483.02"/>
</g>
<!-- n26 -->
<!-- GrassIncrements -->
<g id="n26" class="node">
<title>n26</title>
<polygon fill="lightblue" stroke="none" points="107.29,-476.44 5.79,-476.44 5.79,-452.19 107.29,-452.19 107.29,-476.44"/>
<polygon fill="none" stroke="black" points="5.79,-452.19 5.79,-476.44 107.29,-476.44 107.29,-452.19 5.79,-452.19"/>
<text xml:space="preserve" text-anchor="start" x="10.79" y="-461.69" font-family="Serif" font-size="14.00">GrassIncrements</text>
</g>
<!-- n24&#45;&gt;n26 -->
<!-- G -->
<g id="e8" class="edge">
<title>n24:s&#45;&gt;n26:n</title>
<path fill="none" stroke="black" d="M105.54,-526.69C105.54,-500.65 65.11,-529.74 49.79,-508.69 42.51,-498.7 52.32,-493.03 55.56,-482.71"/>
<polygon fill="black" stroke="black" points="57.26,-483.15 56.3,-477.94 53.81,-482.61 57.26,-483.15"/>
<text xml:space="preserve" text-anchor="middle" x="54.66" y="-495.39" font-family="Serif" font-size="14.00">G</text>
</g>
<!-- n26&#45;&gt;n24 -->
<!-- G -->
<g id="e4" class="edge">
<title>n26:s&#45;&gt;n24:n</title>
<path fill="none" stroke="black" d="M31.16,-451.19C31.16,-442.34 -15.51,-447.02 5.79,-476.44 20.81,-497.19 37.29,-483.67 60.54,-494.44 71.53,-499.53 72.72,-503.75 83.79,-508.69 109.41,-520.12 127.51,-504.2 144.29,-526.69 150.73,-535.33 151.71,-543.13 144.29,-550.94 140.39,-555.04 133.26,-557.9 128.82,-556.95"/>
<polygon fill="black" stroke="black" points="130.3,-556 125.84,-553.13 127.54,-558.15 130.3,-556"/>
<text xml:space="preserve" text-anchor="middle" x="88.66" y="-495.39" font-family="Serif" font-size="14.00">G</text>
</g>
<!-- n26&#45;&gt;n24 -->
<!-- G -->
<g id="e6" class="edge">
<title>n26:s&#45;&gt;n24:n</title>
<path fill="none" stroke="black" d="M81.91,-451.19C81.91,-439.9 98.63,-444.95 107.29,-452.19 127.02,-468.68 105.75,-487.14 119.79,-508.69 127.16,-520.01 138.18,-514.63 144.29,-526.69 149.15,-536.31 151.71,-543.13 144.29,-550.94 140.39,-555.04 133.26,-557.9 128.82,-556.95"/>
<polygon fill="black" stroke="black" points="130.3,-556 125.84,-553.13 127.54,-558.15 130.3,-556"/>
<text xml:space="preserve" text-anchor="middle" x="124.66" y="-495.39" font-family="Serif" font-size="14.00">G</text>
</g>
</g>
</svg>
