<?xml version="1.0" encoding="UTF-8" standalone="no"?>
<!DOCTYPE svg PUBLIC "-//W3C//DTD SVG 1.1//EN"
 "http://www.w3.org/Graphics/SVG/1.1/DTD/svg11.dtd">
<!-- Generated by graphviz version 14.1.5 (0)
 -->
<!-- Title: G Pages: 1 -->
<svg width="203pt" height="191pt"
 viewBox="0.00 0.00 203.00 191.00" xmlns="http://www.w3.org/2000/svg" xmlns:xlink="http://www.w3.org/1999/xlink">
<g id="graph0" class="graph" transform="scale(1 1) rotate(0) translate(4 187.25)">
<title>G</title>
<polygon fill="white" stroke="none" points="-4,4 -4,-187.25 199.03,-187.25 199.03,4 -4,4"/>
<!-- v1 -->
<g id="node1" class="node">
<title>v1</title>
<ellipse fill="tan" stroke="tan" cx="19.63" cy="-19.63" rx="19.63" ry="19.63"/>
<text xml:space="preserve" text-anchor="middle" x="19.63" y="-14.2" font-family="Times,serif" font-size="14.00">30</text>
</g>
<!-- v2 -->
<g id="node2" class="node">
<title>v2</title>
<ellipse fill="tan" stroke="tan" cx="19.63" cy="-91.63" rx="19.63" ry="19.63"/>
<text xml:space="preserve" text-anchor="middle" x="19.63" y="-86.2" font-family="Times,serif" font-size="14.00">13</text>
</g>
<!-- v3 -->
<g id="node3" class="node">
<title>v3</title>
<ellipse fill="lightgreen" stroke="lightgreen" cx="19.63" cy="-163.63" rx="18" ry="18"/>
</g>
<!-- v4 -->
<g id="node4" class="node">
<title>v4</title>
<ellipse fill="lightgreen" stroke="lightgreen" cx="91.63" cy="-19.63" rx="18" ry="18"/>
</g>
<!-- v5 -->
<g id="node5" class="node">
<title>v5</title>
<ellipse fill="tan" stroke="tan" cx="91.63" cy="-91.63" rx="18" ry="18"/>
<text xml:space="preserve" text-anchor="middle" x="91.63" y="-86.2" font-family="Times,serif" font-size="14.00">5</text>
</g>
<!-- v6 -->
<g id="node6" class="node">
<title>v6</title>
<ellipse fill="lightgreen" stroke="lightgreen" cx="91.63" cy="-163.63" rx="18" ry="18"/>
</g>
<!-- v7 -->
<g id="node7" class="node">
<title>v7</title>
<ellipse fill="lightgreen" stroke="lightgreen" cx="163.63" cy="-19.63" rx="18" ry="18"/>
</g>
<!-- v8 -->
<g id="node8" class="node">
<title>v8</title>
<ellipse fill="lightgreen" stroke="lightgreen" cx="163.63" cy="-91.63" rx="18" ry="18"/>
</g>
<!-- v9 -->
<g id="node9" class="node">
<title>v9</title>
<ellipse fill="tan" stroke="tan" cx="163.63" cy="-163.63" rx="19.63" ry="19.63"/>
<text xml:space="preserve" text-anchor="middle" x="163.63" y="-158.2" font-family="Times,serif" font-size="14.00">30</text>
</g>
<!-- w1 -->
<g id="node10" class="node">
<title>w1</title>
<polygon fill="red" stroke="red" points="37.6,-54.51 16,-54.51 16,-32.91 37.6,-32.91 37.6,-54.51"/>
<text xml:space="preserve" text-anchor="middle" x="26.8" y="-38.29" font-family="Times,serif" font-size="14.00">1⁵</text>
</g>
<!-- w2 -->
<g id="node11" class="node">
<title>w2</title>
<polygon fill="red" stroke="red" points="195.03,-103.32 173.43,-103.32 173.43,-81.72 195.03,-81.72 195.03,-103.32"/>
<text xml:space="preserve" text-anchor="middle" x="184.23" y="-87.1" font-family="Times,serif" font-size="14.00">2⁵</text>
</g>
<!-- s5 -->
<g id="node12" class="node">
<title>s5</title>
<polygon fill="lightblue" stroke="lightblue" points="178.25,-85.09 156.65,-85.09 156.65,-63.49 178.25,-63.49 178.25,-85.09"/>
<text xml:space="preserve" text-anchor="middle" x="167.45" y="-68.87" font-family="Times,serif" font-size="14.00">5⁸</text>
</g>
<!-- s7 -->
<g id="node13" class="node">
<title>s7</title>
<polygon fill="lightblue" stroke="lightblue" points="36.26,-127.54 14.66,-127.54 14.66,-105.94 36.26,-105.94 36.26,-127.54"/>
<text xml:space="preserve" text-anchor="middle" x="25.46" y="-111.32" font-family="Times,serif" font-size="14.00">7⁸*</text>
</g>
</g>
</svg>
