<?xml version="1.0" encoding="UTF-8" standalone="no"?>
<!DOCTYPE svg PUBLIC "-//W3C//DTD SVG 1.1//EN"
 "http://www.w3.org/Graphics/SVG/1.1/DTD/svg11.dtd">
<!-- Generated by graphviz version 14.1.5 (0)
 -->
<!-- Title: G Pages: 1 -->
<svg width="722pt" height="808pt"
 viewBox="0.00 0.00 722.00 808.00" xmlns="http://www.w3.org/2000/svg" xmlns:xlink="http://www.w3.org/1999/xlink">
<g id="graph0" class="graph" transform="scale(1 1) rotate(0) translate(4 803.63)">
<title>G</title>
<polygon fill="white" stroke="none" points="-4,4 -4,-803.63 717.52,-803.63 717.52,4 -4,4"/>
<!-- n0in1 -->
<!-- n1 -->
<!-- while -->
<g id="n1" class="node">
<title>n1</title>
<polygon fill="lightpink" stroke="none" points="569.54,-761.19 521.54,-761.19 521.54,-736.94 569.54,-736.94 569.54,-761.19"/>
<polygon fill="none" stroke="black" points="521.54,-736.94 521.54,-761.19 569.54,-761.19 569.54,-736.94 521.54,-736.94"/>
<text xml:space="preserve" text-anchor="start" x="530.54" y="-746.44" font-family="Serif" font-size="14.00">while</text>
</g>
<!-- n0in1&#45;&gt;n1 -->
<g id="e1" class="edge">
<title>n0in1:s&#45;&gt;n1:n</title>
<path fill="none" stroke="black" d="M545.54,-798.19C545.54,-784.06 545.54,-779.03 545.54,-767.46"/>
<polygon fill="black" stroke="black" points="547.29,-767.7 545.54,-762.7 543.79,-767.7 547.29,-767.7"/>
</g>
<!-- n0out1 -->
<!-- n1&#45;&gt;n0out1 -->
<g id="e50" class="edge">
<title>n1:s&#45;&gt;n0out1:n</title>
<path fill="none" stroke="black" d="M557.54,-736.94C557.54,-669.46 701.54,-756.29 701.54,-688.82 701.54,-688.82 701.54,-688.82 701.54,-53.56 701.54,-32.57 701.54,-25.85 701.54,-7.53"/>
<polygon fill="black" stroke="black" points="703.29,-7.95 701.54,-2.95 699.79,-7.95 703.29,-7.95"/>
</g>
<!-- n2 -->
<!-- Query sheep -->
<g id="n2" class="node">
<title>n2</title>
<polygon fill="yellow" stroke="none" points="592.41,-699.94 512.66,-699.94 512.66,-675.69 592.41,-675.69 592.41,-699.94"/>
<polygon fill="none" stroke="black" points="512.66,-675.69 512.66,-699.94 592.41,-699.94 592.41,-675.69 512.66,-675.69"/>
<text xml:space="preserve" text-anchor="start" x="517.66" y="-685.19" font-family="Serif" font-size="14.00">Query sheep</text>
</g>
<!-- n1&#45;&gt;n2 -->
<g id="e7" class="edge">
<title>n1:s&#45;&gt;n2:n</title>
<path fill="none" stroke="black" d="M533.54,-736.94C533.54,-722.8 532.84,-717.79 532.65,-706.22"/>
<polygon fill="black" stroke="black" points="534.4,-706.44 532.61,-701.45 530.9,-706.47 534.4,-706.44"/>
</g>
<!-- n3 -->
<!-- Fail -->
<g id="n3" class="node">
<title>n3</title>
<polygon fill="red" stroke="none" points="673.04,-625.44 642.04,-625.44 642.04,-601.19 673.04,-601.19 673.04,-625.44"/>
<polygon fill="none" stroke="black" points="642.04,-601.19 642.04,-625.44 673.04,-625.44 673.04,-601.19 642.04,-601.19"/>
<text xml:space="preserve" text-anchor="start" x="647.04" y="-610.69" font-family="Serif" font-size="14.00">Fail</text>
</g>
<!-- n2&#45;&gt;n3 -->
<g id="e17" class="edge">
<title>n2:s&#45;&gt;n3:n</title>
<path fill="none" stroke="black" d="M579.12,-675.69C579.12,-652.73 608.44,-670.44 627.54,-657.69 641.91,-648.09 654.29,-645.56 656.99,-631.63"/>
<polygon fill="black" stroke="black" points="658.71,-632.08 657.4,-626.95 655.22,-631.77 658.71,-632.08"/>
</g>
<!-- n4 -->
<!-- Sheep_eat -->
<g id="n4" class="node">
<title>n4</title>
<polygon fill="lightblue" stroke="none" points="512.29,-625.44 446.79,-625.44 446.79,-601.19 512.29,-601.19 512.29,-625.44"/>
<polygon fill="none" stroke="black" points="446.79,-601.19 446.79,-625.44 512.29,-625.44 512.29,-601.19 446.79,-601.19"/>
<text xml:space="preserve" text-anchor="start" x="451.79" y="-610.69" font-family="Serif" font-size="14.00">Sheep_eat</text>
</g>
<!-- n2&#45;&gt;n4 -->
<!-- S -->
<g id="e19" class="edge">
<title>n2:s&#45;&gt;n4:n</title>
<path fill="none" stroke="black" d="M552.54,-675.69C552.54,-638.61 487.84,-661.72 480.26,-631.69"/>
<polygon fill="black" stroke="black" points="482.02,-631.71 479.71,-626.94 478.55,-632.11 482.02,-631.71"/>
<text xml:space="preserve" text-anchor="middle" x="545.69" y="-644.39" font-family="Serif" font-size="14.00">S</text>
</g>
<!-- n13 -->
<!-- Query wolves -->
<g id="n13" class="node">
<title>n13</title>
<polygon fill="yellow" stroke="none" points="334.16,-625.44 246.91,-625.44 246.91,-601.19 334.16,-601.19 334.16,-625.44"/>
<polygon fill="none" stroke="black" points="246.91,-601.19 246.91,-625.44 334.16,-625.44 334.16,-601.19 246.91,-601.19"/>
<text xml:space="preserve" text-anchor="start" x="251.91" y="-610.69" font-family="Serif" font-size="14.00">Query wolves</text>
</g>
<!-- n2&#45;&gt;n13 -->
<g id="e32" class="edge">
<title>n2:s&#45;&gt;n13:n</title>
<path fill="none" stroke="black" d="M525.95,-675.69C525.95,-648.5 301.75,-653.66 271.98,-630.77"/>
<polygon fill="black" stroke="black" points="273.61,-630.09 269.51,-626.73 270.62,-631.91 273.61,-630.09"/>
</g>
<!-- n5 -->
<!-- turn -->
<g id="n5" class="node">
<title>n5</title>
<polygon fill="lightpink" stroke="none" points="499.54,-550.94 427.54,-550.94 427.54,-526.69 499.54,-526.69 499.54,-550.94"/>
<polygon fill="none" stroke="black" points="427.54,-526.69 427.54,-550.94 499.54,-550.94 499.54,-526.69 427.54,-526.69"/>
<text xml:space="preserve" text-anchor="start" x="452.29" y="-536.19" font-family="Serif" font-size="14.00">turn</text>
</g>
<!-- n4&#45;&gt;n5 -->
<!-- S -->
<g id="e24" class="edge">
<title>n4:s&#45;&gt;n5:n</title>
<path fill="none" stroke="black" d="M463.16,-601.19C463.16,-581.12 463.46,-574.58 463.53,-557.26"/>
<polygon fill="black" stroke="black" points="465.27,-557.46 463.53,-552.45 461.77,-557.45 465.27,-557.46"/>
<text xml:space="preserve" text-anchor="middle" x="467.19" y="-569.89" font-family="Serif" font-size="14.00">S</text>
</g>
<!-- n4&#45;&gt;n5 -->
<!-- S -->
<g id="e25" class="edge">
<title>n4:s&#45;&gt;n5:n</title>
<path fill="none" stroke="black" d="M495.91,-601.19C495.91,-589.77 472,-570.68 465.28,-557.1"/>
<polygon fill="black" stroke="black" points="466.99,-556.73 463.95,-552.4 463.62,-557.68 466.99,-556.73"/>
<text xml:space="preserve" text-anchor="middle" x="489.19" y="-569.89" font-family="Serif" font-size="14.00">S</text>
</g>
<!-- n6 -->
<!-- turn_left -->
<g id="n6" class="node">
<title>n6</title>
<polygon fill="lightblue" stroke="none" points="416.16,-476.44 358.91,-476.44 358.91,-452.19 416.16,-452.19 416.16,-476.44"/>
<polygon fill="none" stroke="black" points="358.91,-452.19 358.91,-476.44 416.16,-476.44 416.16,-452.19 358.91,-452.19"/>
<text xml:space="preserve" text-anchor="start" x="363.91" y="-461.69" font-family="Serif" font-size="14.00">turn_left</text>
</g>
<!-- n5&#45;&gt;n6 -->
<!-- S -->
<g id="e22" class="edge">
<title>n5:s&#45;&gt;n6:n</title>
<path fill="none" stroke="black" d="M439.54,-526.69C439.54,-496.94 394.97,-506.75 388.35,-482.87"/>
<polygon fill="black" stroke="black" points="390.09,-482.68 387.73,-477.94 386.62,-483.12 390.09,-482.68"/>
<text xml:space="preserve" text-anchor="middle" x="433.34" y="-495.39" font-family="Serif" font-size="14.00">S</text>
</g>
<!-- n7 -->
<!-- turn_right -->
<g id="n7" class="node">
<title>n7</title>
<polygon fill="lightblue" stroke="none" points="543.29,-476.44 477.79,-476.44 477.79,-452.19 543.29,-452.19 543.29,-476.44"/>
<polygon fill="none" stroke="black" points="477.79,-452.19 477.79,-476.44 543.29,-476.44 543.29,-452.19 477.79,-452.19"/>
<text xml:space="preserve" text-anchor="start" x="482.79" y="-461.69" font-family="Serif" font-size="14.00">turn_right</text>
</g>
<!-- n5&#45;&gt;n7 -->
<!-- S -->
<g id="e21" class="edge">
<title>n5:s&#45;&gt;n7:n</title>
<path fill="none" stroke="black" d="M487.54,-526.69C487.54,-504.43 506.43,-501.42 509.97,-482.77"/>
<polygon fill="black" stroke="black" points="511.7,-483.08 510.4,-477.95 508.21,-482.77 511.7,-483.08"/>
<text xml:space="preserve" text-anchor="middle" x="508.12" y="-495.39" font-family="Serif" font-size="14.00">S</text>
</g>
<!-- n8 -->
<!-- move_fwd -->
<g id="n8" class="node">
<title>n8</title>
<polygon fill="lightblue" stroke="none" points="500.79,-401.94 432.29,-401.94 432.29,-377.69 500.79,-377.69 500.79,-401.94"/>
<polygon fill="none" stroke="black" points="432.29,-377.69 432.29,-401.94 500.79,-401.94 500.79,-377.69 432.29,-377.69"/>
<text xml:space="preserve" text-anchor="start" x="437.29" y="-387.19" font-family="Serif" font-size="14.00">move_fwd</text>
</g>
<!-- n5&#45;&gt;n8 -->
<!-- S -->
<g id="e26" class="edge">
<title>n5:s&#45;&gt;n8:n</title>
<path fill="none" stroke="black" d="M463.54,-526.69C463.54,-493.56 459.23,-485.27 461.04,-452.19 462.14,-432.04 465.7,-425.67 466.41,-408.29"/>
<polygon fill="black" stroke="black" points="468.16,-408.49 466.51,-403.45 464.66,-408.42 468.16,-408.49"/>
<text xml:space="preserve" text-anchor="middle" x="464.79" y="-458.14" font-family="Serif" font-size="14.00">S</text>
</g>
<!-- n6&#45;&gt;n8 -->
<!-- S -->
<g id="e27" class="edge">
<title>n6:s&#45;&gt;n8:n</title>
<path fill="none" stroke="black" d="M373.22,-452.19C373.22,-436.42 375.8,-429.89 388.04,-419.94 413.85,-398.94 459.52,-432.37 465.81,-408.41"/>
<polygon fill="black" stroke="black" points="467.55,-408.61 466.37,-403.44 464.07,-408.22 467.55,-408.61"/>
<text xml:space="preserve" text-anchor="middle" x="391.79" y="-420.89" font-family="Serif" font-size="14.00">S</text>
</g>
<!-- n6&#45;&gt;n8 -->
<!-- S -->
<g id="e28" class="edge">
<title>n6:s&#45;&gt;n8:n</title>
<path fill="none" stroke="black" d="M401.85,-452.19C401.85,-432.86 415.67,-431.67 431.04,-419.94 443.12,-410.71 460.65,-417.12 465.34,-407.87"/>
<polygon fill="black" stroke="black" points="466.97,-408.67 466.24,-403.42 463.54,-407.98 466.97,-408.67"/>
<text xml:space="preserve" text-anchor="middle" x="434.79" y="-420.89" font-family="Serif" font-size="14.00">S</text>
</g>
<!-- n7&#45;&gt;n8 -->
<!-- S -->
<g id="e13" class="edge">
<title>n7:s&#45;&gt;n8:n</title>
<path fill="none" stroke="black" d="M526.91,-452.19C526.91,-434.22 516.35,-431.43 502.54,-419.94 490.72,-410.11 472.62,-417.09 467.77,-407.9"/>
<polygon fill="black" stroke="black" points="469.57,-407.96 466.84,-403.42 466.14,-408.67 469.57,-407.96"/>
<text xml:space="preserve" text-anchor="middle" x="524.17" y="-420.89" font-family="Serif" font-size="14.00">S</text>
</g>
<!-- n7&#45;&gt;n8 -->
<!-- S -->
<g id="e29" class="edge">
<title>n7:s&#45;&gt;n8:n</title>
<path fill="none" stroke="black" d="M494.16,-452.19C494.16,-428.99 471.28,-427.51 467.16,-408.21"/>
<polygon fill="black" stroke="black" points="468.93,-408.25 466.69,-403.45 465.44,-408.6 468.93,-408.25"/>
<text xml:space="preserve" text-anchor="middle" x="491.23" y="-420.89" font-family="Serif" font-size="14.00">S</text>
</g>
<!-- n9 -->
<!-- reprod -->
<g id="n9" class="node">
<title>n9</title>
<polygon fill="lightpink" stroke="none" points="507.54,-327.44 459.54,-327.44 459.54,-303.19 507.54,-303.19 507.54,-327.44"/>
<polygon fill="none" stroke="black" points="459.54,-303.19 459.54,-327.44 507.54,-327.44 507.54,-303.19 459.54,-303.19"/>
<text xml:space="preserve" text-anchor="start" x="465.91" y="-312.69" font-family="Serif" font-size="14.00">reprod</text>
</g>
<!-- n8&#45;&gt;n9 -->
<!-- S -->
<g id="e11" class="edge">
<title>n8:s&#45;&gt;n9:n</title>
<path fill="none" stroke="black" d="M449.41,-377.69C449.41,-363.21 446.07,-357.53 454.04,-345.44 461.03,-334.82 476.67,-339.98 481.84,-333.34"/>
<polygon fill="black" stroke="black" points="483.42,-334.18 483.12,-328.89 480.06,-333.22 483.42,-334.18"/>
<text xml:space="preserve" text-anchor="middle" x="457.79" y="-346.39" font-family="Serif" font-size="14.00">S</text>
</g>
<!-- n8&#45;&gt;n9 -->
<!-- S -->
<g id="e12" class="edge">
<title>n8:s&#45;&gt;n9:n</title>
<path fill="none" stroke="black" d="M483.66,-377.69C483.66,-357.62 483.56,-351.08 483.54,-333.76"/>
<polygon fill="black" stroke="black" points="485.29,-333.95 483.54,-328.95 481.79,-333.95 485.29,-333.95"/>
<text xml:space="preserve" text-anchor="middle" x="487.38" y="-346.39" font-family="Serif" font-size="14.00">S</text>
</g>
<!-- n10 -->
<!-- reproduce -->
<g id="n10" class="node">
<title>n10</title>
<polygon fill="lightblue" stroke="none" points="503.54,-252.94 439.54,-252.94 439.54,-228.69 503.54,-228.69 503.54,-252.94"/>
<polygon fill="none" stroke="black" points="439.54,-228.69 439.54,-252.94 503.54,-252.94 503.54,-228.69 439.54,-228.69"/>
<text xml:space="preserve" text-anchor="start" x="444.54" y="-238.19" font-family="Serif" font-size="14.00">reproduce</text>
</g>
<!-- n9&#45;&gt;n10 -->
<!-- S -->
<g id="e18" class="edge">
<title>n9:s&#45;&gt;n10:n</title>
<path fill="none" stroke="black" d="M471.54,-303.19C471.54,-283.12 471.54,-276.58 471.54,-259.26"/>
<polygon fill="black" stroke="black" points="473.29,-259.45 471.54,-254.45 469.79,-259.45 473.29,-259.45"/>
<text xml:space="preserve" text-anchor="middle" x="475.29" y="-271.89" font-family="Serif" font-size="14.00">S</text>
</g>
<!-- n11 -->
<!-- starve -->
<g id="n11" class="node">
<title>n11</title>
<polygon fill="lightblue" stroke="none" points="578.54,-178.44 530.54,-178.44 530.54,-154.19 578.54,-154.19 578.54,-178.44"/>
<polygon fill="none" stroke="black" points="530.54,-154.19 530.54,-178.44 578.54,-178.44 578.54,-154.19 530.54,-154.19"/>
<text xml:space="preserve" text-anchor="start" x="538.04" y="-163.69" font-family="Serif" font-size="14.00">starve</text>
</g>
<!-- n9&#45;&gt;n11 -->
<!-- S -->
<g id="e23" class="edge">
<title>n9:s&#45;&gt;n11:n</title>
<path fill="none" stroke="black" d="M495.54,-303.19C495.54,-254.43 540.88,-257.5 554.54,-210.69 557.89,-199.19 555.64,-194.4 554.81,-184.76"/>
<polygon fill="black" stroke="black" points="556.56,-184.87 554.6,-179.95 553.07,-185.02 556.56,-184.87"/>
<text xml:space="preserve" text-anchor="middle" x="549.9" y="-234.64" font-family="Serif" font-size="14.00">S</text>
</g>
<!-- n10&#45;&gt;n11 -->
<!-- S -->
<g id="e16" class="edge">
<title>n10:s&#45;&gt;n11:n</title>
<path fill="none" stroke="black" d="M487.54,-228.69C487.54,-193.79 546.42,-212.88 553.78,-184.73"/>
<polygon fill="black" stroke="black" points="555.5,-185.12 554.36,-179.94 552.02,-184.7 555.5,-185.12"/>
<text xml:space="preserve" text-anchor="middle" x="547.05" y="-197.39" font-family="Serif" font-size="14.00">S</text>
</g>
<!-- n10&#45;&gt;n11 -->
<!-- S -->
<g id="e20" class="edge">
<title>n10:s&#45;&gt;n11:n</title>
<path fill="none" stroke="black" d="M455.54,-228.69C455.54,-204.26 478.29,-207.57 500.04,-196.44 520.61,-185.91 548.65,-200.63 553.73,-184.5"/>
<polygon fill="black" stroke="black" points="555.41,-185.13 554.34,-179.94 551.94,-184.67 555.41,-185.13"/>
<text xml:space="preserve" text-anchor="middle" x="503.79" y="-197.39" font-family="Serif" font-size="14.00">S</text>
</g>
<!-- n11&#45;&gt;n2 -->
<g id="e15" class="edge">
<title>n11:s&#45;&gt;n2:n</title>
<path fill="none" stroke="black" d="M542.54,-153.19C542.54,-147.84 534.16,-150.25 530.54,-154.19 523.24,-162.12 529.85,-167.68 530.54,-178.44 539.67,-322.47 571.54,-356.24 571.54,-500.56 571.54,-614.32 571.54,-614.32 571.54,-614.32 571.54,-643.13 587.71,-647.26 592.41,-675.69 594.17,-686.32 599.84,-692.13 592.41,-699.94 588.3,-704.26 580.71,-707.23 576.18,-706.03"/>
<polygon fill="black" stroke="black" points="577.72,-705.17 573.36,-702.16 574.89,-707.24 577.72,-705.17"/>
</g>
<!-- n12 -->
<g id="n12" class="node">
<title>n12</title>
<polygon fill="lavender" stroke="none" points="602.54,-96.81 578.54,-96.81 578.54,-86.81 602.54,-86.81 602.54,-96.81"/>
<polygon fill="none" stroke="black" points="578.54,-86.81 578.54,-96.81 602.54,-96.81 602.54,-86.81 578.54,-86.81"/>
</g>
<!-- n11&#45;&gt;n12 -->
<!-- S (in) -->
<g id="e10" class="edge">
<title>n11:s&#45;&gt;n12:n</title>
<path fill="none" stroke="black" d="M566.54,-154.19C566.54,-139.82 563.17,-135.16 568.79,-121.94 573.46,-110.94 585.31,-111.51 589.24,-103.84"/>
<polygon fill="black" stroke="black" points="590.88,-104.55 590.22,-99.29 587.46,-103.82 590.88,-104.55"/>
<text xml:space="preserve" text-anchor="middle" x="584.16" y="-122.89" font-family="Serif" font-size="14.00">S (in)</text>
</g>
<!-- n12&#45;&gt;n2 -->
<!--  (out) -->
<g id="e14" class="edge">
<title>n12:s&#45;&gt;n2:n</title>
<path fill="none" stroke="black" d="M590.54,-85.81C590.54,-80.46 598.65,-83.14 602.54,-86.81 628.14,-111.02 613.54,-130.09 613.54,-165.31 613.54,-614.32 613.54,-614.32 613.54,-614.32 613.54,-653.51 622.65,-675 592.41,-699.94 587.92,-703.64 580.74,-706.74 576.33,-705.92"/>
<polygon fill="black" stroke="black" points="577.84,-705.02 573.4,-702.14 575.08,-707.16 577.84,-705.02"/>
<text xml:space="preserve" text-anchor="middle" x="628.54" y="-383.64" font-family="Serif" font-size="14.00"> (out)</text>
</g>
<!-- n14 -->
<!-- Fail -->
<g id="n14" class="node">
<title>n14</title>
<polygon fill="red" stroke="none" points="390.04,-550.94 359.04,-550.94 359.04,-526.69 390.04,-526.69 390.04,-550.94"/>
<polygon fill="none" stroke="black" points="359.04,-526.69 359.04,-550.94 390.04,-550.94 390.04,-526.69 359.04,-526.69"/>
<text xml:space="preserve" text-anchor="start" x="364.04" y="-536.19" font-family="Serif" font-size="14.00">Fail</text>
</g>
<!-- n13&#45;&gt;n14 -->
<g id="e40" class="edge">
<title>n13:s&#45;&gt;n14:n</title>
<path fill="none" stroke="black" d="M319.62,-601.19C319.62,-587.53 334.3,-592.23 344.54,-583.19 357.37,-571.85 370.71,-570.65 373.85,-557.41"/>
<polygon fill="black" stroke="black" points="375.59,-557.6 374.38,-552.45 372.11,-557.23 375.59,-557.6"/>
</g>
<!-- n15 -->
<!-- Wolf_eat -->
<g id="n15" class="node">
<title>n15</title>
<polygon fill="lightblue" stroke="none" points="263.29,-550.94 203.79,-550.94 203.79,-526.69 263.29,-526.69 263.29,-550.94"/>
<polygon fill="none" stroke="black" points="203.79,-526.69 203.79,-550.94 263.29,-550.94 263.29,-526.69 203.79,-526.69"/>
<text xml:space="preserve" text-anchor="start" x="208.79" y="-536.19" font-family="Serif" font-size="14.00">Wolf_eat</text>
</g>
<!-- n13&#45;&gt;n15 -->
<!-- W -->
<g id="e42" class="edge">
<title>n13:s&#45;&gt;n15:n</title>
<path fill="none" stroke="black" d="M290.54,-601.19C290.54,-587.32 275.59,-592.19 265.04,-583.19 251.57,-571.72 237.33,-570.98 234.18,-557.18"/>
<polygon fill="black" stroke="black" points="235.94,-557.24 233.69,-552.45 232.46,-557.6 235.94,-557.24"/>
<text xml:space="preserve" text-anchor="middle" x="271.79" y="-569.89" font-family="Serif" font-size="14.00">W</text>
</g>
<!-- n24 -->
<!-- Query grass -->
<g id="n24" class="node">
<title>n24</title>
<polygon fill="yellow" stroke="none" points="145.29,-550.94 67.79,-550.94 67.79,-526.69 145.29,-526.69 145.29,-550.94"/>
<polygon fill="none" stroke="black" points="67.79,-526.69 67.79,-550.94 145.29,-550.94 145.29,-526.69 67.79,-526.69"/>
<text xml:space="preserve" text-anchor="start" x="72.79" y="-536.19" font-family="Serif" font-size="14.00">Query grass</text>
</g>
<!-- n13&#45;&gt;n24 -->
<g id="e2" class="edge">
<title>n13:s&#45;&gt;n24:n</title>
<path fill="none" stroke="black" d="M261.45,-601.19C261.45,-594.68 218.62,-571.25 212.54,-568.94 188.28,-559.73 102.2,-576.12 88.89,-556.69"/>
<polygon fill="black" stroke="black" points="90.72,-556.67 87.6,-552.39 87.36,-557.68 90.72,-556.67"/>
</g>
<!-- n16 -->
<!-- turn -->
<g id="n16" class="node">
<title>n16</title>
<polygon fill="lightpink" stroke="none" points="246.54,-476.44 174.54,-476.44 174.54,-452.19 246.54,-452.19 246.54,-476.44"/>
<polygon fill="none" stroke="black" points="174.54,-452.19 174.54,-476.44 246.54,-476.44 246.54,-452.19 174.54,-452.19"/>
<text xml:space="preserve" text-anchor="start" x="199.29" y="-461.69" font-family="Serif" font-size="14.00">turn</text>
</g>
<!-- n15&#45;&gt;n16 -->
<!-- W -->
<g id="e47" class="edge">
<title>n15:s&#45;&gt;n16:n</title>
<path fill="none" stroke="black" d="M218.66,-526.69C218.66,-518.17 213.73,-517.05 212.04,-508.69 209.66,-496.93 210.21,-492.32 210.45,-482.75"/>
<polygon fill="black" stroke="black" points="212.2,-482.98 210.52,-477.95 208.7,-482.93 212.2,-482.98"/>
<text xml:space="preserve" text-anchor="middle" x="218.79" y="-495.39" font-family="Serif" font-size="14.00">W</text>
</g>
<!-- n15&#45;&gt;n16 -->
<!-- W -->
<g id="e48" class="edge">
<title>n15:s&#45;&gt;n16:n</title>
<path fill="none" stroke="black" d="M248.41,-526.69C248.41,-509.12 236.25,-508.37 225.54,-494.44 220.77,-488.25 214.72,-487.08 211.99,-482.49"/>
<polygon fill="black" stroke="black" points="213.76,-482.37 210.89,-477.91 210.35,-483.18 213.76,-482.37"/>
<text xml:space="preserve" text-anchor="middle" x="246.67" y="-495.39" font-family="Serif" font-size="14.00">W</text>
</g>
<!-- n17 -->
<!-- turn_left -->
<g id="n17" class="node">
<title>n17</title>
<polygon fill="lightblue" stroke="none" points="131.16,-401.94 73.91,-401.94 73.91,-377.69 131.16,-377.69 131.16,-401.94"/>
<polygon fill="none" stroke="black" points="73.91,-377.69 73.91,-401.94 131.16,-401.94 131.16,-377.69 73.91,-377.69"/>
<text xml:space="preserve" text-anchor="start" x="78.91" y="-387.19" font-family="Serif" font-size="14.00">turn_left</text>
</g>
<!-- n16&#45;&gt;n17 -->
<!-- W -->
<g id="e45" class="edge">
<title>n16:s&#45;&gt;n17:n</title>
<path fill="none" stroke="black" d="M186.54,-452.19C186.54,-430.03 159.05,-445.58 140.04,-434.19 123.24,-424.13 106.62,-423.84 103.18,-408.37"/>
<polygon fill="black" stroke="black" points="104.93,-408.25 102.69,-403.45 101.44,-408.6 104.93,-408.25"/>
<text xml:space="preserve" text-anchor="middle" x="146.79" y="-420.89" font-family="Serif" font-size="14.00">W</text>
</g>
<!-- n18 -->
<!-- turn_right -->
<g id="n18" class="node">
<title>n18</title>
<polygon fill="lightblue" stroke="none" points="264.29,-401.94 198.79,-401.94 198.79,-377.69 264.29,-377.69 264.29,-401.94"/>
<polygon fill="none" stroke="black" points="198.79,-377.69 198.79,-401.94 264.29,-401.94 264.29,-377.69 198.79,-377.69"/>
<text xml:space="preserve" text-anchor="start" x="203.79" y="-387.19" font-family="Serif" font-size="14.00">turn_right</text>
</g>
<!-- n16&#45;&gt;n18 -->
<!-- W -->
<g id="e44" class="edge">
<title>n16:s&#45;&gt;n18:n</title>
<path fill="none" stroke="black" d="M234.54,-452.19C234.54,-432.09 232.11,-425.61 231.62,-408.27"/>
<polygon fill="black" stroke="black" points="233.37,-408.43 231.56,-403.45 229.88,-408.48 233.37,-408.43"/>
<text xml:space="preserve" text-anchor="middle" x="240.48" y="-420.89" font-family="Serif" font-size="14.00">W</text>
</g>
<!-- n19 -->
<!-- move_fwd -->
<g id="n19" class="node">
<title>n19</title>
<polygon fill="lightblue" stroke="none" points="208.79,-327.44 140.29,-327.44 140.29,-303.19 208.79,-303.19 208.79,-327.44"/>
<polygon fill="none" stroke="black" points="140.29,-303.19 140.29,-327.44 208.79,-327.44 208.79,-303.19 140.29,-303.19"/>
<text xml:space="preserve" text-anchor="start" x="145.29" y="-312.69" font-family="Serif" font-size="14.00">move_fwd</text>
</g>
<!-- n16&#45;&gt;n19 -->
<!-- W -->
<g id="e49" class="edge">
<title>n16:s&#45;&gt;n19:n</title>
<path fill="none" stroke="black" d="M210.54,-452.19C210.54,-425.1 184.32,-427.73 176.04,-401.94 166.58,-372.5 173.47,-361.96 174.43,-333.74"/>
<polygon fill="black" stroke="black" points="176.18,-333.98 174.51,-328.95 172.68,-333.92 176.18,-333.98"/>
<text xml:space="preserve" text-anchor="middle" x="182.79" y="-383.64" font-family="Serif" font-size="14.00">W</text>
</g>
<!-- n17&#45;&gt;n19 -->
<!-- W -->
<g id="e9" class="edge">
<title>n17:s&#45;&gt;n19:n</title>
<path fill="none" stroke="black" d="M116.85,-377.69C116.85,-360.04 126.7,-357 140.04,-345.44 151.06,-335.88 168.04,-341.95 173.08,-333.69"/>
<polygon fill="black" stroke="black" points="174.76,-334.18 174.19,-328.91 171.35,-333.39 174.76,-334.18"/>
<text xml:space="preserve" text-anchor="middle" x="146.79" y="-346.39" font-family="Serif" font-size="14.00">W</text>
</g>
<!-- n17&#45;&gt;n19 -->
<!-- W -->
<g id="e31" class="edge">
<title>n17:s&#45;&gt;n19:n</title>
<path fill="none" stroke="black" d="M88.22,-377.69C88.22,-361.32 93.12,-355.5 106.04,-345.44 128.93,-327.61 167.83,-354.11 173.77,-333.7"/>
<polygon fill="black" stroke="black" points="175.48,-334.12 174.35,-328.94 172,-333.69 175.48,-334.12"/>
<text xml:space="preserve" text-anchor="middle" x="112.79" y="-346.39" font-family="Serif" font-size="14.00">W</text>
</g>
<!-- n18&#45;&gt;n19 -->
<!-- W -->
<g id="e30" class="edge">
<title>n18:s&#45;&gt;n19:n</title>
<path fill="none" stroke="black" d="M215.16,-377.69C215.16,-351.33 180.93,-355.22 175.31,-333.82"/>
<polygon fill="black" stroke="black" points="177.06,-333.69 174.72,-328.94 173.58,-334.12 177.06,-333.69"/>
<text xml:space="preserve" text-anchor="middle" x="213.14" y="-346.39" font-family="Serif" font-size="14.00">W</text>
</g>
<!-- n18&#45;&gt;n19 -->
<!-- W -->
<g id="e36" class="edge">
<title>n18:s&#45;&gt;n19:n</title>
<path fill="none" stroke="black" d="M247.91,-377.69C247.91,-359.72 237.97,-356.14 223.54,-345.44 206.94,-333.14 181.04,-346.87 175.57,-333.64"/>
<polygon fill="black" stroke="black" points="177.33,-333.58 174.79,-328.93 173.88,-334.15 177.33,-333.58"/>
<text xml:space="preserve" text-anchor="middle" x="248.39" y="-346.39" font-family="Serif" font-size="14.00">W</text>
</g>
<!-- n20 -->
<!-- reprod -->
<g id="n20" class="node">
<title>n20</title>
<polygon fill="lightpink" stroke="none" points="218.54,-252.94 170.54,-252.94 170.54,-228.69 218.54,-228.69 218.54,-252.94"/>
<polygon fill="none" stroke="black" points="170.54,-228.69 170.54,-252.94 218.54,-252.94 218.54,-228.69 170.54,-228.69"/>
<text xml:space="preserve" text-anchor="start" x="176.91" y="-238.19" font-family="Serif" font-size="14.00">reprod</text>
</g>
<!-- n19&#45;&gt;n20 -->
<!-- W -->
<g id="e34" class="edge">
<title>n19:s&#45;&gt;n20:n</title>
<path fill="none" stroke="black" d="M157.41,-303.19C157.41,-288.84 151.22,-282.98 159.04,-270.94 167.16,-258.42 186.85,-266.81 192.8,-259.11"/>
<polygon fill="black" stroke="black" points="194.46,-259.68 194.13,-254.4 191.09,-258.74 194.46,-259.68"/>
<text xml:space="preserve" text-anchor="middle" x="165.79" y="-271.89" font-family="Serif" font-size="14.00">W</text>
</g>
<!-- n19&#45;&gt;n20 -->
<!-- W -->
<g id="e35" class="edge">
<title>n19:s&#45;&gt;n20:n</title>
<path fill="none" stroke="black" d="M191.66,-303.19C191.66,-283.09 193.98,-276.6 194.45,-259.27"/>
<polygon fill="black" stroke="black" points="196.2,-259.48 194.52,-254.45 192.7,-259.43 196.2,-259.48"/>
<text xml:space="preserve" text-anchor="middle" x="200.51" y="-271.89" font-family="Serif" font-size="14.00">W</text>
</g>
<!-- n21 -->
<!-- reproduce -->
<g id="n21" class="node">
<title>n21</title>
<polygon fill="lightblue" stroke="none" points="214.54,-178.44 150.54,-178.44 150.54,-154.19 214.54,-154.19 214.54,-178.44"/>
<polygon fill="none" stroke="black" points="150.54,-154.19 150.54,-178.44 214.54,-178.44 214.54,-154.19 150.54,-154.19"/>
<text xml:space="preserve" text-anchor="start" x="155.54" y="-163.69" font-family="Serif" font-size="14.00">reproduce</text>
</g>
<!-- n20&#45;&gt;n21 -->
<!-- W -->
<g id="e41" class="edge">
<title>n20:s&#45;&gt;n21:n</title>
<path fill="none" stroke="black" d="M182.54,-228.69C182.54,-208.62 182.54,-202.08 182.54,-184.76"/>
<polygon fill="black" stroke="black" points="184.29,-184.95 182.54,-179.95 180.79,-184.95 184.29,-184.95"/>
<text xml:space="preserve" text-anchor="middle" x="189.29" y="-197.39" font-family="Serif" font-size="14.00">W</text>
</g>
<!-- n22 -->
<!-- starve -->
<g id="n22" class="node">
<title>n22</title>
<polygon fill="lightblue" stroke="none" points="283.54,-103.94 235.54,-103.94 235.54,-79.69 283.54,-79.69 283.54,-103.94"/>
<polygon fill="none" stroke="black" points="235.54,-79.69 235.54,-103.94 283.54,-103.94 283.54,-79.69 235.54,-79.69"/>
<text xml:space="preserve" text-anchor="start" x="243.04" y="-89.19" font-family="Serif" font-size="14.00">starve</text>
</g>
<!-- n20&#45;&gt;n22 -->
<!-- W -->
<g id="e46" class="edge">
<title>n20:s&#45;&gt;n22:n</title>
<path fill="none" stroke="black" d="M206.54,-228.69C206.54,-179.69 252.63,-183.18 266.54,-136.19 268.33,-130.12 267.7,-128.16 266.54,-121.94 265.45,-116.14 262.55,-113.86 260.84,-110.22"/>
<polygon fill="black" stroke="black" points="262.57,-109.96 259.84,-105.42 259.15,-110.67 262.57,-109.96"/>
<text xml:space="preserve" text-anchor="middle" x="264.75" y="-160.14" font-family="Serif" font-size="14.00">W</text>
</g>
<!-- n21&#45;&gt;n22 -->
<!-- W -->
<g id="e39" class="edge">
<title>n21:s&#45;&gt;n22:n</title>
<path fill="none" stroke="black" d="M198.54,-154.19C198.54,-121.4 251.7,-136.65 258.76,-110.24"/>
<polygon fill="black" stroke="black" points="260.48,-110.62 259.35,-105.44 257.01,-110.19 260.48,-110.62"/>
<text xml:space="preserve" text-anchor="middle" x="256.06" y="-122.89" font-family="Serif" font-size="14.00">W</text>
</g>
<!-- n21&#45;&gt;n22 -->
<!-- W -->
<g id="e43" class="edge">
<title>n21:s&#45;&gt;n22:n</title>
<path fill="none" stroke="black" d="M166.54,-154.19C166.54,-133.84 181.53,-132.32 199.04,-121.94 221.09,-108.86 253.38,-128.09 258.76,-110.07"/>
<polygon fill="black" stroke="black" points="260.45,-110.62 259.35,-105.44 256.98,-110.18 260.45,-110.62"/>
<text xml:space="preserve" text-anchor="middle" x="205.79" y="-122.89" font-family="Serif" font-size="14.00">W</text>
</g>
<!-- n22&#45;&gt;n13 -->
<g id="e38" class="edge">
<title>n22:s&#45;&gt;n13:n</title>
<path fill="none" stroke="black" d="M247.54,-78.69C247.54,-73.34 239.16,-75.75 235.54,-79.69 218.47,-98.24 234.11,-111.81 240.54,-136.19 245.66,-155.61 247.87,-160.33 256.54,-178.44 270.18,-206.97 292.54,-208.19 292.54,-239.81 292.54,-539.82 292.54,-539.82 292.54,-539.82 292.54,-561.85 303.38,-565.52 316.54,-583.19 323.22,-592.17 329.93,-590.82 334.16,-601.19 338.23,-611.17 341.61,-617.65 334.16,-625.44 329.45,-630.37 320.58,-633.66 315.73,-631.81"/>
<polygon fill="black" stroke="black" points="317.3,-631.02 313.16,-627.72 314.34,-632.88 317.3,-631.02"/>
</g>
<!-- n23 -->
<g id="n23" class="node">
<title>n23</title>
<polygon fill="lavender" stroke="none" points="320.54,-29.44 296.54,-29.44 296.54,-19.44 320.54,-19.44 320.54,-29.44"/>
<polygon fill="none" stroke="black" points="296.54,-19.44 296.54,-29.44 320.54,-29.44 320.54,-19.44 296.54,-19.44"/>
</g>
<!-- n22&#45;&gt;n23 -->
<!-- W -->
<g id="e33" class="edge">
<title>n22:s&#45;&gt;n23:n</title>
<path fill="none" stroke="black" d="M271.54,-79.69C271.54,-54.34 302.45,-56.52 307.76,-35.9"/>
<polygon fill="black" stroke="black" points="309.5,-36.12 308.36,-30.94 306.02,-35.7 309.5,-36.12"/>
<text xml:space="preserve" text-anchor="middle" x="306.34" y="-48.39" font-family="Serif" font-size="14.00">W</text>
</g>
<!-- n23&#45;&gt;n13 -->
<g id="e37" class="edge">
<title>n23:s&#45;&gt;n13:n</title>
<path fill="none" stroke="black" d="M308.54,-18.44C308.54,-13.09 316.65,-15.76 320.54,-19.44 343.81,-41.45 330.54,-58.78 330.54,-90.81 330.54,-539.82 330.54,-539.82 330.54,-539.82 330.54,-567.14 333.36,-573.88 334.16,-601.19 334.48,-611.96 341.61,-617.65 334.16,-625.44 329.45,-630.37 320.58,-633.66 315.73,-631.81"/>
<polygon fill="black" stroke="black" points="317.3,-631.02 313.16,-627.72 314.34,-632.88 317.3,-631.02"/>
</g>
<!-- n24&#45;&gt;n1 -->
<g id="e5" class="edge">
<title>n24:s&#45;&gt;n1:n</title>
<path fill="none" stroke="black" d="M80.7,-525.69C80.7,-513.37 41.61,-510.87 67.79,-550.94 112.84,-619.92 161.4,-593.96 237.54,-625.44 274.11,-640.56 283.22,-644.52 320.54,-657.69 334.23,-662.52 560.97,-725.22 569.54,-736.94 575.9,-745.64 577,-753.41 569.54,-761.19 564.11,-766.85 553.71,-770.49 548.57,-767.8"/>
<polygon fill="black" stroke="black" points="550.17,-767.09 546.26,-763.52 547.09,-768.75 550.17,-767.09"/>
</g>
<!-- n25 -->
<!-- Fail -->
<g id="n25" class="node">
<title>n25</title>
<polygon fill="red" stroke="none" points="156.04,-476.44 125.04,-476.44 125.04,-452.19 156.04,-452.19 156.04,-476.44"/>
<polygon fill="none" stroke="black" points="125.04,-452.19 125.04,-476.44 156.04,-476.44 156.04,-452.19 125.04,-452.19"/>
<text xml:space="preserve" text-anchor="start" x="130.04" y="-461.69" font-family="Serif" font-size="14.00">Fail</text>
</g>
<!-- n24&#45;&gt;n25 -->
<g id="e3" class="edge">
<title>n24:s&#45;&gt;n25:n</title>
<path fill="none" stroke="black" d="M132.37,-526.69C132.37,-506.36 138.96,-500.26 140.3,-482.83"/>
<polygon fill="black" stroke="black" points="142.04,-483.01 140.48,-477.95 138.55,-482.88 142.04,-483.01"/>
</g>
<!-- n26 -->
<!-- GrassIncrements -->
<g id="n26" class="node">
<title>n26</title>
<polygon fill="lightblue" stroke="none" points="107.29,-476.44 5.79,-476.44 5.79,-452.19 107.29,-452.19 107.29,-476.44"/>
<polygon fill="none" stroke="black" points="5.79,-452.19 5.79,-476.44 107.29,-476.44 107.29,-452.19 5.79,-452.19"/>
<text xml:space="preserve" text-anchor="start" x="10.79" y="-461.69" font-family="Serif" font-size="14.00">GrassIncrements</text>
</g>
<!-- n24&#45;&gt;n26 -->
<!-- G -->
<g id="e8" class="edge">
<title>n24:s&#45;&gt;n26:n</title>
<path fill="none" stroke="black" d="M106.54,-526.69C106.54,-500.23 65.41,-530.04 49.79,-508.69 42.49,-498.72 52.31,-493.04 55.56,-482.71"/>
<polygon fill="black" stroke="black" points="57.26,-483.15 56.3,-477.94 53.8,-482.61 57.26,-483.15"/>
<text xml:space="preserve" text-anchor="middle" x="54.66" y="-495.39" font-family="Serif" font-size="14.00">G</text>
</g>
<!-- n26&#45;&gt;n24 -->
<!-- G -->
<g id="e4" class="edge">
<title>n26:s&#45;&gt;n24:n</title>
<path fill="none" stroke="black" d="M31.16,-451.19C31.16,-442.34 -15.51,-447.02 5.79,-476.44 20.81,-497.19 37.29,-483.67 60.54,-494.44 71.53,-499.53 72.71,-503.78 83.79,-508.69 109.82,-520.23 128.21,-503.9 145.29,-526.69 151.75,-535.32 152.71,-543.13 145.29,-550.94 141.39,-555.04 134.26,-557.9 129.82,-556.95"/>
<polygon fill="black" stroke="black" points="131.3,-556 126.84,-553.13 128.54,-558.15 131.3,-556"/>
<text xml:space="preserve" text-anchor="middle" x="88.66" y="-495.39" font-family="Serif" font-size="14.00">G</text>
</g>
<!-- n26&#45;&gt;n24 -->
<!-- G -->
<g id="e6" class="edge">
<title>n26:s&#45;&gt;n24:n</title>
<path fill="none" stroke="black" d="M81.91,-451.19C81.91,-439.9 98.57,-445.02 107.29,-452.19 117.26,-460.39 113.65,-497.93 120.79,-508.69 128.26,-519.95 139.18,-514.63 145.29,-526.69 150.15,-536.31 152.71,-543.13 145.29,-550.94 141.39,-555.04 134.26,-557.9 129.82,-556.95"/>
<polygon fill="black" stroke="black" points="131.3,-556 126.84,-553.13 128.54,-558.15 131.3,-556"/>
<text xml:space="preserve" text-anchor="middle" x="125.66" y="-495.39" font-family="Serif" font-size="14.00">G</text>
</g>
</g>
</svg>
