<?xml version="1.0" encoding="UTF-8" standalone="no"?>
<!DOCTYPE svg PUBLIC "-//W3C//DTD SVG 1.1//EN"
 "http://www.w3.org/Graphics/SVG/1.1/DTD/svg11.dtd">
<!-- Generated by graphviz version 14.1.5 (0)
 -->
<!-- Title: G Pages: 1 -->
<svg width="207pt" height="188pt"
 viewBox="0.00 0.00 207.00 188.00" xmlns="http://www.w3.org/2000/svg" xmlns:xlink="http://www.w3.org/1999/xlink">
<g id="graph0" class="graph" transform="scale(1 1) rotate(0) translate(4 184)">
<title>G</title>
<polygon fill="white" stroke="none" points="-4,4 -4,-184 202.68,-184 202.68,4 -4,4"/>
<!-- v1 -->
<g id="node1" class="node">
<title>v1</title>
<ellipse fill="lightgreen" stroke="lightgreen" cx="19.63" cy="-18" rx="18" ry="18"/>
</g>
<!-- v2 -->
<g id="node2" class="node">
<title>v2</title>
<ellipse fill="tan" stroke="tan" cx="19.63" cy="-90" rx="19.63" ry="19.63"/>
<text xml:space="preserve" text-anchor="middle" x="19.63" y="-84.57" font-family="Times,serif" font-size="14.00">13</text>
</g>
<!-- v3 -->
<g id="node3" class="node">
<title>v3</title>
<ellipse fill="lightgreen" stroke="lightgreen" cx="19.63" cy="-162" rx="18" ry="18"/>
</g>
<!-- v4 -->
<g id="node4" class="node">
<title>v4</title>
<ellipse fill="lightgreen" stroke="lightgreen" cx="91.63" cy="-18" rx="18" ry="18"/>
</g>
<!-- v5 -->
<g id="node5" class="node">
<title>v5</title>
<ellipse fill="tan" stroke="tan" cx="91.63" cy="-90" rx="18" ry="18"/>
<text xml:space="preserve" text-anchor="middle" x="91.63" y="-84.57" font-family="Times,serif" font-size="14.00">5</text>
</g>
<!-- v6 -->
<g id="node6" class="node">
<title>v6</title>
<ellipse fill="lightgreen" stroke="lightgreen" cx="91.63" cy="-162" rx="18" ry="18"/>
</g>
<!-- v7 -->
<g id="node7" class="node">
<title>v7</title>
<ellipse fill="lightgreen" stroke="lightgreen" cx="163.63" cy="-18" rx="18" ry="18"/>
</g>
<!-- v8 -->
<g id="node8" class="node">
<title>v8</title>
<ellipse fill="lightgreen" stroke="lightgreen" cx="163.63" cy="-90" rx="18" ry="18"/>
</g>
<!-- v9 -->
<g id="node9" class="node">
<title>v9</title>
<ellipse fill="lightgreen" stroke="lightgreen" cx="163.63" cy="-162" rx="18" ry="18"/>
</g>
<!-- w1 -->
<g id="node10" class="node">
<title>w1</title>
<polygon fill="red" stroke="red" points="31.73,-51.98 10.13,-51.98 10.13,-30.38 31.73,-30.38 31.73,-51.98"/>
<text xml:space="preserve" text-anchor="middle" x="20.93" y="-35.75" font-family="Times,serif" font-size="14.00">1⁵</text>
</g>
<!-- w2 -->
<g id="node11" class="node">
<title>w2</title>
<polygon fill="red" stroke="red" points="198.68,-101.57 177.08,-101.57 177.08,-79.97 198.68,-79.97 198.68,-101.57"/>
<text xml:space="preserve" text-anchor="middle" x="187.88" y="-85.34" font-family="Times,serif" font-size="14.00">2⁵</text>
</g>
<!-- s1 -->
<g id="node12" class="node">
<title>s1</title>
<polygon fill="lightblue" stroke="lightblue" points="36.19,-50.91 14.59,-50.91 14.59,-29.31 36.19,-29.31 36.19,-50.91"/>
<text xml:space="preserve" text-anchor="middle" x="25.39" y="-34.69" font-family="Times,serif" font-size="14.00">1⁵</text>
</g>
<!-- s2 -->
<g id="node13" class="node">
<title>s2</title>
<polygon fill="lightblue" stroke="lightblue" points="192.84,-177.1 171.24,-177.1 171.24,-155.5 192.84,-155.5 192.84,-177.1"/>
<text xml:space="preserve" text-anchor="middle" x="182.04" y="-160.88" font-family="Times,serif" font-size="14.00">2⁵</text>
</g>
</g>
</svg>
