<?xml version="1.0" encoding="UTF-8" standalone="no"?>
<!DOCTYPE svg PUBLIC "-//W3C//DTD SVG 1.1//EN"
 "http://www.w3.org/Graphics/SVG/1.1/DTD/svg11.dtd">
<!-- Generated by graphviz version 14.1.5 (0)
 -->
<!-- Title: G Pages: 1 -->
<svg width="719pt" height="857pt"
 viewBox="0.00 0.00 719.00 857.00" xmlns="http://www.w3.org/2000/svg" xmlns:xlink="http://www.w3.org/1999/xlink">
<g id="graph0" class="graph" transform="scale(1 1) rotate(0) translate(4 853.38)">
<title>G</title>
<polygon fill="white" stroke="none" points="-4,4 -4,-853.38 714.52,-853.38 714.52,4 -4,4"/>
<text xml:space="preserve" text-anchor="middle" x="355.26" y="-832.08" font-family="Serif" font-size="14.00">Found 2 agents</text>
<text xml:space="preserve" text-anchor="middle" x="355.26" y="-817.83" font-family="Serif" font-size="14.00">New agent (1 remaining )</text>
<!-- n0in1 -->
<!-- n1 -->
<!-- while -->
<g id="n1" class="node">
<title>n1</title>
<polygon fill="lightpink" stroke="none" points="570.54,-774.44 522.54,-774.44 522.54,-750.19 570.54,-750.19 570.54,-774.44"/>
<polygon fill="none" stroke="black" points="522.54,-750.19 522.54,-774.44 570.54,-774.44 570.54,-750.19 522.54,-750.19"/>
<text xml:space="preserve" text-anchor="start" x="531.54" y="-759.69" font-family="Serif" font-size="14.00">while</text>
</g>
<!-- n0in1&#45;&gt;n1 -->
<g id="e1" class="edge">
<title>n0in1:s&#45;&gt;n1:n</title>
<path fill="none" stroke="black" d="M546.54,-811.44C546.54,-797.31 546.54,-792.28 546.54,-780.71"/>
<polygon fill="black" stroke="black" points="548.29,-780.95 546.54,-775.95 544.79,-780.95 548.29,-780.95"/>
</g>
<!-- n0out1 -->
<!-- n1&#45;&gt;n0out1 -->
<g id="e50" class="edge">
<title>n1:s&#45;&gt;n0out1:n</title>
<path fill="none" stroke="black" d="M558.54,-750.19C558.54,-682.25 698.54,-756.75 698.54,-688.82 698.54,-688.82 698.54,-688.82 698.54,-53.56 698.54,-32.57 698.54,-25.85 698.54,-7.53"/>
<polygon fill="black" stroke="black" points="700.29,-7.95 698.54,-2.95 696.79,-7.95 700.29,-7.95"/>
</g>
<!-- n2 -->
<!-- Query sheep -->
<g id="n2" class="node">
<title>n2</title>
<polygon fill="yellow" stroke="none" points="593.41,-699.94 513.66,-699.94 513.66,-675.69 593.41,-675.69 593.41,-699.94"/>
<polygon fill="none" stroke="black" points="513.66,-675.69 513.66,-699.94 593.41,-699.94 593.41,-675.69 513.66,-675.69"/>
<text xml:space="preserve" text-anchor="start" x="518.66" y="-685.19" font-family="Serif" font-size="14.00">Query sheep</text>
</g>
<!-- n1&#45;&gt;n2 -->
<!--  (in) -->
<g id="e7" class="edge">
<title>n1:s&#45;&gt;n2:n</title>
<path fill="none" stroke="black" d="M534.54,-750.19C534.54,-730.12 533.78,-723.58 533.63,-706.26"/>
<polygon fill="black" stroke="black" points="535.38,-706.45 533.6,-701.45 531.88,-706.46 535.38,-706.45"/>
<text xml:space="preserve" text-anchor="middle" x="545.91" y="-718.89" font-family="Serif" font-size="14.00"> (in)</text>
</g>
<!-- n3 -->
<!-- Fail -->
<g id="n3" class="node">
<title>n3</title>
<polygon fill="red" stroke="none" points="670.04,-625.44 639.04,-625.44 639.04,-601.19 670.04,-601.19 670.04,-625.44"/>
<polygon fill="none" stroke="black" points="639.04,-601.19 639.04,-625.44 670.04,-625.44 670.04,-601.19 639.04,-601.19"/>
<text xml:space="preserve" text-anchor="start" x="644.04" y="-610.69" font-family="Serif" font-size="14.00">Fail</text>
</g>
<!-- n2&#45;&gt;n3 -->
<g id="e17" class="edge">
<title>n2:s&#45;&gt;n3:n</title>
<path fill="none" stroke="black" d="M580.12,-675.69C580.12,-654.39 607,-669.77 624.54,-657.69 638.77,-647.89 651.25,-645.51 653.98,-631.62"/>
<polygon fill="black" stroke="black" points="655.7,-632.08 654.4,-626.95 652.21,-631.77 655.7,-632.08"/>
</g>
<!-- n4 -->
<!-- Sheep_eat -->
<g id="n4" class="node">
<title>n4</title>
<polygon fill="lightblue" stroke="none" points="512.29,-625.44 446.79,-625.44 446.79,-601.19 512.29,-601.19 512.29,-625.44"/>
<polygon fill="none" stroke="black" points="446.79,-601.19 446.79,-625.44 512.29,-625.44 512.29,-601.19 446.79,-601.19"/>
<text xml:space="preserve" text-anchor="start" x="451.79" y="-610.69" font-family="Serif" font-size="14.00">Sheep_eat</text>
</g>
<!-- n2&#45;&gt;n4 -->
<!-- S (out) -->
<g id="e19" class="edge">
<title>n2:s&#45;&gt;n4:n</title>
<path fill="none" stroke="black" d="M553.54,-675.69C553.54,-659.18 534.82,-666.78 521.04,-657.69 503.52,-646.13 483.98,-648.17 480.19,-631.76"/>
<polygon fill="black" stroke="black" points="481.95,-631.74 479.69,-626.95 478.47,-632.1 481.95,-631.74"/>
<text xml:space="preserve" text-anchor="middle" x="539.79" y="-644.39" font-family="Serif" font-size="14.00">S (out)</text>
</g>
<!-- n13 -->
<!-- Query wolves -->
<g id="n13" class="node">
<title>n13</title>
<polygon fill="yellow" stroke="none" points="335.16,-625.44 247.91,-625.44 247.91,-601.19 335.16,-601.19 335.16,-625.44"/>
<polygon fill="none" stroke="black" points="247.91,-601.19 247.91,-625.44 335.16,-625.44 335.16,-601.19 247.91,-601.19"/>
<text xml:space="preserve" text-anchor="start" x="252.91" y="-610.69" font-family="Serif" font-size="14.00">Query wolves</text>
</g>
<!-- n2&#45;&gt;n13 -->
<g id="e32" class="edge">
<title>n2:s&#45;&gt;n13:n</title>
<path fill="none" stroke="black" d="M526.95,-675.69C526.95,-648.5 302.75,-653.66 272.98,-630.77"/>
<polygon fill="black" stroke="black" points="274.61,-630.09 270.51,-626.73 271.62,-631.91 274.61,-630.09"/>
</g>
<!-- n5 -->
<!-- turn -->
<g id="n5" class="node">
<title>n5</title>
<polygon fill="lightpink" stroke="none" points="499.54,-550.94 427.54,-550.94 427.54,-526.69 499.54,-526.69 499.54,-550.94"/>
<polygon fill="none" stroke="black" points="427.54,-526.69 427.54,-550.94 499.54,-550.94 499.54,-526.69 427.54,-526.69"/>
<text xml:space="preserve" text-anchor="start" x="452.29" y="-536.19" font-family="Serif" font-size="14.00">turn</text>
</g>
<!-- n4&#45;&gt;n5 -->
<!-- S -->
<g id="e24" class="edge">
<title>n4:s&#45;&gt;n5:n</title>
<path fill="none" stroke="black" d="M463.16,-601.19C463.16,-581.12 463.46,-574.58 463.53,-557.26"/>
<polygon fill="black" stroke="black" points="465.27,-557.46 463.53,-552.45 461.77,-557.45 465.27,-557.46"/>
<text xml:space="preserve" text-anchor="middle" x="467.19" y="-569.89" font-family="Serif" font-size="14.00">S</text>
</g>
<!-- n4&#45;&gt;n5 -->
<!-- S -->
<g id="e25" class="edge">
<title>n4:s&#45;&gt;n5:n</title>
<path fill="none" stroke="black" d="M495.91,-601.19C495.91,-589.77 472,-570.68 465.28,-557.1"/>
<polygon fill="black" stroke="black" points="466.99,-556.73 463.95,-552.4 463.62,-557.68 466.99,-556.73"/>
<text xml:space="preserve" text-anchor="middle" x="489.19" y="-569.89" font-family="Serif" font-size="14.00">S</text>
</g>
<!-- n6 -->
<!-- turn_left -->
<g id="n6" class="node">
<title>n6</title>
<polygon fill="lightblue" stroke="none" points="417.16,-476.44 359.91,-476.44 359.91,-452.19 417.16,-452.19 417.16,-476.44"/>
<polygon fill="none" stroke="black" points="359.91,-452.19 359.91,-476.44 417.16,-476.44 417.16,-452.19 359.91,-452.19"/>
<text xml:space="preserve" text-anchor="start" x="364.91" y="-461.69" font-family="Serif" font-size="14.00">turn_left</text>
</g>
<!-- n5&#45;&gt;n6 -->
<!-- S -->
<g id="e22" class="edge">
<title>n5:s&#45;&gt;n6:n</title>
<path fill="none" stroke="black" d="M439.54,-526.69C439.54,-497.23 395.83,-506.52 389.34,-482.81"/>
<polygon fill="black" stroke="black" points="391.08,-482.68 388.72,-477.94 387.61,-483.12 391.08,-482.68"/>
<text xml:space="preserve" text-anchor="middle" x="433.53" y="-495.39" font-family="Serif" font-size="14.00">S</text>
</g>
<!-- n7 -->
<!-- turn_right -->
<g id="n7" class="node">
<title>n7</title>
<polygon fill="lightblue" stroke="none" points="544.29,-476.44 478.79,-476.44 478.79,-452.19 544.29,-452.19 544.29,-476.44"/>
<polygon fill="none" stroke="black" points="478.79,-452.19 478.79,-476.44 544.29,-476.44 544.29,-452.19 478.79,-452.19"/>
<text xml:space="preserve" text-anchor="start" x="483.79" y="-461.69" font-family="Serif" font-size="14.00">turn_right</text>
</g>
<!-- n5&#45;&gt;n7 -->
<!-- S -->
<g id="e21" class="edge">
<title>n5:s&#45;&gt;n7:n</title>
<path fill="none" stroke="black" d="M487.54,-526.69C487.54,-504.26 507.25,-501.54 510.94,-482.81"/>
<polygon fill="black" stroke="black" points="512.67,-483.09 511.4,-477.95 509.19,-482.76 512.67,-483.09"/>
<text xml:space="preserve" text-anchor="middle" x="508.85" y="-495.39" font-family="Serif" font-size="14.00">S</text>
</g>
<!-- n8 -->
<!-- move_fwd -->
<g id="n8" class="node">
<title>n8</title>
<polygon fill="lightblue" stroke="none" points="497.79,-401.94 429.29,-401.94 429.29,-377.69 497.79,-377.69 497.79,-401.94"/>
<polygon fill="none" stroke="black" points="429.29,-377.69 429.29,-401.94 497.79,-401.94 497.79,-377.69 429.29,-377.69"/>
<text xml:space="preserve" text-anchor="start" x="434.29" y="-387.19" font-family="Serif" font-size="14.00">move_fwd</text>
</g>
<!-- n5&#45;&gt;n8 -->
<!-- S -->
<g id="e26" class="edge">
<title>n5:s&#45;&gt;n8:n</title>
<path fill="none" stroke="black" d="M463.54,-526.69C463.54,-504.35 462.37,-498.78 462.04,-476.44 461.88,-465.66 461.88,-462.97 462.04,-452.19 462.34,-432.12 463.31,-425.59 463.5,-408.26"/>
<polygon fill="black" stroke="black" points="465.25,-408.46 463.53,-403.45 461.75,-408.44 465.25,-408.46"/>
<text xml:space="preserve" text-anchor="middle" x="465.79" y="-458.14" font-family="Serif" font-size="14.00">S</text>
</g>
<!-- n6&#45;&gt;n8 -->
<!-- S -->
<g id="e27" class="edge">
<title>n6:s&#45;&gt;n8:n</title>
<path fill="none" stroke="black" d="M374.22,-452.19C374.22,-436.42 376.86,-429.96 389.04,-419.94 413.38,-399.9 456.5,-430.73 462.77,-408.39"/>
<polygon fill="black" stroke="black" points="464.5,-408.61 463.36,-403.44 461.03,-408.2 464.5,-408.61"/>
<text xml:space="preserve" text-anchor="middle" x="392.79" y="-420.89" font-family="Serif" font-size="14.00">S</text>
</g>
<!-- n6&#45;&gt;n8 -->
<!-- S -->
<g id="e28" class="edge">
<title>n6:s&#45;&gt;n8:n</title>
<path fill="none" stroke="black" d="M402.85,-452.19C402.85,-432.86 416.97,-432.05 432.04,-419.94 442.64,-411.42 457.77,-415.94 462.25,-407.88"/>
<polygon fill="black" stroke="black" points="463.86,-408.68 463.21,-403.42 460.44,-407.93 463.86,-408.68"/>
<text xml:space="preserve" text-anchor="middle" x="435.79" y="-420.89" font-family="Serif" font-size="14.00">S</text>
</g>
<!-- n7&#45;&gt;n8 -->
<!-- S -->
<g id="e13" class="edge">
<title>n7:s&#45;&gt;n8:n</title>
<path fill="none" stroke="black" d="M527.91,-452.19C527.91,-433.39 515.39,-431.47 500.54,-419.94 488.12,-410.31 469.72,-417.44 464.79,-408.03"/>
<polygon fill="black" stroke="black" points="466.56,-407.97 463.84,-403.42 463.13,-408.67 466.56,-407.97"/>
<text xml:space="preserve" text-anchor="middle" x="524.13" y="-420.89" font-family="Serif" font-size="14.00">S</text>
</g>
<!-- n7&#45;&gt;n8 -->
<!-- S -->
<g id="e29" class="edge">
<title>n7:s&#45;&gt;n8:n</title>
<path fill="none" stroke="black" d="M495.16,-452.19C495.16,-428.17 468.96,-428.11 464.26,-408.39"/>
<polygon fill="black" stroke="black" points="466,-408.22 463.7,-403.44 462.52,-408.61 466,-408.22"/>
<text xml:space="preserve" text-anchor="middle" x="491.27" y="-420.89" font-family="Serif" font-size="14.00">S</text>
</g>
<!-- n9 -->
<!-- reprod -->
<g id="n9" class="node">
<title>n9</title>
<polygon fill="lightpink" stroke="none" points="504.54,-327.44 456.54,-327.44 456.54,-303.19 504.54,-303.19 504.54,-327.44"/>
<polygon fill="none" stroke="black" points="456.54,-303.19 456.54,-327.44 504.54,-327.44 504.54,-303.19 456.54,-303.19"/>
<text xml:space="preserve" text-anchor="start" x="462.91" y="-312.69" font-family="Serif" font-size="14.00">reprod</text>
</g>
<!-- n8&#45;&gt;n9 -->
<!-- S -->
<g id="e11" class="edge">
<title>n8:s&#45;&gt;n9:n</title>
<path fill="none" stroke="black" d="M446.41,-377.69C446.41,-363.21 443.07,-357.53 451.04,-345.44 458.03,-334.82 473.67,-339.98 478.84,-333.34"/>
<polygon fill="black" stroke="black" points="480.42,-334.18 480.12,-328.89 477.06,-333.22 480.42,-334.18"/>
<text xml:space="preserve" text-anchor="middle" x="454.79" y="-346.39" font-family="Serif" font-size="14.00">S</text>
</g>
<!-- n8&#45;&gt;n9 -->
<!-- S -->
<g id="e12" class="edge">
<title>n8:s&#45;&gt;n9:n</title>
<path fill="none" stroke="black" d="M480.66,-377.69C480.66,-357.62 480.56,-351.08 480.54,-333.76"/>
<polygon fill="black" stroke="black" points="482.29,-333.95 480.54,-328.95 478.79,-333.95 482.29,-333.95"/>
<text xml:space="preserve" text-anchor="middle" x="484.38" y="-346.39" font-family="Serif" font-size="14.00">S</text>
</g>
<!-- n10 -->
<!-- reproduce -->
<g id="n10" class="node">
<title>n10</title>
<polygon fill="lightblue" stroke="none" points="500.54,-252.94 436.54,-252.94 436.54,-228.69 500.54,-228.69 500.54,-252.94"/>
<polygon fill="none" stroke="black" points="436.54,-228.69 436.54,-252.94 500.54,-252.94 500.54,-228.69 436.54,-228.69"/>
<text xml:space="preserve" text-anchor="start" x="441.54" y="-238.19" font-family="Serif" font-size="14.00">reproduce</text>
</g>
<!-- n9&#45;&gt;n10 -->
<!-- S -->
<g id="e18" class="edge">
<title>n9:s&#45;&gt;n10:n</title>
<path fill="none" stroke="black" d="M468.54,-303.19C468.54,-283.12 468.54,-276.58 468.54,-259.26"/>
<polygon fill="black" stroke="black" points="470.29,-259.45 468.54,-254.45 466.79,-259.45 470.29,-259.45"/>
<text xml:space="preserve" text-anchor="middle" x="472.29" y="-271.89" font-family="Serif" font-size="14.00">S</text>
</g>
<!-- n11 -->
<!-- starve -->
<g id="n11" class="node">
<title>n11</title>
<polygon fill="lightblue" stroke="none" points="575.54,-178.44 527.54,-178.44 527.54,-154.19 575.54,-154.19 575.54,-178.44"/>
<polygon fill="none" stroke="black" points="527.54,-154.19 527.54,-178.44 575.54,-178.44 575.54,-154.19 527.54,-154.19"/>
<text xml:space="preserve" text-anchor="start" x="535.04" y="-163.69" font-family="Serif" font-size="14.00">starve</text>
</g>
<!-- n9&#45;&gt;n11 -->
<!-- S -->
<g id="e23" class="edge">
<title>n9:s&#45;&gt;n11:n</title>
<path fill="none" stroke="black" d="M492.54,-303.19C492.54,-254.43 537.88,-257.5 551.54,-210.69 554.89,-199.19 552.64,-194.4 551.81,-184.76"/>
<polygon fill="black" stroke="black" points="553.56,-184.87 551.6,-179.95 550.07,-185.02 553.56,-184.87"/>
<text xml:space="preserve" text-anchor="middle" x="546.9" y="-234.64" font-family="Serif" font-size="14.00">S</text>
</g>
<!-- n10&#45;&gt;n11 -->
<!-- S -->
<g id="e16" class="edge">
<title>n10:s&#45;&gt;n11:n</title>
<path fill="none" stroke="black" d="M484.54,-228.69C484.54,-193.79 543.42,-212.88 550.78,-184.73"/>
<polygon fill="black" stroke="black" points="552.5,-185.12 551.36,-179.94 549.02,-184.7 552.5,-185.12"/>
<text xml:space="preserve" text-anchor="middle" x="544.05" y="-197.39" font-family="Serif" font-size="14.00">S</text>
</g>
<!-- n10&#45;&gt;n11 -->
<!-- S -->
<g id="e20" class="edge">
<title>n10:s&#45;&gt;n11:n</title>
<path fill="none" stroke="black" d="M452.54,-228.69C452.54,-204.26 475.29,-207.57 497.04,-196.44 517.61,-185.91 545.65,-200.63 550.73,-184.5"/>
<polygon fill="black" stroke="black" points="552.41,-185.13 551.34,-179.94 548.94,-184.67 552.41,-185.13"/>
<text xml:space="preserve" text-anchor="middle" x="500.79" y="-197.39" font-family="Serif" font-size="14.00">S</text>
</g>
<!-- n11&#45;&gt;n2 -->
<g id="e15" class="edge">
<title>n11:s&#45;&gt;n2:n</title>
<path fill="none" stroke="black" d="M539.54,-153.19C539.54,-147.84 531.16,-150.25 527.54,-154.19 510.47,-172.74 527.7,-185.95 532.54,-210.69 536.24,-229.63 536.04,-234.77 542.54,-252.94 552.76,-281.53 572.54,-283.95 572.54,-314.31 572.54,-614.32 572.54,-614.32 572.54,-614.32 572.54,-643.13 588.71,-647.26 593.41,-675.69 595.17,-686.32 600.84,-692.13 593.41,-699.94 589.3,-704.26 581.71,-707.23 577.18,-706.03"/>
<polygon fill="black" stroke="black" points="578.72,-705.17 574.36,-702.16 575.89,-707.24 578.72,-705.17"/>
</g>
<!-- n12 -->
<g id="n12" class="node">
<title>n12</title>
<polygon fill="lavender" stroke="none" points="604.54,-96.81 580.54,-96.81 580.54,-86.81 604.54,-86.81 604.54,-96.81"/>
<polygon fill="none" stroke="black" points="580.54,-86.81 580.54,-96.81 604.54,-96.81 604.54,-86.81 580.54,-86.81"/>
</g>
<!-- n11&#45;&gt;n12 -->
<!-- S -->
<g id="e10" class="edge">
<title>n11:s&#45;&gt;n12:n</title>
<path fill="none" stroke="black" d="M563.54,-154.19C563.54,-128.33 587.97,-126.18 591.98,-104.21"/>
<polygon fill="black" stroke="black" points="593.72,-104.46 592.41,-99.32 590.23,-104.15 593.72,-104.46"/>
<text xml:space="preserve" text-anchor="middle" x="585.24" y="-122.89" font-family="Serif" font-size="14.00">S</text>
</g>
<!-- n12&#45;&gt;n2 -->
<g id="e14" class="edge">
<title>n12:s&#45;&gt;n2:n</title>
<path fill="none" stroke="black" d="M592.54,-85.81C592.54,-80.46 600.76,-83.02 604.54,-86.81 629.19,-111.64 610.54,-130.32 610.54,-165.31 610.54,-614.32 610.54,-614.32 610.54,-614.32 610.54,-653.12 622.8,-674.59 593.41,-699.94 589,-703.74 581.79,-706.81 577.36,-705.96"/>
<polygon fill="black" stroke="black" points="578.85,-705.02 574.4,-702.14 576.08,-707.16 578.85,-705.02"/>
</g>
<!-- n14 -->
<!-- Fail -->
<g id="n14" class="node">
<title>n14</title>
<polygon fill="red" stroke="none" points="391.04,-550.94 360.04,-550.94 360.04,-526.69 391.04,-526.69 391.04,-550.94"/>
<polygon fill="none" stroke="black" points="360.04,-526.69 360.04,-550.94 391.04,-550.94 391.04,-526.69 360.04,-526.69"/>
<text xml:space="preserve" text-anchor="start" x="365.04" y="-536.19" font-family="Serif" font-size="14.00">Fail</text>
</g>
<!-- n13&#45;&gt;n14 -->
<g id="e40" class="edge">
<title>n13:s&#45;&gt;n14:n</title>
<path fill="none" stroke="black" d="M320.62,-601.19C320.62,-587.53 335.3,-592.23 345.54,-583.19 358.37,-571.85 371.71,-570.65 374.85,-557.41"/>
<polygon fill="black" stroke="black" points="376.59,-557.6 375.38,-552.45 373.11,-557.23 376.59,-557.6"/>
</g>
<!-- n15 -->
<!-- Wolf_eat -->
<g id="n15" class="node">
<title>n15</title>
<polygon fill="lightblue" stroke="none" points="263.29,-550.94 203.79,-550.94 203.79,-526.69 263.29,-526.69 263.29,-550.94"/>
<polygon fill="none" stroke="black" points="203.79,-526.69 203.79,-550.94 263.29,-550.94 263.29,-526.69 203.79,-526.69"/>
<text xml:space="preserve" text-anchor="start" x="208.79" y="-536.19" font-family="Serif" font-size="14.00">Wolf_eat</text>
</g>
<!-- n13&#45;&gt;n15 -->
<!-- W -->
<g id="e42" class="edge">
<title>n13:s&#45;&gt;n15:n</title>
<path fill="none" stroke="black" d="M291.54,-601.19C291.54,-587.32 276.66,-592.11 266.04,-583.19 252.27,-571.64 237.48,-571.21 234.2,-557.26"/>
<polygon fill="black" stroke="black" points="235.96,-557.23 233.69,-552.45 232.48,-557.6 235.96,-557.23"/>
<text xml:space="preserve" text-anchor="middle" x="272.79" y="-569.89" font-family="Serif" font-size="14.00">W</text>
</g>
<!-- n24 -->
<!-- Query grass -->
<g id="n24" class="node">
<title>n24</title>
<polygon fill="yellow" stroke="none" points="145.29,-550.94 67.79,-550.94 67.79,-526.69 145.29,-526.69 145.29,-550.94"/>
<polygon fill="none" stroke="black" points="67.79,-526.69 67.79,-550.94 145.29,-550.94 145.29,-526.69 67.79,-526.69"/>
<text xml:space="preserve" text-anchor="start" x="72.79" y="-536.19" font-family="Serif" font-size="14.00">Query grass</text>
</g>
<!-- n13&#45;&gt;n24 -->
<g id="e2" class="edge">
<title>n13:s&#45;&gt;n24:n</title>
<path fill="none" stroke="black" d="M262.45,-601.19C262.45,-594.68 219.62,-571.25 213.54,-568.94 189.08,-559.67 102.31,-576.3 88.91,-556.73"/>
<polygon fill="black" stroke="black" points="90.72,-556.67 87.6,-552.39 87.36,-557.68 90.72,-556.67"/>
</g>
<!-- n16 -->
<!-- turn -->
<g id="n16" class="node">
<title>n16</title>
<polygon fill="lightpink" stroke="none" points="246.54,-476.44 174.54,-476.44 174.54,-452.19 246.54,-452.19 246.54,-476.44"/>
<polygon fill="none" stroke="black" points="174.54,-452.19 174.54,-476.44 246.54,-476.44 246.54,-452.19 174.54,-452.19"/>
<text xml:space="preserve" text-anchor="start" x="199.29" y="-461.69" font-family="Serif" font-size="14.00">turn</text>
</g>
<!-- n15&#45;&gt;n16 -->
<!-- W -->
<g id="e47" class="edge">
<title>n15:s&#45;&gt;n16:n</title>
<path fill="none" stroke="black" d="M218.66,-526.69C218.66,-518.17 213.73,-517.05 212.04,-508.69 209.66,-496.93 210.21,-492.32 210.45,-482.75"/>
<polygon fill="black" stroke="black" points="212.2,-482.98 210.52,-477.95 208.7,-482.93 212.2,-482.98"/>
<text xml:space="preserve" text-anchor="middle" x="218.79" y="-495.39" font-family="Serif" font-size="14.00">W</text>
</g>
<!-- n15&#45;&gt;n16 -->
<!-- W -->
<g id="e48" class="edge">
<title>n15:s&#45;&gt;n16:n</title>
<path fill="none" stroke="black" d="M248.41,-526.69C248.41,-509.12 236.25,-508.37 225.54,-494.44 220.77,-488.25 214.72,-487.08 211.99,-482.49"/>
<polygon fill="black" stroke="black" points="213.76,-482.37 210.89,-477.91 210.35,-483.18 213.76,-482.37"/>
<text xml:space="preserve" text-anchor="middle" x="246.67" y="-495.39" font-family="Serif" font-size="14.00">W</text>
</g>
<!-- n17 -->
<!-- turn_left -->
<g id="n17" class="node">
<title>n17</title>
<polygon fill="lightblue" stroke="none" points="132.16,-401.94 74.91,-401.94 74.91,-377.69 132.16,-377.69 132.16,-401.94"/>
<polygon fill="none" stroke="black" points="74.91,-377.69 74.91,-401.94 132.16,-401.94 132.16,-377.69 74.91,-377.69"/>
<text xml:space="preserve" text-anchor="start" x="79.91" y="-387.19" font-family="Serif" font-size="14.00">turn_left</text>
</g>
<!-- n16&#45;&gt;n17 -->
<!-- W -->
<g id="e45" class="edge">
<title>n16:s&#45;&gt;n17:n</title>
<path fill="none" stroke="black" d="M186.54,-452.19C186.54,-430.44 159.65,-445.44 141.04,-434.19 124.28,-424.07 107.62,-423.83 104.18,-408.37"/>
<polygon fill="black" stroke="black" points="105.93,-408.25 103.69,-403.45 102.45,-408.6 105.93,-408.25"/>
<text xml:space="preserve" text-anchor="middle" x="147.79" y="-420.89" font-family="Serif" font-size="14.00">W</text>
</g>
<!-- n18 -->
<!-- turn_right -->
<g id="n18" class="node">
<title>n18</title>
<polygon fill="lightblue" stroke="none" points="265.29,-401.94 199.79,-401.94 199.79,-377.69 265.29,-377.69 265.29,-401.94"/>
<polygon fill="none" stroke="black" points="199.79,-377.69 199.79,-401.94 265.29,-401.94 265.29,-377.69 199.79,-377.69"/>
<text xml:space="preserve" text-anchor="start" x="204.79" y="-387.19" font-family="Serif" font-size="14.00">turn_right</text>
</g>
<!-- n16&#45;&gt;n18 -->
<!-- W -->
<g id="e44" class="edge">
<title>n16:s&#45;&gt;n18:n</title>
<path fill="none" stroke="black" d="M234.54,-452.19C234.54,-432.11 232.92,-425.59 232.59,-408.27"/>
<polygon fill="black" stroke="black" points="234.35,-408.44 232.55,-403.45 230.85,-408.47 234.35,-408.44"/>
<text xml:space="preserve" text-anchor="middle" x="240.75" y="-420.89" font-family="Serif" font-size="14.00">W</text>
</g>
<!-- n19 -->
<!-- move_fwd -->
<g id="n19" class="node">
<title>n19</title>
<polygon fill="lightblue" stroke="none" points="209.79,-327.44 141.29,-327.44 141.29,-303.19 209.79,-303.19 209.79,-327.44"/>
<polygon fill="none" stroke="black" points="141.29,-303.19 141.29,-327.44 209.79,-327.44 209.79,-303.19 141.29,-303.19"/>
<text xml:space="preserve" text-anchor="start" x="146.29" y="-312.69" font-family="Serif" font-size="14.00">move_fwd</text>
</g>
<!-- n16&#45;&gt;n19 -->
<!-- W -->
<g id="e49" class="edge">
<title>n16:s&#45;&gt;n19:n</title>
<path fill="none" stroke="black" d="M210.54,-452.19C210.54,-425.35 185.07,-427.55 177.04,-401.94 167.78,-372.44 174.5,-361.95 175.43,-333.74"/>
<polygon fill="black" stroke="black" points="177.18,-333.98 175.51,-328.95 173.68,-333.92 177.18,-333.98"/>
<text xml:space="preserve" text-anchor="middle" x="183.79" y="-383.64" font-family="Serif" font-size="14.00">W</text>
</g>
<!-- n17&#45;&gt;n19 -->
<!-- W -->
<g id="e9" class="edge">
<title>n17:s&#45;&gt;n19:n</title>
<path fill="none" stroke="black" d="M117.85,-377.69C117.85,-360.04 127.7,-357 141.04,-345.44 152.06,-335.88 169.04,-341.95 174.08,-333.69"/>
<polygon fill="black" stroke="black" points="175.76,-334.18 175.19,-328.91 172.35,-333.39 175.76,-334.18"/>
<text xml:space="preserve" text-anchor="middle" x="147.79" y="-346.39" font-family="Serif" font-size="14.00">W</text>
</g>
<!-- n17&#45;&gt;n19 -->
<!-- W -->
<g id="e31" class="edge">
<title>n17:s&#45;&gt;n19:n</title>
<path fill="none" stroke="black" d="M89.22,-377.69C89.22,-361.32 94.12,-355.5 107.04,-345.44 129.93,-327.61 168.83,-354.11 174.77,-333.7"/>
<polygon fill="black" stroke="black" points="176.48,-334.12 175.35,-328.94 173,-333.69 176.48,-334.12"/>
<text xml:space="preserve" text-anchor="middle" x="113.79" y="-346.39" font-family="Serif" font-size="14.00">W</text>
</g>
<!-- n18&#45;&gt;n19 -->
<!-- W -->
<g id="e30" class="edge">
<title>n18:s&#45;&gt;n19:n</title>
<path fill="none" stroke="black" d="M216.16,-377.69C216.16,-351.33 181.93,-355.22 176.31,-333.82"/>
<polygon fill="black" stroke="black" points="178.06,-333.69 175.72,-328.94 174.58,-334.12 178.06,-333.69"/>
<text xml:space="preserve" text-anchor="middle" x="214.14" y="-346.39" font-family="Serif" font-size="14.00">W</text>
</g>
<!-- n18&#45;&gt;n19 -->
<!-- W -->
<g id="e36" class="edge">
<title>n18:s&#45;&gt;n19:n</title>
<path fill="none" stroke="black" d="M248.91,-377.69C248.91,-359.45 238.26,-356.21 223.54,-345.44 207.16,-333.46 181.88,-346.61 176.55,-333.54"/>
<polygon fill="black" stroke="black" points="178.33,-333.58 175.78,-328.93 174.87,-334.15 178.33,-333.58"/>
<text xml:space="preserve" text-anchor="middle" x="249.03" y="-346.39" font-family="Serif" font-size="14.00">W</text>
</g>
<!-- n20 -->
<!-- reprod -->
<g id="n20" class="node">
<title>n20</title>
<polygon fill="lightpink" stroke="none" points="219.54,-252.94 171.54,-252.94 171.54,-228.69 219.54,-228.69 219.54,-252.94"/>
<polygon fill="none" stroke="black" points="171.54,-228.69 171.54,-252.94 219.54,-252.94 219.54,-228.69 171.54,-228.69"/>
<text xml:space="preserve" text-anchor="start" x="177.91" y="-238.19" font-family="Serif" font-size="14.00">reprod</text>
</g>
<!-- n19&#45;&gt;n20 -->
<!-- W -->
<g id="e34" class="edge">
<title>n19:s&#45;&gt;n20:n</title>
<path fill="none" stroke="black" d="M158.41,-303.19C158.41,-288.84 152.22,-282.98 160.04,-270.94 168.16,-258.42 187.85,-266.81 193.8,-259.11"/>
<polygon fill="black" stroke="black" points="195.46,-259.68 195.13,-254.4 192.09,-258.74 195.46,-259.68"/>
<text xml:space="preserve" text-anchor="middle" x="166.79" y="-271.89" font-family="Serif" font-size="14.00">W</text>
</g>
<!-- n19&#45;&gt;n20 -->
<!-- W -->
<g id="e35" class="edge">
<title>n19:s&#45;&gt;n20:n</title>
<path fill="none" stroke="black" d="M192.66,-303.19C192.66,-283.09 194.98,-276.6 195.45,-259.27"/>
<polygon fill="black" stroke="black" points="197.2,-259.48 195.52,-254.45 193.7,-259.43 197.2,-259.48"/>
<text xml:space="preserve" text-anchor="middle" x="201.51" y="-271.89" font-family="Serif" font-size="14.00">W</text>
</g>
<!-- n21 -->
<!-- reproduce -->
<g id="n21" class="node">
<title>n21</title>
<polygon fill="lightblue" stroke="none" points="215.54,-178.44 151.54,-178.44 151.54,-154.19 215.54,-154.19 215.54,-178.44"/>
<polygon fill="none" stroke="black" points="151.54,-154.19 151.54,-178.44 215.54,-178.44 215.54,-154.19 151.54,-154.19"/>
<text xml:space="preserve" text-anchor="start" x="156.54" y="-163.69" font-family="Serif" font-size="14.00">reproduce</text>
</g>
<!-- n20&#45;&gt;n21 -->
<!-- W -->
<g id="e41" class="edge">
<title>n20:s&#45;&gt;n21:n</title>
<path fill="none" stroke="black" d="M183.54,-228.69C183.54,-208.62 183.54,-202.08 183.54,-184.76"/>
<polygon fill="black" stroke="black" points="185.29,-184.95 183.54,-179.95 181.79,-184.95 185.29,-184.95"/>
<text xml:space="preserve" text-anchor="middle" x="190.29" y="-197.39" font-family="Serif" font-size="14.00">W</text>
</g>
<!-- n22 -->
<!-- starve -->
<g id="n22" class="node">
<title>n22</title>
<polygon fill="lightblue" stroke="none" points="284.54,-103.94 236.54,-103.94 236.54,-79.69 284.54,-79.69 284.54,-103.94"/>
<polygon fill="none" stroke="black" points="236.54,-79.69 236.54,-103.94 284.54,-103.94 284.54,-79.69 236.54,-79.69"/>
<text xml:space="preserve" text-anchor="start" x="244.04" y="-89.19" font-family="Serif" font-size="14.00">starve</text>
</g>
<!-- n20&#45;&gt;n22 -->
<!-- W -->
<g id="e46" class="edge">
<title>n20:s&#45;&gt;n22:n</title>
<path fill="none" stroke="black" d="M207.54,-228.69C207.54,-179.69 253.63,-183.18 267.54,-136.19 269.33,-130.12 268.7,-128.16 267.54,-121.94 266.45,-116.14 263.55,-113.86 261.84,-110.22"/>
<polygon fill="black" stroke="black" points="263.57,-109.96 260.84,-105.42 260.15,-110.67 263.57,-109.96"/>
<text xml:space="preserve" text-anchor="middle" x="265.75" y="-160.14" font-family="Serif" font-size="14.00">W</text>
</g>
<!-- n21&#45;&gt;n22 -->
<!-- W -->
<g id="e39" class="edge">
<title>n21:s&#45;&gt;n22:n</title>
<path fill="none" stroke="black" d="M199.54,-154.19C199.54,-121.4 252.7,-136.65 259.76,-110.24"/>
<polygon fill="black" stroke="black" points="261.48,-110.62 260.35,-105.44 258.01,-110.19 261.48,-110.62"/>
<text xml:space="preserve" text-anchor="middle" x="257.06" y="-122.89" font-family="Serif" font-size="14.00">W</text>
</g>
<!-- n21&#45;&gt;n22 -->
<!-- W -->
<g id="e43" class="edge">
<title>n21:s&#45;&gt;n22:n</title>
<path fill="none" stroke="black" d="M167.54,-154.19C167.54,-133.84 182.53,-132.32 200.04,-121.94 222.09,-108.86 254.38,-128.09 259.76,-110.07"/>
<polygon fill="black" stroke="black" points="261.45,-110.62 260.35,-105.44 257.98,-110.18 261.45,-110.62"/>
<text xml:space="preserve" text-anchor="middle" x="206.79" y="-122.89" font-family="Serif" font-size="14.00">W</text>
</g>
<!-- n22&#45;&gt;n13 -->
<g id="e38" class="edge">
<title>n22:s&#45;&gt;n13:n</title>
<path fill="none" stroke="black" d="M248.54,-78.69C248.54,-73.34 240.16,-75.75 236.54,-79.69 219.47,-98.24 235.11,-111.81 241.54,-136.19 246.66,-155.61 248.87,-160.33 257.54,-178.44 271.18,-206.97 293.54,-208.19 293.54,-239.81 293.54,-539.82 293.54,-539.82 293.54,-539.82 293.54,-561.85 304.38,-565.52 317.54,-583.19 324.22,-592.17 330.93,-590.82 335.16,-601.19 339.23,-611.17 342.61,-617.65 335.16,-625.44 330.45,-630.37 321.58,-633.66 316.73,-631.81"/>
<polygon fill="black" stroke="black" points="318.3,-631.02 314.16,-627.72 315.34,-632.88 318.3,-631.02"/>
</g>
<!-- n23 -->
<g id="n23" class="node">
<title>n23</title>
<polygon fill="lavender" stroke="none" points="321.54,-29.44 297.54,-29.44 297.54,-19.44 321.54,-19.44 321.54,-29.44"/>
<polygon fill="none" stroke="black" points="297.54,-19.44 297.54,-29.44 321.54,-29.44 321.54,-19.44 297.54,-19.44"/>
</g>
<!-- n22&#45;&gt;n23 -->
<!-- W -->
<g id="e33" class="edge">
<title>n22:s&#45;&gt;n23:n</title>
<path fill="none" stroke="black" d="M272.54,-79.69C272.54,-54.34 303.45,-56.52 308.76,-35.9"/>
<polygon fill="black" stroke="black" points="310.5,-36.12 309.36,-30.94 307.02,-35.7 310.5,-36.12"/>
<text xml:space="preserve" text-anchor="middle" x="307.34" y="-48.39" font-family="Serif" font-size="14.00">W</text>
</g>
<!-- n23&#45;&gt;n13 -->
<g id="e37" class="edge">
<title>n23:s&#45;&gt;n13:n</title>
<path fill="none" stroke="black" d="M309.54,-18.44C309.54,-13.09 317.65,-15.76 321.54,-19.44 344.81,-41.45 331.54,-58.78 331.54,-90.81 331.54,-539.82 331.54,-539.82 331.54,-539.82 331.54,-567.14 334.36,-573.88 335.16,-601.19 335.48,-611.96 342.61,-617.65 335.16,-625.44 330.45,-630.37 321.58,-633.66 316.73,-631.81"/>
<polygon fill="black" stroke="black" points="318.3,-631.02 314.16,-627.72 315.34,-632.88 318.3,-631.02"/>
</g>
<!-- n24&#45;&gt;n1 -->
<g id="e5" class="edge">
<title>n24:s&#45;&gt;n1:n</title>
<path fill="none" stroke="black" d="M80.7,-525.69C80.7,-513.42 41.61,-510.96 67.79,-550.94 113.14,-620.21 161.99,-593.88 238.54,-625.44 275.12,-640.52 284.54,-643.63 321.54,-657.69 328.43,-660.31 566.32,-744.13 570.54,-750.19 576.69,-759.04 578,-766.66 570.54,-774.44 565.11,-780.1 554.71,-783.74 549.57,-781.05"/>
<polygon fill="black" stroke="black" points="551.17,-780.34 547.26,-776.77 548.09,-782 551.17,-780.34"/>
</g>
<!-- n25 -->
<!-- Fail -->
<g id="n25" class="node">
<title>n25</title>
<polygon fill="red" stroke="none" points="156.04,-476.44 125.04,-476.44 125.04,-452.19 156.04,-452.19 156.04,-476.44"/>
<polygon fill="none" stroke="black" points="125.04,-452.19 125.04,-476.44 156.04,-476.44 156.04,-452.19 125.04,-452.19"/>
<text xml:space="preserve" text-anchor="start" x="130.04" y="-461.69" font-family="Serif" font-size="14.00">Fail</text>
</g>
<!-- n24&#45;&gt;n25 -->
<g id="e3" class="edge">
<title>n24:s&#45;&gt;n25:n</title>
<path fill="none" stroke="black" d="M132.37,-526.69C132.37,-506.36 138.96,-500.26 140.3,-482.83"/>
<polygon fill="black" stroke="black" points="142.04,-483.01 140.48,-477.95 138.55,-482.88 142.04,-483.01"/>
</g>
<!-- n26 -->
<!-- GrassIncrements -->
<g id="n26" class="node">
<title>n26</title>
<polygon fill="lightblue" stroke="none" points="107.29,-476.44 5.79,-476.44 5.79,-452.19 107.29,-452.19 107.29,-476.44"/>
<polygon fill="none" stroke="black" points="5.79,-452.19 5.79,-476.44 107.29,-476.44 107.29,-452.19 5.79,-452.19"/>
<text xml:space="preserve" text-anchor="start" x="10.79" y="-461.69" font-family="Serif" font-size="14.00">GrassIncrements</text>
</g>
<!-- n24&#45;&gt;n26 -->
<!-- G -->
<g id="e8" class="edge">
<title>n24:s&#45;&gt;n26:n</title>
<path fill="none" stroke="black" d="M106.54,-526.69C106.54,-500.23 65.41,-530.04 49.79,-508.69 42.49,-498.72 52.31,-493.04 55.56,-482.71"/>
<polygon fill="black" stroke="black" points="57.26,-483.15 56.3,-477.94 53.8,-482.61 57.26,-483.15"/>
<text xml:space="preserve" text-anchor="middle" x="54.66" y="-495.39" font-family="Serif" font-size="14.00">G</text>
</g>
<!-- n26&#45;&gt;n24 -->
<!-- G -->
<g id="e4" class="edge">
<title>n26:s&#45;&gt;n24:n</title>
<path fill="none" stroke="black" d="M31.16,-451.19C31.16,-442.34 -15.51,-447.02 5.79,-476.44 20.81,-497.19 37.29,-483.67 60.54,-494.44 71.53,-499.53 72.71,-503.78 83.79,-508.69 109.82,-520.23 128.21,-503.9 145.29,-526.69 151.75,-535.32 152.71,-543.13 145.29,-550.94 141.39,-555.04 134.26,-557.9 129.82,-556.95"/>
<polygon fill="black" stroke="black" points="131.3,-556 126.84,-553.13 128.54,-558.15 131.3,-556"/>
<text xml:space="preserve" text-anchor="middle" x="88.66" y="-495.39" font-family="Serif" font-size="14.00">G</text>
</g>
<!-- n26&#45;&gt;n24 -->
<!-- G -->
<g id="e6" class="edge">
<title>n26:s&#45;&gt;n24:n</title>
<path fill="none" stroke="black" d="M81.91,-451.19C81.91,-439.9 98.57,-445.02 107.29,-452.19 117.26,-460.39 113.65,-497.93 120.79,-508.69 128.26,-519.95 139.18,-514.63 145.29,-526.69 150.15,-536.31 152.71,-543.13 145.29,-550.94 141.39,-555.04 134.26,-557.9 129.82,-556.95"/>
<polygon fill="black" stroke="black" points="131.3,-556 126.84,-553.13 128.54,-558.15 131.3,-556"/>
<text xml:space="preserve" text-anchor="middle" x="125.66" y="-495.39" font-family="Serif" font-size="14.00">G</text>
</g>
</g>
</svg>
