<?xml version="1.0" encoding="UTF-8" standalone="no"?>
<!DOCTYPE svg PUBLIC "-//W3C//DTD SVG 1.1//EN"
 "http://www.w3.org/Graphics/SVG/1.1/DTD/svg11.dtd">
<!-- Generated by graphviz version 14.1.5 (0)
 -->
<!-- Title: G Pages: 1 -->
<svg width="203pt" height="190pt"
 viewBox="0.00 0.00 203.00 190.00" xmlns="http://www.w3.org/2000/svg" xmlns:xlink="http://www.w3.org/1999/xlink">
<g id="graph0" class="graph" transform="scale(1 1) rotate(0) translate(4 185.63)">
<title>G</title>
<polygon fill="white" stroke="none" points="-4,4 -4,-185.63 199.19,-185.63 199.19,4 -4,4"/>
<!-- v1 -->
<g id="node1" class="node">
<title>v1</title>
<ellipse fill="lightgreen" stroke="lightgreen" cx="19.63" cy="-18" rx="18" ry="18"/>
</g>
<!-- v2 -->
<g id="node2" class="node">
<title>v2</title>
<ellipse fill="tan" stroke="tan" cx="19.63" cy="-90" rx="19.63" ry="19.63"/>
<text xml:space="preserve" text-anchor="middle" x="19.63" y="-84.57" font-family="Times,serif" font-size="14.00">13</text>
</g>
<!-- v3 -->
<g id="node3" class="node">
<title>v3</title>
<ellipse fill="lightgreen" stroke="lightgreen" cx="19.63" cy="-162" rx="18" ry="18"/>
</g>
<!-- v4 -->
<g id="node4" class="node">
<title>v4</title>
<ellipse fill="lightgreen" stroke="lightgreen" cx="91.63" cy="-18" rx="18" ry="18"/>
</g>
<!-- v5 -->
<g id="node5" class="node">
<title>v5</title>
<ellipse fill="tan" stroke="tan" cx="91.63" cy="-90" rx="18" ry="18"/>
<text xml:space="preserve" text-anchor="middle" x="91.63" y="-84.57" font-family="Times,serif" font-size="14.00">5</text>
</g>
<!-- v6 -->
<g id="node6" class="node">
<title>v6</title>
<ellipse fill="lightgreen" stroke="lightgreen" cx="91.63" cy="-162" rx="18" ry="18"/>
</g>
<!-- v7 -->
<g id="node7" class="node">
<title>v7</title>
<ellipse fill="lightgreen" stroke="lightgreen" cx="163.63" cy="-18" rx="18" ry="18"/>
</g>
<!-- v8 -->
<g id="node8" class="node">
<title>v8</title>
<ellipse fill="lightgreen" stroke="lightgreen" cx="163.63" cy="-90" rx="18" ry="18"/>
</g>
<!-- v9 -->
<g id="node9" class="node">
<title>v9</title>
<ellipse fill="tan" stroke="tan" cx="163.63" cy="-162" rx="19.63" ry="19.63"/>
<text xml:space="preserve" text-anchor="middle" x="163.63" y="-156.57" font-family="Times,serif" font-size="14.00">30</text>
</g>
<!-- w1 -->
<g id="node10" class="node">
<title>w1</title>
<polygon fill="red" stroke="red" points="31.9,-53.42 10.3,-53.42 10.3,-31.82 31.9,-31.82 31.9,-53.42"/>
<text xml:space="preserve" text-anchor="middle" x="21.1" y="-37.2" font-family="Times,serif" font-size="14.00">1⁵</text>
</g>
<!-- w2 -->
<g id="node11" class="node">
<title>w2</title>
<polygon fill="red" stroke="red" points="195.19,-104.31 173.59,-104.31 173.59,-82.71 195.19,-82.71 195.19,-104.31"/>
<text xml:space="preserve" text-anchor="middle" x="184.39" y="-88.09" font-family="Times,serif" font-size="14.00">2⁵</text>
</g>
<!-- s1 -->
<g id="node12" class="node">
<title>s1</title>
<polygon fill="lightblue" stroke="lightblue" points="31.16,-48.37 9.56,-48.37 9.56,-26.77 31.16,-26.77 31.16,-48.37"/>
<text xml:space="preserve" text-anchor="middle" x="20.36" y="-32.14" font-family="Times,serif" font-size="14.00">1⁵</text>
</g>
<!-- s3 -->
<g id="node13" class="node">
<title>s3</title>
<polygon fill="lightblue" stroke="lightblue" points="193.62,-177.18 172.02,-177.18 172.02,-155.58 193.62,-155.58 193.62,-177.18"/>
<text xml:space="preserve" text-anchor="middle" x="182.82" y="-160.95" font-family="Times,serif" font-size="14.00">3⁹*</text>
</g>
</g>
</svg>
