<?xml version="1.0" encoding="UTF-8" standalone="no"?>
<!DOCTYPE svg PUBLIC "-//W3C//DTD SVG 1.1//EN"
 "http://www.w3.org/Graphics/SVG/1.1/DTD/svg11.dtd">
<!-- Generated by graphviz version 14.1.5 (0)
 -->
<!-- Title: G Pages: 1 -->
<svg width="206pt" height="190pt"
 viewBox="0.00 0.00 206.00 190.00" xmlns="http://www.w3.org/2000/svg" xmlns:xlink="http://www.w3.org/1999/xlink">
<g id="graph0" class="graph" transform="scale(1 1) rotate(0) translate(4 185.63)">
<title>G</title>
<polygon fill="white" stroke="none" points="-4,4 -4,-185.63 202.12,-185.63 202.12,4 -4,4"/>
<!-- v1 -->
<g id="node1" class="node">
<title>v1</title>
<ellipse fill="lightgreen" stroke="lightgreen" cx="19.63" cy="-18" rx="18" ry="18"/>
</g>
<!-- v2 -->
<g id="node2" class="node">
<title>v2</title>
<ellipse fill="tan" stroke="tan" cx="19.63" cy="-90" rx="19.63" ry="19.63"/>
<text xml:space="preserve" text-anchor="middle" x="19.63" y="-84.58" font-family="Times,serif" font-size="14.00">13</text>
</g>
<!-- v3 -->
<g id="node3" class="node">
<title>v3</title>
<ellipse fill="lightgreen" stroke="lightgreen" cx="19.63" cy="-162" rx="18" ry="18"/>
</g>
<!-- v4 -->
<g id="node4" class="node">
<title>v4</title>
<ellipse fill="lightgreen" stroke="lightgreen" cx="91.63" cy="-18" rx="18" ry="18"/>
</g>
<!-- v5 -->
<g id="node5" class="node">
<title>v5</title>
<ellipse fill="tan" stroke="tan" cx="91.63" cy="-90" rx="18" ry="18"/>
<text xml:space="preserve" text-anchor="middle" x="91.63" y="-84.58" font-family="Times,serif" font-size="14.00">5</text>
</g>
<!-- v6 -->
<g id="node6" class="node">
<title>v6</title>
<ellipse fill="lightgreen" stroke="lightgreen" cx="91.63" cy="-162" rx="18" ry="18"/>
</g>
<!-- v7 -->
<g id="node7" class="node">
<title>v7</title>
<ellipse fill="lightgreen" stroke="lightgreen" cx="163.63" cy="-18" rx="18" ry="18"/>
</g>
<!-- v8 -->
<g id="node8" class="node">
<title>v8</title>
<ellipse fill="lightgreen" stroke="lightgreen" cx="163.63" cy="-90" rx="18" ry="18"/>
</g>
<!-- v9 -->
<g id="node9" class="node">
<title>v9</title>
<ellipse fill="tan" stroke="tan" cx="163.63" cy="-162" rx="19.63" ry="19.63"/>
<text xml:space="preserve" text-anchor="middle" x="163.63" y="-156.58" font-family="Times,serif" font-size="14.00">30</text>
</g>
<!-- w1 -->
<g id="node10" class="node">
<title>w1</title>
<polygon fill="red" stroke="red" points="35.13,-51.45 13.53,-51.45 13.53,-29.85 35.13,-29.85 35.13,-51.45"/>
<text xml:space="preserve" text-anchor="middle" x="24.33" y="-35.22" font-family="Times,serif" font-size="14.00">1⁵</text>
</g>
<!-- w2 -->
<g id="node11" class="node">
<title>w2</title>
<polygon fill="red" stroke="red" points="197.42,-103.79 175.82,-103.79 175.82,-82.19 197.42,-82.19 197.42,-103.79"/>
<text xml:space="preserve" text-anchor="middle" x="186.62" y="-87.56" font-family="Times,serif" font-size="14.00">2⁵</text>
</g>
<!-- s1 -->
<g id="node12" class="node">
<title>s1</title>
<polygon fill="lightblue" stroke="lightblue" points="34.3,-52.24 12.7,-52.24 12.7,-30.64 34.3,-30.64 34.3,-52.24"/>
<text xml:space="preserve" text-anchor="middle" x="23.5" y="-36.01" font-family="Times,serif" font-size="14.00">1⁵</text>
</g>
<!-- s3 -->
<g id="node13" class="node">
<title>s3</title>
<polygon fill="lightblue" stroke="lightblue" points="198.12,-179.71 176.52,-179.71 176.52,-158.11 198.12,-158.11 198.12,-179.71"/>
<text xml:space="preserve" text-anchor="middle" x="187.32" y="-163.49" font-family="Times,serif" font-size="14.00">3⁹*</text>
</g>
</g>
</svg>
